<?xml version="1.0" encoding="UTF-8" standalone="no"?>
<svg
   xmlns:dc="http://purl.org/dc/elements/1.1/"
   xmlns:cc="http://creativecommons.org/ns#"
   xmlns:rdf="http://www.w3.org/1999/02/22-rdf-syntax-ns#"
   xmlns:svg="http://www.w3.org/2000/svg"
   xmlns="http://www.w3.org/2000/svg"
   xmlns:sodipodi="http://sodipodi.sourceforge.net/DTD/sodipodi-0.dtd"
   xmlns:inkscape="http://www.inkscape.org/namespaces/inkscape"
   fill="#3498db"
   viewBox="0 0 70 70"
   width="500px"
   height="500px"
   version="1.1"
   id="svg4"
   sodipodi:docname="icons8-camera-border-500.svg"
   inkscape:version="0.92.4 (unknown)">
  <metadata
     id="metadata10">
    <rdf:RDF>
      <cc:Work
         rdf:about="">
        <dc:format>image/svg+xml</dc:format>
        <dc:type
           rdf:resource="http://purl.org/dc/dcmitype/StillImage" />
      </cc:Work>
    </rdf:RDF>
  </metadata>
  <defs
     id="defs8" />
  <sodipodi:namedview
     pagecolor="#ffffff"
     bordercolor="#666666"
     borderopacity="1"
     objecttolerance="10"
     gridtolerance="10"
     guidetolerance="10"
     inkscape:pageopacity="0"
     inkscape:pageshadow="2"
     inkscape:window-width="704"
     inkscape:window-height="480"
     id="namedview6"
     showgrid="false"
     inkscape:zoom="0.472"
     inkscape:cx="250"
     inkscape:cy="250"
     inkscape:window-x="133"
     inkscape:window-y="61"
     inkscape:window-maximized="0"
     inkscape:current-layer="svg4" />
  <path
     d="m 34.375,15 c -1.902344,0 -3.675781,1.414063 -4.4375,3.375 L 29.3125,20 H 24 v -1 c 0,-0.550781 -0.449219,-1 -1,-1 h -7 c -0.550781,0 -1,0.449219 -1,1 v 1.40625 C 12.136719,21.285156 10,23.859375 10,27 v 21 c 0,3.855469 3.144531,7 7,7 h 36 c 3.855469,0 7,-3.144531 7,-7 V 27 c 0,-3.855469 -3.144531,-7 -7,-7 h -2.3125 l -0.625,-1.625 C 49.300781,16.414063 47.53125,15 45.625,15 Z m 0,2 h 11.25 c 0.765625,0 2.085938,0.867188 2.5625,2.09375 l 0.875,2.28125 C 49.214844,21.757813 49.589844,22.003906 50,22 h 3 c 2.773438,0 5,2.226563 5,5 v 21 c 0,2.773438 -2.226562,5 -5,5 H 17 c -2.773437,0 -5,-2.226562 -5,-5 V 27 c 0,-2.488281 1.792969,-4.539062 4.15625,-4.9375 C 16.636719,21.988281 16.992188,21.578125 17,21.09375 V 20 h 5 v 1 c 0,0.550781 0.449219,1 1,1 h 7 c 0.410156,0.0039 0.785156,-0.242187 0.9375,-0.625 l 0.875,-2.28125 C 32.289063,17.867188 33.609375,17 34.375,17 Z M 40,24 c -7.164062,0 -13,5.835938 -13,13 0,7.164063 5.835938,13 13,13 7.164063,0 13,-5.835937 13,-13 0,-7.164062 -5.835937,-13 -13,-13 z m -23,1 c -1.105469,0 -2,0.894531 -2,2 0,1.105469 0.894531,2 2,2 1.105469,0 2,-0.894531 2,-2 0,-1.105469 -0.894531,-2 -2,-2 z m 23,1 c 6.085938,0 11,4.914063 11,11 0,6.085938 -4.914062,11 -11,11 -6.085937,0 -11,-4.914062 -11,-11 0,-6.085937 4.914063,-11 11,-11 z"
     id="path2"
     inkscape:connector-curvature="0" />
</svg>
