<svg fill="#3498db" xmlns="http://www.w3.org/2000/svg" viewBox="0 0 50 50" width="500px" height="500px"><path d="M 25 2 C 12.309295 2 2 12.309295 2 25 C 2 37.690705 12.309295 48 25 48 C 37.690705 48 48 37.690705 48 25 C 48 12.309295 37.690705 2 25 2 z M 25 4 C 36.609824 4 46 13.390176 46 25 C 46 36.609824 36.609824 46 25 46 C 13.390176 46 4 36.609824 4 25 C 4 13.390176 13.390176 4 25 4 z M 24.984375 16.986328 A 1.0001 1.0001 0 0 0 24 18 L 24 24 L 18 24 A 1.0001 1.0001 0 1 0 18 26 L 24 26 L 24 32 A 1.0001 1.0001 0 1 0 26 32 L 26 26 L 32 26 A 1.0001 1.0001 0 1 0 32 24 L 26 24 L 26 18 A 1.0001 1.0001 0 0 0 24.984375 16.986328 z"/></svg>