<svg fill="#3498db" xmlns="http://www.w3.org/2000/svg" viewBox="0 0 50 50" width="500px" height="500px"><path d="M 21 2 A 1.0001 1.0001 0 0 0 20 3 L 20 5 L 17 5 C 14.250484 5 12 7.2504839 12 10 L 12 42 C 12 44.749516 14.250484 47 17 47 L 33 47 C 35.749516 47 38 44.749516 38 42 L 38 10 C 38 7.2504839 35.749516 5 33 5 L 30 5 L 30 3 A 1.0001 1.0001 0 0 0 29 2 L 21 2 z M 22 4 L 28 4 L 28 6 A 1.0001 1.0001 0 0 0 29 7 L 33 7 C 34.668484 7 36 8.3315161 36 10 L 36 42 C 36 43.668484 34.668484 45 33 45 L 17 45 C 15.331516 45 14 43.668484 14 42 L 14 10 C 14 8.3315161 15.331516 7 17 7 L 21 7 A 1.0001 1.0001 0 0 0 22 6 L 22 4 z M 17 21 A 1.0001 1.0001 0 0 0 16 22 L 16 42 A 1.0001 1.0001 0 0 0 17 43 L 33 43 A 1.0001 1.0001 0 0 0 34 42 L 34 22 A 1.0001 1.0001 0 0 0 33 21 L 17 21 z M 18 23 L 32 23 L 32 41 L 18 41 L 18 23 z"/></svg>