<svg fill="#3498db" xmlns="http://www.w3.org/2000/svg" viewBox="0 0 50 50" width="500px" height="500px"><path d="M 24.375 1 C 22.472656 1 20.699219 2.414063 19.9375 4.375 L 19.3125 6 L 14 6 L 14 5 C 14 4.449219 13.550781 4 13 4 L 6 4 C 5.449219 4 5 4.449219 5 5 L 5 6.40625 C 2.136719 7.285156 0 9.859375 0 13 L 0 41 C 0 44.855469 3.144531 48 7 48 L 43 48 C 46.855469 48 50 44.855469 50 41 L 50 13 C 50 9.144531 46.855469 6 43 6 L 40.6875 6 L 40.0625 4.375 C 39.300781 2.414063 37.53125 1 35.625 1 Z M 24.375 3 L 35.625 3 C 36.390625 3 37.710938 3.867188 38.1875 5.09375 L 39.0625 7.375 C 39.214844 7.757813 39.589844 8.003906 40 8 L 43 8 C 45.773438 8 48 10.226563 48 13 L 48 41 C 48 43.773438 45.773438 46 43 46 L 7 46 C 4.226563 46 2 43.773438 2 41 L 2 13 C 2 10.511719 3.792969 8.460938 6.15625 8.0625 C 6.636719 7.988281 6.992188 7.578125 7 7.09375 L 7 6 L 12 6 L 12 7 C 12 7.550781 12.449219 8 13 8 L 20 8 C 20.410156 8.003906 20.785156 7.757813 20.9375 7.375 L 21.8125 5.09375 C 22.289063 3.867188 23.609375 3 24.375 3 Z M 30 10 C 22.835938 10 17 15.835938 17 23 C 17 30.164063 22.835938 36 30 36 C 37.164063 36 43 30.164063 43 23 C 43 15.835938 37.164063 10 30 10 Z M 7 11 C 5.894531 11 5 11.894531 5 13 C 5 14.105469 5.894531 15 7 15 C 8.105469 15 9 14.105469 9 13 C 9 11.894531 8.105469 11 7 11 Z M 30 12 C 36.085938 12 41 16.914063 41 23 C 41 29.085938 36.085938 34 30 34 C 23.914063 34 19 29.085938 19 23 C 19 16.914063 23.914063 12 30 12 Z"/></svg>