<svg fill="#3498db" xmlns="http://www.w3.org/2000/svg" viewBox="0 0 50 50" width="500px" height="500px"><path d="M 5.53125 3 C 4.992188 3 4.53125 3.035156 4.09375 3.1875 C 3.65625 3.339844 3.203125 3.664063 2.96875 4.125 C 2.734375 4.585938 2.746094 5.074219 2.84375 5.5 C 2.941406 5.925781 3.136719 6.332031 3.375 6.75 C 3.738281 7.390625 4.871094 9.199219 5.96875 11.90625 C 7.066406 14.613281 8.0625 18.125 8.0625 21.90625 C 8.0625 31.597656 8.773438 37.964844 10.34375 42.0625 C 11.128906 44.109375 12.160156 45.605469 13.46875 46.59375 C 14.777344 47.582031 16.339844 48 18 48 L 30 48 C 31.613281 48 33.527344 47.753906 35.15625 46.71875 C 36.785156 45.683594 38 43.769531 38 41 L 38 6 C 38 5.625 37.917969 5.304688 37.78125 5 L 40 5 C 41.894531 5 43.03125 5.617188 43.8125 6.625 C 44.59375 7.632813 45 9.144531 45 11 L 45 22.03125 C 44.996094 22.390625 45.183594 22.726563 45.496094 22.910156 C 45.808594 23.089844 46.191406 23.089844 46.503906 22.910156 C 46.816406 22.726563 47.003906 22.390625 47 22.03125 L 47 11 C 47 8.855469 46.53125 6.867188 45.375 5.375 C 44.21875 3.882813 42.363281 3 40 3 Z M 5.53125 5 L 35 5 C 35.09375 5 35.382813 5.125 35.625 5.375 C 35.867188 5.625 36 5.984375 36 6 L 36 41 C 36 43.230469 35.214844 44.316406 34.09375 45.03125 C 32.972656 45.746094 31.386719 46 30 46 L 18 46 C 16.660156 46 15.613281 45.699219 14.6875 45 C 13.761719 44.300781 12.914063 43.15625 12.21875 41.34375 C 10.828125 37.71875 10.09375 31.496094 10.09375 21.90625 C 10.09375 17.769531 9.007813 14.027344 7.84375 11.15625 C 6.679688 8.285156 5.394531 6.226563 5.125 5.75 C 4.953125 5.449219 4.847656 5.226563 4.8125 5.09375 C 4.9375 5.058594 5.164063 5 5.53125 5 Z M 23.71875 6 C 23.167969 6.078125 22.78125 6.589844 22.859375 7.140625 C 22.9375 7.691406 23.449219 8.078125 24 8 L 32.84375 8 C 33.203125 8.003906 33.539063 7.816406 33.722656 7.503906 C 33.902344 7.191406 33.902344 6.808594 33.722656 6.496094 C 33.539063 6.183594 33.203125 5.996094 32.84375 6 L 24 6 C 23.96875 6 23.9375 6 23.90625 6 C 23.875 6 23.84375 6 23.8125 6 C 23.78125 6 23.75 6 23.71875 6 Z M 28.71875 11 C 28.167969 11.078125 27.78125 11.589844 27.859375 12.140625 C 27.9375 12.691406 28.449219 13.078125 29 13 L 32.84375 13 C 33.203125 13.003906 33.539063 12.816406 33.722656 12.503906 C 33.902344 12.191406 33.902344 11.808594 33.722656 11.496094 C 33.539063 11.183594 33.203125 10.996094 32.84375 11 L 29 11 C 28.96875 11 28.9375 11 28.90625 11 C 28.875 11 28.84375 11 28.8125 11 C 28.78125 11 28.75 11 28.71875 11 Z M 23.71875 16 C 23.167969 16.078125 22.78125 16.589844 22.859375 17.140625 C 22.9375 17.691406 23.449219 18.078125 24 18 L 32.84375 18 C 33.203125 18.003906 33.539063 17.816406 33.722656 17.503906 C 33.902344 17.191406 33.902344 16.808594 33.722656 16.496094 C 33.539063 16.183594 33.203125 15.996094 32.84375 16 L 24 16 C 23.96875 16 23.9375 16 23.90625 16 C 23.875 16 23.84375 16 23.8125 16 C 23.78125 16 23.75 16 23.71875 16 Z M 28.71875 21 C 28.167969 21.078125 27.78125 21.589844 27.859375 22.140625 C 27.9375 22.691406 28.449219 23.078125 29 23 L 32.84375 23 C 33.203125 23.003906 33.539063 22.816406 33.722656 22.503906 C 33.902344 22.191406 33.902344 21.808594 33.722656 21.496094 C 33.539063 21.183594 33.203125 20.996094 32.84375 21 L 29 21 C 28.96875 21 28.9375 21 28.90625 21 C 28.875 21 28.84375 21 28.8125 21 C 28.78125 21 28.75 21 28.71875 21 Z M 23.71875 26 C 23.167969 26.078125 22.78125 26.589844 22.859375 27.140625 C 22.9375 27.691406 23.449219 28.078125 24 28 L 32.84375 28 C 33.203125 28.003906 33.539063 27.816406 33.722656 27.503906 C 33.902344 27.191406 33.902344 26.808594 33.722656 26.496094 C 33.539063 26.183594 33.203125 25.996094 32.84375 26 L 24 26 C 23.96875 26 23.9375 26 23.90625 26 C 23.875 26 23.84375 26 23.8125 26 C 23.78125 26 23.75 26 23.71875 26 Z M 28.71875 31 C 28.167969 31.078125 27.78125 31.589844 27.859375 32.140625 C 27.9375 32.691406 28.449219 33.078125 29 33 L 32.84375 33 C 33.203125 33.003906 33.539063 32.816406 33.722656 32.503906 C 33.902344 32.191406 33.902344 31.808594 33.722656 31.496094 C 33.539063 31.183594 33.203125 30.996094 32.84375 31 L 29 31 C 28.96875 31 28.9375 31 28.90625 31 C 28.875 31 28.84375 31 28.8125 31 C 28.78125 31 28.75 31 28.71875 31 Z M 23.71875 36 C 23.167969 36.078125 22.78125 36.589844 22.859375 37.140625 C 22.9375 37.691406 23.449219 38.078125 24 38 L 32.84375 38 C 33.203125 38.003906 33.539063 37.816406 33.722656 37.503906 C 33.902344 37.191406 33.902344 36.808594 33.722656 36.496094 C 33.539063 36.183594 33.203125 35.996094 32.84375 36 L 24 36 C 23.96875 36 23.9375 36 23.90625 36 C 23.875 36 23.84375 36 23.8125 36 C 23.78125 36 23.75 36 23.71875 36 Z M 28.71875 41 C 28.167969 41.078125 27.78125 41.589844 27.859375 42.140625 C 27.9375 42.691406 28.449219 43.078125 29 43 L 32.84375 43 C 33.203125 43.003906 33.539063 42.816406 33.722656 42.503906 C 33.902344 42.191406 33.902344 41.808594 33.722656 41.496094 C 33.539063 41.183594 33.203125 40.996094 32.84375 41 L 29 41 C 28.96875 41 28.9375 41 28.90625 41 C 28.875 41 28.84375 41 28.8125 41 C 28.78125 41 28.75 41 28.71875 41 Z"/></svg>