<svg fill="#3498db" xmlns="http://www.w3.org/2000/svg" viewBox="0 0 50 50" width="500px" height="500px"><path d="M 12 2 C 10.347656 2 9 3.347656 9 5 L 9 7 L 8 7 C 4.691406 7 2 9.691406 2 13 L 2 42 C 2 45.308594 4.691406 48 8 48 L 26 48 C 29.308594 48 32 45.308594 32 42 L 32 40 L 48 40 L 48 15 L 32 15 L 32 13 C 32 9.691406 29.308594 7 26 7 L 25 7 L 25 5 C 25 3.347656 23.652344 2 22 2 Z M 12 4 L 22 4 C 22.550781 4 23 4.449219 23 5 L 23 7 L 11 7 L 11 5 C 11 4.449219 11.449219 4 12 4 Z M 8 9 L 26 9 C 28.207031 9 30 10.792969 30 13 L 30 15 L 18 15 L 18 13.9375 C 18 12.867188 17.101563 12 16 12 C 14.898438 12 14 12.867188 14 13.9375 L 14 41.0625 C 14 42.132813 14.898438 43 16 43 C 17.101563 43 18 42.132813 18 41.0625 L 18 40 L 30 40 L 30 42 C 30 44.207031 28.207031 46 26 46 L 8 46 C 5.792969 46 4 44.207031 4 42 L 4 13 C 4 10.792969 5.792969 9 8 9 Z M 16 17 L 46 17 L 46 38 L 16 38 Z M 18 19 L 18 22 L 20 22 L 20 19 Z M 24 19 L 24 22 L 26 22 L 26 19 Z M 30 19 L 30 22 L 32 22 L 32 19 Z M 36 19 L 36 22 L 38 22 L 38 19 Z M 42 19 L 42 22 L 44 22 L 44 19 Z M 18 33 L 18 36 L 20 36 L 20 33 Z M 24 33 L 24 36 L 26 36 L 26 33 Z M 30 33 L 30 36 L 32 36 L 32 33 Z M 36 33 L 36 36 L 38 36 L 38 33 Z M 42 33 L 42 36 L 44 36 L 44 33 Z"/></svg>