<svg fill="#3498db" xmlns="http://www.w3.org/2000/svg" viewBox="0 0 50 50" width="500px" height="500px"><path d="M 13.839844 3 C 11.730797 3 10 4.730797 10 6.8398438 L 10 19.160156 C 10 21.269203 11.730797 23 13.839844 23 L 14.0625 23 L 15.001953 37.326172 A 1.0001 1.0001 0 0 0 15.158203 37.798828 L 18.824219 43.539062 A 1.0001 1.0001 0 0 0 19.667969 44 L 20.832031 44 A 1.0001 1.0001 0 0 0 21.158203 44 L 28.832031 44 A 1.0001 1.0001 0 0 0 29.158203 44 L 30.332031 44 A 1.0001 1.0001 0 0 0 31.175781 43.539062 L 34.841797 37.798828 A 1.0001 1.0001 0 0 0 34.998047 37.326172 L 35.9375 23 L 36.160156 23 C 38.269203 23 40 21.269203 40 19.160156 L 40 6.8398438 C 40 4.730797 38.269203 3 36.160156 3 L 13.839844 3 z M 13.839844 5 L 36.160156 5 C 37.18911 5 38 5.8108905 38 6.8398438 L 38 19.160156 C 38 20.18911 37.18911 21 36.160156 21 L 35.035156 21 L 15 21 L 13.839844 21 C 12.81089 21 12 20.18911 12 19.160156 L 12 6.8398438 C 12 5.8108905 12.81089 5 13.839844 5 z M 16 8 A 1.0001 1.0001 0 1 0 16 10 L 34 10 A 1.0001 1.0001 0 1 0 34 8 L 16 8 z M 16 12 A 1.0001 1.0001 0 1 0 16 14 L 34 14 A 1.0001 1.0001 0 1 0 34 12 L 16 12 z M 16 16 A 1.0001 1.0001 0 1 0 16 18 L 34 18 A 1.0001 1.0001 0 1 0 34 16 L 16 16 z M 16.068359 23 L 33.931641 23 L 33.019531 36.939453 L 30 41.664062 L 30 29.167969 A 1.0001 1.0001 0 0 0 29.710938 28.283203 A 1.0001 1.0001 0 0 0 29.707031 28.279297 A 1.0001 1.0001 0 0 0 29.699219 28.271484 A 1.0001 1.0001 0 0 0 29.691406 28.263672 A 1.0001 1.0001 0 0 0 28.841797 28 L 21.167969 28 A 1.0001 1.0001 0 0 0 20.984375 27.986328 A 1.0001 1.0001 0 0 0 20.283203 28.289062 A 1.0001 1.0001 0 0 0 20.277344 28.294922 A 1.0001 1.0001 0 0 0 20.263672 28.308594 A 1.0001 1.0001 0 0 0 20 29.158203 L 20 41.664062 L 16.980469 36.939453 L 16.068359 23 z M 22 30 L 28 30 L 28 42 L 22 42 L 22 30 z M 20 46 A 1.0001 1.0001 0 1 0 20 48 L 30 48 A 1.0001 1.0001 0 1 0 30 46 L 20 46 z"/></svg>