<svg fill="#3498db" xmlns="http://www.w3.org/2000/svg" viewBox="0 0 50 50" width="500px" height="500px"><path d="M 2.90625 13.96875 C 2.863281 13.976563 2.820313 13.988281 2.78125 14 C 2.316406 14.105469 1.988281 14.523438 2 15 L 2 35 C 1.996094 35.359375 2.183594 35.695313 2.496094 35.878906 C 2.808594 36.058594 3.191406 36.058594 3.503906 35.878906 C 3.816406 35.695313 4.003906 35.359375 4 35 L 4 15 C 4.011719 14.710938 3.894531 14.433594 3.6875 14.238281 C 3.476563 14.039063 3.191406 13.941406 2.90625 13.96875 Z M 46.90625 13.96875 C 46.863281 13.976563 46.820313 13.988281 46.78125 14 C 46.316406 14.105469 45.988281 14.523438 46 15 L 46 35 C 45.996094 35.359375 46.183594 35.695313 46.496094 35.878906 C 46.808594 36.058594 47.191406 36.058594 47.503906 35.878906 C 47.816406 35.695313 48.003906 35.359375 48 35 L 48 15 C 48.011719 14.710938 47.894531 14.433594 47.6875 14.238281 C 47.476563 14.039063 47.191406 13.941406 46.90625 13.96875 Z M 7 14 C 6.449219 14 6 14.449219 6 15 C 6 15.550781 6.449219 16 7 16 C 7.550781 16 8 15.550781 8 15 C 8 14.449219 7.550781 14 7 14 Z M 11 14 C 10.449219 14 10 14.449219 10 15 C 10 15.550781 10.449219 16 11 16 C 11.550781 16 12 15.550781 12 15 C 12 14.449219 11.550781 14 11 14 Z M 15 14 C 14.449219 14 14 14.449219 14 15 C 14 15.550781 14.449219 16 15 16 C 15.550781 16 16 15.550781 16 15 C 16 14.449219 15.550781 14 15 14 Z M 19 14 C 18.449219 14 18 14.449219 18 15 C 18 15.550781 18.449219 16 19 16 C 19.550781 16 20 15.550781 20 15 C 20 14.449219 19.550781 14 19 14 Z M 23 14 C 22.449219 14 22 14.449219 22 15 C 22 15.550781 22.449219 16 23 16 C 23.550781 16 24 15.550781 24 15 C 24 14.449219 23.550781 14 23 14 Z M 27 14 C 26.449219 14 26 14.449219 26 15 C 26 15.550781 26.449219 16 27 16 C 27.550781 16 28 15.550781 28 15 C 28 14.449219 27.550781 14 27 14 Z M 31 14 C 30.449219 14 30 14.449219 30 15 C 30 15.550781 30.449219 16 31 16 C 31.550781 16 32 15.550781 32 15 C 32 14.449219 31.550781 14 31 14 Z M 35 14 C 34.449219 14 34 14.449219 34 15 C 34 15.550781 34.449219 16 35 16 C 35.550781 16 36 15.550781 36 15 C 36 14.449219 35.550781 14 35 14 Z M 39 14 C 38.449219 14 38 14.449219 38 15 C 38 15.550781 38.449219 16 39 16 C 39.550781 16 40 15.550781 40 15 C 40 14.449219 39.550781 14 39 14 Z M 43 14 C 42.449219 14 42 14.449219 42 15 C 42 15.550781 42.449219 16 43 16 C 43.550781 16 44 15.550781 44 15 C 44 14.449219 43.550781 14 43 14 Z M 11.28125 19.96875 C 11.238281 19.976563 11.195313 19.988281 11.15625 20 C 10.996094 20.027344 10.847656 20.089844 10.71875 20.1875 L 5.40625 24.1875 C 5.144531 24.375 4.988281 24.679688 4.988281 25 C 4.988281 25.320313 5.144531 25.625 5.40625 25.8125 L 10.71875 29.8125 C 11.167969 30.148438 11.804688 30.058594 12.140625 29.609375 C 12.476563 29.160156 12.386719 28.523438 11.9375 28.1875 L 9.03125 26 L 40.96875 26 L 38.0625 28.1875 C 37.613281 28.523438 37.523438 29.160156 37.859375 29.609375 C 38.195313 30.058594 38.832031 30.148438 39.28125 29.8125 L 44.59375 25.8125 C 44.855469 25.625 45.011719 25.320313 45.011719 25 C 45.011719 24.679688 44.855469 24.375 44.59375 24.1875 L 39.28125 20.1875 C 39.058594 20.019531 38.773438 19.949219 38.5 20 C 38.089844 20.054688 37.757813 20.355469 37.660156 20.757813 C 37.5625 21.15625 37.722656 21.578125 38.0625 21.8125 L 40.96875 24 L 9.03125 24 L 11.9375 21.8125 C 12.339844 21.566406 12.515625 21.070313 12.355469 20.625 C 12.199219 20.179688 11.75 19.90625 11.28125 19.96875 Z M 7 34 C 6.449219 34 6 34.449219 6 35 C 6 35.550781 6.449219 36 7 36 C 7.550781 36 8 35.550781 8 35 C 8 34.449219 7.550781 34 7 34 Z M 11 34 C 10.449219 34 10 34.449219 10 35 C 10 35.550781 10.449219 36 11 36 C 11.550781 36 12 35.550781 12 35 C 12 34.449219 11.550781 34 11 34 Z M 15 34 C 14.449219 34 14 34.449219 14 35 C 14 35.550781 14.449219 36 15 36 C 15.550781 36 16 35.550781 16 35 C 16 34.449219 15.550781 34 15 34 Z M 19 34 C 18.449219 34 18 34.449219 18 35 C 18 35.550781 18.449219 36 19 36 C 19.550781 36 20 35.550781 20 35 C 20 34.449219 19.550781 34 19 34 Z M 23 34 C 22.449219 34 22 34.449219 22 35 C 22 35.550781 22.449219 36 23 36 C 23.550781 36 24 35.550781 24 35 C 24 34.449219 23.550781 34 23 34 Z M 27 34 C 26.449219 34 26 34.449219 26 35 C 26 35.550781 26.449219 36 27 36 C 27.550781 36 28 35.550781 28 35 C 28 34.449219 27.550781 34 27 34 Z M 31 34 C 30.449219 34 30 34.449219 30 35 C 30 35.550781 30.449219 36 31 36 C 31.550781 36 32 35.550781 32 35 C 32 34.449219 31.550781 34 31 34 Z M 35 34 C 34.449219 34 34 34.449219 34 35 C 34 35.550781 34.449219 36 35 36 C 35.550781 36 36 35.550781 36 35 C 36 34.449219 35.550781 34 35 34 Z M 39 34 C 38.449219 34 38 34.449219 38 35 C 38 35.550781 38.449219 36 39 36 C 39.550781 36 40 35.550781 40 35 C 40 34.449219 39.550781 34 39 34 Z M 43 34 C 42.449219 34 42 34.449219 42 35 C 42 35.550781 42.449219 36 43 36 C 43.550781 36 44 35.550781 44 35 C 44 34.449219 43.550781 34 43 34 Z"/></svg>