<svg fill="#3498db" xmlns="http://www.w3.org/2000/svg" viewBox="0 0 50 50" width="500px" height="500px"><path d="M 5 4 A 1.0001 1.0001 0 0 0 4 5 L 4 45 A 1.0001 1.0001 0 0 0 5 46 L 24 46 A 1.0001 1.0001 0 0 0 25 45 L 25 35.5 L 25 14.5 L 25 5 A 1.0001 1.0001 0 0 0 24 4 L 5 4 z M 25 14.5 C 25 20.287145 29.712855 25 35.5 25 C 41.287145 25 46 20.287145 46 14.5 C 46 8.7128548 41.287145 4 35.5 4 C 29.712855 4 25 8.7128548 25 14.5 z M 35.5 25 C 29.712855 25 25 29.712855 25 35.5 C 25 41.287145 29.712855 46 35.5 46 C 41.287145 46 46 41.287145 46 35.5 C 46 29.712855 41.287145 25 35.5 25 z M 6 6 L 23 6 L 23 44 L 6 44 L 6 6 z M 35.5 6 C 40.206265 6 44 9.793735 44 14.5 C 44 19.206265 40.206265 23 35.5 23 C 30.793735 23 27 19.206265 27 14.5 C 27 9.793735 30.793735 6 35.5 6 z M 35.5 27 C 40.206265 27 44 30.793735 44 35.5 C 44 40.206265 40.206265 44 35.5 44 C 30.793735 44 27 40.206265 27 35.5 C 27 30.793735 30.793735 27 35.5 27 z"/></svg>