<svg fill="#3498db" xmlns="http://www.w3.org/2000/svg" viewBox="0 0 50 50" width="500px" height="500px"><path d="M 25 0.0625 C 17.316406 0.0625 11.0625 6.316406 11.0625 14 C 11.0625 20.367188 14.402344 27.667969 17.6875 33.46875 C 20.972656 39.269531 24.25 43.5625 24.25 43.5625 C 24.425781 43.800781 24.703125 43.945313 25 43.945313 C 25.296875 43.945313 25.574219 43.800781 25.75 43.5625 C 25.75 43.5625 29.03125 39.210938 32.3125 33.375 C 35.59375 27.539063 38.9375 20.234375 38.9375 14 C 38.9375 6.316406 32.683594 0.0625 25 0.0625 Z M 25 1.9375 C 31.679688 1.9375 37.0625 7.320313 37.0625 14 C 37.0625 19.554688 33.90625 26.75 30.6875 32.46875 C 28.058594 37.144531 25.871094 40.210938 25 41.40625 C 24.125 40.226563 21.9375 37.199219 19.3125 32.5625 C 16.097656 26.882813 12.9375 19.703125 12.9375 14 C 12.9375 7.320313 18.320313 1.9375 25 1.9375 Z M 25 8.03125 C 21.164063 8.03125 18.03125 11.164063 18.03125 15 C 18.03125 18.835938 21.164063 21.96875 25 21.96875 C 28.835938 21.96875 31.96875 18.835938 31.96875 15 C 31.96875 11.164063 28.835938 8.03125 25 8.03125 Z M 25 9.96875 C 27.792969 9.96875 30.03125 12.207031 30.03125 15 C 30.03125 17.792969 27.792969 20.03125 25 20.03125 C 22.207031 20.03125 19.96875 17.792969 19.96875 15 C 19.96875 12.207031 22.207031 9.96875 25 9.96875 Z M 15.15625 34.15625 C 11.15625 34.742188 7.773438 35.667969 5.28125 36.875 C 4.035156 37.476563 3.003906 38.148438 2.25 38.9375 C 1.496094 39.726563 1 40.707031 1 41.75 C 1 43.179688 1.914063 44.402344 3.21875 45.375 C 4.523438 46.347656 6.285156 47.132813 8.4375 47.8125 C 12.738281 49.171875 18.5625 50 25 50 C 31.4375 50 37.261719 49.171875 41.5625 47.8125 C 43.714844 47.132813 45.476563 46.347656 46.78125 45.375 C 48.085938 44.402344 49 43.179688 49 41.75 C 49 40.710938 48.503906 39.726563 47.75 38.9375 C 46.996094 38.148438 45.964844 37.476563 44.71875 36.875 C 42.226563 35.667969 38.84375 34.742188 34.84375 34.15625 C 34.292969 34.070313 33.773438 34.449219 33.6875 35 C 33.601563 35.550781 33.980469 36.070313 34.53125 36.15625 C 38.390625 36.722656 41.640625 37.621094 43.84375 38.6875 C 44.945313 39.222656 45.796875 39.804688 46.3125 40.34375 C 46.828125 40.882813 47 41.332031 47 41.75 C 47 42.324219 46.617188 42.984375 45.59375 43.75 C 44.570313 44.515625 42.980469 45.269531 40.96875 45.90625 C 36.945313 47.175781 31.265625 48 25 48 C 18.734375 48 13.054688 47.175781 9.03125 45.90625 C 7.019531 45.269531 5.429688 44.515625 4.40625 43.75 C 3.382813 42.984375 3 42.324219 3 41.75 C 3 41.332031 3.171875 40.882813 3.6875 40.34375 C 4.203125 39.804688 5.054688 39.222656 6.15625 38.6875 C 8.359375 37.621094 11.609375 36.722656 15.46875 36.15625 C 16.019531 36.070313 16.398438 35.550781 16.3125 35 C 16.226563 34.449219 15.707031 34.070313 15.15625 34.15625 Z"/></svg>