<svg fill="#3498db" xmlns="http://www.w3.org/2000/svg" viewBox="0 0 50 50" width="500px" height="500px"><path d="M 39.09375 0 C 37.660156 0 36.40625 1.113281 36.34375 2.59375 L 36.3125 2.59375 L 36.3125 2.6875 L 34.4375 22.09375 C 34.300781 22.03125 34.152344 21.996094 34 22 L 33 22 L 33 16 C 33.003906 15.652344 32.824219 15.332031 32.535156 15.148438 C 32.242188 14.960938 31.875 14.941406 31.5625 15.09375 L 17 21.875 L 17 17 C 16.996094 16.652344 16.8125 16.328125 16.511719 16.148438 C 16.210938 15.96875 15.839844 15.960938 15.53125 16.125 L 0.53125 24.125 C 0.207031 24.296875 0.00390625 24.632813 0 25 L 0 49 C 0 49.550781 0.449219 50 1 50 L 49 50 C 49.277344 50 49.539063 49.886719 49.730469 49.683594 C 49.917969 49.484375 50.015625 49.214844 50 48.9375 L 47.1875 2.75 C 47.1875 2.730469 47.1875 2.707031 47.1875 2.6875 C 47.039063 1.214844 45.898438 0 44.40625 0 Z M 39.09375 2 L 44.40625 2 C 44.703125 2 45.109375 2.378906 45.1875 2.875 L 47.9375 48 L 2 48 L 2 25.59375 L 15 18.65625 L 15 23 C 15 23.550781 15.449219 24 16 24 L 17 24 C 17.152344 24.003906 17.300781 23.96875 17.4375 23.90625 L 31 17.5625 L 31 23 C 31 23.550781 31.449219 24 32 24 L 33 24 L 33 37 C 32.972656 37.550781 33.402344 38.019531 33.953125 38.046875 C 34.503906 38.074219 34.972656 37.644531 35 37.09375 L 35 37 L 38.28125 2.78125 C 38.292969 2.75 38.304688 2.71875 38.3125 2.6875 C 38.3125 2.222656 38.558594 2 39.09375 2 Z M 7 27 L 7 32 L 10 32 L 10 27 Z M 16 27 L 16 32 L 19 32 L 19 27 Z M 25 27 L 25 32 L 28 32 L 28 27 Z M 7 36 L 7 41 L 10 41 L 10 36 Z M 16 36 L 16 41 L 19 41 L 19 36 Z M 25 36 L 25 41 L 28 41 L 28 36 Z"/></svg>