<svg fill="#3498db" xmlns="http://www.w3.org/2000/svg" viewBox="0 0 50 50" width="500px" height="500px"><path d="M 4 4 L 4 46 L 46 46 L 46 4 Z M 6 6 L 10 6 L 10 9 L 6 9 Z M 12 6 L 38 6 L 38 24 L 12 24 Z M 40 6 L 44 6 L 44 9 L 40 9 Z M 6 11 L 10 11 L 10 14 L 6 14 Z M 40 11 L 44 11 L 44 14 L 40 14 Z M 6 16 L 10 16 L 10 19 L 6 19 Z M 40 16 L 44 16 L 44 19 L 40 19 Z M 6 21 L 10 21 L 10 24 L 6 24 Z M 40 21 L 44 21 L 44 24 L 40 24 Z M 6 26 L 10 26 L 10 29 L 6 29 Z M 12 26 L 38 26 L 38 44 L 12 44 Z M 40 26 L 44 26 L 44 29 L 40 29 Z M 6 31 L 10 31 L 10 34 L 6 34 Z M 40 31 L 44 31 L 44 34 L 40 34 Z M 6 36 L 10 36 L 10 39 L 6 39 Z M 40 36 L 44 36 L 44 39 L 40 39 Z M 6 41 L 10 41 L 10 44 L 6 44 Z M 40 41 L 44 41 L 44 44 L 40 44 Z"/></svg>