<svg fill="#3498db" xmlns="http://www.w3.org/2000/svg" viewBox="0 0 50 50" width="500px" height="500px"><path d="M 27.90625 -0.03125 C 27.863281 -0.0234375 27.820313 -0.0117188 27.78125 0 C 27.40625 0.0664063 27.105469 0.339844 27 0.703125 C 26.894531 1.070313 27.003906 1.460938 27.28125 1.71875 L 30.5625 5 L 4.4375 5 L 7.71875 1.71875 C 8.042969 1.417969 8.128906 0.941406 7.933594 0.546875 C 7.742188 0.148438 7.308594 -0.0703125 6.875 0 C 6.652344 0.0234375 6.441406 0.125 6.28125 0.28125 L 1.28125 5.28125 L 0.59375 6 L 1.28125 6.71875 L 6.28125 11.71875 C 6.679688 12.117188 7.320313 12.117188 7.71875 11.71875 C 8.117188 11.320313 8.117188 10.679688 7.71875 10.28125 L 4.4375 7 L 30.5625 7 L 27.28125 10.28125 C 26.882813 10.679688 26.882813 11.320313 27.28125 11.71875 C 27.679688 12.117188 28.320313 12.117188 28.71875 11.71875 L 33.71875 6.71875 L 34.40625 6 L 33.71875 5.28125 L 28.71875 0.28125 C 28.511719 0.0585938 28.210938 -0.0546875 27.90625 -0.03125 Z M 0 15 L 0 50 L 35 50 L 35 15 Z M 44 15.59375 L 43.28125 16.28125 L 38.28125 21.28125 C 37.882813 21.679688 37.882813 22.320313 38.28125 22.71875 C 38.679688 23.117188 39.320313 23.117188 39.71875 22.71875 L 43 19.4375 L 43 45.5625 L 39.71875 42.28125 C 39.511719 42.058594 39.210938 41.945313 38.90625 41.96875 C 38.863281 41.976563 38.820313 41.988281 38.78125 42 C 38.40625 42.066406 38.105469 42.339844 38 42.703125 C 37.894531 43.070313 38.003906 43.460938 38.28125 43.71875 L 43.28125 48.71875 L 44 49.40625 L 44.71875 48.71875 L 49.71875 43.71875 C 50.117188 43.320313 50.117188 42.679688 49.71875 42.28125 C 49.320313 41.882813 48.679688 41.882813 48.28125 42.28125 L 45 45.5625 L 45 19.4375 L 48.28125 22.71875 C 48.679688 23.117188 49.320313 23.117188 49.71875 22.71875 C 50.117188 22.320313 50.117188 21.679688 49.71875 21.28125 L 44.71875 16.28125 Z M 2 17 L 33 17 L 33 48 L 2 48 Z"/></svg>