<svg fill="#3498db" xmlns="http://www.w3.org/2000/svg" viewBox="0 0 50 50" width="500px" height="500px"><path d="M 2.71875 8 C 2.167969 8.078125 1.78125 8.589844 1.859375 9.140625 C 1.9375 9.691406 2.449219 10.078125 3 10 L 7 10 C 7.359375 10.003906 7.695313 9.816406 7.878906 9.503906 C 8.058594 9.191406 8.058594 8.808594 7.878906 8.496094 C 7.695313 8.183594 7.359375 7.996094 7 8 L 3 8 C 2.96875 8 2.9375 8 2.90625 8 C 2.875 8 2.84375 8 2.8125 8 C 2.78125 8 2.75 8 2.71875 8 Z M 11.71875 8 C 11.167969 8.078125 10.78125 8.589844 10.859375 9.140625 C 10.9375 9.691406 11.449219 10.078125 12 10 L 36 10 C 36.359375 10.003906 36.695313 9.816406 36.878906 9.503906 C 37.058594 9.191406 37.058594 8.808594 36.878906 8.496094 C 36.695313 8.183594 36.359375 7.996094 36 8 L 12 8 C 11.96875 8 11.9375 8 11.90625 8 C 11.875 8 11.84375 8 11.8125 8 C 11.78125 8 11.75 8 11.71875 8 Z M 41 8 C 40.449219 8 40 8.449219 40 9 C 40 9.550781 40.449219 10 41 10 C 41.550781 10 42 9.550781 42 9 C 42 8.449219 41.550781 8 41 8 Z M 44 8 C 43.449219 8 43 8.449219 43 9 C 43 9.550781 43.449219 10 44 10 C 44.550781 10 45 9.550781 45 9 C 45 8.449219 44.550781 8 44 8 Z M 47 8 C 46.449219 8 46 8.449219 46 9 C 46 9.550781 46.449219 10 47 10 C 47.550781 10 48 9.550781 48 9 C 48 8.449219 47.550781 8 47 8 Z M 2.71875 16 C 2.167969 16.078125 1.78125 16.589844 1.859375 17.140625 C 1.9375 17.691406 2.449219 18.078125 3 18 L 7 18 C 7.359375 18.003906 7.695313 17.816406 7.878906 17.503906 C 8.058594 17.191406 8.058594 16.808594 7.878906 16.496094 C 7.695313 16.183594 7.359375 15.996094 7 16 L 3 16 C 2.96875 16 2.9375 16 2.90625 16 C 2.875 16 2.84375 16 2.8125 16 C 2.78125 16 2.75 16 2.71875 16 Z M 11.71875 16 C 11.167969 16.078125 10.78125 16.589844 10.859375 17.140625 C 10.9375 17.691406 11.449219 18.078125 12 18 L 36 18 C 36.359375 18.003906 36.695313 17.816406 36.878906 17.503906 C 37.058594 17.191406 37.058594 16.808594 36.878906 16.496094 C 36.695313 16.183594 36.359375 15.996094 36 16 L 12 16 C 11.96875 16 11.9375 16 11.90625 16 C 11.875 16 11.84375 16 11.8125 16 C 11.78125 16 11.75 16 11.71875 16 Z M 44 16 C 43.449219 16 43 16.449219 43 17 C 43 17.550781 43.449219 18 44 18 C 44.550781 18 45 17.550781 45 17 C 45 16.449219 44.550781 16 44 16 Z M 47 16 C 46.449219 16 46 16.449219 46 17 C 46 17.550781 46.449219 18 47 18 C 47.550781 18 48 17.550781 48 17 C 48 16.449219 47.550781 16 47 16 Z M 2.71875 24 C 2.167969 24.078125 1.78125 24.589844 1.859375 25.140625 C 1.9375 25.691406 2.449219 26.078125 3 26 L 7 26 C 7.359375 26.003906 7.695313 25.816406 7.878906 25.503906 C 8.058594 25.191406 8.058594 24.808594 7.878906 24.496094 C 7.695313 24.183594 7.359375 23.996094 7 24 L 3 24 C 2.96875 24 2.9375 24 2.90625 24 C 2.875 24 2.84375 24 2.8125 24 C 2.78125 24 2.75 24 2.71875 24 Z M 11.71875 24 C 11.167969 24.078125 10.78125 24.589844 10.859375 25.140625 C 10.9375 25.691406 11.449219 26.078125 12 26 L 36 26 C 36.359375 26.003906 36.695313 25.816406 36.878906 25.503906 C 37.058594 25.191406 37.058594 24.808594 36.878906 24.496094 C 36.695313 24.183594 36.359375 23.996094 36 24 L 12 24 C 11.96875 24 11.9375 24 11.90625 24 C 11.875 24 11.84375 24 11.8125 24 C 11.78125 24 11.75 24 11.71875 24 Z M 44 24 C 43.449219 24 43 24.449219 43 25 C 43 25.550781 43.449219 26 44 26 C 44.550781 26 45 25.550781 45 25 C 45 24.449219 44.550781 24 44 24 Z M 47 24 C 46.449219 24 46 24.449219 46 25 C 46 25.550781 46.449219 26 47 26 C 47.550781 26 48 25.550781 48 25 C 48 24.449219 47.550781 24 47 24 Z M 2.71875 32 C 2.167969 32.078125 1.78125 32.589844 1.859375 33.140625 C 1.9375 33.691406 2.449219 34.078125 3 34 L 7 34 C 7.359375 34.003906 7.695313 33.816406 7.878906 33.503906 C 8.058594 33.191406 8.058594 32.808594 7.878906 32.496094 C 7.695313 32.183594 7.359375 31.996094 7 32 L 3 32 C 2.96875 32 2.9375 32 2.90625 32 C 2.875 32 2.84375 32 2.8125 32 C 2.78125 32 2.75 32 2.71875 32 Z M 11.71875 32 C 11.167969 32.078125 10.78125 32.589844 10.859375 33.140625 C 10.9375 33.691406 11.449219 34.078125 12 34 L 36 34 C 36.359375 34.003906 36.695313 33.816406 36.878906 33.503906 C 37.058594 33.191406 37.058594 32.808594 36.878906 32.496094 C 36.695313 32.183594 36.359375 31.996094 36 32 L 12 32 C 11.96875 32 11.9375 32 11.90625 32 C 11.875 32 11.84375 32 11.8125 32 C 11.78125 32 11.75 32 11.71875 32 Z M 41 32 C 40.449219 32 40 32.449219 40 33 C 40 33.550781 40.449219 34 41 34 C 41.550781 34 42 33.550781 42 33 C 42 32.449219 41.550781 32 41 32 Z M 44 32 C 43.449219 32 43 32.449219 43 33 C 43 33.550781 43.449219 34 44 34 C 44.550781 34 45 33.550781 45 33 C 45 32.449219 44.550781 32 44 32 Z M 47 32 C 46.449219 32 46 32.449219 46 33 C 46 33.550781 46.449219 34 47 34 C 47.550781 34 48 33.550781 48 33 C 48 32.449219 47.550781 32 47 32 Z M 2.71875 40 C 2.167969 40.078125 1.78125 40.589844 1.859375 41.140625 C 1.9375 41.691406 2.449219 42.078125 3 42 L 7 42 C 7.359375 42.003906 7.695313 41.816406 7.878906 41.503906 C 8.058594 41.191406 8.058594 40.808594 7.878906 40.496094 C 7.695313 40.183594 7.359375 39.996094 7 40 L 3 40 C 2.96875 40 2.9375 40 2.90625 40 C 2.875 40 2.84375 40 2.8125 40 C 2.78125 40 2.75 40 2.71875 40 Z M 11.71875 40 C 11.167969 40.078125 10.78125 40.589844 10.859375 41.140625 C 10.9375 41.691406 11.449219 42.078125 12 42 L 36 42 C 36.359375 42.003906 36.695313 41.816406 36.878906 41.503906 C 37.058594 41.191406 37.058594 40.808594 36.878906 40.496094 C 36.695313 40.183594 36.359375 39.996094 36 40 L 12 40 C 11.96875 40 11.9375 40 11.90625 40 C 11.875 40 11.84375 40 11.8125 40 C 11.78125 40 11.75 40 11.71875 40 Z M 44 40 C 43.449219 40 43 40.449219 43 41 C 43 41.550781 43.449219 42 44 42 C 44.550781 42 45 41.550781 45 41 C 45 40.449219 44.550781 40 44 40 Z M 47 40 C 46.449219 40 46 40.449219 46 41 C 46 41.550781 46.449219 42 47 42 C 47.550781 42 48 41.550781 48 41 C 48 40.449219 47.550781 40 47 40 Z"/></svg>