<svg fill="#3498db" xmlns="http://www.w3.org/2000/svg"  viewBox="0 0 50 50" width="500px" height="500px"><path d="M 25 2 C 12.32034 2 2 12.32034 2 25 C 2 37.67966 12.32034 48 25 48 C 37.67966 48 48 37.67966 48 25 C 48 12.32034 37.67966 2 25 2 z M 24 4.0253906 L 24 25 A 1.0001 1.0001 0 0 0 25 26 L 45.974609 26 C 45.45206 37.131748 36.260821 46 25 46 C 13.40366 46 4 36.59634 4 25 C 4 13.739179 12.868252 4.5479396 24 4.0253906 z M 26 4.1464844 C 27.566432 4.2214699 29.077946 4.4851905 30.533203 4.8828125 A 1 1 0 0 0 30.919922 4.9960938 C 31.880129 5.2785582 32.80656 5.6348936 33.703125 6.0449219 A 1 1 0 0 0 33 7 A 1 1 0 0 0 34 8 A 1 1 0 0 0 35 7 A 1 1 0 0 0 34.941406 6.6660156 C 38.502167 8.590235 41.43008 11.510373 43.357422 15.066406 A 1 1 0 0 0 43 15 A 1 1 0 0 0 42 16 A 1 1 0 0 0 43 17 A 1 1 0 0 0 43.962891 16.265625 C 44.36859 17.146177 44.718318 18.057099 45 19 C 45.000355 19.001189 44.999645 19.002717 45 19.003906 A 1 1 0 0 0 45.130859 19.490234 C 45.524731 20.936444 45.778977 22.44295 45.853516 24 L 26 24 L 26 4.1464844 z M 28 6 A 1 1 0 0 0 27 7 A 1 1 0 0 0 28 8 A 1 1 0 0 0 29 7 A 1 1 0 0 0 28 6 z M 31 9 A 1 1 0 0 0 30 10 A 1 1 0 0 0 31 11 A 1 1 0 0 0 32 10 A 1 1 0 0 0 31 9 z M 37 9 A 1 1 0 0 0 36 10 A 1 1 0 0 0 37 11 A 1 1 0 0 0 38 10 A 1 1 0 0 0 37 9 z M 28 12 A 1 1 0 0 0 27 13 A 1 1 0 0 0 28 14 A 1 1 0 0 0 29 13 A 1 1 0 0 0 28 12 z M 34 12 A 1 1 0 0 0 33 13 A 1 1 0 0 0 34 14 A 1 1 0 0 0 35 13 A 1 1 0 0 0 34 12 z M 40 12 A 1 1 0 0 0 39 13 A 1 1 0 0 0 40 14 A 1 1 0 0 0 41 13 A 1 1 0 0 0 40 12 z M 31 15 A 1 1 0 0 0 30 16 A 1 1 0 0 0 31 17 A 1 1 0 0 0 32 16 A 1 1 0 0 0 31 15 z M 37 15 A 1 1 0 0 0 36 16 A 1 1 0 0 0 37 17 A 1 1 0 0 0 38 16 A 1 1 0 0 0 37 15 z M 28 18 A 1 1 0 0 0 27 19 A 1 1 0 0 0 28 20 A 1 1 0 0 0 29 19 A 1 1 0 0 0 28 18 z M 34 18 A 1 1 0 0 0 33 19 A 1 1 0 0 0 34 20 A 1 1 0 0 0 35 19 A 1 1 0 0 0 34 18 z M 40 18 A 1 1 0 0 0 39 19 A 1 1 0 0 0 40 20 A 1 1 0 0 0 41 19 A 1 1 0 0 0 40 18 z M 31 21 A 1 1 0 0 0 30 22 A 1 1 0 0 0 31 23 A 1 1 0 0 0 32 22 A 1 1 0 0 0 31 21 z M 37 21 A 1 1 0 0 0 36 22 A 1 1 0 0 0 37 23 A 1 1 0 0 0 38 22 A 1 1 0 0 0 37 21 z M 43 21 A 1 1 0 0 0 42 22 A 1 1 0 0 0 43 23 A 1 1 0 0 0 44 22 A 1 1 0 0 0 43 21 z"/></svg>