<svg fill="#3498db" xmlns="http://www.w3.org/2000/svg" viewBox="0 0 50 50" width="500px" height="500px"><path d="M 28 0 C 25.800781 0 24 1.800781 24 4 C 24 4.734375 24.214844 5.40625 24.5625 6 L 17 6 C 16.96875 6 16.9375 6 16.90625 6 C 16.390625 6.046875 15.996094 6.480469 16 7 L 16 11 C 16 11.550781 16.449219 12 17 12 L 18 12 L 18 19.90625 C 17.992188 19.929688 17.972656 20.011719 17.9375 20.09375 C 17.867188 20.257813 17.730469 20.523438 17.5625 20.8125 C 17.230469 21.394531 16.730469 22.15625 16.125 23.0625 C 14.917969 24.875 13.289063 27.203125 11.65625 29.65625 C 10.023438 32.109375 8.402344 34.703125 7.15625 37.0625 C 5.910156 39.421875 5 41.511719 5 43.3125 C 5 44.960938 5.578125 46.285156 6.4375 47.25 C 7.296875 48.214844 8.386719 48.824219 9.4375 49.21875 C 11.542969 50.007813 13.59375 50 13.59375 50 L 36.40625 50 C 36.40625 50 38.457031 50.007813 40.5625 49.21875 C 41.613281 48.824219 42.703125 48.214844 43.5625 47.25 C 44.421875 46.285156 45 44.960938 45 43.3125 C 45 41.511719 44.089844 39.421875 42.84375 37.0625 C 41.597656 34.703125 39.976563 32.109375 38.34375 29.65625 C 36.710938 27.203125 35.082031 24.875 33.875 23.0625 C 33.269531 22.15625 32.769531 21.394531 32.4375 20.8125 C 32.269531 20.523438 32.132813 20.257813 32.0625 20.09375 C 32.027344 20.011719 32.007813 19.929688 32 19.90625 L 32 12 L 33 12 C 33.550781 12 34 11.550781 34 11 L 34 7 C 34 6.449219 33.550781 6 33 6 L 31.4375 6 C 31.785156 5.40625 32 4.734375 32 4 C 32 1.800781 30.199219 0 28 0 Z M 28 2 C 29.117188 2 30 2.882813 30 4 C 30 5.117188 29.117188 6 28 6 C 26.882813 6 26 5.117188 26 4 C 26 2.882813 26.882813 2 28 2 Z M 18 8 L 32 8 L 32 10 L 19.21875 10 C 19.117188 9.972656 19.011719 9.960938 18.90625 9.96875 C 18.875 9.976563 18.84375 9.988281 18.8125 10 L 18 10 Z M 20 12 L 30 12 L 30 20 C 30 20.410156 30.101563 20.632813 30.21875 20.90625 C 30.335938 21.179688 30.5 21.453125 30.6875 21.78125 C 31.066406 22.4375 31.574219 23.265625 32.1875 24.1875 C 32.898438 25.253906 33.882813 26.683594 34.78125 28 L 15.21875 28 C 16.117188 26.683594 17.101563 25.253906 17.8125 24.1875 C 18.425781 23.265625 18.933594 22.4375 19.3125 21.78125 C 19.5 21.453125 19.664063 21.179688 19.78125 20.90625 C 19.898438 20.632813 20 20.410156 20 20 Z M 25 14 C 22.800781 14 21 15.800781 21 18 C 21 20.199219 22.800781 22 25 22 C 27.199219 22 29 20.199219 29 18 C 29 15.800781 27.199219 14 25 14 Z M 25 16 C 26.117188 16 27 16.882813 27 18 C 27 19.117188 26.117188 20 25 20 C 23.882813 20 23 19.117188 23 18 C 23 16.882813 23.882813 16 25 16 Z M 13.875 30 C 13.917969 30.003906 13.957031 30.003906 14 30 L 36 30 C 36.042969 30.003906 36.082031 30.003906 36.125 30 C 36.316406 30.285156 36.464844 30.492188 36.65625 30.78125 C 38.273438 33.210938 39.902344 35.75 41.09375 38 C 42.285156 40.25 43 42.273438 43 43.3125 C 43 44.515625 42.628906 45.300781 42.0625 45.9375 C 41.496094 46.574219 40.691406 47.027344 39.84375 47.34375 C 38.148438 47.980469 36.40625 48 36.40625 48 L 13.59375 48 C 13.59375 48 11.851563 47.980469 10.15625 47.34375 C 9.308594 47.027344 8.503906 46.574219 7.9375 45.9375 C 7.371094 45.300781 7 44.515625 7 43.3125 C 7 42.273438 7.714844 40.25 8.90625 38 C 10.097656 35.75 11.726563 33.210938 13.34375 30.78125 C 13.535156 30.492188 13.683594 30.285156 13.875 30 Z M 20 31.96875 C 17.792969 31.96875 15.96875 33.792969 15.96875 36 C 15.96875 38.207031 17.792969 40.03125 20 40.03125 C 22.207031 40.03125 24.03125 38.207031 24.03125 36 C 24.03125 33.792969 22.207031 31.96875 20 31.96875 Z M 20 34.03125 C 21.109375 34.03125 21.96875 34.890625 21.96875 36 C 21.96875 37.109375 21.109375 37.96875 20 37.96875 C 18.890625 37.96875 18.03125 37.109375 18.03125 36 C 18.03125 34.890625 18.890625 34.03125 20 34.03125 Z M 31 36 C 28.25 36 26 38.25 26 41 C 26 43.75 28.25 46 31 46 C 33.75 46 36 43.75 36 41 C 36 38.25 33.75 36 31 36 Z M 31 38 C 32.667969 38 34 39.332031 34 41 C 34 42.667969 32.667969 44 31 44 C 29.332031 44 28 42.667969 28 41 C 28 39.332031 29.332031 38 31 38 Z"/></svg>