<svg fill="#3498db" xmlns="http://www.w3.org/2000/svg" viewBox="0 0 50 50" width="500px" height="500px"><path d="M 25 0 C 21.890625 0 19.265625 0.492188 17.3125 1.46875 C 15.699219 2.273438 14.5 3.5 14.125 5 L 12 5 C 9.789063 5 8 6.789063 8 9 L 8 33 L 5 33 C 4.96875 33 4.9375 33 4.90625 33 C 4.875 33 4.84375 33 4.8125 33 C 4.335938 33.089844 3.992188 33.511719 4 34 L 4 39 C 4 39.550781 4.449219 40 5 40 L 21.90625 40 L 10.40625 48.1875 C 9.957031 48.515625 9.859375 49.144531 10.1875 49.59375 C 10.515625 50.042969 11.144531 50.140625 11.59375 49.8125 L 24 40.96875 L 24 49 C 23.996094 49.359375 24.183594 49.695313 24.496094 49.878906 C 24.808594 50.058594 25.191406 50.058594 25.503906 49.878906 C 25.816406 49.695313 26.003906 49.359375 26 49 L 26 40.96875 L 38.40625 49.8125 C 38.855469 50.140625 39.484375 50.042969 39.8125 49.59375 C 40.140625 49.144531 40.042969 48.515625 39.59375 48.1875 L 28.09375 40 L 45 40 C 45.550781 40 46 39.550781 46 39 L 46 34 C 46 33.449219 45.550781 33 45 33 L 42 33 L 42 9 C 42 6.789063 40.210938 5 38 5 L 35.875 5 C 35.5 3.5 34.300781 2.273438 32.6875 1.46875 C 30.734375 0.492188 28.109375 0 25 0 Z M 25 2 C 27.890625 2 30.265625 2.507813 31.8125 3.28125 C 32.84375 3.796875 33.476563 4.363281 33.78125 5 L 16.21875 5 C 16.523438 4.363281 17.15625 3.796875 18.1875 3.28125 C 19.734375 2.507813 22.109375 2 25 2 Z M 12 7 L 38 7 C 39.191406 7 40 7.808594 40 9 L 40 33 L 10 33 L 10 9 C 10 7.808594 10.808594 7 12 7 Z M 25 9 C 18.953125 9 14 13.953125 14 20 C 14 26.046875 18.953125 31 25 31 C 31.046875 31 36 26.046875 36 20 C 36 13.953125 31.046875 9 25 9 Z M 25 11 C 29.953125 11 34 15.046875 34 20 C 34 24.953125 29.953125 29 25 29 C 20.046875 29 16 24.953125 16 20 C 16 15.046875 20.046875 11 25 11 Z M 25 13 C 21.144531 13 18 16.144531 18 20 C 18 23.855469 21.144531 27 25 27 C 28.855469 27 32 23.855469 32 20 C 32 16.144531 28.855469 13 25 13 Z M 25 15 C 27.773438 15 30 17.226563 30 20 C 30 22.773438 27.773438 25 25 25 C 22.226563 25 20 22.773438 20 20 C 20 17.226563 22.226563 15 25 15 Z M 6 35 L 44 35 L 44 38 L 25.1875 38 C 25.167969 38 25.144531 38 25.125 38 C 25.113281 38 25.105469 38 25.09375 38 C 24.988281 37.984375 24.886719 37.984375 24.78125 38 L 6 38 Z"/></svg>