<svg fill="#3498db" xmlns="http://www.w3.org/2000/svg" viewBox="0 0 50 50" width="500px" height="500px"><path d="M 11 3 A 1.0001 1.0001 0 1 0 11 5 L 39 5 A 1.0001 1.0001 0 1 0 39 3 L 11 3 z M 10 7 A 1.0001 1.0001 0 1 0 10 9 L 40 9 A 1.0001 1.0001 0 1 0 40 7 L 10 7 z M 9 11 A 1.0001 1.0001 0 0 0 8 12 L 8 25 L 6 25 A 1.0001 1.0001 0 0 0 5 26 L 5 46 A 1.0001 1.0001 0 0 0 6 47 L 44 47 A 1.0001 1.0001 0 0 0 45 46 L 45 26 A 1.0001 1.0001 0 0 0 44 25 L 42 25 L 42 12 A 1.0001 1.0001 0 0 0 41 11 L 9 11 z M 10 13 L 40 13 L 40 25 L 37.414062 25 L 30.707031 18.292969 A 1.0001 1.0001 0 0 0 29.984375 18 A 1.0001 1.0001 0 0 0 29.292969 18.292969 L 26.5 21.085938 L 21.707031 16.292969 A 1.0001 1.0001 0 0 0 20.984375 16 A 1.0001 1.0001 0 0 0 20.251953 16.335938 L 12.550781 25 L 10 25 L 10 13 z M 35.5 16 A 1.5 1.5 0 0 0 34 17.5 A 1.5 1.5 0 0 0 35.5 19 A 1.5 1.5 0 0 0 37 17.5 A 1.5 1.5 0 0 0 35.5 16 z M 21.042969 18.457031 L 25.650391 23.064453 A 1.0001 1.0001 0 0 0 25.939453 23.353516 L 27.585938 25 L 15.226562 25 L 21.042969 18.457031 z M 30 20.414062 L 34.585938 25 L 30.414062 25 L 27.914062 22.5 L 30 20.414062 z M 7 27 L 8.8320312 27 A 1.0001 1.0001 0 0 0 9.1582031 27 L 13.003906 27 L 29.847656 27 A 1.0001 1.0001 0 0 0 30.179688 27 L 36.847656 27 A 1.0001 1.0001 0 0 0 37.179688 27 L 40.832031 27 A 1.0001 1.0001 0 0 0 41.158203 27 L 43 27 L 43 45 L 7 45 L 7 27 z M 21 30 A 1.0001 1.0001 0 1 0 21 32 L 29 32 A 1.0001 1.0001 0 1 0 29 30 L 21 30 z"/></svg>