<svg fill="#3498db" xmlns="http://www.w3.org/2000/svg" viewBox="0 0 50 50" width="500px" height="500px"><path d="M 19 0 C 8.519531 0 0 8.519531 0 19 C 0 29.480469 8.519531 38 19 38 C 29.480469 38 38 29.480469 38 19 C 38 17.058594 37.730469 15.171875 37.1875 13.40625 C 41.585938 19.695313 41.972656 25.875 41.84375 31.46875 C 41.75 35.535156 41.304688 39.285156 41.9375 42.53125 C 42.570313 45.777344 44.519531 48.511719 48.6875 49.9375 C 49.039063 50.117188 49.460938 50.074219 49.769531 49.828125 C 50.078125 49.582031 50.210938 49.179688 50.113281 48.796875 C 50.015625 48.417969 49.703125 48.128906 49.3125 48.0625 C 45.652344 46.8125 44.445313 44.925781 43.90625 42.15625 C 43.367188 39.386719 43.75 35.707031 43.84375 31.53125 C 44.023438 23.613281 42.863281 13.808594 31.46875 4.6875 C 30.882813 4.175781 30.273438 3.6875 29.625 3.25 C 29.605469 3.234375 29.582031 3.234375 29.5625 3.21875 C 26.542969 1.191406 22.90625 0 19 0 Z M 19 2 C 22.527344 2 25.789063 3.074219 28.5 4.90625 C 29.058594 5.3125 29.578125 5.71875 30.09375 6.125 C 33.707031 9.242188 36 13.847656 36 19 C 36 28.402344 28.402344 36 19 36 C 9.597656 36 2 28.402344 2 19 C 2 9.597656 9.597656 2 19 2 Z M 19 3.5 C 17.527344 3.5 16.335938 3.640625 15.375 4.28125 C 14.414063 4.921875 13.9375 6.082031 13.9375 7.375 C 13.9375 8.960938 14.972656 10.203125 16 11.09375 C 16.515625 11.539063 17.039063 11.890625 17.53125 12.15625 C 18.023438 12.421875 18.382813 12.625 19 12.625 C 19.617188 12.625 19.976563 12.421875 20.46875 12.15625 C 20.960938 11.890625 21.484375 11.539063 22 11.09375 C 23.027344 10.203125 24.0625 8.960938 24.0625 7.375 C 24.0625 6.082031 23.585938 4.921875 22.625 4.28125 C 21.664063 3.640625 20.472656 3.5 19 3.5 Z M 19 5.5 C 20.308594 5.5 21.148438 5.714844 21.53125 5.96875 C 21.914063 6.222656 22.0625 6.476563 22.0625 7.375 C 22.0625 7.980469 21.484375 8.875 20.6875 9.5625 C 20.289063 9.90625 19.882813 10.21875 19.53125 10.40625 C 19.308594 10.527344 19.089844 10.601563 19 10.625 C 18.921875 10.601563 18.707031 10.535156 18.46875 10.40625 C 18.117188 10.21875 17.679688 9.90625 17.28125 9.5625 C 16.484375 8.875 15.9375 7.980469 15.9375 7.375 C 15.9375 6.476563 16.085938 6.222656 16.46875 5.96875 C 16.851563 5.714844 17.691406 5.5 19 5.5 Z M 7.96875 10.6875 C 7.386719 10.753906 6.859375 10.953125 6.40625 11.3125 C 5.503906 12.03125 4.984375 13.128906 4.53125 14.53125 C 4.078125 15.929688 3.875 17.109375 4.1875 18.21875 C 4.5 19.328125 5.457031 20.164063 6.6875 20.5625 C 8.195313 21.050781 9.679688 20.421875 10.84375 19.71875 C 11.425781 19.367188 11.9375 18.980469 12.34375 18.59375 C 12.75 18.207031 13.03125 17.929688 13.21875 17.34375 C 13.414063 16.753906 13.351563 16.332031 13.25 15.78125 C 13.148438 15.230469 12.953125 14.625 12.6875 14 C 12.15625 12.75 11.320313 11.363281 9.8125 10.875 C 9.195313 10.675781 8.550781 10.621094 7.96875 10.6875 Z M 29.09375 10.6875 C 28.789063 10.71875 28.496094 10.777344 28.1875 10.875 C 28.1875 10.886719 28.1875 10.894531 28.1875 10.90625 C 26.683594 11.394531 25.84375 12.746094 25.3125 14 C 25.046875 14.625 24.851563 15.230469 24.75 15.78125 C 24.648438 16.332031 24.554688 16.753906 24.75 17.34375 C 24.9375 17.933594 25.25 18.207031 25.65625 18.59375 C 26.0625 18.980469 26.574219 19.367188 27.15625 19.71875 C 28.320313 20.421875 29.804688 21.050781 31.3125 20.5625 C 32.542969 20.164063 33.5 19.328125 33.8125 18.21875 C 34.125 17.109375 33.890625 15.929688 33.4375 14.53125 C 32.984375 13.128906 32.5 12.03125 31.59375 11.3125 C 31.140625 10.953125 30.582031 10.753906 30 10.6875 C 29.710938 10.65625 29.398438 10.65625 29.09375 10.6875 Z M 8.25 12.625 C 8.480469 12.601563 8.757813 12.644531 9.1875 12.78125 C 9.761719 12.96875 10.433594 13.8125 10.84375 14.78125 C 11.050781 15.265625 11.210938 15.765625 11.28125 16.15625 C 11.335938 16.449219 11.304688 16.710938 11.3125 16.75 C 11.242188 16.839844 11.101563 16.996094 10.9375 17.15625 C 10.648438 17.433594 10.261719 17.726563 9.8125 18 C 8.910156 18.546875 7.859375 18.84375 7.28125 18.65625 C 6.425781 18.378906 6.21875 18.128906 6.09375 17.6875 C 5.96875 17.246094 6.035156 16.398438 6.4375 15.15625 C 6.839844 13.910156 7.296875 13.160156 7.65625 12.875 C 7.835938 12.730469 8.019531 12.648438 8.25 12.625 Z M 29.375 12.625 C 29.84375 12.546875 30.074219 12.660156 30.34375 12.875 C 30.703125 13.160156 31.128906 13.910156 31.53125 15.15625 C 31.933594 16.398438 32.03125 17.246094 31.90625 17.6875 C 31.78125 18.128906 31.542969 18.378906 30.6875 18.65625 C 30.113281 18.84375 29.089844 18.578125 28.1875 18.03125 C 27.738281 17.757813 27.351563 17.433594 27.0625 17.15625 C 26.875 16.976563 26.746094 16.761719 26.6875 16.6875 C 26.6875 16.582031 26.675781 16.382813 26.71875 16.15625 C 26.789063 15.765625 26.949219 15.265625 27.15625 14.78125 C 27.566406 13.8125 28.242188 12.96875 28.8125 12.78125 C 29.027344 12.710938 29.21875 12.652344 29.375 12.625 Z M 19 17 C 17.894531 17 17 17.894531 17 19 C 17 20.105469 17.894531 21 19 21 C 20.105469 21 21 20.105469 21 19 C 21 17.894531 20.105469 17 19 17 Z M 25.125 23.53125 C 24.808594 23.539063 24.496094 23.558594 24.21875 23.59375 C 23.664063 23.664063 23.253906 23.703125 22.75 24.0625 C 22.25 24.421875 22.058594 24.8125 21.8125 25.3125 C 21.566406 25.8125 21.347656 26.402344 21.1875 27.0625 C 20.863281 28.382813 20.734375 29.988281 21.65625 31.28125 C 22.40625 32.335938 23.472656 33.003906 24.625 32.96875 C 25.777344 32.933594 26.832031 32.351563 28.03125 31.5 C 29.234375 30.644531 30.148438 29.828125 30.5625 28.75 C 30.976563 27.671875 30.6875 26.460938 29.9375 25.40625 C 29.9375 25.394531 29.9375 25.386719 29.9375 25.375 C 29.019531 24.085938 27.445313 23.691406 26.09375 23.5625 C 25.753906 23.53125 25.441406 23.523438 25.125 23.53125 Z M 12.75 23.6875 C 12.433594 23.699219 12.117188 23.734375 11.78125 23.78125 C 10.433594 23.964844 8.894531 24.417969 8.03125 25.75 C 7.324219 26.832031 7.074219 28.066406 7.53125 29.125 C 7.988281 30.183594 8.925781 30.976563 10.15625 31.78125 C 11.390625 32.585938 12.46875 33.105469 13.625 33.09375 C 14.78125 33.082031 15.820313 32.363281 16.53125 31.28125 C 17.394531 29.957031 17.1875 28.367188 16.8125 27.0625 C 16.625 26.410156 16.394531 25.804688 16.125 25.3125 C 15.855469 24.820313 15.644531 24.460938 15.125 24.125 C 14.609375 23.789063 14.214844 23.765625 13.65625 23.71875 C 13.378906 23.695313 13.066406 23.675781 12.75 23.6875 Z M 25.125 25.53125 C 25.371094 25.523438 25.644531 25.539063 25.90625 25.5625 C 26.957031 25.664063 27.964844 26.074219 28.3125 26.5625 C 28.835938 27.296875 28.851563 27.601563 28.6875 28.03125 C 28.523438 28.460938 27.941406 29.117188 26.875 29.875 C 25.808594 30.628906 25.019531 30.953125 24.5625 30.96875 C 24.105469 30.984375 23.800781 30.855469 23.28125 30.125 C 22.929688 29.632813 22.875 28.554688 23.125 27.53125 C 23.25 27.019531 23.449219 26.546875 23.625 26.1875 C 23.742188 25.953125 23.890625 25.757813 23.9375 25.6875 C 23.945313 25.683594 23.96875 25.683594 23.96875 25.6875 C 24.078125 25.65625 24.269531 25.617188 24.46875 25.59375 C 24.667969 25.570313 24.878906 25.539063 25.125 25.53125 Z M 12.78125 25.6875 C 13.027344 25.675781 13.269531 25.671875 13.46875 25.6875 C 13.695313 25.707031 13.898438 25.75 14 25.78125 C 14.019531 25.824219 14.199219 26.019531 14.34375 26.28125 C 14.535156 26.632813 14.761719 27.117188 14.90625 27.625 C 15.199219 28.636719 15.167969 29.6875 14.84375 30.1875 C 14.347656 30.941406 14.054688 31.089844 13.59375 31.09375 C 13.132813 31.097656 12.347656 30.808594 11.25 30.09375 C 10.160156 29.378906 9.554688 28.765625 9.375 28.34375 C 9.195313 27.921875 9.199219 27.59375 9.6875 26.84375 C 10.019531 26.335938 10.988281 25.890625 12.03125 25.75 C 12.292969 25.714844 12.535156 25.699219 12.78125 25.6875 Z"/></svg>