<svg fill="#3498db" xmlns="http://www.w3.org/2000/svg"  viewBox="0 0 50 50" width="500px" height="500px"><path d="M 0 3 L 0 33 L 17 33 L 15 31 L 2 31 L 2 5 L 48 5 L 48 31 L 29 31 L 31 33 L 50 33 L 50 3 Z M 3 6 L 3 9 L 5 9 L 5 6 Z M 9 6 L 9 9 L 11 9 L 11 6 Z M 15 6 L 15 9 L 17 9 L 17 6 Z M 21 6 L 21 9 L 23 9 L 23 6 Z M 27 6 L 27 9 L 29 9 L 29 6 Z M 33 6 L 33 9 L 35 9 L 35 6 Z M 39 6 L 39 9 L 41 9 L 41 6 Z M 45 6 L 45 9 L 47 9 L 47 6 Z M 11.875 16.59375 C 11.371094 16.65625 10.996094 17.085938 11 17.59375 L 11 21.90625 C 11 23.742188 11.703125 25.519531 13.09375 26.8125 L 13.125 26.84375 L 20.25 33.9375 L 18.03125 36.15625 C 16.703125 36.113281 15.386719 36.519531 14.40625 37.5 L 12.40625 39.5 C 10.4375 41.46875 10.4375 44.625 12.40625 46.59375 C 14.375 48.5625 17.53125 48.5625 19.5 46.59375 L 21.5 44.59375 C 22.480469 43.613281 22.886719 42.296875 22.84375 40.96875 L 25.0625 38.75 L 27.15625 40.84375 C 27.101563 42.183594 27.511719 43.511719 28.5 44.5 L 30.5 46.5 C 32.46875 48.46875 35.625 48.46875 37.59375 46.5 C 39.5625 44.53125 39.5625 41.375 37.59375 39.40625 L 35.59375 37.40625 C 34.621094 36.433594 33.316406 36.027344 32 36.0625 L 12.71875 16.90625 C 12.503906 16.675781 12.191406 16.558594 11.875 16.59375 Z M 13 20.03125 L 30.78125 37.71875 C 31.011719 37.949219 31.335938 38.054688 31.65625 38 C 32.527344 37.855469 33.523438 38.148438 34.1875 38.8125 L 36.1875 40.8125 C 37.417969 42.042969 37.417969 43.863281 36.1875 45.09375 C 34.957031 46.324219 33.136719 46.324219 31.90625 45.09375 L 29.90625 43.09375 C 29.242188 42.429688 28.949219 41.433594 29.09375 40.5625 C 29.148438 40.242188 29.042969 39.917969 28.8125 39.6875 L 14.5 25.40625 C 14.488281 25.394531 14.480469 25.386719 14.46875 25.375 C 13.480469 24.46875 13 23.257813 13 21.90625 Z M 3 27 L 3 30 L 5 30 L 5 27 Z M 9 27 L 9 30 L 11 30 L 11 27 Z M 27 27 L 27 29 L 28 30 L 29 30 L 29 27 Z M 33 27 L 33 30 L 35 30 L 35 27 Z M 39 27 L 39 30 L 41 30 L 41 27 Z M 45 27 L 45 30 L 47 30 L 47 27 Z M 25 32.90625 C 24.390625 32.90625 23.90625 33.390625 23.90625 34 C 23.90625 34.609375 24.390625 35.09375 25 35.09375 C 25.609375 35.09375 26.09375 34.609375 26.09375 34 C 26.09375 33.390625 25.609375 32.90625 25 32.90625 Z M 21.65625 35.375 L 23.625 37.34375 L 21.1875 39.78125 C 20.957031 40.011719 20.851563 40.335938 20.90625 40.65625 C 21.050781 41.527344 20.757813 42.523438 20.09375 43.1875 L 18.09375 45.1875 C 16.863281 46.417969 15.042969 46.417969 13.8125 45.1875 C 12.582031 43.957031 12.582031 42.136719 13.8125 40.90625 L 15.8125 38.90625 C 16.476563 38.242188 17.472656 37.949219 18.34375 38.09375 C 18.664063 38.148438 18.988281 38.042969 19.21875 37.8125 Z M 17.5625 39.9375 C 17.1875 39.9375 16.800781 40.105469 16.5 40.40625 L 15.5 41.40625 C 14.898438 42.007813 14.898438 42.898438 15.5 43.5 C 16.101563 44.101563 16.992188 44.101563 17.59375 43.5 L 18.59375 42.5 C 19.09375 42 19.09375 41.007813 18.59375 40.40625 C 18.292969 40.105469 17.9375 39.9375 17.5625 39.9375 Z M 32.5 40.03125 C 32.113281 40.03125 31.707031 40.15625 31.40625 40.40625 C 30.804688 41.007813 30.804688 41.898438 31.40625 42.5 L 32.40625 43.5 C 33.007813 44.101563 33.898438 44.101563 34.5 43.5 C 35.101563 42.898438 35.101563 42.007813 34.5 41.40625 L 33.5 40.40625 C 33.25 40.15625 32.886719 40.03125 32.5 40.03125 Z"/></svg>