<svg fill="#3498db" xmlns="http://www.w3.org/2000/svg" viewBox="0 0 50 50" width="500px" height="500px"><path d="M 18.5 3 C 16.863281 3 15.421875 4.171875 14.78125 5.8125 L 14.3125 7 L 11 7 C 11 6.449219 10.550781 6 10 6 L 5 6 C 4.449219 6 4 6.449219 4 7 L 4 7.4375 C 1.695313 8.28125 0 10.421875 0 13 L 0 27 C 0 30.296875 2.703125 33 6 33 L 23.0625 33 C 23.570313 38.597656 28.273438 43 34 43 C 36.652344 43 39.097656 42.039063 41 40.46875 L 41.03125 40.46875 L 48.28125 47.71875 L 49.71875 46.28125 L 42.46875 39.03125 L 42.46875 39 C 44.039063 37.097656 45 34.652344 45 32 C 45 27.734375 42.5625 24.042969 39 22.21875 L 39 13 C 39 11.230469 37.984375 9.730469 36.65625 8.6875 C 35.328125 7.644531 33.648438 7 32 7 L 31.6875 7 L 31.21875 5.8125 C 30.578125 4.171875 29.136719 3 27.5 3 Z M 18.5 5 L 27.5 5 C 27.996094 5 29.019531 5.652344 29.375 6.5625 L 30.0625 8.375 C 30.214844 8.757813 30.589844 9.003906 31 9 L 32 9 C 33.101563 9 34.421875 9.480469 35.40625 10.25 C 36.390625 11.019531 37 12.019531 37 13 L 37 21.4375 C 36.046875 21.167969 35.039063 21 34 21 C 33.640625 21 33.285156 21.027344 32.9375 21.0625 C 32.972656 20.710938 33 20.363281 33 20 C 33 14.488281 28.511719 10 23 10 C 17.488281 10 13 14.488281 13 20 C 13 25.511719 17.488281 30 23 30 C 23.0625 30 23.125 30 23.1875 30 C 23.128906 30.328125 23.09375 30.664063 23.0625 31 L 6 31 C 3.796875 31 2 29.203125 2 27 L 2 13 C 2 11.070313 3.371094 9.464844 5.1875 9.09375 C 5.664063 9.003906 6.007813 8.582031 6 8.09375 L 6 8 L 9 8 C 9 8.550781 9.449219 9 10 9 L 15 9 C 15.410156 9.003906 15.785156 8.757813 15.9375 8.375 L 16.625 6.5625 C 16.980469 5.652344 18 5 18.5 5 Z M 6.5 11 C 5.671875 11 5 11.671875 5 12.5 C 5 13.328125 5.671875 14 6.5 14 C 7.328125 14 8 13.328125 8 12.5 C 8 11.671875 7.328125 11 6.5 11 Z M 23 12 C 27.429688 12 31 15.570313 31 20 C 31 20.503906 30.929688 20.988281 30.84375 21.46875 C 27.605469 22.4375 25.011719 24.851563 23.78125 27.96875 C 23.527344 27.996094 23.261719 28 23 28 C 18.570313 28 15 24.429688 15 20 C 15 15.570313 18.570313 12 23 12 Z M 34 23 C 35.246094 23 36.421875 23.265625 37.5 23.71875 C 37.539063 23.742188 37.582031 23.761719 37.625 23.78125 C 37.632813 23.785156 37.648438 23.777344 37.65625 23.78125 C 37.675781 23.792969 37.699219 23.804688 37.71875 23.8125 C 40.832031 25.226563 43 28.347656 43 32 C 43 36.980469 38.980469 41 34 41 C 29.078125 41 25.097656 37.082031 25 32.1875 C 25.027344 32.054688 25.027344 31.914063 25 31.78125 C 25.019531 30.949219 25.144531 30.136719 25.375 29.375 C 25.386719 29.363281 25.394531 29.355469 25.40625 29.34375 C 25.414063 29.320313 25.429688 29.304688 25.4375 29.28125 C 25.464844 29.210938 25.488281 29.136719 25.5 29.0625 C 26.480469 26.207031 28.847656 24.019531 31.8125 23.28125 C 31.875 23.277344 31.9375 23.265625 32 23.25 C 32.03125 23.242188 32.0625 23.226563 32.09375 23.21875 C 32.105469 23.21875 32.113281 23.21875 32.125 23.21875 C 32.730469 23.089844 33.355469 23 34 23 Z"/></svg>