<svg fill="#3498db" xmlns="http://www.w3.org/2000/svg" viewBox="0 0 50 50" width="500px" height="500px"><path d="M 10 6.90625 C 7.542969 6.90625 5.464844 8.671875 5 11 L 1 11 C 0.96875 11 0.9375 11 0.90625 11 C 0.875 11 0.84375 11 0.8125 11 C 0.261719 11.050781 -0.144531 11.542969 -0.09375 12.09375 C -0.0429688 12.644531 0.449219 13.050781 1 13 L 5 13 C 5.464844 15.328125 7.542969 17.09375 10 17.09375 C 12.457031 17.09375 14.535156 15.328125 15 13 L 20 13 C 20.464844 15.328125 22.542969 17.09375 25 17.09375 C 27.457031 17.09375 29.535156 15.328125 30 13 L 35 13 C 35.464844 15.328125 37.542969 17.09375 40 17.09375 C 42.457031 17.09375 44.535156 15.328125 45 13 L 49 13 C 49.359375 13.003906 49.695313 12.816406 49.878906 12.503906 C 50.058594 12.191406 50.058594 11.808594 49.878906 11.496094 C 49.695313 11.183594 49.359375 10.996094 49 11 L 45 11 C 44.535156 8.671875 42.457031 6.90625 40 6.90625 C 37.542969 6.90625 35.464844 8.671875 35 11 L 30 11 C 29.535156 8.671875 27.457031 6.90625 25 6.90625 C 22.542969 6.90625 20.464844 8.671875 20 11 L 15 11 C 14.535156 8.671875 12.457031 6.90625 10 6.90625 Z M 10 9.09375 C 11.625 9.09375 12.90625 10.375 12.90625 12 C 12.902344 12.042969 12.902344 12.082031 12.90625 12.125 C 12.84375 13.6875 11.582031 14.90625 10 14.90625 C 8.375 14.90625 7.09375 13.625 7.09375 12 C 7.09375 10.375 8.375 9.09375 10 9.09375 Z M 25 9.09375 C 26.601563 9.09375 27.875 10.34375 27.90625 11.9375 C 27.90625 11.957031 27.90625 11.980469 27.90625 12 C 27.902344 12.042969 27.902344 12.082031 27.90625 12.125 C 27.84375 13.6875 26.582031 14.90625 25 14.90625 C 23.375 14.90625 22.09375 13.625 22.09375 12 C 22.09375 10.375 23.375 9.09375 25 9.09375 Z M 40 9.09375 C 41.625 9.09375 42.90625 10.375 42.90625 12 C 42.90625 13.625 41.625 14.90625 40 14.90625 C 38.375 14.90625 37.09375 13.625 37.09375 12 C 37.09375 10.375 38.375 9.09375 40 9.09375 Z M 10 32.90625 C 7.542969 32.90625 5.464844 34.671875 5 37 L 1 37 C 0.96875 37 0.9375 37 0.90625 37 C 0.875 37 0.84375 37 0.8125 37 C 0.261719 37.050781 -0.144531 37.542969 -0.09375 38.09375 C -0.0429688 38.644531 0.449219 39.050781 1 39 L 5 39 C 5.464844 41.328125 7.542969 43.09375 10 43.09375 C 12.457031 43.09375 14.535156 41.328125 15 39 L 20 39 C 20.464844 41.328125 22.542969 43.09375 25 43.09375 C 27.457031 43.09375 29.535156 41.328125 30 39 L 35 39 C 35.464844 41.328125 37.542969 43.09375 40 43.09375 C 42.457031 43.09375 44.535156 41.328125 45 39 L 49 39 C 49.359375 39.003906 49.695313 38.816406 49.878906 38.503906 C 50.058594 38.191406 50.058594 37.808594 49.878906 37.496094 C 49.695313 37.183594 49.359375 36.996094 49 37 L 45 37 C 44.535156 34.671875 42.457031 32.90625 40 32.90625 C 37.542969 32.90625 35.464844 34.671875 35 37 L 30 37 C 29.535156 34.671875 27.457031 32.90625 25 32.90625 C 22.542969 32.90625 20.464844 34.671875 20 37 L 15 37 C 14.535156 34.671875 12.457031 32.90625 10 32.90625 Z M 10 35.09375 C 11.625 35.09375 12.90625 36.375 12.90625 38 C 12.902344 38.042969 12.902344 38.082031 12.90625 38.125 C 12.84375 39.6875 11.582031 40.90625 10 40.90625 C 8.375 40.90625 7.09375 39.625 7.09375 38 C 7.09375 36.375 8.375 35.09375 10 35.09375 Z M 25 35.09375 C 26.601563 35.09375 27.875 36.34375 27.90625 37.9375 C 27.902344 38 27.902344 38.0625 27.90625 38.125 C 27.84375 39.6875 26.582031 40.90625 25 40.90625 C 23.375 40.90625 22.09375 39.625 22.09375 38 C 22.09375 36.375 23.375 35.09375 25 35.09375 Z M 40 35.09375 C 41.625 35.09375 42.90625 36.375 42.90625 38 C 42.902344 38.042969 42.902344 38.082031 42.90625 38.125 C 42.84375 39.6875 41.582031 40.90625 40 40.90625 C 38.375 40.90625 37.09375 39.625 37.09375 38 C 37.09375 36.375 38.375 35.09375 40 35.09375 Z"/></svg>