<svg fill="#3498db" xmlns="http://www.w3.org/2000/svg" viewBox="0 0 50 50" width="500px" height="500px"><path d="M 9 4 C 6.2504839 4 4 6.2504839 4 9 L 4 34.832031 A 1.0001 1.0001 0 0 0 4 35.158203 L 4 41 C 4 43.749516 6.2504839 46 9 46 L 41 46 C 43.749516 46 46 43.749516 46 41 L 46 35.167969 A 1.0001 1.0001 0 0 0 46 34.841797 L 46 9 C 46 6.2504839 43.749516 4 41 4 L 9 4 z M 9 6 L 41 6 C 42.668484 6 44 7.3315161 44 9 L 44 34 L 32.439453 34 C 31.925018 33.146342 29.861211 30 25 30 C 24.943296 30 24.891883 30.005012 24.835938 30.005859 L 20.923828 20.615234 A 1.0001 1.0001 0 0 0 19.984375 19.986328 A 1.0001 1.0001 0 0 0 19.076172 21.384766 L 22.771484 30.25 C 19.490883 31.005648 17.987858 33.290916 17.560547 34 L 6 34 L 6 9 C 6 7.3315161 7.3315161 6 9 6 z M 24.984375 9.9863281 A 1.0001 1.0001 0 0 0 24.724609 10.025391 C 18.863282 10.088841 13.01981 12.148572 8.3417969 16.248047 A 1.0001 1.0001 0 0 0 8.2929688 17.707031 L 11.292969 20.707031 A 1.0001 1.0001 0 1 0 12.707031 19.292969 L 10.533203 17.119141 C 12.192692 15.797029 13.982676 14.736796 15.867188 13.933594 L 17.078125 16.806641 A 1.0008394 1.0008394 0 1 0 18.921875 16.027344 L 17.732422 13.214844 C 19.771853 12.54716 21.875895 12.176781 24 12.085938 L 24 15 A 1.0001 1.0001 0 1 0 26 15 L 26 12.085938 C 28.124105 12.176778 30.228147 12.54716 32.267578 13.214844 L 31.078125 16.027344 A 1.0008394 1.0008394 0 1 0 32.921875 16.806641 L 34.132812 13.933594 C 36.017324 14.736796 37.807308 15.797029 39.466797 17.119141 L 37.292969 19.292969 A 1.0001 1.0001 0 1 0 38.707031 20.707031 L 41.707031 17.707031 A 1.0001 1.0001 0 0 0 41.658203 16.248047 C 36.982826 12.15088 31.143162 10.093028 25.285156 10.027344 A 1.0001 1.0001 0 0 0 24.984375 9.9863281 z M 25 32 C 29.466667 32 31.105469 35.447266 31.105469 35.447266 A 1.0001 1.0001 0 0 0 32 36 L 44 36 L 44 41 C 44 42.668484 42.668484 44 41 44 L 9 44 C 7.3315161 44 6 42.668484 6 41 L 6 36 L 18 36 A 1.0001 1.0001 0 0 0 18.894531 35.447266 C 18.894531 35.447266 20.533333 32 25 32 z M 25 36 A 2 2 0 0 0 25 40 A 2 2 0 0 0 25 36 z M 10 39 A 1 1 0 0 0 10 41 A 1 1 0 0 0 10 39 z M 40 39 A 1 1 0 0 0 40 41 A 1 1 0 0 0 40 39 z"/></svg>