<svg fill="#3498db" xmlns="http://www.w3.org/2000/svg" viewBox="0 0 50 50" width="500px" height="500px"><path d="M 9 4 C 6.2504839 4 4 6.2504839 4 9 L 4 41 C 4 43.749516 6.2504839 46 9 46 L 41 46 C 43.749516 46 46 43.749516 46 41 L 46 9 C 46 6.2504839 43.749516 4 41 4 L 9 4 z M 9 6 L 41 6 C 41.464928 6 41.897983 6.1116163 42.289062 6.296875 L 6.296875 42.289062 C 6.1116163 41.897983 6 41.464928 6 41 L 6 9 C 6 7.3315161 7.3315161 6 9 6 z M 43.703125 7.7109375 C 43.888384 8.1020171 44 8.5350724 44 9 L 44 41 C 44 42.668484 42.668484 44 41 44 L 9 44 C 8.5350724 44 8.1020171 43.888384 7.7109375 43.703125 L 43.703125 7.7109375 z M 15.984375 8.9863281 A 1.0001 1.0001 0 0 0 15 10 L 15 15 L 10 15 A 1.0001 1.0001 0 1 0 10 17 L 15 17 L 15 22 A 1.0001 1.0001 0 1 0 17 22 L 17 17 L 22 17 A 1.0001 1.0001 0 1 0 22 15 L 17 15 L 17 10 A 1.0001 1.0001 0 0 0 15.984375 8.9863281 z M 28 33 A 1.0001 1.0001 0 1 0 28 35 L 40 35 A 1.0001 1.0001 0 1 0 40 33 L 28 33 z"/></svg>