<svg fill="#3498db" xmlns="http://www.w3.org/2000/svg" viewBox="0 0 50 50" width="500px" height="500px"><path d="M 25 13 C 21.019531 13 17.421875 13.683594 14.71875 14.84375 C 13.367188 15.421875 12.210938 16.121094 11.375 16.96875 C 10.539063 17.816406 10 18.855469 10 20 L 10 36 C 10 37.144531 10.539063 38.183594 11.375 39.03125 C 11.828125 39.492188 12.375 39.902344 13 40.28125 L 13 44.28125 C 13 45.246094 13.472656 46.117188 14.15625 46.8125 C 14.839844 47.507813 15.734375 48.066406 16.8125 48.53125 C 18.972656 49.457031 21.847656 50 25 50 C 28.152344 50 31.027344 49.457031 33.1875 48.53125 C 34.265625 48.070313 35.160156 47.507813 35.84375 46.8125 C 36.527344 46.117188 37 45.246094 37 44.28125 L 37 40.28125 C 37.625 39.902344 38.171875 39.492188 38.625 39.03125 C 39.460938 38.183594 40 37.144531 40 36 L 40 20 C 40 18.855469 39.460938 17.816406 38.625 16.96875 C 37.789063 16.121094 36.632813 15.421875 35.28125 14.84375 C 32.578125 13.683594 28.980469 13 25 13 Z M 25 15 C 28.75 15 32.136719 15.675781 34.5 16.6875 C 35.683594 17.195313 36.605469 17.785156 37.1875 18.375 C 37.769531 18.964844 38 19.488281 38 20 C 38 20.511719 37.769531 21.035156 37.1875 21.625 C 36.851563 21.964844 36.390625 22.300781 35.84375 22.625 C 35.941406 22.332031 36 22.035156 36 21.71875 C 36 20.8125 35.570313 19.984375 34.9375 19.34375 C 34.304688 18.703125 33.457031 18.175781 32.46875 17.75 C 30.488281 16.902344 27.878906 16.4375 25 16.4375 C 22.121094 16.4375 19.511719 16.902344 17.53125 17.75 C 16.542969 18.175781 15.695313 18.703125 15.0625 19.34375 C 14.429688 19.984375 14 20.8125 14 21.71875 C 14 22.035156 14.058594 22.332031 14.15625 22.625 C 13.609375 22.300781 13.148438 21.964844 12.8125 21.625 C 12.230469 21.035156 12 20.511719 12 20 C 12 19.488281 12.230469 18.964844 12.8125 18.375 C 13.394531 17.785156 14.316406 17.195313 15.5 16.6875 C 17.863281 15.675781 21.25 15 25 15 Z M 25 18.4375 C 27.644531 18.4375 30.046875 18.890625 31.6875 19.59375 C 32.507813 19.945313 33.121094 20.367188 33.5 20.75 C 33.878906 21.132813 34 21.441406 34 21.71875 C 34 21.996094 33.878906 22.304688 33.5 22.6875 C 33.121094 23.070313 32.507813 23.460938 31.6875 23.8125 C 30.046875 24.515625 27.644531 25 25 25 C 22.355469 25 19.953125 24.515625 18.3125 23.8125 C 17.492188 23.460938 16.878906 23.070313 16.5 22.6875 C 16.121094 22.304688 16 21.996094 16 21.71875 C 16 21.441406 16.121094 21.132813 16.5 20.75 C 16.878906 20.367188 17.492188 19.945313 18.3125 19.59375 C 19.953125 18.890625 22.355469 18.4375 25 18.4375 Z M 12 23.5625 C 12.753906 24.167969 13.671875 24.707031 14.71875 25.15625 C 17.421875 26.316406 21.019531 27 25 27 C 28.980469 27 32.578125 26.316406 35.28125 25.15625 C 36.328125 24.707031 37.246094 24.167969 38 23.5625 L 38 26 C 38 26.511719 37.769531 27.035156 37.1875 27.625 C 36.605469 28.214844 35.683594 28.804688 34.5 29.3125 C 32.136719 30.324219 28.75 31 25 31 C 21.25 31 17.863281 30.324219 15.5 29.3125 C 14.316406 28.804688 13.394531 28.214844 12.8125 27.625 C 12.230469 27.035156 12 26.511719 12 26 Z M 12 29.5625 C 12.753906 30.167969 13.671875 30.707031 14.71875 31.15625 C 17.421875 32.316406 21.019531 33 25 33 C 28.980469 33 32.578125 32.316406 35.28125 31.15625 C 36.328125 30.707031 37.246094 30.167969 38 29.5625 L 38 30 C 38 30.511719 37.769531 31.035156 37.1875 31.625 C 36.605469 32.214844 35.683594 32.804688 34.5 33.3125 C 32.136719 34.324219 28.75 35 25 35 C 21.25 35 17.863281 34.324219 15.5 33.3125 C 14.316406 32.804688 13.394531 32.214844 12.8125 31.625 C 12.230469 31.035156 12 30.511719 12 30 Z M 12 33.5625 C 12.753906 34.167969 13.671875 34.707031 14.71875 35.15625 C 17.421875 36.316406 21.019531 37 25 37 C 28.980469 37 32.578125 36.316406 35.28125 35.15625 C 36.328125 34.707031 37.246094 34.167969 38 33.5625 L 38 36 C 38 36.511719 37.769531 37.035156 37.1875 37.625 C 36.605469 38.214844 35.683594 38.804688 34.5 39.3125 C 32.136719 40.324219 28.75 41 25 41 C 21.25 41 17.863281 40.324219 15.5 39.3125 C 14.316406 38.804688 13.394531 38.214844 12.8125 37.625 C 12.230469 37.035156 12 36.511719 12 36 Z M 15 41.25 C 17.671875 42.339844 21.148438 43 25 43 C 28.851563 43 32.328125 42.339844 35 41.25 L 35 44.28125 C 35 44.617188 34.867188 44.972656 34.4375 45.40625 C 34.007813 45.839844 33.285156 46.296875 32.375 46.6875 C 30.554688 47.46875 27.921875 48 25 48 C 22.078125 48 19.445313 47.46875 17.625 46.6875 C 16.714844 46.296875 15.992188 45.839844 15.5625 45.40625 C 15.132813 44.972656 15 44.617188 15 44.28125 Z"/></svg>