<?xml version="1.0" standalone="no"?>
<!DOCTYPE svg PUBLIC "-//W3C//DTD SVG 20010904//EN"
 "http://www.w3.org/TR/2001/REC-SVG-20010904/DTD/svg10.dtd">
<svg version="1.0" xmlns="http://www.w3.org/2000/svg"
 width="700.000000pt" height="700.000000pt" viewBox="0 0 700.000000 700.000000"
 preserveAspectRatio="xMidYMid meet">
<metadata>
Created by potrace 1.11, written by Peter Selinger 2001-2013
</metadata>
<g transform="translate(0.000000,700.000000) scale(0.100000,-0.100000)"
fill="#000000" stroke="none">
<path d="M3292 6425 c-64 -14 -202 -72 -202 -85 0 -4 -10 -12 -22 -17 -39 -18
-129 -105 -174 -169 -49 -69 -104 -183 -155 -321 l-34 -93 -372 0 -373 0 0 83
c0 96 -17 140 -69 174 l-34 23 -521 0 c-581 0 -566 2 -613 -69 -21 -30 -23
-46 -23 -150 l0 -116 -72 -28 c-200 -78 -388 -235 -495 -416 -51 -86 -77 -148
-105 -251 l-23 -85 0 -1615 0 -1615 22 -82 c50 -186 127 -324 253 -454 144
-147 304 -235 510 -280 81 -17 196 -18 2700 -18 2821 0 2689 -2 2845 52 292
101 517 329 613 620 17 50 34 115 39 142 4 28 8 768 8 1645 l0 1595 -24 94
c-13 52 -27 102 -31 110 -4 9 -20 43 -35 76 -111 244 -331 436 -592 518 -71
23 -107 31 -198 43 -11 1 -110 3 -220 3 l-200 1 -44 118 c-80 212 -131 297
-241 402 -67 64 -144 112 -238 149 l-67 26 -875 2 c-716 2 -886 -1 -938 -12z
m1811 -298 c73 -35 185 -144 219 -212 14 -27 53 -124 88 -215 47 -125 70 -173
96 -200 l34 -35 308 -6 c318 -7 334 -9 447 -56 179 -75 327 -234 386 -413 11
-36 23 -74 27 -85 4 -11 8 -724 9 -1585 3 -1677 4 -1632 -47 -1760 -67 -169
-208 -312 -376 -383 -143 -60 55 -57 -2819 -54 l-2630 2 -60 21 c-267 93 -435
275 -490 533 -21 99 -21 3124 0 3223 44 206 182 389 363 482 32 17 177 66 194
66 6 0 31 9 54 20 56 28 74 72 74 185 l0 85 349 0 349 0 4 -94 c3 -107 18
-138 79 -168 31 -16 79 -18 553 -18 513 0 519 0 557 22 44 25 51 38 125 235
30 80 66 168 81 197 47 94 168 196 283 239 8 3 391 5 850 4 l835 -2 58 -28z"/>
<path d="M4002 5169 c-116 -14 -165 -24 -281 -55 -122 -32 -251 -83 -371 -146
-79 -42 -201 -118 -220 -138 -3 -3 -32 -25 -65 -50 -33 -24 -103 -87 -155
-140 -286 -288 -465 -657 -518 -1067 -11 -88 -7 -411 6 -473 6 -30 14 -71 17
-90 12 -69 26 -122 60 -224 159 -477 500 -857 966 -1079 83 -40 264 -102 344
-119 28 -5 68 -14 91 -18 119 -25 404 -33 544 -16 516 62 1004 362 1291 796
162 243 265 523 297 799 9 85 8 358 -1 436 -30 237 -130 526 -243 702 -19 29
-34 56 -34 59 0 2 -5 10 -10 17 -6 7 -37 48 -69 92 -84 114 -291 321 -360 359
-9 5 -18 12 -21 16 -15 19 -180 118 -275 165 -167 82 -367 143 -555 170 -69
10 -367 13 -438 4z m378 -279 c310 -40 584 -160 817 -357 344 -291 540 -714
541 -1168 0 -244 -50 -467 -152 -675 -42 -86 -44 -89 -108 -186 -187 -285
-484 -507 -821 -615 -136 -44 -257 -61 -432 -64 -260 -4 -456 37 -673 140
-103 49 -244 134 -302 181 -46 38 -134 120 -171 159 -35 37 -49 53 -90 103
-136 162 -270 461 -304 677 -3 22 -10 63 -15 90 -15 94 -4 370 19 483 87 415
309 747 660 985 185 125 443 221 656 244 28 3 51 7 53 8 7 6 264 2 322 -5z"/>
<path d="M887 5023 c-183 -63 -244 -301 -116 -447 161 -182 461 -84 486 159
20 197 -180 354 -370 288z"/>
</g>
</svg>
