<?xml version="1.0"?><svg fill="#3498db" xmlns="http://www.w3.org/2000/svg" viewBox="0 0 50 50" width="500px" height="500px">    <path d="M 2 9 L 2 41 L 48 41 L 48 9 L 2 9 z M 4 11 L 46 11 L 46 39 L 4 39 L 4 11 z M 17 16 C 16.448 16 16 16.447 16 17 L 16 22 C 16 22.553 16.448 23 17 23 C 17.552 23 18 22.553 18 22 L 18 19.414062 L 23.585938 25 L 18 30.585938 L 18 28 C 18 27.447 17.552 27 17 27 C 16.448 27 16 27.447 16 28 L 16 33 C 16 33.553 16.448 34 17 34 L 22 34 C 22.552 34 23 33.553 23 33 C 23 32.447 22.552 32 22 32 L 19.414062 32 L 25 26.414062 L 30.585938 32 L 28 32 C 27.447 32 27 32.447 27 33 C 27 33.553 27.447 34 28 34 L 33 34 C 33.553 34 34 33.553 34 33 L 34 28 C 34 27.447 33.553 27 33 27 C 32.447 27 32 27.447 32 28 L 32 30.585938 L 26.414062 25 L 32 19.414062 L 32 22 C 32 22.553 32.447 23 33 23 C 33.553 23 34 22.553 34 22 L 34 17 C 34 16.447 33.553 16 33 16 L 28 16 C 27.447 16 27 16.447 27 17 C 27 17.553 27.447 18 28 18 L 30.585938 18 L 25 23.585938 L 19.414062 18 L 22 18 C 22.552 18 23 17.553 23 17 C 23 16.447 22.552 16 22 16 L 17 16 z"/></svg>