<svg fill="#3498db" xmlns="http://www.w3.org/2000/svg" viewBox="0 0 50 50" width="500px" height="500px"><path d="M 38.40625 11 C 34.871094 11 32 13.871094 32 17.40625 C 32 18.234375 31.464844 18.710938 30.625 18.53125 C 30.613281 18.53125 30.605469 18.53125 30.59375 18.53125 C 27.5625 17.925781 22.34375 17 18 17 C 13.449219 17 7.925781 18.019531 4.90625 18.625 C 4.894531 18.625 4.886719 18.625 4.875 18.625 C 3.132813 18.996094 1.769531 20.246094 1.15625 21.84375 C 1.15625 21.863281 1.15625 21.886719 1.15625 21.90625 C 0.644531 23.539063 0 25.839844 0 28.5 C 0 30.796875 0.410156 32.875 0.9375 34.46875 C 0.941406 34.484375 0.933594 34.515625 0.9375 34.53125 L 0.96875 34.53125 C 1.621094 36.632813 3.578125 38 5.6875 38 L 11 38 L 11 39.40625 C 11 40.339844 11.515625 41.152344 12.21875 41.59375 C 12.921875 42.035156 13.820313 42.148438 14.65625 41.84375 C 14.675781 41.835938 14.699219 41.824219 14.71875 41.8125 C 15.730469 41.351563 16.90625 41 18 41 C 19.09375 41 20.269531 41.351563 21.28125 41.8125 C 21.300781 41.824219 21.324219 41.835938 21.34375 41.84375 C 22.179688 42.148438 23.078125 42.035156 23.78125 41.59375 C 24.484375 41.152344 25 40.339844 25 39.40625 L 25 38 L 44 38 C 46.355469 38 48.375 36.375 48.875 34.125 C 49.382813 31.789063 50 28.308594 50 24.5 C 50 22.117188 49.886719 19.832031 49.6875 17.90625 C 49.683594 17.871094 49.691406 17.816406 49.6875 17.78125 L 49.65625 17.78125 C 49.636719 17.316406 49.585938 16.910156 49.5 16.5625 C 49.496094 16.527344 49.472656 16.503906 49.46875 16.46875 C 48.949219 13.316406 46.160156 11 43 11 Z M 38.40625 13 L 43 13 C 45.207031 13 47.175781 14.648438 47.5 16.84375 C 47.507813 16.875 47.519531 16.90625 47.53125 16.9375 C 47.632813 17.335938 47.6875 17.671875 47.6875 17.90625 C 47.695313 17.9375 47.707031 17.96875 47.71875 18 C 47.914063 19.851563 48 22.128906 48 24.5 C 48 28.09375 47.429688 31.425781 46.9375 33.6875 C 46.636719 35.035156 45.445313 36 44 36 L 25 36 C 25 35.449219 24.550781 35 24 35 L 12 35 C 11.96875 35 11.9375 35 11.90625 35 C 11.875 35 11.84375 35 11.8125 35 C 11.335938 35.089844 10.992188 35.511719 11 36 L 5.6875 36 C 4.417969 36 3.214844 35.164063 2.84375 33.90625 C 2.84375 33.894531 2.84375 33.886719 2.84375 33.875 C 2.378906 32.476563 2 30.578125 2 28.5 C 2 26.1875 2.546875 24.125 3.03125 22.5625 C 3.035156 22.546875 3.058594 22.546875 3.0625 22.53125 C 3.066406 22.523438 3.058594 22.507813 3.0625 22.5 C 3.453125 21.542969 4.265625 20.828125 5.28125 20.59375 C 8.261719 19.996094 13.75 19 18 19 C 22.046875 19 27.214844 19.875 30.1875 20.46875 C 30.195313 20.46875 30.210938 20.46875 30.21875 20.46875 C 32.167969 20.867188 34 19.367188 34 17.40625 C 34 14.941406 35.941406 13 38.40625 13 Z M 40.5 15 C 39.121094 15 38 15.894531 38 17 C 38 18.105469 39.121094 19 40.5 19 C 41.878906 19 43 18.105469 43 17 C 43 15.894531 41.878906 15 40.5 15 Z M 40 22 C 37.035156 22 34.570313 24.164063 34.09375 27 L 32 27 L 32 29 L 34.09375 29 C 34.570313 31.835938 37.035156 34 40 34 C 43.300781 34 46 31.300781 46 28 C 46 24.699219 43.300781 22 40 22 Z M 15.90625 22.96875 C 15.875 22.976563 15.84375 22.988281 15.8125 23 L 13 23 C 12.96875 23 12.9375 23 12.90625 23 C 12.875 23 12.84375 23 12.8125 23 C 12.335938 23.089844 11.992188 23.511719 12 24 L 12 32 C 12 32.550781 12.449219 33 13 33 L 23 33 C 23.550781 33 24 32.550781 24 32 L 24 24 C 24 23.449219 23.550781 23 23 23 L 20.21875 23 C 20.117188 22.972656 20.011719 22.960938 19.90625 22.96875 C 19.875 22.976563 19.84375 22.988281 19.8125 23 L 16.21875 23 C 16.117188 22.972656 16.011719 22.960938 15.90625 22.96875 Z M 40 24 C 42.222656 24 44 25.777344 44 28 C 44 30.222656 42.222656 32 40 32 C 37.777344 32 36 30.222656 36 28 C 36 25.777344 37.777344 24 40 24 Z M 14 25 L 15 25 L 15 31 L 14 31 Z M 17 25 L 19 25 L 19 31 L 17 31 Z M 21 25 L 22 25 L 22 31 L 21 31 Z M 40 25 C 38.355469 25 37 26.355469 37 28 C 37 29.644531 38.355469 31 40 31 C 41.644531 31 43 29.644531 43 28 C 43 26.355469 41.644531 25 40 25 Z M 40 27 C 40.5625 27 41 27.4375 41 28 C 41 28.5625 40.5625 29 40 29 C 39.4375 29 39 28.5625 39 28 C 39 27.4375 39.4375 27 40 27 Z M 13.09375 37 L 23 37 C 22.992188 37.074219 22.992188 37.144531 23 37.21875 L 23 39.40625 C 23 39.671875 22.890625 39.796875 22.71875 39.90625 C 22.546875 40.015625 22.296875 40.066406 22.03125 39.96875 C 20.863281 39.445313 19.46875 39 18 39 C 16.53125 39 15.136719 39.445313 13.96875 39.96875 C 13.703125 40.066406 13.453125 40.015625 13.28125 39.90625 C 13.109375 39.796875 13 39.671875 13 39.40625 L 13 37.46875 C 13.070313 37.324219 13.101563 37.160156 13.09375 37 Z"/></svg>