<svg fill="#3498db" xmlns="http://www.w3.org/2000/svg" viewBox="0 0 50 50" width="500px" height="500px"><path d="M 15.230469 4 A 1.0001 1.0001 0 0 0 14.285156 4.6738281 L 14.115234 5.1660156 C 14.097224 5.2080446 14.071917 5.2606526 14.060547 5.2890625 A 1.0001 1.0001 0 0 0 14.048828 5.3242188 L 6.5390625 26.322266 L 6.0585938 27.662109 A 1.0001 1.0001 0 0 0 7 29 L 7.6582031 29 L 6.0546875 33.675781 A 1.0001 1.0001 0 0 0 7 35 L 7.6582031 35 L 6.0546875 39.675781 A 1.0001 1.0001 0 0 0 7 41 L 7.6582031 41 L 6.0546875 45.675781 A 1.0001 1.0001 0 0 0 7 47 L 43 47 A 1.0001 1.0001 0 0 0 43.945312 45.675781 L 42.341797 41 L 43 41 A 1.0001 1.0001 0 0 0 43.945312 39.675781 L 42.341797 35 L 43 35 A 1.0001 1.0001 0 0 0 43.945312 33.675781 L 42.341797 29 L 43 29 A 1.0001 1.0001 0 0 0 43.941406 27.662109 L 43.460938 26.322266 L 37.371094 9.3027344 A 1.0001 1.0001 0 0 0 37.003906 8.8222656 C 34.585515 7.123396 32.835673 5.882771 30.414062 4.1816406 A 1.0001 1.0001 0 0 0 29.839844 4 L 15.230469 4 z M 15.984375 5.875 L 15.941406 6 L 27 6 L 27 11 A 1.0001 1.0001 0 0 0 28 12 L 36 12 A 1.0001 1.0001 0 0 0 36.205078 11.978516 L 41.578125 26.996094 A 1.0001 1.0001 0 0 0 41.578125 26.998047 L 41.578125 27 L 40.982422 27 L 9.0566406 27 L 8.421875 27 L 8.421875 26.998047 A 1.0001 1.0001 0 0 0 8.421875 26.996094 L 15.917969 6.03125 C 15.922969 6.018799 15.921681 6.02549 15.925781 6.015625 L 15.931641 5.9960938 C 15.935941 5.9860527 15.949843 5.9577389 15.945312 5.9667969 A 1.0001 1.0001 0 0 0 15.984375 5.875 z M 9.7714844 29 L 40.228516 29 L 41.599609 33 L 40.982422 33 L 9.0566406 33 L 8.4003906 33 L 9.7714844 29 z M 9.7714844 35 L 40.228516 35 L 41.599609 39 L 40.982422 39 L 9.0566406 39 L 8.4003906 39 L 9.7714844 35 z M 9.7714844 41 L 40.228516 41 L 41.599609 45 L 8.4003906 45 L 9.7714844 41 z"/></svg>