<svg fill="#3498db" xmlns="http://www.w3.org/2000/svg" viewBox="0 0 50 50" width="500px" height="500px"><path d="M 7.6875 0 C 6.730469 0 5.96875 0.660156 5.8125 1.59375 L 0.09375 35.40625 C 0.0351563 35.59375 0 35.796875 0 36 L 0 48 C 0 49.09375 0.90625 50 2 50 L 48 50 C 49.09375 50 50 49.09375 50 48 L 50 36 C 50 35.703125 49.933594 35.410156 49.8125 35.15625 L 44.1875 1.59375 C 44.03125 0.660156 43.269531 0 42.3125 0 Z M 7.78125 2 L 42.21875 2 L 47.59375 34 L 2.375 34 Z M 25 7 C 20.945313 7 17.261719 8.175781 14.53125 10.125 C 11.800781 12.074219 10 14.859375 10 18 C 10 21.140625 11.800781 23.925781 14.53125 25.875 C 17.261719 27.824219 20.945313 29 25 29 C 29.054688 29 32.738281 27.824219 35.46875 25.875 C 38.199219 23.925781 40 21.140625 40 18 C 40 14.859375 38.199219 12.074219 35.46875 10.125 C 32.738281 8.175781 29.054688 7 25 7 Z M 25 9 C 28.667969 9 31.972656 10.078125 34.3125 11.75 C 36.652344 13.421875 38 15.617188 38 18 C 38 20.382813 36.652344 22.578125 34.3125 24.25 C 31.972656 25.921875 28.667969 27 25 27 C 21.332031 27 18.027344 25.921875 15.6875 24.25 C 13.347656 22.578125 12 20.382813 12 18 C 12 15.617188 13.347656 13.421875 15.6875 11.75 C 18.027344 10.078125 21.332031 9 25 9 Z M 25 15 C 23.34375 15 22 15.894531 22 17 C 22 18.105469 23.34375 19 25 19 C 26.65625 19 28 18.105469 28 17 C 28 15.894531 26.65625 15 25 15 Z M 2 36 L 47.96875 36 C 47.976563 36.019531 47.988281 36.042969 48 36.0625 L 48 48 L 2 48 Z M 40 40 C 38.894531 40 38 40.894531 38 42 C 38 43.105469 38.894531 44 40 44 C 41.105469 44 42 43.105469 42 42 C 42 40.894531 41.105469 40 40 40 Z"/></svg>