<svg fill="#3498db" xmlns="http://www.w3.org/2000/svg"  viewBox="0 0 50 50" width="500px" height="500px"><path d="M 25 0 C 15.626 0 8 7.626 8 17 C 8 25.349 14.054 32.29575 22 33.71875 L 22 31.697266 C 15.162 30.303266 10 24.244 10 17 C 10 8.729 16.729 2 25 2 C 33.271 2 40 8.729 40 17 C 40 24.244 34.838 30.303266 28 31.697266 L 28 33.71875 C 35.946 32.29575 42 25.349 42 17 C 42 7.626 34.374 0 25 0 z M 24.984375 15.986328 A 1.0001 1.0001 0 0 0 24 17 L 24 45.871094 L 18.724609 40.3125 A 1.0001 1.0001 0 0 0 18.015625 39.990234 A 1.0001 1.0001 0 0 0 17.275391 41.6875 L 25 49.828125 L 32.724609 41.6875 A 1.0001 1.0001 0 1 0 31.275391 40.3125 L 26 45.871094 L 26 17 A 1.0001 1.0001 0 0 0 24.984375 15.986328 z"/></svg>