<svg fill="#3498db" xmlns="http://www.w3.org/2000/svg" viewBox="0 0 50 50" width="500px" height="500px"><path d="M 23.824219 4 C 22.421875 4 21.253906 4.980469 20.726563 6.339844 L 20.449219 7 L 18 7 C 18 6.449219 17.550781 6 17 6 L 14.109375 6 C 13.558594 6 13.113281 6.449219 13.109375 7 L 13.109375 7.414063 C 11.308594 8.136719 10 9.839844 10 11.890625 L 10 23.109375 C 10 25.796875 12.203125 28 14.890625 28 L 35.109375 28 C 37.796875 28 40 25.796875 40 23.109375 L 40 11.890625 C 40 9.203125 37.796875 7 35.109375 7 L 34.21875 7 L 33.9375 6.339844 C 33.410156 4.980469 32.242188 4 30.84375 4 Z M 23.824219 6 L 30.84375 6 C 31.101563 6 31.832031 6.4375 32.074219 7.0625 C 32.078125 7.074219 32.082031 7.082031 32.085938 7.09375 L 32.632813 8.390625 C 32.789063 8.757813 33.152344 9 33.554688 9 L 35.109375 9 C 36.703125 9 38 10.296875 38 11.890625 L 38 23.109375 C 38 24.703125 36.703125 26 35.109375 26 L 14.890625 26 C 13.296875 26 12 24.703125 12 23.109375 L 12 11.890625 C 12 10.496094 13.003906 9.328125 14.3125 9.058594 C 14.777344 8.964844 15.113281 8.554688 15.109375 8.078125 L 15.109375 8 L 16 8 C 16 8.550781 16.449219 9 17 9 L 21.109375 9 C 21.511719 9 21.875 8.757813 22.03125 8.390625 L 22.578125 7.09375 C 22.585938 7.082031 22.589844 7.074219 22.59375 7.0625 C 22.835938 6.4375 23.5625 6 23.824219 6 Z M 27 10 C 23.144531 10 20 13.144531 20 17 C 20 20.855469 23.144531 24 27 24 C 30.855469 24 34 20.855469 34 17 C 34 13.144531 30.855469 10 27 10 Z M 15 11 C 14.449219 11 14 11.449219 14 12 C 14 12.550781 14.449219 13 15 13 C 15.550781 13 16 12.550781 16 12 C 16 11.449219 15.550781 11 15 11 Z M 27 12 C 29.773438 12 32 14.226563 32 17 C 32 19.773438 29.773438 22 27 22 C 24.226563 22 22 19.773438 22 17 C 22 14.226563 24.226563 12 27 12 Z M 20 29 L 20 31 L 22.285156 31 L 13.8125 46 L 16.109375 46 L 24 32.035156 L 24 46 L 26 46 L 26 32.066406 L 33.714844 46 L 36 46 L 27.699219 31 L 30 31 L 30 29 Z"/></svg>