<svg fill="#3498db" xmlns="http://www.w3.org/2000/svg"  viewBox="0 0 50 50" width="500px" height="500px"><path d="M 25 0 C 23.894531 0 23 0.894531 23 2 C 23 2.550781 23.5 3.542969 24 4.40625 L 24 7 L 26 7 L 26 4.40625 C 26.5 3.542969 27 2.550781 27 2 C 27 0.894531 26.105469 0 25 0 Z M 8.75 6.75 C 8.238281 6.75 7.703125 6.921875 7.3125 7.3125 C 6.53125 8.09375 6.53125 9.375 7.3125 10.15625 C 7.699219 10.542969 8.761719 10.902344 9.71875 11.15625 C 9.726563 11.160156 9.742188 11.152344 9.75 11.15625 L 11.5625 12.96875 L 12.96875 11.5625 L 11.15625 9.75 C 11.152344 9.742188 11.160156 9.726563 11.15625 9.71875 C 10.902344 8.761719 10.542969 7.699219 10.15625 7.3125 C 9.765625 6.921875 9.261719 6.75 8.75 6.75 Z M 41.25 6.75 C 40.738281 6.75 40.234375 6.921875 39.84375 7.3125 C 39.453125 7.703125 39.101563 8.785156 38.84375 9.75 L 37.03125 11.5625 L 38.4375 12.96875 L 40.28125 11.15625 C 41.238281 10.902344 42.300781 10.542969 42.6875 10.15625 C 43.46875 9.375 43.46875 8.09375 42.6875 7.3125 C 42.296875 6.921875 41.761719 6.75 41.25 6.75 Z M 25 8 C 15.621094 8 8 15.621094 8 25 C 8 34.378906 15.621094 42 25 42 C 34.378906 42 42 34.378906 42 25 C 42 15.621094 34.378906 8 25 8 Z M 25 10 C 33.296875 10 40 16.703125 40 25 C 40 33.296875 33.296875 40 25 40 C 16.703125 40 10 33.296875 10 25 C 10 16.703125 16.703125 10 25 10 Z M 25 11 C 17.28125 11 11 17.28125 11 25 C 11 32.71875 17.28125 39 25 39 C 32.71875 39 39 32.71875 39 25 C 39 17.28125 32.71875 11 25 11 Z M 23.78125 13.0625 C 23.855469 13.054688 23.925781 13.070313 24 13.0625 L 24 17 L 26 17 L 26 13.0625 C 28.5625 13.273438 30.898438 14.277344 32.75 15.84375 L 29.9375 18.625 L 31.375 20.0625 L 34.15625 17.25 C 35.722656 19.101563 36.726563 21.4375 36.9375 24 L 33 24 L 33 26 L 36.9375 26 C 36.726563 28.5625 35.722656 30.898438 34.15625 32.75 L 31.375 29.9375 L 29.9375 31.375 L 32.75 34.15625 C 30.898438 35.722656 28.5625 36.726563 26 36.9375 L 26 33 L 24 33 L 24 36.9375 C 21.4375 36.726563 19.101563 35.722656 17.25 34.15625 L 20.0625 31.375 L 18.625 29.9375 L 15.84375 32.75 C 14.277344 30.898438 13.273438 28.5625 13.0625 26 L 17 26 L 17 24 L 13.0625 24 C 13.273438 21.4375 14.277344 19.101563 15.84375 17.25 L 18.625 20.0625 L 20.0625 18.625 L 17.25 15.84375 C 19.046875 14.320313 21.304688 13.3125 23.78125 13.0625 Z M 25 18 C 21.144531 18 18 21.144531 18 25 C 18 28.855469 21.144531 32 25 32 C 28.855469 32 32 28.855469 32 25 C 32 21.144531 28.855469 18 25 18 Z M 25 20 C 27.773438 20 30 22.226563 30 25 C 30 27.773438 27.773438 30 25 30 C 22.226563 30 20 27.773438 20 25 C 20 22.226563 22.226563 20 25 20 Z M 2 23 C 0.894531 23 0 23.894531 0 25 C 0 26.105469 0.894531 27 2 27 C 2.550781 27 3.542969 26.5 4.40625 26 L 7 26 L 7 24 L 4.40625 24 C 3.542969 23.5 2.550781 23 2 23 Z M 48 23 C 47.449219 23 46.457031 23.5 45.59375 24 L 43 24 L 43 26 L 45.59375 26 C 46.457031 26.5 47.449219 27 48 27 C 49.105469 27 50 26.105469 50 25 C 50 23.894531 49.105469 23 48 23 Z M 11.5625 37.03125 L 9.71875 38.84375 C 8.761719 39.097656 7.699219 39.457031 7.3125 39.84375 C 6.53125 40.625 6.53125 41.90625 7.3125 42.6875 C 8.09375 43.46875 9.375 43.46875 10.15625 42.6875 C 10.546875 42.296875 10.898438 41.214844 11.15625 40.25 L 12.96875 38.4375 Z M 38.4375 37.03125 L 37.03125 38.4375 L 38.84375 40.28125 C 39.097656 41.238281 39.457031 42.300781 39.84375 42.6875 C 40.625 43.46875 41.90625 43.46875 42.6875 42.6875 C 43.46875 41.90625 43.46875 40.625 42.6875 39.84375 C 42.300781 39.457031 41.238281 39.097656 40.28125 38.84375 Z M 24 43 L 24 45.59375 C 23.5 46.457031 23 47.449219 23 48 C 23 49.105469 23.894531 50 25 50 C 26.105469 50 27 49.105469 27 48 C 27 47.449219 26.5 46.457031 26 45.59375 L 26 43 Z"/></svg>