<svg fill="#3498db" xmlns="http://www.w3.org/2000/svg"  viewBox="0 0 50 50" width="500px" height="500px"><path d="M 23 2 C 11.413593 2 2 11.413593 2 23 L 2 24 L 24 24 L 24 23 L 24 2 L 23 2 z M 22 4.0996094 L 22 22 L 4.0996094 22 C 4.6111411 12.30882 12.30882 4.6111411 22 4.0996094 z M 27 6 C 26.662 6 26.334 6.0347813 26 6.0507812 L 26 8.0507812 C 26.333 8.0327812 26.662 8 27 8 C 37.477 8 46 16.523 46 27 C 46 37.477 37.477 46 27 46 C 16.523 46 8 37.477 8 27 C 8 26.662 8.0327813 26.333 8.0507812 26 L 6.0507812 26 C 6.0347812 26.334 6 26.662 6 27 C 6 38.58 15.42 48 27 48 C 38.58 48 48 38.58 48 27 C 48 15.42 38.58 6 27 6 z"/></svg>