<svg fill="#3498db" xmlns="http://www.w3.org/2000/svg" viewBox="0 0 50 50" width="500px" height="500px"><path d="M 21 6 C 10.517666 6 2 14.517666 2 25 C 2 35.482334 10.517666 44 21 44 C 27.961538 44 34.59635 39.309499 39.552734 34.734375 C 44.509118 30.159251 47.810547 25.585937 47.810547 25.585938 A 1.0001 1.0001 0 0 0 47.810547 24.414062 C 47.810547 24.414062 44.509118 19.840749 39.552734 15.265625 C 34.59635 10.690501 27.961538 6 21 6 z M 21 8 C 27.038462 8 33.40365 12.309499 38.197266 16.734375 C 42.48272 20.690179 45.132437 24.205602 45.722656 25 C 45.132437 25.794398 42.48272 29.309821 38.197266 33.265625 C 33.40365 37.690501 27.038462 42 21 42 C 11.598334 42 4 34.401666 4 25 C 4 15.598334 11.598334 8 21 8 z M 21 13 C 18.23619 13 16 15.23619 16 18 L 16 20 L 15 20 C 13.354545 20 12 21.354545 12 23 L 12 31 C 12 32.645455 13.354545 34 15 34 L 27 34 C 28.645455 34 30 32.645455 30 31 L 30 23 C 30 21.354545 28.645455 20 27 20 L 26 20 L 26 18 C 26 15.23619 23.76381 13 21 13 z M 21 15 C 22.71619 15 24 16.28381 24 18 L 24 20 L 18 20 L 18 18 C 18 16.28381 19.28381 15 21 15 z M 15 22 L 16.832031 22 A 1.0001 1.0001 0 0 0 17.158203 22 L 24.832031 22 A 1.0001 1.0001 0 0 0 25.158203 22 L 27 22 C 27.554545 22 28 22.445455 28 23 L 28 31 C 28 31.554545 27.554545 32 27 32 L 15 32 C 14.445455 32 14 31.554545 14 31 L 14 23 C 14 22.445455 14.445455 22 15 22 z M 21 24 A 2 2 0 0 0 19 26 A 2 2 0 0 0 20 27.730469 L 20 29 C 20 29.6 20.4 30 21 30 C 21.6 30 22 29.6 22 29 L 22 27.728516 A 2 2 0 0 0 23 26 A 2 2 0 0 0 21 24 z"/></svg>