<svg fill="#3498db" xmlns="http://www.w3.org/2000/svg" viewBox="0 0 50 50" width="500px" height="500px"><path d="M 14 0 C 13.015625 0 12.1875 0.5 11.59375 1.09375 C 11.570313 1.113281 11.550781 1.132813 11.53125 1.15625 L 9.6875 3.4375 C 9.640625 3.472656 9.605469 3.519531 9.5625 3.5625 C 9.417969 3.707031 9.308594 3.878906 9.21875 4.0625 C 9.195313 4.101563 9.175781 4.144531 9.15625 4.1875 C 9.152344 4.199219 9.128906 4.207031 9.125 4.21875 C 9.125 4.238281 9.125 4.261719 9.125 4.28125 C 9.046875 4.511719 9 4.757813 9 5 L 9 48 C 9 48.523438 9.183594 49.058594 9.5625 49.4375 C 9.941406 49.816406 10.476563 50 11 50 L 39 50 C 39.523438 50 40.058594 49.816406 40.4375 49.4375 C 40.816406 49.058594 41 48.523438 41 48 L 41 5 C 41 4.527344 40.835938 4.054688 40.53125 3.6875 C 40.523438 3.667969 40.511719 3.644531 40.5 3.625 C 40.488281 3.613281 40.480469 3.605469 40.46875 3.59375 C 40.441406 3.550781 40.410156 3.507813 40.375 3.46875 L 38.40625 1.09375 C 38.402344 1.085938 38.378906 1.101563 38.375 1.09375 C 38.371094 1.089844 38.378906 1.066406 38.375 1.0625 C 37.835938 0.367188 37.011719 0 36.09375 0 Z M 14 2 L 36.09375 2 C 36.359375 2 36.753906 2.234375 36.8125 2.3125 C 36.824219 2.324219 36.832031 2.332031 36.84375 2.34375 L 37.375 3 L 12.59375 3 L 13 2.5 L 13.03125 2.5 C 13.414063 2.117188 13.597656 2 14 2 Z M 11 5 L 39 5 L 39 48 L 11 48 Z M 16 9 C 15.476563 9 14.941406 9.183594 14.5625 9.5625 C 14.183594 9.941406 14 10.476563 14 11 L 14 16 C 14 16.34375 14.085938 16.691406 14.25 17 C 14.085938 17.308594 14 17.65625 14 18 L 14 23 C 14 23.523438 14.183594 24.058594 14.5625 24.4375 C 14.941406 24.816406 15.476563 25 16 25 L 34 25 C 34.523438 25 35.058594 24.816406 35.4375 24.4375 C 35.816406 24.058594 36 23.523438 36 23 L 36 18 C 36 17.65625 35.914063 17.308594 35.75 17 C 35.914063 16.691406 36 16.34375 36 16 L 36 11 C 36 10.476563 35.816406 9.941406 35.4375 9.5625 C 35.058594 9.183594 34.523438 9 34 9 Z M 16 11 L 34 11 L 34 16 L 16 16 Z M 16 18 L 34 18 L 34 23 L 16 23 Z M 25 32 C 23.898438 32 23 32.898438 23 34 C 23 35.101563 23.898438 36 25 36 C 26.101563 36 27 35.101563 27 34 C 27 32.898438 26.101563 32 25 32 Z M 25 39 C 23.898438 39 23 39.898438 23 41 C 23 42.101563 23.898438 43 25 43 C 26.101563 43 27 42.101563 27 41 C 27 39.898438 26.101563 39 25 39 Z"/></svg>