<svg fill="#3498db" xmlns="http://www.w3.org/2000/svg" viewBox="0 0 50 50" width="500px" height="500px"><path d="M 4 3 C 3.449219 3 3 3.449219 3 4 L 3 46 C 3 46.550781 3.449219 47 4 47 L 15 47 C 15.550781 47 16 46.550781 16 46 L 16 4 C 16 3.449219 15.550781 3 15 3 Z M 5 5 L 14 5 L 14 45 L 5 45 Z M 24.082031 5.449219 C 23.699219 5.398438 23.304688 5.578125 23.09375 5.933594 L 18 14.582031 L 18 18.527344 L 18.730469 17.285156 L 26.484375 21.855469 L 21.917969 29.609375 L 18 27.304688 L 18 29.625 L 20.90625 31.332031 L 18 36.265625 L 18 40.207031 L 23.132813 31.488281 C 23.132813 31.488281 23.136719 31.484375 23.136719 31.484375 L 28.714844 22.011719 C 28.714844 22.011719 28.714844 22.007813 28.714844 22.007813 L 28.714844 22.003906 L 34.292969 12.527344 C 34.429688 12.296875 34.46875 12.027344 34.402344 11.769531 C 34.335938 11.511719 34.167969 11.292969 33.9375 11.15625 L 24.460938 5.578125 C 24.339844 5.507813 24.210938 5.464844 24.082031 5.449219 Z M 24.308594 7.808594 L 32.0625 12.375 L 27.5 20.128906 L 19.742188 15.5625 Z M 37.988281 16.011719 C 37.859375 16.03125 37.734375 16.078125 37.621094 16.144531 L 32.734375 19.125 L 30.582031 22.777344 L 37.808594 18.375 L 42.488281 26.0625 L 34.804688 30.742188 L 30.269531 23.300781 L 29.121094 25.257813 L 33.097656 31.78125 L 25.410156 36.464844 L 23.941406 34.054688 L 22.792969 36.011719 L 23.703125 37.503906 L 18 40.980469 L 18 43.324219 L 34.988281 32.96875 L 34.992188 32.96875 L 44.386719 27.246094 C 44.859375 26.960938 45.007813 26.34375 44.71875 25.875 L 38.996094 16.480469 C 38.855469 16.253906 38.636719 16.089844 38.378906 16.027344 C 38.25 15.996094 38.117188 15.992188 37.988281 16.011719 Z M 37.148438 34 L 36.03125 34.679688 L 33.863281 36 L 34 36 L 34 45 L 25 45 L 25 41.402344 L 23 42.621094 L 23 45 L 18 45 L 18 47 L 46 47 C 46.554688 47 47 46.550781 47 46 L 47 35 C 47 34.449219 46.554688 34 46 34 Z M 36 36 L 45 36 L 45 45 L 36 45 Z M 9.5 39 C 8.671875 39 8 39.671875 8 40.5 C 8 41.328125 8.671875 42 9.5 42 C 10.328125 42 11 41.328125 11 40.5 C 11 39.671875 10.328125 39 9.5 39 Z"/></svg>