<svg fill="#3498db" xmlns="http://www.w3.org/2000/svg" viewBox="0 0 50 50" width="500px" height="500px"><path d="M 24.8125 0 C 24.488281 0.0664063 24.222656 0.289063 24.09375 0.59375 L 13 24.59375 C 12.859375 24.90625 12.890625 25.269531 13.082031 25.554688 C 13.273438 25.839844 13.59375 26.007813 13.9375 26 L 25.34375 26 L 19.40625 37 L 15 37 C 14.691406 37 14.398438 37.144531 14.210938 37.386719 C 14.019531 37.632813 13.953125 37.949219 14.03125 38.25 L 17.03125 49.25 C 17.117188 49.578125 17.363281 49.84375 17.683594 49.949219 C 18.003906 50.058594 18.359375 49.992188 18.625 49.78125 L 32.625 38.78125 C 32.957031 38.515625 33.085938 38.070313 32.945313 37.667969 C 32.804688 37.269531 32.425781 37 32 37 L 27.71875 37 L 36.875 20.5 C 37.054688 20.1875 37.054688 19.804688 36.871094 19.496094 C 36.691406 19.1875 36.359375 18.996094 36 19 L 24.59375 19 L 32.90625 1.4375 C 33.058594 1.125 33.039063 0.757813 32.851563 0.464844 C 32.667969 0.175781 32.347656 -0.00390625 32 0 L 25 0 C 24.96875 0 24.9375 0 24.90625 0 C 24.875 0 24.84375 0 24.8125 0 Z M 25.625 2 L 30.40625 2 L 22.09375 19.5625 C 21.941406 19.875 21.960938 20.242188 22.148438 20.535156 C 22.332031 20.824219 22.652344 21.003906 23 21 L 34.28125 21 L 25.125 37.5 C 24.945313 37.8125 24.945313 38.195313 25.128906 38.503906 C 25.308594 38.8125 25.640625 39.003906 26 39 L 29.09375 39 L 18.5625 47.28125 L 16.3125 39 L 20 39 C 20.367188 38.996094 20.703125 38.792969 20.875 38.46875 L 27.875 25.46875 C 28.039063 25.160156 28.03125 24.789063 27.851563 24.488281 C 27.671875 24.1875 27.347656 24.003906 27 24 L 15.5 24 Z"/></svg>