<svg fill="#3498db" xmlns="http://www.w3.org/2000/svg" viewBox="0 0 50 50" width="500px" height="500px"><path d="M 23.125 0 C 22.957031 0.0195313 22.792969 0.0859375 22.65625 0.1875 L 0.40625 17.25 C 0.109375 17.480469 -0.03125 17.859375 0.0429688 18.230469 C 0.113281 18.601563 0.386719 18.898438 0.75 19 L 10.46875 21.5 L 0.40625 29.25 C 0.109375 29.480469 -0.03125 29.859375 0.0429688 30.230469 C 0.113281 30.601563 0.386719 30.898438 0.75 31 L 10.5 33.53125 L 0.40625 41.21875 C 0.0898438 41.445313 -0.0625 41.835938 0.0078125 42.21875 C 0.0820313 42.601563 0.371094 42.90625 0.75 43 L 27.75 49.96875 C 28.085938 50.054688 28.4375 49.957031 28.6875 49.71875 L 49.6875 30.09375 C 49.96875 29.832031 50.074219 29.433594 49.960938 29.066406 C 49.847656 28.703125 49.535156 28.433594 49.15625 28.375 L 40.28125 26.875 L 49.6875 18.09375 C 49.96875 17.832031 50.074219 17.433594 49.960938 17.066406 C 49.847656 16.703125 49.535156 16.433594 49.15625 16.375 L 40.3125 14.875 L 49.6875 6.09375 C 49.96875 5.832031 50.074219 5.433594 49.960938 5.066406 C 49.847656 4.703125 49.535156 4.433594 49.15625 4.375 L 23.4375 0 C 23.332031 -0.015625 23.230469 -0.015625 23.125 0 Z M 23.53125 2.03125 L 27.09375 2.625 C 27.042969 2.746094 27 2.863281 27 3 C 27 3.550781 27.449219 4 28 4 C 28.550781 4 29 3.550781 29 3 C 29 2.988281 29 2.980469 29 2.96875 L 33.25 3.6875 C 33.433594 3.886719 33.707031 4 34 4 C 34.152344 4 34.277344 3.9375 34.40625 3.875 L 42.375 5.25 C 42.152344 5.433594 42 5.691406 42 6 C 42 6.550781 42.449219 7 43 7 C 43.550781 7 44 6.550781 44 6 C 44 5.8125 43.933594 5.648438 43.84375 5.5 L 46.84375 6 L 37.625 14.625 C 37.570313 14.660156 37.515625 14.703125 37.46875 14.75 C 37.410156 14.796875 37.359375 14.847656 37.3125 14.90625 C 37.300781 14.925781 37.289063 14.949219 37.28125 14.96875 L 27.71875 23.90625 L 25.78125 23.40625 C 25.597656 23.164063 25.324219 23 25 23 C 24.863281 23 24.746094 23.042969 24.625 23.09375 L 16.96875 21.125 C 16.976563 21.082031 17 21.046875 17 21 C 17 20.449219 16.550781 20 16 20 C 15.585938 20 15.246094 20.265625 15.09375 20.625 L 13.21875 20.15625 C 13.199219 20.144531 13.175781 20.132813 13.15625 20.125 L 12.8125 20.0625 C 12.78125 20.050781 12.75 20.039063 12.71875 20.03125 L 7.71875 18.71875 C 7.898438 18.539063 8 18.277344 8 18 C 8 17.449219 7.550781 17 7 17 C 6.449219 17 6 17.449219 6 18 C 6 18.113281 6.027344 18.210938 6.0625 18.3125 L 3.21875 17.5625 L 15.21875 8.375 C 15.082031 8.546875 15 8.761719 15 9 C 15 9.550781 15.449219 10 16 10 C 16.550781 10 17 9.550781 17 9 C 17 8.449219 16.550781 8 16 8 C 15.863281 8 15.746094 8.042969 15.625 8.09375 L 18.0625 6.21875 C 18.167969 6.65625 18.527344 7 19 7 C 19.550781 7 20 6.550781 20 6 C 20 5.625 19.773438 5.328125 19.46875 5.15625 L 21.3125 3.71875 C 21.492188 3.886719 21.734375 4 22 4 C 22.550781 4 23 3.550781 23 3 C 23 2.828125 22.953125 2.671875 22.875 2.53125 Z M 25 5 C 24.449219 5 24 5.449219 24 6 C 24 6.550781 24.449219 7 25 7 C 25.550781 7 26 6.550781 26 6 C 26 5.449219 25.550781 5 25 5 Z M 31 5 C 30.449219 5 30 5.449219 30 6 C 30 6.550781 30.449219 7 31 7 C 31.550781 7 32 6.550781 32 6 C 32 5.449219 31.550781 5 31 5 Z M 37 5 C 36.449219 5 36 5.449219 36 6 C 36 6.550781 36.449219 7 37 7 C 37.550781 7 38 6.550781 38 6 C 38 5.449219 37.550781 5 37 5 Z M 22 8 C 21.449219 8 21 8.449219 21 9 C 21 9.550781 21.449219 10 22 10 C 22.550781 10 23 9.550781 23 9 C 23 8.449219 22.550781 8 22 8 Z M 28 8 C 27.449219 8 27 8.449219 27 9 C 27 9.550781 27.449219 10 28 10 C 28.550781 10 29 9.550781 29 9 C 29 8.449219 28.550781 8 28 8 Z M 34 8 C 33.449219 8 33 8.449219 33 9 C 33 9.550781 33.449219 10 34 10 C 34.550781 10 35 9.550781 35 9 C 35 8.449219 34.550781 8 34 8 Z M 40 8 C 39.449219 8 39 8.449219 39 9 C 39 9.550781 39.449219 10 40 10 C 40.550781 10 41 9.550781 41 9 C 41 8.449219 40.550781 8 40 8 Z M 13 11 C 12.449219 11 12 11.449219 12 12 C 12 12.550781 12.449219 13 13 13 C 13.550781 13 14 12.550781 14 12 C 14 11.449219 13.550781 11 13 11 Z M 19 11 C 18.449219 11 18 11.449219 18 12 C 18 12.550781 18.449219 13 19 13 C 19.550781 13 20 12.550781 20 12 C 20 11.449219 19.550781 11 19 11 Z M 25 11 C 24.449219 11 24 11.449219 24 12 C 24 12.550781 24.449219 13 25 13 C 25.550781 13 26 12.550781 26 12 C 26 11.449219 25.550781 11 25 11 Z M 31 11 C 30.449219 11 30 11.449219 30 12 C 30 12.550781 30.449219 13 31 13 C 31.550781 13 32 12.550781 32 12 C 32 11.449219 31.550781 11 31 11 Z M 37 11 C 36.449219 11 36 11.449219 36 12 C 36 12.550781 36.449219 13 37 13 C 37.550781 13 38 12.550781 38 12 C 38 11.449219 37.550781 11 37 11 Z M 10 14 C 9.449219 14 9 14.449219 9 15 C 9 15.550781 9.449219 16 10 16 C 10.550781 16 11 15.550781 11 15 C 11 14.449219 10.550781 14 10 14 Z M 16 14 C 15.449219 14 15 14.449219 15 15 C 15 15.550781 15.449219 16 16 16 C 16.550781 16 17 15.550781 17 15 C 17 14.449219 16.550781 14 16 14 Z M 22 14 C 21.449219 14 21 14.449219 21 15 C 21 15.550781 21.449219 16 22 16 C 22.550781 16 23 15.550781 23 15 C 23 14.449219 22.550781 14 22 14 Z M 28 14 C 27.449219 14 27 14.449219 27 15 C 27 15.550781 27.449219 16 28 16 C 28.550781 16 29 15.550781 29 15 C 29 14.449219 28.550781 14 28 14 Z M 34 14 C 33.449219 14 33 14.449219 33 15 C 33 15.550781 33.449219 16 34 16 C 34.550781 16 35 15.550781 35 15 C 35 14.449219 34.550781 14 34 14 Z M 38.46875 16.59375 L 46.84375 18 L 37.6875 26.59375 C 37.664063 26.613281 37.644531 26.632813 37.625 26.65625 L 37.59375 26.65625 C 37.421875 26.75 37.28125 26.890625 37.1875 27.0625 L 27.71875 35.90625 L 3.21875 29.5625 L 12.9375 22.15625 L 27.75 25.96875 C 28.085938 26.054688 28.4375 25.957031 28.6875 25.71875 Z M 13 17 C 12.449219 17 12 17.449219 12 18 C 12 18.550781 12.449219 19 13 19 C 13.550781 19 14 18.550781 14 18 C 14 17.449219 13.550781 17 13 17 Z M 19 17 C 18.449219 17 18 17.449219 18 18 C 18 18.550781 18.449219 19 19 19 C 19.550781 19 20 18.550781 20 18 C 20 17.449219 19.550781 17 19 17 Z M 25 17 C 24.449219 17 24 17.449219 24 18 C 24 18.550781 24.449219 19 25 19 C 25.550781 19 26 18.550781 26 18 C 26 17.449219 25.550781 17 25 17 Z M 31 17 C 30.449219 17 30 17.449219 30 18 C 30 18.550781 30.449219 19 31 19 C 31.550781 19 32 18.550781 32 18 C 32 17.449219 31.550781 17 31 17 Z M 22 20 C 21.449219 20 21 20.449219 21 21 C 21 21.550781 21.449219 22 22 22 C 22.550781 22 23 21.550781 23 21 C 23 20.449219 22.550781 20 22 20 Z M 28 20 C 27.449219 20 27 20.449219 27 21 C 27 21.550781 27.449219 22 28 22 C 28.550781 22 29 21.550781 29 21 C 29 20.449219 28.550781 20 28 20 Z M 38.4375 28.59375 L 46.84375 30 L 27.6875 47.875 L 3.21875 41.5625 L 12.71875 34.3125 C 12.789063 34.269531 12.851563 34.214844 12.90625 34.15625 L 27.75 37.96875 C 28.085938 38.054688 28.4375 37.957031 28.6875 37.71875 Z"/></svg>