<svg fill="#3498db" xmlns="http://www.w3.org/2000/svg" viewBox="0 0 50 50" width="500px" height="500px"><path d="M 16.984375 4.984375 C 16.433594 4.996094 15.992188 5.449219 16 6 L 16 16 L 6 16 C 5.640625 15.996094 5.304688 16.183594 5.121094 16.496094 C 4.941406 16.808594 4.941406 17.191406 5.121094 17.503906 C 5.304688 17.816406 5.640625 18.003906 6 18 L 18 18 L 18 6 C 18.003906 5.730469 17.898438 5.46875 17.707031 5.277344 C 17.515625 5.085938 17.253906 4.980469 16.984375 4.984375 Z M 32.984375 4.984375 C 32.460938 4.996094 32.03125 5.40625 32 5.929688 C 32 5.953125 32 5.976563 32 6 L 32 18 L 44 18 C 44.035156 18 44.066406 18 44.097656 17.996094 C 44.632813 17.949219 45.035156 17.484375 45.007813 16.949219 C 44.980469 16.414063 44.535156 15.996094 44 16 L 34 16 L 34 6 C 34.003906 5.730469 33.898438 5.46875 33.707031 5.277344 C 33.515625 5.085938 33.253906 4.980469 32.984375 4.984375 Z M 6 32 C 5.640625 31.996094 5.304688 32.183594 5.121094 32.496094 C 4.941406 32.808594 4.941406 33.191406 5.121094 33.503906 C 5.304688 33.816406 5.640625 34.003906 6 34 L 16 34 L 16 44 C 15.996094 44.359375 16.183594 44.695313 16.496094 44.878906 C 16.808594 45.058594 17.191406 45.058594 17.503906 44.878906 C 17.816406 44.695313 18.003906 44.359375 18 44 L 18 32 Z M 32 32 L 32 44 C 31.996094 44.359375 32.183594 44.695313 32.496094 44.878906 C 32.808594 45.058594 33.191406 45.058594 33.503906 44.878906 C 33.816406 44.695313 34.003906 44.359375 34 44 L 34 34 L 44 34 C 44.359375 34.003906 44.695313 33.816406 44.878906 33.503906 C 45.058594 33.191406 45.058594 32.808594 44.878906 32.496094 C 44.695313 32.183594 44.359375 31.996094 44 32 Z"/></svg>