<svg fill="#3498db" xmlns="http://www.w3.org/2000/svg" viewBox="0 0 50 50" width="500px" height="500px"><path d="M 25 0.09375 L 24.28125 0.78125 L 15.78125 9.28125 C 15.382813 9.679688 15.382813 10.320313 15.78125 10.71875 C 16.179688 11.117188 16.820313 11.117188 17.21875 10.71875 L 24 3.9375 L 24 24 L 3.9375 24 L 10.71875 17.21875 C 11.042969 16.917969 11.128906 16.441406 10.933594 16.046875 C 10.742188 15.648438 10.308594 15.429688 9.875 15.5 C 9.652344 15.523438 9.441406 15.625 9.28125 15.78125 L 0.78125 24.28125 L 0.09375 25 L 0.78125 25.71875 L 9.28125 34.21875 C 9.679688 34.617188 10.320313 34.617188 10.71875 34.21875 C 11.117188 33.820313 11.117188 33.179688 10.71875 32.78125 L 3.9375 26 L 24 26 L 24 46.0625 L 17.21875 39.28125 C 16.976563 39.03125 16.621094 38.925781 16.28125 39 C 15.90625 39.066406 15.605469 39.339844 15.5 39.703125 C 15.394531 40.070313 15.503906 40.460938 15.78125 40.71875 L 24.28125 49.21875 L 25 49.90625 L 25.71875 49.21875 L 34.21875 40.71875 C 34.617188 40.320313 34.617188 39.679688 34.21875 39.28125 C 33.820313 38.882813 33.179688 38.882813 32.78125 39.28125 L 26 46.0625 L 26 26 L 46.0625 26 L 39.28125 32.78125 C 38.882813 33.179688 38.882813 33.820313 39.28125 34.21875 C 39.679688 34.617188 40.320313 34.617188 40.71875 34.21875 L 49.21875 25.71875 L 49.90625 25 L 49.21875 24.28125 L 40.71875 15.78125 C 40.511719 15.558594 40.210938 15.445313 39.90625 15.46875 C 39.863281 15.476563 39.820313 15.488281 39.78125 15.5 C 39.40625 15.566406 39.105469 15.839844 39 16.203125 C 38.894531 16.570313 39.003906 16.960938 39.28125 17.21875 L 46.0625 24 L 26 24 L 26 3.9375 L 32.78125 10.71875 C 33.179688 11.117188 33.820313 11.117188 34.21875 10.71875 C 34.617188 10.320313 34.617188 9.679688 34.21875 9.28125 L 25.71875 0.78125 Z"/></svg>