<svg fill="#3498db" xmlns="http://www.w3.org/2000/svg" viewBox="0 0 50 50" width="500px" height="500px"><path d="M 4 4 L 4 9 L 4 16 L 10 16 L 10 10 L 16 10 L 16 4 L 15 4 L 9 4 L 4 4 z M 34 4 L 34 5 L 34 10 L 40 10 L 40 16 L 46 16 L 46 9 L 46 4 L 41 4 L 34 4 z M 6 6 L 9 6 L 14 6 L 14 8 L 8 8 L 8 14 L 6 14 L 6 9 L 6 6 z M 36 6 L 41 6 L 44 6 L 44 9 L 44 14 L 42 14 L 42 8 L 36 8 L 36 6 z M 25 22 C 23.35499 22 22 23.35499 22 25 C 22 26.64501 23.35499 28 25 28 C 26.64501 28 28 26.64501 28 25 C 28 23.35499 26.64501 22 25 22 z M 25 24 C 25.564129 24 26 24.435871 26 25 C 26 25.564129 25.564129 26 25 26 C 24.435871 26 24 25.564129 24 25 C 24 24.435871 24.435871 24 25 24 z M 4 34 L 4 41 L 4 46 L 9 46 L 16 46 L 16 45 L 16 40 L 10 40 L 10 34 L 4 34 z M 40 34 L 40 40 L 34 40 L 34 46 L 35 46 L 41 46 L 46 46 L 46 41 L 46 34 L 40 34 z M 6 36 L 8 36 L 8 42 L 14 42 L 14 44 L 9 44 L 6 44 L 6 41 L 6 36 z M 42 36 L 44 36 L 44 41 L 44 44 L 41 44 L 36 44 L 36 42 L 42 42 L 42 36 z"/></svg>