<svg fill="#3498db" xmlns="http://www.w3.org/2000/svg" viewBox="0 0 50 50" width="500px" height="500px"><path d="M 7 4 C 5.346 4 4 5.346 4 7 L 4 43 C 4 44.654 5.346 46 7 46 L 29.617188 46 C 29.251188 45.367 28.945266 44.699 28.697266 44 L 14 44 L 14 29 C 14 28.448 14.449 28 15 28 L 35 28 C 35.451 28 35.819359 28.30675 35.943359 28.71875 C 36.566359 28.49475 37.211906 28.316266 37.878906 28.197266 C 37.524906 26.934266 36.375 26 35 26 L 15 26 C 13.346 26 12 27.346 12 29 L 12 44 L 7 44 C 6.449 44 6 43.552 6 43 L 6 7 C 6 6.448 6.449 6 7 6 L 12 6 L 12 18 C 12 19.64497 13.35503 21 15 21 L 34 21 C 35.64497 21 37 19.64497 37 18 L 37 6.5957031 L 44 13.595703 L 44 28.697266 C 44.699 28.944266 45.367 29.253141 46 29.619141 L 46 13.181641 C 46 12.915641 45.895031 12.661609 45.707031 12.474609 L 37.525391 4.2929688 C 37.338391 4.1049688 37.083359 4 36.818359 4 L 35 4 L 14 4 L 7 4 z M 14 6 L 35 6 L 35 18 C 35 18.56503 34.56503 19 34 19 L 15 19 C 14.43497 19 14 18.56503 14 18 L 14 6 z M 29 8 A 1.0001 1.0001 0 0 0 28 9 L 28 16 A 1.0001 1.0001 0 0 0 29 17 L 32 17 A 1.0001 1.0001 0 0 0 33 16 L 33 9 A 1.0001 1.0001 0 0 0 32 8 L 29 8 z M 30 10 L 31 10 L 31 15 L 30 15 L 30 10 z M 40 30 C 34.5 30 30 34.5 30 40 C 30 45.5 34.5 50 40 50 C 45.5 50 50 45.5 50 40 C 50 34.5 45.5 30 40 30 z M 40 32 C 44.4 32 48 35.6 48 40 C 48 44.4 44.4 48 40 48 C 35.6 48 32 44.4 32 40 C 32 35.6 35.6 32 40 32 z M 36.5 35.5 C 36.25 35.5 36.000781 35.600781 35.800781 35.800781 C 35.400781 36.200781 35.400781 36.799219 35.800781 37.199219 L 38.599609 40 L 35.800781 42.800781 C 35.400781 43.200781 35.400781 43.799219 35.800781 44.199219 C 36.000781 44.399219 36.3 44.5 36.5 44.5 C 36.7 44.5 36.999219 44.399219 37.199219 44.199219 L 40 41.400391 L 42.800781 44.199219 C 43.000781 44.399219 43.3 44.5 43.5 44.5 C 43.7 44.5 43.999219 44.399219 44.199219 44.199219 C 44.599219 43.799219 44.599219 43.200781 44.199219 42.800781 L 41.400391 40 L 44.199219 37.199219 C 44.599219 36.799219 44.599219 36.200781 44.199219 35.800781 C 43.799219 35.400781 43.200781 35.400781 42.800781 35.800781 L 40 38.599609 L 37.199219 35.800781 C 36.999219 35.600781 36.75 35.5 36.5 35.5 z M 8 40 L 8 42 L 10 42 L 10 40 L 8 40 z"/></svg>