<svg fill="#3498db" xmlns="http://www.w3.org/2000/svg" viewBox="0 0 50 50" width="500px" height="500px"><path d="M 15.65625 0 C 15.207031 0.0507813 14.847656 0.398438 14.78125 0.84375 C 14.78125 0.84375 12.9375 13.007813 12.9375 21.3125 C 12.9375 27.171875 15.542969 29.929688 17.96875 31.59375 C 19.179688 32.425781 20.328125 33.050781 21.0625 33.6875 C 21.796875 34.324219 22.15625 34.851563 22.15625 35.90625 L 22.15625 43.53125 C 22.15625 43.746094 22.117188 43.832031 22 43.96875 C 21.882813 44.105469 21.628906 44.277344 21.28125 44.4375 C 20.582031 44.757813 19.5 44.976563 18.34375 45.21875 C 17.1875 45.460938 15.976563 45.726563 14.9375 46.21875 C 14.417969 46.464844 13.914063 46.78125 13.53125 47.25 C 13.148438 47.71875 12.9375 48.335938 12.9375 49 C 12.9375 49.550781 13.386719 50 13.9375 50 L 36.0625 50 C 36.613281 50 37.0625 49.550781 37.0625 49 C 37.0625 48.335938 36.851563 47.71875 36.46875 47.25 C 36.085938 46.78125 35.582031 46.464844 35.0625 46.21875 C 34.023438 45.726563 32.8125 45.460938 31.65625 45.21875 C 30.5 44.976563 29.417969 44.757813 28.71875 44.4375 C 28.371094 44.277344 28.117188 44.105469 28 43.96875 C 27.882813 43.832031 27.84375 43.746094 27.84375 43.53125 L 27.84375 35.90625 C 27.84375 34.851563 28.203125 34.324219 28.9375 33.6875 C 29.671875 33.050781 30.820313 32.425781 32.03125 31.59375 C 34.457031 29.929688 37.0625 27.171875 37.0625 21.3125 C 37.0625 13.007813 35.21875 0.84375 35.21875 0.84375 C 35.140625 0.351563 34.714844 -0.0078125 34.21875 0 L 15.78125 0 C 15.738281 -0.00390625 15.699219 -0.00390625 15.65625 0 Z M 16.65625 2 L 23.5 2 L 25.5625 7 L 21.09375 12.4375 L 27.59375 17.5 L 23.46875 26.21875 L 29.3125 17.28125 L 23.84375 12.125 L 28.90625 7.90625 L 27 2 L 33.34375 2 C 33.539063 3.308594 35.0625 13.785156 35.0625 21.3125 C 35.0625 26.621094 33.097656 28.464844 30.90625 29.96875 C 29.8125 30.71875 28.621094 31.328125 27.625 32.1875 C 26.628906 33.046875 25.84375 34.277344 25.84375 35.90625 L 25.84375 43.53125 C 25.84375 44.1875 26.082031 44.796875 26.46875 45.25 C 26.855469 45.703125 27.359375 46.015625 27.875 46.25 C 28.90625 46.722656 30.097656 46.945313 31.25 47.1875 C 32.402344 47.429688 33.523438 47.671875 34.21875 48 L 15.78125 48 C 16.476563 47.671875 17.597656 47.429688 18.75 47.1875 C 19.902344 46.945313 21.09375 46.722656 22.125 46.25 C 22.640625 46.015625 23.144531 45.703125 23.53125 45.25 C 23.917969 44.796875 24.15625 44.1875 24.15625 43.53125 L 24.15625 35.90625 C 24.15625 34.277344 23.371094 33.046875 22.375 32.1875 C 21.378906 31.328125 20.1875 30.71875 19.09375 29.96875 C 16.902344 28.464844 14.9375 26.621094 14.9375 21.3125 C 14.9375 13.785156 16.460938 3.308594 16.65625 2 Z"/></svg>