<?xml version="1.0"?><svg fill="#3498db" xmlns="http://www.w3.org/2000/svg"  viewBox="0 0 50 50" width="500px" height="500px">    <path d="M 25 2 C 12.309295 2 2 12.309295 2 25 C 2 37.690705 12.309295 48 25 48 C 37.690705 48 48 37.690705 48 25 C 48 12.309295 37.690705 2 25 2 z M 25 4 C 36.609824 4 46 13.390176 46 25 C 46 36.609824 36.609824 46 25 46 C 13.390176 46 4 36.609824 4 25 C 4 13.390176 13.390176 4 25 4 z M 24.599609 12.599609 C 23.699609 12.599609 22.700781 12.7 21.800781 13 C 20.900781 13.3 20.100391 13.700781 19.400391 14.300781 C 18.700391 14.800781 18.099219 15.500391 17.699219 16.400391 C 17.199219 17.300391 17 18.3 17 19.5 C 17 20.5 17.1 21.400781 17.5 22.300781 C 17.8 23.200781 18.300781 24.100391 18.800781 24.900391 L 16.800781 24.900391 L 16.800781 26 L 19.5 26 C 19.8 26.4 19.999219 26.999219 20.199219 27.699219 C 20.399219 28.399219 20.5 29 20.5 29.5 C 20.5 30.2 20.399219 30.800391 20.199219 31.400391 C 19.999219 32.000391 19.700391 32.5 19.400391 33 C 19.100391 33.5 18.699219 33.900391 18.199219 34.400391 C 17.799219 34.900391 17.300781 35.299219 16.800781 35.699219 L 18 37.5 L 18.900391 36.900391 C 19.200391 36.800391 19.399219 36.6 19.699219 36.5 L 20.599609 36.199219 C 20.899609 36.099219 21.299219 36.099609 21.699219 36.099609 C 22.399219 36.099609 23 36.200781 23.5 36.300781 C 24.1 36.500781 24.599609 36.600781 25.099609 36.800781 C 25.599609 37.000781 26.099219 37.200781 26.699219 37.300781 C 27.199219 37.400781 27.899609 37.5 28.599609 37.5 C 29.699609 37.5 30.500781 37.3 31.300781 37 C 32.000781 36.6 32.8 36.1 33.5 35.5 L 32.400391 33.900391 C 32.000391 34.400391 31.399219 34.799219 30.699219 35.199219 C 29.999219 35.599219 29.299609 35.800781 28.599609 35.800781 C 28.099609 35.800781 27.499609 35.699609 27.099609 35.599609 C 26.599609 35.399609 26.199219 35.299609 25.699219 35.099609 C 25.199219 34.899609 24.699219 34.699609 24.199219 34.599609 C 23.699219 34.499609 23.000781 34.400391 22.300781 34.400391 C 21.700781 34.400391 21.099609 34.499219 20.599609 34.699219 C 19.999609 34.899219 19.5 35.200391 19 35.400391 L 18.900391 35.300781 C 19.400391 35.000781 19.900781 34.499609 20.300781 34.099609 C 20.800781 33.699609 21.2 33.199219 21.5 32.699219 C 21.8 32.199219 22.100781 31.699609 22.300781 31.099609 C 22.500781 30.499609 22.599609 29.900781 22.599609 29.300781 C 22.599609 28.800781 22.500391 28.199609 22.400391 27.599609 C 22.200391 26.899609 22.000781 26.4 21.800781 26 L 26.599609 26 L 26.599609 24.900391 L 21.199219 24.900391 C 20.999219 24.400391 20.7 23.999609 20.5 23.599609 L 19.900391 22.400391 C 19.700391 22.100391 19.500391 21.599219 19.400391 21.199219 C 19.300391 20.799219 19.199219 20.299219 19.199219 19.699219 C 19.199219 18.799219 19.399219 18.100391 19.699219 17.400391 C 19.999219 16.800391 20.400391 16.200781 20.900391 15.800781 C 21.400391 15.300781 21.999219 15.000781 22.699219 14.800781 C 23.299219 14.600781 23.999219 14.5 24.699219 14.5 C 26.499219 14.5 27.900391 14.999219 28.900391 16.199219 C 29.800391 17.299219 30.300781 18.799609 30.300781 20.599609 L 32.400391 20.599609 C 32.400391 18.099609 31.800391 16.099219 30.400391 14.699219 C 29.000391 13.299219 27.099609 12.599609 24.599609 12.599609 z"/></svg>