<svg fill="#3498db" xmlns="http://www.w3.org/2000/svg"  viewBox="0 0 50 50" width="500px" height="500px"><path d="M 25 6.585938 L 4.292969 27.292969 C 4.03125 27.542969 3.925781 27.917969 4.019531 28.265625 C 4.109375 28.617188 4.382813 28.890625 4.734375 28.980469 C 5.082031 29.074219 5.457031 28.96875 5.707031 28.707031 L 25 9.414063 L 44.292969 28.707031 C 44.542969 28.96875 44.917969 29.074219 45.265625 28.980469 C 45.617188 28.890625 45.890625 28.617188 45.980469 28.265625 C 46.074219 27.917969 45.96875 27.542969 45.707031 27.292969 Z M 25 19.585938 L 4.292969 40.292969 C 4.03125 40.542969 3.925781 40.917969 4.019531 41.265625 C 4.109375 41.617188 4.382813 41.890625 4.734375 41.980469 C 5.082031 42.074219 5.457031 41.96875 5.707031 41.707031 L 25 22.414063 L 44.292969 41.707031 C 44.542969 41.96875 44.917969 42.074219 45.265625 41.980469 C 45.617188 41.890625 45.890625 41.617188 45.980469 41.265625 C 46.074219 40.917969 45.96875 40.542969 45.707031 40.292969 Z"/></svg>