<svg fill="#3498db" xmlns="http://www.w3.org/2000/svg" viewBox="0 0 50 50" width="500px" height="500px"><path d="M 20.1875 3.015625 C 19.636719 2.914063 19.121094 3.269531 19.015625 3.8125 L 18.03125 9 L 8 9 C 7.449219 9 7 9.449219 7 10 L 7 34 L 3 34 L 3 36 L 12.886719 36 L 11.015625 45.8125 C 10.914063 46.355469 11.269531 46.878906 11.8125 46.984375 C 11.875 46.996094 11.941406 47 12 47 C 12.472656 47 12.890625 46.667969 12.984375 46.1875 L 14.921875 36 L 24 36 L 24 43 C 23.996094 43.359375 24.183594 43.695313 24.496094 43.878906 C 24.808594 44.058594 25.191406 44.058594 25.503906 43.878906 C 25.816406 43.695313 26.003906 43.359375 26 43 L 26 36 L 35.078125 36 L 37.015625 46.1875 C 37.109375 46.667969 37.527344 47 38 47 C 38.058594 47 38.125 46.996094 38.1875 46.984375 C 38.730469 46.878906 39.085938 46.355469 38.984375 45.8125 L 37.113281 36 L 47 36 L 47 34 L 43 34 L 43 10 C 43 9.449219 42.550781 9 42 9 L 31.96875 9 L 30.984375 3.8125 C 30.878906 3.269531 30.363281 2.917969 29.8125 3.015625 C 29.269531 3.121094 28.914063 3.644531 29.015625 4.1875 L 29.933594 9 L 20.066406 9 L 20.984375 4.1875 C 21.085938 3.644531 20.730469 3.121094 20.1875 3.015625 Z M 9 11 L 41 11 L 41 34 L 25.15625 34 C 25.097656 33.992188 25.042969 33.984375 24.984375 33.984375 C 24.9375 33.988281 24.886719 33.992188 24.839844 34 L 9 34 Z M 14.5 14 C 13.671875 14 13 14.671875 13 15.5 C 13 16.328125 13.671875 17 14.5 17 C 15.328125 17 16 16.328125 16 15.5 C 16 14.671875 15.328125 14 14.5 14 Z M 28.894531 16.917969 C 28.585938 16.910156 28.292969 17.046875 28.097656 17.285156 L 24.378906 21.839844 L 21.800781 18.402344 C 21.617188 18.15625 21.332031 18.007813 21.027344 18 C 20.71875 17.992188 20.421875 18.128906 20.226563 18.367188 L 11.226563 29.367188 C 10.980469 29.667969 10.933594 30.078125 11.097656 30.429688 C 11.261719 30.777344 11.613281 31 12 31 L 38 31 C 38.378906 31 38.726563 30.785156 38.894531 30.445313 C 39.066406 30.105469 39.027344 29.699219 38.796875 29.394531 L 29.671875 17.3125 C 29.484375 17.070313 29.203125 16.925781 28.894531 16.917969 Z M 28.84375 19.535156 L 35.988281 29 L 21.109375 29 Z M 20.964844 20.621094 L 23.074219 23.433594 L 18.527344 29 L 14.109375 29 Z"/></svg>