<svg fill="#3498db" xmlns="http://www.w3.org/2000/svg" viewBox="0 0 50 50" width="500px" height="500px"><path d="M 3 5 A 1.0001 1.0001 0 0 0 2 6 L 2 21.822266 A 1.0001 1.0001 0 0 0 2 22.220703 L 2 34 A 1.0001 1.0001 0 0 0 3 35 L 37 35 A 1.0001 1.0001 0 0 0 38 34 L 38 26.175781 A 1.0001 1.0001 0 0 0 38 25.847656 L 38 6 A 1.0001 1.0001 0 0 0 37 5 L 3 5 z M 4 7 L 36 7 L 36 23.585938 L 30.707031 18.292969 A 1.0001 1.0001 0 0 0 29.984375 18 A 1.0001 1.0001 0 0 0 29.292969 18.292969 L 25.03125 22.554688 L 14.736328 11.324219 A 1.0001 1.0001 0 0 0 14.029297 11 A 1.0001 1.0001 0 0 0 13.328125 11.259766 L 4 19.740234 L 4 7 z M 30 10 A 2 2 0 0 0 28 12 A 2 2 0 0 0 30 14 A 2 2 0 0 0 32 12 A 2 2 0 0 0 30 10 z M 40 10 L 40 12 L 41 12 L 41 38 L 9 38 L 9 37 L 7 37 L 7 39 A 1.0001 1.0001 0 0 0 8 40 L 42 40 A 1.0001 1.0001 0 0 0 43 39 L 43 11 A 1.0001 1.0001 0 0 0 42 10 L 40 10 z M 13.935547 13.410156 L 23.617188 23.96875 L 21.292969 26.292969 A 1.0001 1.0001 0 1 0 22.707031 27.707031 L 25.517578 24.896484 A 1.0001 1.0001 0 0 0 25.894531 24.519531 L 30 20.414062 L 36 26.414062 L 36 33 L 4 33 L 4 22.441406 L 13.935547 13.410156 z M 45 15 L 45 17 L 46 17 L 46 43 L 14 43 L 14 42 L 12 42 L 12 44 A 1.0001 1.0001 0 0 0 13 45 L 47 45 A 1.0001 1.0001 0 0 0 48 44 L 48 16 A 1.0001 1.0001 0 0 0 47 15 L 45 15 z"/></svg>