<svg fill="#3498db" xmlns="http://www.w3.org/2000/svg" viewBox="0 0 50 50" width="500px" height="500px"><path d="M 3.8125 2 C 3.335938 2.089844 2.992188 2.511719 3 3 L 3 6 C 3.003906 6.257813 3.101563 6.503906 3.28125 6.6875 L 19 23.375 L 19 41 C 19.007813 41.347656 19.199219 41.667969 19.5 41.84375 L 29.5 47.84375 C 29.804688 48.019531 30.183594 48.023438 30.492188 47.847656 C 30.796875 47.675781 30.992188 47.351563 31 47 L 31 23.375 L 46.5625 6.84375 C 46.574219 6.832031 46.582031 6.824219 46.59375 6.8125 L 46.71875 6.6875 C 46.765625 6.640625 46.808594 6.585938 46.84375 6.53125 C 46.867188 6.511719 46.886719 6.492188 46.90625 6.46875 C 46.964844 6.339844 46.996094 6.203125 47 6.0625 C 47 6.042969 47 6.019531 47 6 C 47.003906 5.949219 47.003906 5.894531 47 5.84375 L 47 3 C 47 2.449219 46.550781 2 46 2 L 4 2 C 3.96875 2 3.9375 2 3.90625 2 C 3.875 2 3.84375 2 3.8125 2 Z M 5 4 L 45 4 L 45 5.625 L 29.5625 22 L 20.4375 22 L 5 5.625 Z M 21 24 L 29 24 L 29 45.25 L 21 40.46875 Z"/></svg>