<svg fill="#3498db" xmlns="http://www.w3.org/2000/svg"  viewBox="0 0 50 50" width="500px" height="500px"><path d="M 28.625 2 C 28.285156 2.003906 27.941406 2.015625 27.59375 2.0625 C 26.902344 2.152344 26.144531 2.386719 25.5625 2.96875 L 2.84375 25.6875 C 1.722656 26.808594 1.722656 28.660156 2.84375 29.78125 L 20.21875 47.15625 C 21.339844 48.277344 23.191406 48.277344 24.3125 47.15625 L 28.410156 43.058594 C 28.199219 42.273438 28.074219 41.457031 28.03125 40.617188 L 22.90625 45.75 C 22.550781 46.105469 21.980469 46.105469 21.625 45.75 L 21.5 45.59375 L 4.25 28.375 C 3.894531 28.019531 3.894531 27.449219 4.25 27.09375 L 27 4.375 C 27.15625 4.21875 27.414063 4.121094 27.875 4.0625 C 28.105469 4.03125 28.363281 4.007813 28.65625 4 C 28.949219 3.988281 29.285156 4 29.625 4 L 44.5 4 C 45.339844 4 46 4.660156 46 5.5 L 46 20.375 C 46 21.070313 46.058594 21.699219 46 22.15625 C 45.941406 22.613281 45.785156 22.839844 45.625 23 L 44.179688 24.449219 C 44.65625 24.652344 45.085938 24.964844 45.398438 25.386719 C 45.5 25.519531 45.578125 25.664063 45.65625 25.8125 L 47.03125 24.4375 C 47.609375 23.859375 47.847656 23.09375 47.9375 22.40625 C 48.027344 21.71875 48 21.039063 48 20.375 L 48 5.5 C 48 3.578125 46.421875 2 44.5 2 L 29.625 2 C 29.300781 2 28.964844 1.996094 28.625 2 Z M 39 7 C 36.804688 7 35 8.804688 35 11 C 35 13.195313 36.804688 15 39 15 C 41.195313 15 43 13.195313 43 11 C 43 8.804688 41.195313 7 39 7 Z M 39 9 C 40.117188 9 41 9.882813 41 11 C 41 12.117188 40.117188 13 39 13 C 37.882813 13 37 12.117188 37 11 C 37 9.882813 37.882813 9 39 9 Z M 43.023438 26.183594 C 42.796875 26.179688 42.578125 26.253906 42.402344 26.390625 L 37.492188 30.070313 C 37.417969 30.113281 37.351563 30.164063 37.292969 30.222656 L 36.597656 30.738281 L 37.109375 31.421875 C 37.15625 31.503906 37.210938 31.578125 37.277344 31.644531 L 40.996094 36.597656 C 41.324219 37.042969 41.953125 37.132813 42.394531 36.800781 C 42.835938 36.46875 42.925781 35.84375 42.59375 35.402344 L 40.046875 32 C 44.457031 32.027344 48 35.585938 48 40 C 48 44.429688 44.429688 48 40 48 C 35.570313 48 32 44.429688 32 40 C 32 37.625 33.027344 35.503906 34.667969 34.035156 C 34.949219 33.804688 35.078125 33.433594 35.007813 33.074219 C 34.9375 32.714844 34.679688 32.421875 34.328125 32.3125 C 33.980469 32.203125 33.597656 32.292969 33.332031 32.546875 C 31.289063 34.375 30 37.046875 30 40 C 30 45.511719 34.488281 50 40 50 C 45.511719 50 50 45.511719 50 40 C 50 34.777344 45.972656 30.480469 40.859375 30.042969 L 43.597656 27.988281 C 43.949219 27.738281 44.09375 27.289063 43.964844 26.878906 C 43.832031 26.46875 43.453125 26.1875 43.023438 26.183594 Z"/></svg>