<svg fill="#3498db" xmlns="http://www.w3.org/2000/svg" viewBox="0 0 50 50" width="500px" height="500px"><path d="M 7 4 C 5.3550302 4 4 5.3550302 4 7 L 4 12 L 4 43 C 4 44.64497 5.3550302 46 7 46 L 43 46 C 44.64497 46 46 44.64497 46 43 L 46 11 L 46 7 C 46 5.3550302 44.64497 4 43 4 L 7 4 z M 7 6 L 43 6 C 43.56503 6 44 6.4349698 44 7 L 44 10 L 6 10 L 6 7 C 6 6.4349698 6.4349698 6 7 6 z M 8 7 A 1 1 0 0 0 7 8 A 1 1 0 0 0 8 9 A 1 1 0 0 0 9 8 A 1 1 0 0 0 8 7 z M 11 7 A 1 1 0 0 0 10 8 A 1 1 0 0 0 11 9 A 1 1 0 0 0 12 8 A 1 1 0 0 0 11 7 z M 14 7 A 1 1 0 0 0 13 8 A 1 1 0 0 0 14 9 A 1 1 0 0 0 15 8 A 1 1 0 0 0 14 7 z M 6 12 L 44 12 L 44 43 C 44 43.56503 43.56503 44 43 44 L 7 44 C 6.4349698 44 6 43.56503 6 43 L 6 12 z M 30.935547 15.949219 C 29.423789 15.96458 27.917422 16.546797 26.763672 17.701172 C 25.042841 19.422003 24.589565 21.928457 25.396484 24.066406 L 23.939453 25.525391 L 18.949219 20.535156 L 18.949219 19.121094 L 15.414062 17 L 14 18.414062 L 16.121094 21.949219 L 17.535156 21.949219 L 22.525391 26.939453 L 13.732422 35.732422 C 12.756422 36.708422 12.756422 38.290578 13.732422 39.267578 C 14.709422 40.243578 16.290578 40.243578 17.267578 39.267578 L 28.957031 27.578125 C 31.079035 28.34798 33.546506 27.88904 35.248047 26.1875 C 37.094047 24.3415 37.479016 21.592281 36.416016 19.363281 L 32.419922 23.357422 L 30.298828 22.650391 L 29.591797 20.529297 L 33.587891 16.533203 C 32.751641 16.134203 31.842602 15.940002 30.935547 15.949219 z M 29.914062 30.085938 L 27.085938 32.914062 L 33.585938 39.414062 C 34.366937 40.195062 35.633063 40.195062 36.414062 39.414062 C 37.195062 38.633062 37.195062 37.366937 36.414062 36.585938 L 29.914062 30.085938 z"/></svg>