<?xml version="1.0"?><svg fill="#3498db" xmlns="http://www.w3.org/2000/svg"  viewBox="0 0 50 50" width="500px" height="500px">    <path d="M32.41,3H7v44h17.29c-0.81-0.71-1.5-1.4-2.06-2H9V5h22v10h10v16.09c0.7,0.27,1.36,0.6,2,0.96V13.59L32.41,3z M33,13V6.42 L39.59,13H33z M36,50c-7.6,0-13.6-8.1-13.8-8.4L21.8,41l0.4-0.6C22.4,40.1,28.4,32,36,32s13.6,8.1,13.8,8.4l0.4,0.6l-0.4,0.6 C49.6,41.9,43.6,50,36,50z M24.3,41c1.5,1.8,6.2,7,11.7,7s10.3-5.2,11.7-7c-1.4-1.8-6.2-7-11.7-7S25.7,39.2,24.3,41z M36,47 c-3.3,0-6-2.7-6-6s2.7-6,6-6s6,2.7,6,6S39.3,47,36,47z M36,37c-2.2,0-4,1.8-4,4s1.8,4,4,4s4-1.8,4-4S38.2,37,36,37z M34,41 c0,1.1,0.9,2,2,2s2-0.9,2-2s-0.9-2-2-2S34,39.9,34,41z"/></svg>