<svg fill="#3498db" xmlns="http://www.w3.org/2000/svg" viewBox="0 0 50 50" width="500px" height="500px"><path d="M 19.984375 2.9863281 A 1.0001 1.0001 0 0 0 19.841797 3 L 18 3 A 1.0001 1.0001 0 1 0 18 5 L 19 5 L 19 14 L 17.880859 14 C 11.170809 14 6.0502074 20.12774 7.1503906 26.806641 L 10.171875 46.154297 A 1.0001 1.0001 0 0 0 11.158203 47 L 38.841797 47 A 1.0001 1.0001 0 0 0 39.828125 46.154297 L 42.849609 26.806641 C 43.568606 22.441817 41.622353 18.323843 38.320312 15.986328 C 39.340058 15.159298 40 13.906907 40 12.5 C 40 10.026562 37.973438 8 35.5 8 L 31 8 L 31 5 L 32 5 A 1.0001 1.0001 0 1 0 32 3 L 30.167969 3 A 1.0001 1.0001 0 0 0 29.841797 3 L 20.167969 3 A 1.0001 1.0001 0 0 0 19.984375 2.9863281 z M 21 5 L 29 5 L 29 15 A 1.0001 1.0001 0 0 0 30 16 L 32.119141 16 C 37.61709 16 41.78477 20.971323 40.876953 26.482422 A 1.0001 1.0001 0 0 0 40.875 26.490234 L 37.984375 45 L 12.015625 45 L 9.125 26.490234 A 1.0001 1.0001 0 0 0 9.1230469 26.482422 C 8.215227 20.971311 12.38291 16 17.880859 16 L 20 16 A 1.0001 1.0001 0 0 0 21 15 L 21 5 z M 31 10 L 35.5 10 C 36.892562 10 38 11.107438 38 12.5 C 38 13.610236 37.282986 14.527107 36.296875 14.859375 C 35.014116 14.31592 33.609454 14 32.119141 14 L 31 14 L 31 10 z M 12 24 A 1.0001 1.0001 0 1 0 12 26 L 38 26 A 1.0001 1.0001 0 1 0 38 24 L 12 24 z M 18.990234 27.986328 A 1.0001 1.0001 0 0 0 18.292969 28.292969 L 17 29.585938 L 15.707031 28.292969 A 1.0001 1.0001 0 0 0 14.990234 27.990234 A 1.0001 1.0001 0 0 0 14.292969 29.707031 L 15.585938 31 L 14.292969 32.292969 A 1.0001 1.0001 0 1 0 15.707031 33.707031 L 17 32.414062 L 18.292969 33.707031 A 1.0001 1.0001 0 1 0 19.707031 32.292969 L 18.414062 31 L 19.707031 29.707031 A 1.0001 1.0001 0 0 0 18.990234 27.986328 z M 26.990234 27.986328 A 1.0001 1.0001 0 0 0 26.292969 28.292969 L 25 29.585938 L 23.707031 28.292969 A 1.0001 1.0001 0 0 0 22.990234 27.990234 A 1.0001 1.0001 0 0 0 22.292969 29.707031 L 23.585938 31 L 22.292969 32.292969 A 1.0001 1.0001 0 1 0 23.707031 33.707031 L 25 32.414062 L 26.292969 33.707031 A 1.0001 1.0001 0 1 0 27.707031 32.292969 L 26.414062 31 L 27.707031 29.707031 A 1.0001 1.0001 0 0 0 26.990234 27.986328 z M 34.990234 27.986328 A 1.0001 1.0001 0 0 0 34.292969 28.292969 L 33 29.585938 L 31.707031 28.292969 A 1.0001 1.0001 0 0 0 30.990234 27.990234 A 1.0001 1.0001 0 0 0 30.292969 29.707031 L 31.585938 31 L 30.292969 32.292969 A 1.0001 1.0001 0 1 0 31.707031 33.707031 L 33 32.414062 L 34.292969 33.707031 A 1.0001 1.0001 0 1 0 35.707031 32.292969 L 34.414062 31 L 35.707031 29.707031 A 1.0001 1.0001 0 0 0 34.990234 27.986328 z M 14 36 A 1.0001 1.0001 0 1 0 14 38 L 36 38 A 1.0001 1.0001 0 1 0 36 36 L 14 36 z"/></svg>