<svg fill="#3498db" xmlns="http://www.w3.org/2000/svg" viewBox="0 0 50 50" width="500px" height="500px"><path d="M 12 3 C 7.042969 3 3 7.042969 3 12 C 3 16.957031 7.042969 21 12 21 C 16.957031 21 21 16.957031 21 12 C 21 7.042969 16.957031 3 12 3 Z M 31 4 C 30.449219 4 30 4.449219 30 5 L 30 19 C 30 19.550781 30.449219 20 31 20 L 45 20 C 45.550781 20 46 19.550781 46 19 L 46 5 C 46 4.449219 45.550781 4 45 4 Z M 12 5 C 15.878906 5 19 8.121094 19 12 C 19 15.878906 15.878906 19 12 19 C 8.121094 19 5 15.878906 5 12 C 5 8.121094 8.121094 5 12 5 Z M 32 6 L 44 6 L 44 18 L 32 18 Z M 33.058594 28 C 32.617188 28 32.230469 28.285156 32.097656 28.703125 L 29.046875 38.59375 C 28.921875 38.992188 29.058594 39.429688 29.390625 39.683594 L 37.390625 45.796875 C 37.75 46.070313 38.25 46.070313 38.609375 45.796875 L 46.609375 39.683594 C 46.941406 39.429688 47.078125 38.992188 46.953125 38.59375 L 43.902344 28.703125 C 43.769531 28.285156 43.382813 28 42.941406 28 Z M 11.953125 29 C 11.609375 29.019531 11.300781 29.207031 11.128906 29.503906 L 3.132813 43.503906 C 2.953125 43.8125 2.957031 44.195313 3.132813 44.503906 C 3.3125 44.8125 3.644531 45 4 45 L 20 45 C 20.355469 45 20.6875 44.8125 20.867188 44.503906 C 21.042969 44.195313 21.046875 43.8125 20.871094 43.503906 L 12.871094 29.503906 C 12.683594 29.175781 12.328125 28.984375 11.953125 29 Z M 33.792969 30 L 42.207031 30 L 44.839844 38.515625 L 38 43.742188 L 31.160156 38.515625 Z M 12 32.015625 L 18.277344 43 L 5.726563 43 Z"/></svg>