<svg fill="#3498db" xmlns="http://www.w3.org/2000/svg" viewBox="0 0 50 50" width="500px" height="500px"><path d="M 4 4 L 4 5 L 4 46 L 46 46 L 46 4 L 4 4 z M 6 6 L 24.585938 6 L 19.292969 11.292969 A 1.0001 1.0001 0 1 0 20.707031 12.707031 L 24 9.4140625 L 24 19 A 1.0001 1.0001 0 1 0 26 19 L 26 9.4140625 L 29.292969 12.707031 A 1.0001 1.0001 0 1 0 30.707031 11.292969 L 25.414062 6 L 44 6 L 44 24.585938 L 38.707031 19.292969 A 1.0001 1.0001 0 0 0 37.990234 18.990234 A 1.0001 1.0001 0 0 0 37.292969 20.707031 L 40.585938 24 L 31 24 A 1.0001 1.0001 0 1 0 31 26 L 40.585938 26 L 37.292969 29.292969 A 1.0001 1.0001 0 1 0 38.707031 30.707031 L 44 25.414062 L 44 44 L 25.414062 44 L 30.707031 38.707031 A 1.0001 1.0001 0 0 0 29.990234 36.986328 A 1.0001 1.0001 0 0 0 29.292969 37.292969 L 26 40.585938 L 26 31 A 1.0001 1.0001 0 0 0 24.984375 29.986328 A 1.0001 1.0001 0 0 0 24 31 L 24 40.585938 L 20.707031 37.292969 A 1.0001 1.0001 0 0 0 19.990234 36.990234 A 1.0001 1.0001 0 0 0 19.292969 38.707031 L 24.585938 44 L 6 44 L 6 25.414062 L 11.292969 30.707031 A 1.0001 1.0001 0 1 0 12.707031 29.292969 L 9.4140625 26 L 19 26 A 1.0001 1.0001 0 1 0 19 24 L 9.4140625 24 L 12.707031 20.707031 A 1.0001 1.0001 0 0 0 11.980469 18.990234 A 1.0001 1.0001 0 0 0 11.292969 19.292969 L 6 24.585938 L 6 6 z"/></svg>