<svg fill="#3498db" xmlns="http://www.w3.org/2000/svg"  viewBox="0 0 50 50" width="500px" height="500px"><path d="M 33 4 C 29.698375 4 27 6.6983746 27 10 L 27 21.585938 L 21.707031 16.292969 A 1.0001 1.0001 0 0 0 20.990234 15.990234 A 1.0001 1.0001 0 0 0 20.292969 17.707031 L 27.205078 24.619141 A 1.0001 1.0001 0 0 0 28.796875 24.617188 L 35.707031 17.707031 A 1.0001 1.0001 0 1 0 34.292969 16.292969 L 29 21.585938 L 29 10 C 29 7.7796254 30.779625 6 33 6 L 44 6 A 1.0001 1.0001 0 1 0 44 4 L 33 4 z M 44.158203 25.984375 C 43.976081 25.987088 43.794527 26.003877 43.613281 26.033203 C 43.129958 26.111403 42.654568 26.286441 42.216797 26.5625 L 31.117188 33.402344 C 30.860975 33.262254 30.546838 33.107561 30.132812 32.908203 C 29.657062 32.679123 29.159549 32.445393 28.878906 32.318359 C 27.368214 31.6352 22.551898 29.647251 18.896484 28.042969 C 17.33274 27.356725 15.661395 27.005995 13.988281 26.990234 C 12.315168 26.974474 10.638837 27.294229 9.0625 27.951172 L 2.6152344 30.636719 A 1.0001 1.0001 0 1 0 3.3847656 32.482422 L 9.8320312 29.796875 C 12.481356 28.692761 15.463286 28.721482 18.091797 29.875 C 21.782383 31.494718 26.67738 33.517784 28.054688 34.140625 C 28.302045 34.252592 28.801627 34.487516 29.265625 34.710938 C 29.729623 34.934357 30.21732 35.181535 30.257812 35.205078 C 30.703995 35.464594 31 35.929151 31 36.488281 C 31 37.329093 30.340812 37.988281 29.5 37.988281 C 29.380834 37.988281 29.267782 37.974949 29.160156 37.949219 A 1.0001 1.0001 0 0 0 29.158203 37.949219 C 29.132973 37.943219 28.341821 37.721019 27.382812 37.439453 C 26.423804 37.157887 25.203555 36.796274 24.003906 36.439453 C 21.604609 35.725811 19.287109 35.03125 19.287109 35.03125 A 1.0001054 1.0001054 0 0 0 18.712891 36.947266 C 18.712891 36.947266 21.033844 37.641111 23.435547 38.355469 C 24.636398 38.712648 25.857071 39.074613 26.820312 39.357422 C 27.782628 39.639959 28.395226 39.823361 28.695312 39.894531 C 28.955687 39.956791 29.225166 39.988281 29.5 39.988281 C 31.421188 39.988281 33 38.40947 33 36.488281 C 33 35.89616 32.845356 35.339664 32.582031 34.849609 L 43.275391 28.259766 A 1.0001 1.0001 0 0 0 43.285156 28.253906 C 44.122074 27.726144 45.198996 27.970034 45.726562 28.806641 C 46.239013 29.618936 46.024802 30.663506 45.234375 31.208984 A 1.0001 1.0001 0 0 0 45.197266 31.234375 L 29.423828 43.185547 C 28.347119 44.001891 26.936059 44.221423 25.662109 43.769531 L 14.013672 39.640625 C 11.320349 38.529005 8.2378995 38.903354 5.8886719 40.626953 L 2.4042969 43.183594 A 1.0001 1.0001 0 1 0 3.5878906 44.794922 L 7.0722656 42.240234 C 8.861038 40.927834 11.199323 40.643854 13.25 41.490234 A 1.0001 1.0001 0 0 0 13.296875 41.507812 L 24.994141 45.654297 C 26.900191 46.330405 29.021523 46.000953 30.632812 44.779297 L 46.369141 32.855469 C 48.024714 31.712947 48.491519 29.441939 47.417969 27.740234 C 46.693184 26.590883 45.433055 25.965387 44.158203 25.984375 z"/></svg>