<svg fill="#3498db" xmlns="http://www.w3.org/2000/svg"  viewBox="0 0 50 50" width="500px" height="500px"><path d="M 20 9 L 20 14 L 10 14 L 10 19 L 5 19 L 5 24 L 1.125 24 C 0.648438 24.007813 0.246094 24.347656 0.15625 24.8125 C 0.15625 24.8125 0 25.667969 0 26.75 C 0 27.4375 0.0703125 28.183594 0.1875 28.9375 C 0.128906 28.953125 0.0507813 28.988281 0 29 L 0.1875 29 C 0.476563 30.808594 1.140625 32.734375 2.25 34.5625 C 2.253906 34.570313 2.246094 34.585938 2.25 34.59375 C 2.257813 34.613281 2.269531 34.636719 2.28125 34.65625 C 2.332031 34.894531 2.464844 35.105469 2.65625 35.25 C 2.675781 35.261719 2.699219 35.273438 2.71875 35.28125 C 3.027344 35.726563 3.351563 36.171875 3.71875 36.59375 C 6.394531 39.679688 10.738281 42 17 42 C 27.222656 42 35.867188 37.644531 40.75 29 L 49.84375 29 C 48.757813 28.726563 46.425781 28.359375 46.8125 26.9375 C 45.519531 28.433594 43.058594 28.621094 41.15625 28.28125 C 41.519531 27.59375 41.871094 26.894531 42.1875 26.15625 C 45.078125 26.082031 47.152344 25.152344 48.3125 24.03125 C 49.582031 22.804688 49.96875 21.4375 49.96875 21.4375 C 50.066406 21.054688 49.933594 20.652344 49.625 20.40625 C 49.625 20.40625 47.097656 18.5625 43.3125 19.1875 C 42.234375 15.652344 39.4375 13.9375 39.4375 13.9375 C 39.230469 13.816406 38.988281 13.769531 38.75 13.8125 C 38.589844 13.847656 38.4375 13.921875 38.3125 14.03125 C 38.3125 14.03125 37.644531 14.601563 37.09375 15.625 C 36.542969 16.648438 36.035156 18.207031 36.21875 20.21875 C 36.304688 21.160156 36.601563 22.054688 37.03125 22.90625 C 36.789063 23.054688 36.648438 23.179688 36.25 23.34375 C 35.421875 23.6875 34.214844 24 32.5 24 L 32 24 L 32 19 L 27 19 L 27 9 Z M 22 11 L 25 11 L 25 14 L 22 14 Z M 12 16 L 15 16 L 15 19 L 12 19 Z M 17 16 L 20 16 L 20 19 L 17 19 Z M 22 16 L 25 16 L 25 19 L 22 19 Z M 39.09375 16.21875 C 39.835938 16.769531 41.179688 17.921875 41.65625 20.4375 C 41.707031 20.714844 41.871094 20.953125 42.109375 21.101563 C 42.347656 21.25 42.636719 21.292969 42.90625 21.21875 C 45.457031 20.519531 46.835938 21.09375 47.59375 21.53125 C 47.449219 21.847656 47.472656 22.042969 46.90625 22.59375 C 45.996094 23.472656 44.453125 24.359375 41.5625 24.25 C 41.140625 24.234375 40.753906 24.484375 40.59375 24.875 C 40.195313 25.871094 39.734375 26.792969 39.25 27.6875 C 39.101563 27.601563 38.976563 27.5 38.875 27.40625 C 37.535156 29.347656 29.761719 28.605469 29.21875 27.09375 C 27.542969 29.0625 22.335938 29.0625 20.65625 27.09375 C 20.113281 28.605469 12.308594 29.347656 10.96875 27.40625 C 9.769531 28.53125 5.035156 29.222656 3.0625 26.9375 C 3.25 27.625 2.765625 28.070313 2.125 28.375 C 2.042969 27.804688 2 27.261719 2 26.75 C 2 26.320313 2.03125 26.28125 2.0625 26 L 32.5 26 C 34.46875 26 35.945313 25.625 37 25.1875 C 38.054688 24.75 38.804688 24.21875 38.90625 24.15625 C 39.148438 24.003906 39.3125 23.757813 39.359375 23.476563 C 39.40625 23.199219 39.332031 22.910156 39.15625 22.6875 C 38.601563 21.964844 38.3125 21.058594 38.21875 20.03125 C 38.074219 18.417969 38.453125 17.289063 38.84375 16.5625 C 38.976563 16.316406 38.984375 16.367188 39.09375 16.21875 Z M 7 21 L 10 21 L 10 24 L 7 24 Z M 12 21 L 15 21 L 15 24 L 12 24 Z M 17 21 L 20 21 L 20 24 L 17 24 Z M 22 21 L 25 21 L 25 24 L 22 24 Z M 27 21 L 30 21 L 30 24 L 27 24 Z M 2.25 29 L 38.5 29 C 33.910156 36.414063 26.289063 40 17 40 C 11.53125 40 7.984375 38.144531 5.65625 35.6875 C 10.09375 35.898438 13.53125 34.71875 13.53125 34.71875 C 14.082031 34.648438 14.476563 34.144531 14.40625 33.59375 C 14.335938 33.042969 13.832031 32.648438 13.28125 32.71875 C 13.226563 32.726563 13.175781 32.734375 13.125 32.75 C 13.039063 32.761719 12.957031 32.78125 12.875 32.8125 C 12.875 32.8125 8.785156 34.207031 4 33.53125 C 3.101563 32.050781 2.535156 30.464844 2.25 29 Z M 16 31 C 15.449219 31 15 31.449219 15 32 C 15 32.550781 15.449219 33 16 33 C 16.550781 33 17 32.550781 17 32 C 17 31.863281 16.988281 31.742188 16.9375 31.625 C 16.867188 31.75 16.714844 31.84375 16.5625 31.84375 C 16.335938 31.84375 16.15625 31.632813 16.15625 31.40625 C 16.15625 31.253906 16.253906 31.132813 16.375 31.0625 C 16.261719 31.019531 16.128906 31 16 31 Z"/></svg>