<svg xmlns="http://www.w3.org/2000/svg"  viewBox="0 0 172 172" width="500px" height="500px"><g style="mix-blend-mode:normal" fill="none" stroke-miterlimit="10" font-family="none" font-size="none" font-weight="none" text-anchor="none"><path d="M0,172v-172h172v172z"/><path fill="#000" d="M41.28,10.32c-17.05219,0 -30.96,13.90781 -30.96,30.96c0,17.05219 13.90781,30.96 30.96,30.96c17.05219,0 30.96,-13.90781 30.96,-30.96c0,-17.05219 -13.90781,-30.96 -30.96,-30.96zM130.72,10.32c-7.955,0 -15.25156,2.99656 -20.7475,7.955c-1.10187,0.36281 -1.94844,1.24969 -2.2575,2.365c-4.93156,5.4825 -7.955,12.71188 -7.955,20.64c0,17.05219 13.90781,30.96 30.96,30.96c2.21719,0 4.36719,-0.30906 6.45,-0.7525c0.14781,-0.02687 0.29563,-0.06719 0.43,-0.1075c5.0525,-1.15562 9.64813,-3.46687 13.4375,-6.7725c1.505,-0.215 2.6875,-1.3975 2.9025,-2.9025c3.25188,-3.69531 5.57656,-8.17 6.7725,-13.115c0.04031,-0.1075 0.08063,-0.215 0.1075,-0.3225c0.52406,-2.24406 0.86,-4.58219 0.86,-6.9875c0,-17.05219 -13.90781,-30.96 -30.96,-30.96zM41.28,17.2c13.34344,0 24.08,10.73656 24.08,24.08c0,13.34344 -10.73656,24.08 -24.08,24.08c-13.34344,0 -24.08,-10.73656 -24.08,-24.08c0,-13.34344 10.73656,-24.08 24.08,-24.08zM132.225,17.3075c12.13406,0.73906 21.72844,10.33344 22.4675,22.4675zM123.41,18.275l30.315,30.2075c-0.81969,2.64719 -2.13656,5.03906 -3.7625,7.2025l-33.6475,-33.6475c2.13656,-1.59906 4.47469,-2.94281 7.095,-3.7625zM111.4775,26.875l33.6475,33.6475c-2.16344,1.62594 -4.55531,2.94281 -7.2025,3.7625l-30.2075,-30.2075c0.81969,-2.64719 2.13656,-5.03906 3.7625,-7.2025zM106.7475,42.785l22.4675,22.4675c-12.13406,-0.73906 -21.72844,-10.33344 -22.4675,-22.4675zM41.28,99.76c-17.05219,0 -30.96,13.90781 -30.96,30.96c0,17.05219 13.90781,30.96 30.96,30.96c17.05219,0 30.96,-13.90781 30.96,-30.96c0,-17.05219 -13.90781,-30.96 -30.96,-30.96zM130.72,99.76c-17.05219,0 -30.96,13.90781 -30.96,30.96c0,17.05219 13.90781,30.96 30.96,30.96c17.05219,0 30.96,-13.90781 30.96,-30.96c0,-17.05219 -13.90781,-30.96 -30.96,-30.96zM41.28,106.64c2.67406,0 5.22719,0.49719 7.6325,1.29c-0.47031,0.59125 -0.7525,1.33031 -0.7525,2.15c0,1.89469 1.54531,3.44 3.44,3.44c1.62594,0 2.86219,-1.1825 3.225,-2.6875c2.4725,1.69313 4.64938,3.87 6.3425,6.3425c-1.505,0.36281 -2.6875,1.59906 -2.6875,3.225c0,1.89469 1.54531,3.44 3.44,3.44c0.81969,0 1.55875,-0.28219 2.15,-0.7525c0.79281,2.40531 1.29,4.95844 1.29,7.6325c0,2.67406 -0.49719,5.22719 -1.29,7.6325c-0.59125,-0.47031 -1.33031,-0.7525 -2.15,-0.7525c-1.89469,0 -3.44,1.54531 -3.44,3.44c0,1.62594 1.1825,2.86219 2.6875,3.225c-1.69312,2.4725 -3.87,4.64938 -6.3425,6.3425c-0.36281,-1.505 -1.59906,-2.6875 -3.225,-2.6875c-1.89469,0 -3.44,1.54531 -3.44,3.44c0,0.81969 0.28219,1.55875 0.7525,2.15c-2.40531,0.79281 -4.95844,1.29 -7.6325,1.29c-2.67406,0 -5.22719,-0.49719 -7.6325,-1.29c0.47031,-0.59125 0.7525,-1.33031 0.7525,-2.15c0,-1.89469 -1.54531,-3.44 -3.44,-3.44c-1.62594,0 -2.86219,1.1825 -3.225,2.6875c-2.4725,-1.69312 -4.64937,-3.87 -6.3425,-6.3425c1.505,-0.36281 2.6875,-1.59906 2.6875,-3.225c0,-1.89469 -1.54531,-3.44 -3.44,-3.44c-0.81969,0 -1.55875,0.28219 -2.15,0.7525c-0.79281,-2.40531 -1.29,-4.95844 -1.29,-7.6325c0,-2.67406 0.49719,-5.22719 1.29,-7.6325c0.59125,0.47031 1.33031,0.7525 2.15,0.7525c1.89469,0 3.44,-1.54531 3.44,-3.44c0,-1.62594 -1.1825,-2.86219 -2.6875,-3.225c1.69313,-2.4725 3.87,-4.64937 6.3425,-6.3425c0.36281,1.505 1.59906,2.6875 3.225,2.6875c1.89469,0 3.44,-1.54531 3.44,-3.44c0,-0.81969 -0.28219,-1.55875 -0.7525,-2.15c2.40531,-0.79281 4.95844,-1.29 7.6325,-1.29zM130.72,106.64c1.935,0 3.44,1.505 3.44,3.44c0,1.935 -1.505,3.44 -3.44,3.44c-1.935,0 -3.44,-1.505 -3.44,-3.44c0,-1.935 1.505,-3.44 3.44,-3.44zM120.5075,109.005c-0.04031,0.36281 -0.1075,0.69875 -0.1075,1.075c0,5.65719 4.66281,10.32 10.32,10.32c5.65719,0 10.32,-4.66281 10.32,-10.32c0,-0.37625 -0.06719,-0.71219 -0.1075,-1.075c5.06594,2.37844 9.12406,6.43656 11.5025,11.5025c-0.36281,-0.04031 -0.69875,-0.1075 -1.075,-0.1075c-5.65719,0 -10.32,4.66281 -10.32,10.32c0,5.65719 4.66281,10.32 10.32,10.32c0.37625,0 0.71219,-0.06719 1.075,-0.1075c-2.37844,5.06594 -6.43656,9.12406 -11.5025,11.5025c0.04031,-0.36281 0.1075,-0.69875 0.1075,-1.075c0,-5.65719 -4.66281,-10.32 -10.32,-10.32c-5.65719,0 -10.32,4.66281 -10.32,10.32c0,0.37625 0.06719,0.71219 0.1075,1.075c-5.06594,-2.37844 -9.12406,-6.43656 -11.5025,-11.5025c0.36281,0.04031 0.69875,0.1075 1.075,0.1075c5.65719,0 10.32,-4.66281 10.32,-10.32c0,-5.65719 -4.66281,-10.32 -10.32,-10.32c-0.37625,0 -0.71219,0.06719 -1.075,0.1075c2.37844,-5.06594 6.43656,-9.12406 11.5025,-11.5025zM120.4,130.72c0,5.65719 4.66281,10.32 10.32,10.32c5.65719,0 10.32,-4.66281 10.32,-10.32c0,-5.65719 -4.66281,-10.32 -10.32,-10.32c-5.65719,0 -10.32,4.66281 -10.32,10.32zM41.28,116.96c-1.89469,0 -3.44,1.54531 -3.44,3.44c0,1.89469 1.54531,3.44 3.44,3.44c1.89469,0 3.44,-1.54531 3.44,-3.44c0,-1.89469 -1.54531,-3.44 -3.44,-3.44zM30.96,127.28c-1.89469,0 -3.44,1.54531 -3.44,3.44c0,1.89469 1.54531,3.44 3.44,3.44c1.89469,0 3.44,-1.54531 3.44,-3.44c0,-1.89469 -1.54531,-3.44 -3.44,-3.44zM51.6,127.28c-1.89469,0 -3.44,1.54531 -3.44,3.44c0,1.89469 1.54531,3.44 3.44,3.44c1.89469,0 3.44,-1.54531 3.44,-3.44c0,-1.89469 -1.54531,-3.44 -3.44,-3.44zM110.08,127.28c1.935,0 3.44,1.505 3.44,3.44c0,1.935 -1.505,3.44 -3.44,3.44c-1.935,0 -3.44,-1.505 -3.44,-3.44c0,-1.935 1.505,-3.44 3.44,-3.44zM130.72,127.28c1.935,0 3.44,1.505 3.44,3.44c0,1.935 -1.505,3.44 -3.44,3.44c-1.935,0 -3.44,-1.505 -3.44,-3.44c0,-1.935 1.505,-3.44 3.44,-3.44zM151.36,127.28c1.935,0 3.44,1.505 3.44,3.44c0,1.935 -1.505,3.44 -3.44,3.44c-1.935,0 -3.44,-1.505 -3.44,-3.44c0,-1.935 1.505,-3.44 3.44,-3.44zM41.28,137.6c-1.89469,0 -3.44,1.54531 -3.44,3.44c0,1.89469 1.54531,3.44 3.44,3.44c1.89469,0 3.44,-1.54531 3.44,-3.44c0,-1.89469 -1.54531,-3.44 -3.44,-3.44zM130.72,147.92c1.935,0 3.44,1.505 3.44,3.44c0,1.935 -1.505,3.44 -3.44,3.44c-1.935,0 -3.44,-1.505 -3.44,-3.44c0,-1.935 1.505,-3.44 3.44,-3.44z"/></g></svg>