<svg fill="#3498db" xmlns="http://www.w3.org/2000/svg" viewBox="0 0 50 50" width="500px" height="500px"><path d="M 9 4 C 6.2504839 4 4 6.2504839 4 9 L 4 41 C 4 43.749516 6.2504839 46 9 46 L 41 46 C 43.749516 46 46 43.749516 46 41 L 46 9 C 46 6.2504839 43.749516 4 41 4 L 9 4 z M 9 6 L 41 6 C 42.668484 6 44 7.3315161 44 9 L 44 41 C 44 42.668484 42.668484 44 41 44 L 9 44 C 7.3315161 44 6 42.668484 6 41 L 6 9 C 6 7.3315161 7.3315161 6 9 6 z M 25 9 C 22.802706 9 21 10.802706 21 13 C 21 14.850301 22.284214 16.405591 24 16.855469 L 24 21.101562 C 22.572073 21.394654 21.379688 22.312818 20.675781 23.542969 L 16.974609 22.339844 C 17.126023 20.533473 16.029338 18.777828 14.236328 18.195312 C 13.714016 18.025623 13.179303 17.971954 12.662109 18.017578 C 11.110527 18.154451 9.7063339 19.196735 9.1972656 20.763672 C 8.5185079 22.852922 9.6763759 25.122023 11.765625 25.800781 C 13.490193 26.36106 15.322681 25.657713 16.296875 24.224609 L 20.033203 25.4375 C 20.012252 25.622317 20 25.809828 20 26 C 20 27.293858 20.510067 28.467102 21.324219 29.357422 L 18.466797 33.289062 C 18.038548 33.120812 17.592043 33.022592 17.142578 33.007812 C 15.857367 32.965553 14.570902 33.537421 13.763672 34.648438 C 12.472104 36.426063 12.87081 38.94476 14.648438 40.236328 C 16.426063 41.527896 18.942807 41.129188 20.234375 39.351562 C 21.320043 37.857324 21.198104 35.847112 20.080078 34.474609 L 22.9375 30.539062 C 23.568685 30.828301 24.263545 31 25 31 C 25.736455 31 26.431315 30.828301 27.0625 30.539062 L 29.919922 34.472656 C 28.800276 35.844778 28.677416 37.854617 29.763672 39.349609 C 31.055271 41.127212 33.57396 41.525974 35.351562 40.234375 C 37.129165 38.942776 37.527927 36.426042 36.236328 34.648438 C 35.429079 33.537436 34.142633 32.963577 32.857422 33.005859 C 32.408541 33.020628 31.961503 33.120684 31.533203 33.289062 L 28.675781 29.357422 C 29.489933 28.467102 30 27.293858 30 26 C 30 25.809828 29.987748 25.622317 29.966797 25.4375 L 33.701172 24.224609 C 34.674814 25.659793 36.510531 26.363413 38.236328 25.802734 C 40.325577 25.123976 41.481491 22.854875 40.802734 20.765625 C 40.293666 19.198688 38.889473 18.156405 37.337891 18.019531 C 36.820697 17.973907 36.287937 18.027576 35.765625 18.197266 C 33.973265 18.77957 32.874943 20.534166 33.025391 22.339844 L 29.324219 23.542969 C 28.620312 22.312818 27.427927 21.394654 26 21.101562 L 26 16.855469 C 27.715786 16.405591 29 14.850301 29 13 C 29 10.802706 27.197294 9 25 9 z M 25 11 C 26.116414 11 27 11.883586 27 13 C 27 14.116414 26.116414 15 25 15 C 23.883586 15 23 14.116414 23 13 C 23 11.883586 23.883586 11 25 11 z M 12.824219 20.003906 C 13.083058 19.982706 13.351871 20.01146 13.617188 20.097656 C 14.678447 20.442439 15.245174 21.553974 14.900391 22.615234 C 14.555608 23.676494 13.444072 24.24322 12.382812 23.898438 C 11.321553 23.553655 10.754826 22.442119 11.099609 21.380859 C 11.358197 20.584914 12.047701 20.067507 12.824219 20.003906 z M 37.175781 20.005859 C 37.952299 20.069461 38.641803 20.586868 38.900391 21.382812 C 39.245174 22.444073 38.678448 23.555608 37.617188 23.900391 C 36.555928 24.245174 35.444392 23.678448 35.099609 22.617188 C 34.754825 21.555927 35.321554 20.444392 36.382812 20.099609 C 36.648128 20.013414 36.916942 19.984659 37.175781 20.005859 z M 25 23 C 26.668699 23 28 24.331301 28 26 C 28 27.668699 26.668699 29 25 29 C 23.331301 29 22 27.668699 22 26 C 22 24.331301 23.331301 23 25 23 z M 32.931641 34.994141 C 33.571403 34.970562 34.207036 35.257781 34.617188 35.822266 C 35.273431 36.725441 35.078956 37.960945 34.175781 38.617188 C 33.272606 39.273432 32.037102 39.077003 31.380859 38.173828 C 30.724616 37.270653 30.921044 36.037103 31.824219 35.380859 C 32.162909 35.134768 32.547783 35.008288 32.931641 34.994141 z M 17.066406 34.996094 C 17.450264 35.010234 17.835133 35.136727 18.173828 35.382812 C 19.077014 36.03904 19.273415 37.272594 18.617188 38.175781 C 17.96096 39.078967 16.727406 39.275368 15.824219 38.619141 C 14.921033 37.962913 14.724631 36.727406 15.380859 35.824219 C 15.791001 35.259728 16.426644 34.972526 17.066406 34.996094 z"/></svg>