<svg fill="#3498db" xmlns="http://www.w3.org/2000/svg" viewBox="0 0 50 50" width="500px" height="500px"><path d="M 3 7 C 2.449219 7 2 7.449219 2 8 L 2 42 C 2 42.550781 2.449219 43 3 43 L 47 43 C 47.550781 43 48 42.550781 48 42 L 48 8 C 48 7.449219 47.550781 7 47 7 Z M 4 9 L 46 9 L 46 41 L 4 41 Z M 8 12 C 7.449219 12 7 12.449219 7 13 L 7 21 C 6.996094 21.359375 7.183594 21.695313 7.496094 21.878906 C 7.808594 22.058594 8.191406 22.058594 8.503906 21.878906 C 8.816406 21.695313 9.003906 21.359375 9 21 L 9 14 L 16 14 C 16.359375 14.003906 16.695313 13.816406 16.878906 13.503906 C 17.058594 13.191406 17.058594 12.808594 16.878906 12.496094 C 16.695313 12.183594 16.359375 11.996094 16 12 Z M 41.984375 27.984375 C 41.433594 27.996094 40.992188 28.449219 41 29 L 41 36 L 34 36 C 33.640625 35.996094 33.304688 36.183594 33.121094 36.496094 C 32.941406 36.808594 32.941406 37.191406 33.121094 37.503906 C 33.304688 37.816406 33.640625 38.003906 34 38 L 42 38 C 42.550781 38 43 37.550781 43 37 L 43 29 C 43.003906 28.730469 42.898438 28.46875 42.707031 28.277344 C 42.515625 28.085938 42.253906 27.980469 41.984375 27.984375 Z"/></svg>