<svg fill="#3498db" xmlns="http://www.w3.org/2000/svg" viewBox="0 0 50 50" width="500px" height="500px"><path d="M 15.8125 1 C 15.335938 1.089844 14.992188 1.511719 15 2 L 15 6 C 15 6.550781 15.449219 7 16 7 L 17 7 L 17 11 C 16.988281 11.070313 16.945313 11.167969 16.90625 11.28125 C 16.808594 11.550781 16.636719 11.945313 16.4375 12.40625 C 16.035156 13.324219 15.453125 14.542969 14.75 16 C 13.34375 18.910156 11.476563 22.703125 9.59375 26.53125 C 7.710938 30.359375 5.828125 34.226563 4.40625 37.40625 C 3.695313 38.996094 3.082031 40.410156 2.65625 41.5625 C 2.230469 42.714844 1.96875 43.542969 1.96875 44.34375 C 1.96875 45.425781 2.261719 46.351563 2.8125 47.0625 C 3.363281 47.773438 4.125 48.230469 4.9375 48.5 C 6.566406 49.042969 8.449219 49 10.28125 49 L 39.625 49 C 41.457031 49 43.371094 49.042969 45 48.5 C 45.8125 48.230469 46.574219 47.773438 47.125 47.0625 C 47.675781 46.351563 47.96875 45.425781 47.96875 44.34375 C 47.96875 43.546875 47.671875 42.714844 47.25 41.5625 C 46.828125 40.410156 46.238281 39.027344 45.53125 37.4375 C 44.117188 34.257813 42.246094 30.359375 40.375 26.53125 C 38.503906 22.703125 36.648438 18.910156 35.25 16 C 34.550781 14.542969 33.960938 13.324219 33.5625 12.40625 C 33.363281 11.945313 33.191406 11.550781 33.09375 11.28125 C 33.054688 11.167969 33.011719 11.070313 33 11 L 33 7 L 34 7 C 34.550781 7 35 6.550781 35 6 L 35 2 C 35 1.449219 34.550781 1 34 1 L 16 1 C 15.96875 1 15.9375 1 15.90625 1 C 15.875 1 15.84375 1 15.8125 1 Z M 17 3 L 33 3 L 33 5 L 18.1875 5 C 18.054688 4.972656 17.914063 4.972656 17.78125 5 L 17 5 Z M 19 7 L 31 7 L 31 11 C 31 11.460938 31.097656 11.632813 31.21875 11.96875 C 31.339844 12.304688 31.507813 12.707031 31.71875 13.1875 C 32.136719 14.148438 32.734375 15.410156 33.4375 16.875 C 34.84375 19.808594 36.726563 23.582031 38.59375 27.40625 C 40.460938 31.230469 42.328125 35.117188 43.71875 38.25 C 44.414063 39.816406 44.980469 41.167969 45.375 42.25 C 45.769531 43.332031 45.96875 44.226563 45.96875 44.34375 C 45.96875 45.09375 45.78125 45.523438 45.53125 45.84375 C 45.28125 46.164063 44.90625 46.40625 44.34375 46.59375 C 43.222656 46.96875 41.457031 47 39.625 47 L 10.28125 47 C 8.449219 47 6.683594 46.96875 5.5625 46.59375 C 5 46.40625 4.625 46.164063 4.375 45.84375 C 4.125 45.523438 3.96875 45.09375 3.96875 44.34375 C 3.96875 44.226563 4.132813 43.363281 4.53125 42.28125 C 4.929688 41.199219 5.519531 39.816406 6.21875 38.25 C 7.617188 35.117188 9.496094 31.230469 11.375 27.40625 C 13.253906 23.582031 15.148438 19.808594 16.5625 16.875 C 17.269531 15.410156 17.859375 14.148438 18.28125 13.1875 C 18.492188 12.707031 18.660156 12.304688 18.78125 11.96875 C 18.902344 11.632813 19 11.460938 19 11 Z M 25.3125 20.0625 C 25.257813 20.078125 25.207031 20.101563 25.15625 20.125 C 24.046875 20.539063 22.921875 21.554688 21.75 23.0625 C 20.742188 24.359375 19.785156 26.003906 19.15625 27.9375 C 17.6875 27.417969 16.273438 27.113281 15.15625 27 C 14.71875 26.949219 14.300781 27.191406 14.125 27.59375 C 12.691406 30.878906 12.289063 35.542969 16.09375 39.96875 C 17.65625 41.785156 20.464844 42.90625 22.8125 43.125 C 22.824219 43.136719 22.832031 43.144531 22.84375 43.15625 C 22.933594 43.203125 23.027344 43.234375 23.125 43.25 C 23.125 43.25 29.910156 44.613281 33.90625 39.96875 C 35.851563 37.707031 36.660156 35.082031 36.84375 32.78125 C 37.027344 30.480469 36.648438 28.53125 35.96875 27.3125 C 35.773438 26.96875 35.394531 26.773438 35 26.8125 C 33.652344 26.949219 32.15625 27.285156 30.65625 27.90625 C 29.742188 24.800781 27.660156 21.871094 26.21875 20.375 C 25.988281 20.125 25.648438 20.003906 25.3125 20.0625 Z M 25.3125 22.46875 C 26.542969 23.941406 28.183594 26.453125 28.8125 28.8125 C 27.984375 29.300781 27.1875 29.890625 26.4375 30.59375 C 26.003906 30.996094 25.632813 31.519531 25.25 32 C 24.078125 30.613281 22.621094 29.492188 21.03125 28.71875 C 21.574219 26.976563 22.410156 25.441406 23.3125 24.28125 C 24.121094 23.242188 24.800781 22.800781 25.3125 22.46875 Z M 34.46875 29 C 34.742188 29.832031 34.964844 31.089844 34.84375 32.625 C 34.6875 34.578125 34.015625 36.773438 32.40625 38.65625 C 29.691406 41.808594 25.515625 41.457031 24.34375 41.3125 C 24.285156 38.140625 25.007813 35.707031 26.21875 33.90625 C 26.6875 33.207031 27.203125 32.601563 27.78125 32.0625 C 29.773438 30.203125 32.316406 29.339844 34.46875 29 Z M 15.71875 29.21875 C 16.949219 29.417969 18.421875 29.714844 19.96875 30.4375 C 21.636719 31.214844 23.160156 32.351563 24.125 33.6875 C 23.035156 35.632813 22.359375 38.046875 22.34375 40.96875 C 20.636719 40.609375 18.453125 39.652344 17.59375 38.65625 C 14.589844 35.144531 14.746094 31.90625 15.71875 29.21875 Z"/></svg>