<svg fill="#3498db" xmlns="http://www.w3.org/2000/svg" viewBox="0 0 50 50" width="500px" height="500px"><path d="M 5 4 A 1.0001 1.0001 0 0 0 4 5 L 4 13 A 1.0001 1.0001 0 1 0 6 13 L 6 6 L 13 6 A 1.0001 1.0001 0 1 0 13 4 L 5 4 z M 17 4 A 1.0001 1.0001 0 1 0 17 6 L 21 6 A 1.0001 1.0001 0 1 0 21 4 L 17 4 z M 25 4 A 1.0001 1.0001 0 1 0 25 6 L 29 6 A 1.0001 1.0001 0 1 0 29 4 L 25 4 z M 33 4 A 1.0001 1.0001 0 1 0 33 6 L 40 6 L 40 13 A 1.0001 1.0001 0 1 0 42 13 L 42 5 A 1.0001 1.0001 0 0 0 41 4 L 33 4 z M 4.984375 15.986328 A 1.0001 1.0001 0 0 0 4 17 L 4 21 A 1.0001 1.0001 0 1 0 6 21 L 6 17 A 1.0001 1.0001 0 0 0 4.984375 15.986328 z M 40.984375 15.986328 A 1.0001 1.0001 0 0 0 40 17 L 40 21 A 1.0001 1.0001 0 1 0 42 21 L 42 17 A 1.0001 1.0001 0 0 0 40.984375 15.986328 z M 4.984375 23.986328 A 1.0001 1.0001 0 0 0 4 25 L 4 29 A 1.0001 1.0001 0 1 0 6 29 L 6 25 A 1.0001 1.0001 0 0 0 4.984375 23.986328 z M 40.984375 23.986328 A 1.0001 1.0001 0 0 0 40 25 L 40 29 A 1.0001 1.0001 0 1 0 42 29 L 42 25 A 1.0001 1.0001 0 0 0 40.984375 23.986328 z M 4.984375 31.986328 A 1.0001 1.0001 0 0 0 4 33 L 4 41 A 1.0001 1.0001 0 0 0 5 42 L 13 42 A 1.0001 1.0001 0 1 0 13 40 L 6 40 L 6 33 A 1.0001 1.0001 0 0 0 4.984375 31.986328 z M 40.984375 31.986328 A 1.0001 1.0001 0 0 0 40 33 L 40 40 L 33 40 A 1.0001 1.0001 0 1 0 33 42 L 40 42 L 40 49 A 1.0001 1.0001 0 1 0 42 49 L 42 42 L 49 42 A 1.0001 1.0001 0 1 0 49 40 L 42 40 L 42 33 A 1.0001 1.0001 0 0 0 40.984375 31.986328 z M 17 40 A 1.0001 1.0001 0 1 0 17 42 L 21 42 A 1.0001 1.0001 0 1 0 21 40 L 17 40 z M 25 40 A 1.0001 1.0001 0 1 0 25 42 L 29 42 A 1.0001 1.0001 0 1 0 29 40 L 25 40 z"/></svg>