<svg fill="#3498db" xmlns="http://www.w3.org/2000/svg"  viewBox="0 0 50 50" width="500px" height="500px"><path d="M 2 2 C 0.90625 2 0 2.90625 0 4 L 0 40 C 0 41.09375 0.90625 42 2 42 L 19 42 L 19 44 L 14.875 44 C 13.257813 44 12 45.386719 12 47 L 12 50 L 38 50 L 38 47 C 38 45.386719 36.742188 44 35.125 44 L 31 44 L 31 42 L 48 42 C 49.09375 42 50 41.09375 50 40 L 50 4 C 50 2.90625 49.09375 2 48 2 Z M 2 4 L 48 4 L 48 40 L 30.1875 40 C 30.054688 39.972656 29.914063 39.972656 29.78125 40 L 20.1875 40 C 20.054688 39.972656 19.914063 39.972656 19.78125 40 L 2 40 Z M 6 6 C 4.90625 6 4 6.90625 4 8 L 4 32 C 4 33.09375 4.90625 34 6 34 L 44 34 C 45.09375 34 46 33.09375 46 32 L 46 8 C 46 6.90625 45.09375 6 44 6 Z M 6 8 L 44 8 L 44 32 L 6 32 Z M 21.875 9 C 21.496094 9.054688 21.179688 9.320313 21.0625 9.6875 L 17.28125 21 L 7 21 L 7 23 L 18 23 C 18.425781 22.996094 18.804688 22.71875 18.9375 22.3125 L 21.78125 13.78125 L 25.03125 29.21875 C 25.117188 29.601563 25.417969 29.898438 25.800781 29.980469 C 26.183594 30.058594 26.578125 29.910156 26.8125 29.59375 L 31.53125 23 L 43 23 L 43 21 L 31 21 C 30.679688 20.996094 30.378906 21.148438 30.1875 21.40625 L 26.5 26.5625 L 22.96875 9.78125 C 22.859375 9.277344 22.386719 8.941406 21.875 9 Z M 43 35 C 41.894531 35 41 35.894531 41 37 C 41 38.105469 41.894531 39 43 39 C 44.105469 39 45 38.105469 45 37 C 45 35.894531 44.105469 35 43 35 Z M 21 42 L 29 42 L 29 44 L 21 44 Z M 14.875 46 L 35.125 46 C 35.589844 46 36 46.410156 36 47 L 36 48 L 14 48 L 14 47 C 14 46.410156 14.410156 46 14.875 46 Z"/></svg>