<?xml version="1.0"?><svg fill="#3498db" xmlns="http://www.w3.org/2000/svg" viewBox="0 0 50 50" width="500px" height="500px">    <path d="M 25 2 C 12.318 2 2 12.318 2 25 C 2 37.682 12.318 48 25 48 C 26.458 48 27.882625 47.858656 29.265625 47.597656 C 28.765625 47.030656 28.316922 46.421437 27.919922 45.773438 C 27.287852 45.86194 26.645996 45.91928 26 45.957031 L 26 4.0253906 C 37.116837 4.5497266 46 13.755652 46 25 C 46 25.993 45.907437 26.962922 45.773438 27.919922 C 46.421438 28.316922 47.031656 28.764625 47.597656 29.265625 C 47.858656 27.882625 48 26.458 48 25 C 48 12.318 37.682 2 25 2 z M 24 4.0253906 L 24 45.974609 C 22.533814 45.905455 21.105605 45.686073 19.732422 45.330078 C 19.549534 45.130088 19.292156 45 19 45 C 18.9112 45 18.831985 45.029026 18.75 45.050781 C 17.827261 44.762577 16.943602 44.391814 16.080078 43.984375 C 16.592664 43.941512 17 43.5236 17 43 C 17 42.448 16.552 42 16 42 C 15.448 42 15 42.448 15 43 C 15 43.209239 15.079448 43.392117 15.189453 43.552734 C 11.472914 41.579627 8.4203733 38.527086 6.4472656 34.810547 C 6.607883 34.920552 6.7907606 35 7 35 C 7.552 35 8 34.552 8 34 C 8 33.448 7.552 33 7 33 C 6.4763998 33 6.0584879 33.407336 6.015625 33.919922 C 5.6081863 33.056398 5.2374231 32.172739 4.9492188 31.25 C 4.9709743 31.168015 5 31.0888 5 31 C 5 30.707844 4.8699115 30.450466 4.6699219 30.267578 C 4.3134549 28.892575 4.0942354 27.462373 4.0253906 25.994141 C 4.564872 25.979756 5 25.542933 5 25 C 5 24.457067 4.564872 24.020244 4.0253906 24.005859 C 4.0942354 22.537627 4.3134549 21.107425 4.6699219 19.732422 C 4.8699115 19.549534 5 19.292156 5 19 C 5 18.9112 4.9709743 18.831985 4.9492188 18.75 C 5.2374231 17.827261 5.6081863 16.943602 6.015625 16.080078 C 6.0584879 16.592664 6.4763998 17 7 17 C 7.552 17 8 16.552 8 16 C 8 15.448 7.552 15 7 15 C 6.7907606 15 6.607883 15.079448 6.4472656 15.189453 C 8.4203733 11.472914 11.472914 8.4203733 15.189453 6.4472656 C 15.079448 6.607883 15 6.7907606 15 7 C 15 7.552 15.448 8 16 8 C 16.552 8 17 7.552 17 7 C 17 6.4763998 16.592664 6.0584879 16.080078 6.015625 C 16.943602 5.6081863 17.827261 5.2374231 18.75 4.9492188 C 18.831985 4.9709743 18.9112 5 19 5 C 19.292156 5 19.549534 4.8699115 19.732422 4.6699219 C 21.105605 4.3139267 22.533814 4.0945447 24 4.0253906 z M 22 6 C 21.448 6 21 6.448 21 7 C 21 7.552 21.448 8 22 8 C 22.552 8 23 7.552 23 7 C 23 6.448 22.552 6 22 6 z M 13 9 C 12.448 9 12 9.448 12 10 C 12 10.552 12.448 11 13 11 C 13.552 11 14 10.552 14 10 C 14 9.448 13.552 9 13 9 z M 19 9 C 18.448 9 18 9.448 18 10 C 18 10.552 18.448 11 19 11 C 19.552 11 20 10.552 20 10 C 20 9.448 19.552 9 19 9 z M 10 12 C 9.448 12 9 12.448 9 13 C 9 13.552 9.448 14 10 14 C 10.552 14 11 13.552 11 13 C 11 12.448 10.552 12 10 12 z M 16 12 C 15.448 12 15 12.448 15 13 C 15 13.552 15.448 14 16 14 C 16.552 14 17 13.552 17 13 C 17 12.448 16.552 12 16 12 z M 22 12 C 21.448 12 21 12.448 21 13 C 21 13.552 21.448 14 22 14 C 22.552 14 23 13.552 23 13 C 23 12.448 22.552 12 22 12 z M 13 15 C 12.448 15 12 15.448 12 16 C 12 16.552 12.448 17 13 17 C 13.552 17 14 16.552 14 16 C 14 15.448 13.552 15 13 15 z M 19 15 C 18.448 15 18 15.448 18 16 C 18 16.552 18.448 17 19 17 C 19.552 17 20 16.552 20 16 C 20 15.448 19.552 15 19 15 z M 10 18 C 9.448 18 9 18.448 9 19 C 9 19.552 9.448 20 10 20 C 10.552 20 11 19.552 11 19 C 11 18.448 10.552 18 10 18 z M 16 18 C 15.448 18 15 18.448 15 19 C 15 19.552 15.448 20 16 20 C 16.552 20 17 19.552 17 19 C 17 18.448 16.552 18 16 18 z M 22 18 C 21.448 18 21 18.448 21 19 C 21 19.552 21.448 20 22 20 C 22.552 20 23 19.552 23 19 C 23 18.448 22.552 18 22 18 z M 7 21 C 6.448 21 6 21.448 6 22 C 6 22.552 6.448 23 7 23 C 7.552 23 8 22.552 8 22 C 8 21.448 7.552 21 7 21 z M 13 21 C 12.448 21 12 21.448 12 22 C 12 22.552 12.448 23 13 23 C 13.552 23 14 22.552 14 22 C 14 21.448 13.552 21 13 21 z M 19 21 C 18.448 21 18 21.448 18 22 C 18 22.552 18.448 23 19 23 C 19.552 23 20 22.552 20 22 C 20 21.448 19.552 21 19 21 z M 10 24 C 9.448 24 9 24.448 9 25 C 9 25.552 9.448 26 10 26 C 10.552 26 11 25.552 11 25 C 11 24.448 10.552 24 10 24 z M 16 24 C 15.448 24 15 24.448 15 25 C 15 25.552 15.448 26 16 26 C 16.552 26 17 25.552 17 25 C 17 24.448 16.552 24 16 24 z M 22 24 C 21.448 24 21 24.448 21 25 C 21 25.552 21.448 26 22 26 C 22.552 26 23 25.552 23 25 C 23 24.448 22.552 24 22 24 z M 7 27 C 6.448 27 6 27.448 6 28 C 6 28.552 6.448 29 7 29 C 7.552 29 8 28.552 8 28 C 8 27.448 7.552 27 7 27 z M 13 27 C 12.448 27 12 27.448 12 28 C 12 28.552 12.448 29 13 29 C 13.552 29 14 28.552 14 28 C 14 27.448 13.552 27 13 27 z M 19 27 C 18.448 27 18 27.448 18 28 C 18 28.552 18.448 29 19 29 C 19.552 29 20 28.552 20 28 C 20 27.448 19.552 27 19 27 z M 37 28 L 36.400391 31.199219 C 36.100391 31.299219 35.700391 31.399609 35.400391 31.599609 L 32.699219 29.699219 L 29.699219 32.699219 L 31.5 35.199219 C 31.4 35.599219 31.199609 35.900781 31.099609 36.300781 L 28 36.800781 L 28 41 L 31.099609 41.5 C 31.199609 41.8 31.3 42.2 31.5 42.5 L 29.699219 45.199219 L 32.699219 48.199219 L 35.400391 46.400391 C 35.800391 46.600391 36.1 46.700781 36.5 46.800781 L 37 50 L 41.099609 50 L 41.699219 46.900391 C 41.999219 46.800391 42.299219 46.7 42.699219 46.5 L 45.400391 48.300781 L 48.400391 45.300781 L 46.5 42.699219 C 46.7 42.299219 46.800391 41.899609 46.900391 41.599609 L 50 41 L 50 36.800781 L 46.800781 36.300781 C 46.700781 36.000781 46.600391 35.600781 46.400391 35.300781 L 48.199219 32.599609 L 45.300781 29.699219 L 42.699219 31.599609 C 42.399219 31.399609 41.999219 31.299219 41.699219 31.199219 L 41.199219 28 L 37 28 z M 10 30 C 9.448 30 9 30.448 9 31 C 9 31.552 9.448 32 10 32 C 10.552 32 11 31.552 11 31 C 11 30.448 10.552 30 10 30 z M 16 30 C 15.448 30 15 30.448 15 31 C 15 31.552 15.448 32 16 32 C 16.552 32 17 31.552 17 31 C 17 30.448 16.552 30 16 30 z M 22 30 C 21.448 30 21 30.448 21 31 C 21 31.552 21.448 32 22 32 C 22.552 32 23 31.552 23 31 C 23 30.448 22.552 30 22 30 z M 38.699219 30 L 39.5 30 L 39.900391 32.699219 L 40.5 32.900391 C 41.1 33.100391 41.699219 33.299609 42.199219 33.599609 L 42.800781 34 L 45.099609 32.300781 L 45.599609 32.800781 L 44 35.099609 L 44.300781 35.599609 C 44.600781 36.199609 44.8 36.800391 45 37.400391 L 45.199219 38 L 48 38.400391 L 48 39.199219 L 45.300781 39.800781 L 45.099609 40.400391 C 44.899609 41.000391 44.700391 41.599609 44.400391 42.099609 L 44 42.699219 L 45.699219 45 L 45.099609 45.599609 L 42.800781 44 L 42.300781 44.300781 C 41.700781 44.600781 41.1 44.8 40.5 45 L 39.900391 45.199219 L 39.400391 48 L 38.599609 48 L 38.199219 45.300781 L 37.599609 45.099609 C 36.999609 44.899609 36.400391 44.700391 35.900391 44.400391 L 35.300781 44 L 32.900391 45.599609 L 32.300781 45 L 33.900391 42.699219 L 33.599609 42.199219 C 33.299609 41.599219 33.100391 40.900391 32.900391 40.400391 L 32.699219 39.800781 L 30 39.300781 L 30 38.5 L 32.800781 38 L 32.900391 37.300781 C 33.000391 36.800781 33.2 36.199219 33.5 35.699219 L 33.900391 35.199219 L 32.300781 32.900391 L 32.900391 32.300781 L 35.199219 33.900391 L 35.699219 33.699219 C 36.399219 33.399219 36.999609 33.100391 37.599609 32.900391 L 38.199219 32.800781 L 38.699219 30 z M 13 33 C 12.448 33 12 33.448 12 34 C 12 34.552 12.448 35 13 35 C 13.552 35 14 34.552 14 34 C 14 33.448 13.552 33 13 33 z M 19 33 C 18.448 33 18 33.448 18 34 C 18 34.552 18.448 35 19 35 C 19.552 35 20 34.552 20 34 C 20 33.448 19.552 33 19 33 z M 39 34.900391 C 36.8 34.900391 35 36.700391 35 38.900391 C 35 41.100391 36.8 42.900391 39 42.900391 C 41.2 42.900391 43 41.200391 43 38.900391 C 43 36.700391 41.2 34.900391 39 34.900391 z M 10 36 C 9.448 36 9 36.448 9 37 C 9 37.552 9.448 38 10 38 C 10.552 38 11 37.552 11 37 C 11 36.448 10.552 36 10 36 z M 16 36 C 15.448 36 15 36.448 15 37 C 15 37.552 15.448 38 16 38 C 16.552 38 17 37.552 17 37 C 17 36.448 16.552 36 16 36 z M 22 36 C 21.448 36 21 36.448 21 37 C 21 37.552 21.448 38 22 38 C 22.552 38 23 37.552 23 37 C 23 36.448 22.552 36 22 36 z M 39 37 C 40.1 37 41 37.8 41 39 C 41 40.1 40.1 41 39 41 C 37.9 41 37 40.1 37 39 C 37 37.9 37.9 37 39 37 z M 13 39 C 12.448 39 12 39.448 12 40 C 12 40.552 12.448 41 13 41 C 13.552 41 14 40.552 14 40 C 14 39.448 13.552 39 13 39 z M 19 39 C 18.448 39 18 39.448 18 40 C 18 40.552 18.448 41 19 41 C 19.552 41 20 40.552 20 40 C 20 39.448 19.552 39 19 39 z M 22 42 C 21.448 42 21 42.448 21 43 C 21 43.552 21.448 44 22 44 C 22.552 44 23 43.552 23 43 C 23 42.448 22.552 42 22 42 z"/></svg>