<svg fill="#3498db" xmlns="http://www.w3.org/2000/svg" viewBox="0 0 50 50" width="500px" height="500px"><path d="M 5 3 C 4.449219 3 4 3.449219 4 4 L 4 38 C 4 38.550781 4.449219 39 5 39 L 8 39 L 8 42 C 8 42.550781 8.449219 43 9 43 L 12 43 L 12 46 C 12 46.550781 12.449219 47 13 47 L 45 47 C 45.550781 47 46 46.550781 46 46 L 46 12 C 46 11.449219 45.550781 11 45 11 L 42 11 L 42 8 C 42 7.449219 41.550781 7 41 7 L 38 7 L 38 4 C 38 3.449219 37.550781 3 37 3 Z M 6 5 L 36 5 L 36 37 L 6 37 Z M 20.972656 8 C 18.175781 8.070313 16.269531 9.335938 15.496094 11.195313 C 14.777344 12.925781 14.960938 14.976563 15.460938 17.050781 C 15.40625 17.152344 15.277344 17.21875 15.234375 17.324219 C 15.082031 17.699219 15 18.132813 15 18.625 C 15 19.417969 15.246094 20.101563 15.714844 20.5 C 15.90625 20.664063 15.953125 20.621094 16.121094 20.6875 C 16.195313 21.195313 16.265625 21.710938 16.40625 22.175781 C 16.507813 22.5 16.625 22.800781 16.78125 23.082031 C 16.824219 23.167969 16.945313 23.234375 17 23.316406 L 17 25.730469 C 16.851563 26.117188 16.558594 26.40625 15.933594 26.71875 C 15.277344 27.046875 14.359375 27.328125 13.398438 27.703125 C 12.4375 28.078125 11.414063 28.550781 10.566406 29.375 C 9.71875 30.195313 9.105469 31.394531 9 32.933594 L 8.929688 34 L 33.070313 34 L 33 32.933594 C 32.894531 31.394531 32.28125 30.195313 31.433594 29.375 C 30.585938 28.550781 29.5625 28.078125 28.601563 27.703125 C 27.640625 27.328125 26.722656 27.046875 26.066406 26.71875 C 25.441406 26.40625 25.148438 26.117188 25 25.730469 L 25 23.285156 C 25.042969 23.214844 25.140625 23.140625 25.179688 23.0625 C 25.316406 22.804688 25.433594 22.515625 25.539063 22.199219 C 25.695313 21.738281 25.78125 21.203125 25.871094 20.675781 C 26.050781 20.605469 26.113281 20.644531 26.316406 20.453125 C 26.78125 20.027344 27 19.339844 27 18.5 C 27 17.964844 26.925781 17.527344 26.734375 17.140625 C 26.695313 17.066406 26.628906 17.054688 26.578125 16.984375 C 26.832031 15.992188 27.113281 14.566406 26.992188 13.046875 C 26.921875 12.160156 26.714844 11.257813 26.179688 10.484375 C 25.699219 9.785156 24.882813 9.292969 23.910156 9.105469 C 23.230469 8.4375 22.265625 8 21 8 Z M 38 9 L 40 9 L 40 41 L 10 41 L 10 39 L 37 39 C 37.550781 39 38 38.550781 38 38 Z M 21.011719 10.003906 C 21.941406 10.007813 22.613281 10.480469 22.6875 10.582031 L 22.949219 10.949219 L 23.390625 10.996094 C 24.019531 11.0625 24.292969 11.265625 24.535156 11.621094 C 24.777344 11.972656 24.945313 12.535156 25 13.203125 C 25.105469 14.535156 24.761719 16.199219 24.539063 16.972656 L 24.3125 17.761719 L 24.953125 18.09375 C 24.960938 18.109375 25 18.195313 25 18.5 C 25 18.765625 24.976563 18.898438 24.960938 18.957031 C 24.925781 18.96875 24.847656 18.996094 24.683594 19.050781 L 24.066406 19.257813 L 24.003906 19.90625 C 23.953125 20.4375 23.808594 21.070313 23.644531 21.558594 C 23.5625 21.800781 23.472656 22.011719 23.40625 22.140625 C 23.375 22.199219 23.339844 22.234375 23.328125 22.25 L 23 22.476563 L 23 26.160156 L 23.050781 26.316406 C 23.414063 27.402344 24.292969 28.070313 25.175781 28.507813 C 26.058594 28.945313 27.007813 29.230469 27.875 29.566406 C 28.742188 29.90625 29.507813 30.289063 30.039063 30.808594 C 30.359375 31.121094 30.589844 31.519531 30.757813 32 L 11.242188 32 C 11.410156 31.519531 11.640625 31.121094 11.960938 30.808594 C 12.492188 30.289063 13.257813 29.90625 14.125 29.566406 C 14.992188 29.230469 15.941406 28.945313 16.824219 28.507813 C 17.707031 28.070313 18.585938 27.402344 18.949219 26.316406 L 19 26.160156 L 19 22.394531 L 18.570313 22.171875 C 18.558594 22.160156 18.550781 22.15625 18.53125 22.121094 C 18.472656 22.011719 18.390625 21.820313 18.316406 21.582031 C 18.171875 21.109375 18.050781 20.46875 17.996094 19.90625 L 17.933594 19.257813 L 17.316406 19.050781 C 17.152344 18.996094 17.066406 18.964844 17.023438 18.953125 C 17.015625 18.910156 17 18.832031 17 18.625 C 17 18.359375 17.046875 18.167969 17.085938 18.078125 C 17.089844 18.070313 17.089844 18.074219 17.09375 18.066406 L 17.671875 17.765625 L 17.46875 16.996094 C 16.933594 14.980469 16.855469 13.136719 17.34375 11.964844 C 17.828125 10.792969 18.734375 10.066406 21.011719 10.003906 Z M 42 13 L 44 13 L 44 45 L 14 45 L 14 43 L 41 43 C 41.550781 43 42 42.550781 42 42 Z"/></svg>