<svg fill="#3498db" xmlns="http://www.w3.org/2000/svg" viewBox="0 0 50 50" width="500px" height="500px"><path d="M 25.097656 2 C 19.273438 2 15.828125 5.011719 14.089844 8.808594 C 12.351563 12.605469 12.101563 17.144531 12 20.671875 L 12 20.699219 C 12 20.957031 12.027344 21.203125 12.050781 21.566406 C 12.078125 21.933594 12.097656 22.367188 12.097656 22.792969 C 12.097656 23.214844 12.074219 23.628906 12.015625 23.921875 C 11.960938 24.214844 11.839844 24.335938 11.941406 24.25 L 11.917969 24.269531 L 11.890625 24.292969 C 11.675781 24.511719 11.535156 24.71875 11.375 24.96875 C 11.296875 25.097656 11.226563 25.222656 11.15625 25.367188 C 11.089844 25.511719 11 25.617188 11 26 C 11 26.886719 11.484375 27.679688 12.117188 28.171875 C 12.75 28.664063 13.515625 28.953125 14.355469 29.175781 C 15.761719 29.554688 17.421875 29.699219 19 29.863281 L 19 31.671875 C 18.820313 32.019531 18.394531 32.4375 17.632813 32.839844 C 16.824219 33.265625 15.757813 33.660156 14.65625 34.0625 L 14.628906 34.070313 L 14.605469 34.082031 C 12.796875 34.863281 10.5625 35.652344 8.660156 37.089844 C 6.757813 38.527344 5.21875 40.710938 5 43.933594 L 5 48 L 7 48 L 7 44.0625 C 7.183594 41.386719 8.296875 39.871094 9.867188 38.6875 C 11.4375 37.5 13.503906 36.738281 15.394531 35.917969 C 16.480469 35.523438 17.589844 35.125 18.566406 34.609375 C 19.558594 34.085938 20.472656 33.4375 20.921875 32.394531 L 21 32.203125 L 21 28.101563 L 20.109375 28.003906 C 18.242188 27.804688 16.265625 27.621094 14.871094 27.246094 C 14.171875 27.058594 13.632813 26.816406 13.34375 26.59375 C 13.09375 26.398438 13.058594 26.273438 13.046875 26.078125 C 13.054688 26.058594 13.058594 26.050781 13.074219 26.03125 C 13.164063 25.878906 13.324219 25.6875 13.308594 25.707031 L 13.257813 25.75 C 13.761719 25.3125 13.886719 24.792969 13.984375 24.296875 C 14.078125 23.800781 14.097656 23.289063 14.097656 22.792969 C 14.097656 22.292969 14.074219 21.820313 14.046875 21.4375 C 14.023438 21.058594 14.003906 20.742188 14 20.714844 C 14.101563 17.246094 14.398438 12.9375 15.910156 9.640625 C 17.421875 6.335938 19.925781 4 25.097656 4 C 26.996094 4 28.285156 4.871094 28.761719 5.265625 L 29.015625 5.480469 L 29.347656 5.5 C 31.058594 5.589844 32.375 6.101563 33.375 7.097656 C 35.847656 9.753906 36 15.207031 36 20.300781 C 36 21.769531 36.035156 22.78125 36.15625 23.59375 C 36.28125 24.40625 36.519531 25.046875 36.875 25.566406 L 36.890625 25.585938 L 36.902344 25.605469 C 36.976563 25.699219 37 25.8125 37 26 C 37 26.191406 36.949219 26.300781 36.578125 26.546875 C 36.203125 26.796875 35.542969 27.050781 34.769531 27.242188 C 33.226563 27.625 31.261719 27.804688 29.855469 28.011719 L 29 28.136719 L 29 32.203125 L 29.078125 32.394531 C 29.527344 33.4375 30.441406 34.085938 31.433594 34.609375 C 32.410156 35.125 33.519531 35.523438 34.605469 35.917969 C 36.496094 36.738281 38.5625 37.5 40.136719 38.6875 C 41.703125 39.871094 42.816406 41.386719 43 44.0625 L 43 48 L 45 48 L 45 43.933594 C 44.78125 40.710938 43.242188 38.527344 41.339844 37.089844 C 39.4375 35.652344 37.203125 34.863281 35.394531 34.082031 L 35.371094 34.070313 L 35.34375 34.0625 C 34.242188 33.660156 33.175781 33.265625 32.367188 32.839844 C 31.605469 32.4375 31.179688 32.019531 31 31.671875 L 31 29.855469 C 32.257813 29.691406 33.769531 29.550781 35.253906 29.183594 C 36.144531 28.960938 36.980469 28.683594 37.683594 28.21875 C 38.386719 27.75 39 26.960938 39 26 C 39 25.589844 38.925781 24.960938 38.5 24.394531 L 38.523438 24.433594 C 38.34375 24.167969 38.230469 23.914063 38.136719 23.296875 C 38.042969 22.675781 38 21.730469 38 20.300781 C 38 15.199219 38.148438 9.261719 34.828125 5.71875 L 34.816406 5.703125 L 34.808594 5.695313 C 33.484375 4.371094 31.714844 3.730469 29.769531 3.570313 C 28.960938 2.945313 27.414063 2 25.097656 2 Z M 23.617188 36 C 22.863281 36 22.164063 36.429688 21.828125 37.109375 L 21.382813 38 L 19 38 C 17.90625 38 17 38.90625 17 40 L 17 46 C 17 47.09375 17.90625 48 19 48 L 31 48 C 32.09375 48 33 47.09375 33 46 L 33 40 C 33 38.90625 32.09375 38 31 38 L 28.617188 38 L 28.171875 37.105469 C 27.832031 36.429688 27.136719 36 26.382813 36 Z M 23.621094 38 L 26.378906 38 L 27.382813 40 L 31 40 L 31 46 L 19 46 L 19 40 L 22.617188 40 Z M 25 41 C 23.894531 41 23 41.894531 23 43 C 23 44.105469 23.894531 45 25 45 C 26.105469 45 27 44.105469 27 43 C 27 41.894531 26.105469 41 25 41 Z"/></svg>