<svg fill="#3498db" xmlns="http://www.w3.org/2000/svg" viewBox="0 0 50 50" width="500px" height="500px"><path d="M 24 0 L 24 1 L 24 4.0234375 C 13.208549 4.5309414 4.5329027 13.208443 4.0253906 24 L 1 24 L 0 24 L 0 26 L 1 26 L 4.0253906 26 C 4.5329027 36.791557 13.208549 45.469059 24 45.976562 L 24 49 L 24 50 L 26 50 L 26 49 L 26 45.974609 C 36.79155 45.467098 45.467098 36.79155 45.974609 26 L 49 26 L 50 26 L 50 24 L 49 24 L 45.974609 24 C 45.467098 13.20845 36.79155 4.5329024 26 4.0253906 L 26 1 L 26 0 L 24 0 z M 24 6.0488281 L 24 9 L 24 10 L 26 10 L 26 9 L 26 6.0507812 C 35.703044 6.5553041 43.444696 14.296956 43.949219 24 L 41 24 L 40 24 L 40 26 L 41 26 L 43.949219 26 C 43.444696 35.703044 35.703044 43.444696 26 43.949219 L 26 41 L 26 40 L 24 40 L 24 41 L 24 43.951172 C 14.298476 43.446281 6.5553046 35.703053 6.0507812 26 L 9 26 L 10 26 L 10 24 L 9 24 L 6.0507812 24 C 6.5553046 14.296947 14.298476 6.5537194 24 6.0488281 z M 25 18 C 21.145851 18 18 21.145851 18 25 C 18 28.854149 21.145851 32 25 32 C 28.854149 32 32 28.854149 32 25 C 32 21.145851 28.854149 18 25 18 z M 25 20 C 27.773268 20 30 22.226732 30 25 C 30 27.773268 27.773268 30 25 30 C 22.226732 30 20 27.773268 20 25 C 20 22.226732 22.226732 20 25 20 z"/></svg>