<svg fill="#3498db" xmlns="http://www.w3.org/2000/svg" viewBox="0 0 50 50" width="500px" height="500px"><path d="M 24.3125 2 C 23.420956 2 22.629965 2.6147375 22.414062 3.4824219 L 21.984375 5.2011719 C 20.499469 5.4266904 19.071602 5.809631 17.710938 6.3417969 L 16.482422 5.0722656 C 15.862388 4.4298699 14.871617 4.2925756 14.099609 4.7363281 L 14.097656 4.7363281 L 12.90625 5.4238281 C 12.131324 5.8704299 11.755045 6.7991264 12.001953 7.6582031 L 12.494141 9.3730469 C 11.341882 10.297108 10.29876 11.340649 9.375 12.492188 L 7.6582031 12.001953 C 6.799761 11.755812 5.8717255 12.130512 5.4257812 12.904297 L 4.7382812 14.095703 C 4.2933893 14.867662 4.4307859 15.859554 5.0722656 16.480469 L 6.34375 17.710938 C 5.8113519 19.071863 5.4264321 20.500169 5.2011719 21.984375 L 3.4824219 22.414062 C 2.6179581 22.630995 2 23.421529 2 24.3125 L 2 25.6875 C 2 26.578472 2.6136653 27.369436 3.4804688 27.585938 L 5.1992188 28.013672 C 5.4246013 29.498666 5.8097355 30.926346 6.3417969 32.287109 L 5.0722656 33.517578 C 4.4290841 34.13837 4.2909775 35.129589 4.7363281 35.902344 L 5.4238281 37.09375 C 5.8704299 37.868676 6.7991264 38.244955 7.6582031 37.998047 L 9.3710938 37.505859 C 10.295883 38.659215 11.339534 39.702542 12.492188 40.626953 L 12 42.341797 C 11.753859 43.200239 12.130512 44.128275 12.904297 44.574219 L 14.095703 45.261719 C 14.868458 45.707069 15.859676 45.568963 16.480469 44.925781 L 17.710938 43.65625 C 19.071946 44.188234 20.499504 44.573434 21.984375 44.798828 L 22.414062 46.517578 L 22.414062 46.519531 C 22.631987 47.383109 23.420956 48 24.3125 48 L 25.6875 48 C 26.579044 48 27.370443 47.383703 27.585938 46.515625 L 28.015625 44.798828 C 29.500683 44.573128 30.928759 44.189799 32.289062 43.658203 L 33.517578 44.927734 C 34.137612 45.57013 35.128383 45.707424 35.900391 45.263672 L 35.902344 45.263672 L 37.09375 44.576172 L 37.095703 44.574219 C 37.868335 44.127404 38.243549 43.201346 37.998047 42.34375 L 37.505859 40.626953 C 38.658165 39.702892 39.70124 38.659351 40.625 37.507812 L 42.341797 37.998047 C 43.200239 38.244188 44.128275 37.869488 44.574219 37.095703 L 45.261719 35.904297 C 45.706611 35.132338 45.569214 34.140446 44.927734 33.519531 L 44.925781 33.517578 L 43.65625 32.289062 C 44.18808 30.928497 44.573386 29.499983 44.798828 28.015625 L 46.515625 27.585938 C 47.381009 27.36965 48 26.579044 48 25.6875 L 48 24.3125 C 48 23.420985 47.384058 22.631209 46.519531 22.414062 L 44.800781 21.984375 C 44.57535 20.499894 44.19011 19.071258 43.658203 17.710938 L 44.927734 16.482422 C 45.57013 15.862388 45.709378 14.869664 45.265625 14.097656 L 45.263672 14.097656 L 44.576172 12.904297 C 44.129912 12.129964 43.202275 11.756184 42.34375 12.001953 L 42.341797 12.001953 L 40.626953 12.492188 C 39.702909 11.339947 38.659417 10.29673 37.507812 9.3730469 L 38 7.6582031 L 38 7.65625 C 38.244737 6.7992865 37.869151 5.8719432 37.097656 5.4257812 L 35.904297 4.7363281 C 35.131542 4.2909775 34.140324 4.4290841 33.519531 5.0722656 L 32.291016 6.34375 C 30.929487 5.8114154 29.50113 5.4266618 28.015625 5.2011719 L 27.585938 3.4824219 L 27.585938 3.4804688 C 27.368013 2.6168403 26.579044 2 25.6875 2 L 24.3125 2 z M 24.347656 4 L 25.654297 4 L 26.384766 6.9199219 L 27.074219 6.9980469 C 28.882535 7.2038175 30.605697 7.6721161 32.210938 8.3691406 L 32.847656 8.6445312 L 34.933594 6.4863281 L 36.066406 7.140625 L 35.238281 10.042969 L 35.792969 10.455078 C 37.221055 11.517134 38.483238 12.780451 39.544922 14.208984 L 39.957031 14.763672 L 42.861328 13.933594 L 43.513672 15.066406 L 41.357422 17.154297 L 41.632812 17.789062 C 42.329684 19.393002 42.798131 21.119379 43.003906 22.927734 L 43.082031 23.615234 L 46 24.345703 L 46 25.654297 L 43.080078 26.384766 L 43.001953 27.072266 C 42.796183 28.880582 42.327884 30.605697 41.630859 32.210938 L 41.355469 32.845703 L 43.511719 34.933594 L 42.859375 36.066406 L 39.957031 35.236328 L 39.542969 35.791016 C 38.480912 37.219102 37.219549 38.483238 35.791016 39.544922 L 35.236328 39.957031 L 36.064453 42.859375 L 34.931641 43.513672 L 32.845703 41.355469 L 32.210938 41.630859 C 30.606427 42.327031 28.880278 42.79817 27.072266 43.003906 L 26.382812 43.082031 L 25.652344 46 L 24.345703 46 L 23.615234 43.080078 L 22.925781 43.001953 C 21.117465 42.796183 19.394303 42.327884 17.789062 41.630859 L 17.152344 41.355469 L 15.066406 43.511719 L 13.933594 42.859375 L 14.761719 39.957031 L 14.207031 39.542969 C 12.778945 38.480912 11.516762 37.219549 10.455078 35.791016 L 10.042969 35.236328 L 7.1386719 36.064453 L 6.4863281 34.931641 L 8.6425781 32.845703 L 8.3671875 32.208984 C 7.670317 30.605046 7.2018687 28.880621 6.9960938 27.072266 L 6.9179688 26.382812 L 4 25.652344 L 4 24.345703 L 6.9199219 23.615234 L 6.9980469 22.927734 C 7.2038565 21.119075 7.6714174 19.393732 8.3691406 17.789062 L 8.6445312 17.154297 L 6.4882812 15.066406 L 7.140625 13.933594 L 10.042969 14.763672 L 10.457031 14.208984 C 11.519088 12.780898 12.780451 11.516762 14.208984 10.455078 L 14.763672 10.042969 L 13.935547 7.140625 L 15.068359 6.4863281 L 17.154297 8.6445312 L 17.791016 8.3691406 C 19.394954 7.6722701 21.119379 7.2018687 22.927734 6.9960938 L 23.617188 6.9179688 L 24.347656 4 z M 24 11.003906 L 22.847656 11.181641 C 19.331122 11.726289 16.242543 13.568998 14.103516 16.220703 L 13.369141 17.130859 L 21.21875 21.662109 L 21.755859 21.201172 C 22.214711 20.807871 22.74791 20.498357 23.333984 20.291016 L 24 20.056641 L 24 19.349609 L 24 11.003906 z M 26 11.003906 L 26 20.054688 L 26.666016 20.291016 C 27.25124 20.498352 27.783811 20.807316 28.244141 21.201172 L 28.783203 21.662109 L 29.394531 21.308594 L 36.630859 17.130859 L 35.896484 16.220703 C 33.75756 13.569126 30.669864 11.726275 27.152344 11.181641 L 26 11.003906 z M 22 13.566406 L 22 18.791016 C 21.693706 18.939151 21.402815 19.106913 21.123047 19.296875 L 16.587891 16.679688 C 18.069414 15.18571 19.90171 14.118898 22 13.566406 z M 28 13.566406 C 30.0987 14.118802 31.930649 15.1857 33.412109 16.679688 L 28.878906 19.296875 C 28.598651 19.106566 28.306633 18.939419 28 18.791016 L 28 13.566406 z M 12.373047 18.865234 L 11.951172 19.955078 C 11.346636 21.517423 11 23.216617 11 25 C 11 26.783383 11.346636 28.482577 11.951172 30.044922 L 12.373047 31.134766 L 20.214844 26.607422 L 20.087891 25.914062 C 20.031998 25.608805 20 25.304481 20 25 C 20 24.695519 20.032001 24.391194 20.087891 24.085938 L 20.214844 23.392578 L 12.373047 18.865234 z M 37.626953 18.865234 L 29.785156 23.392578 L 29.912109 24.085938 C 29.968002 24.391195 30 24.695519 30 25 C 30 25.304481 29.967999 25.608806 29.912109 25.914062 L 29.785156 26.607422 L 37.626953 31.134766 L 38.048828 30.044922 C 38.653363 28.482577 39 26.783383 39 25 C 39 23.216617 38.653364 21.517423 38.048828 19.955078 L 37.626953 18.865234 z M 13.589844 21.876953 L 18.052734 24.453125 C 18.037129 24.636825 18 24.809508 18 25 C 18 25.190492 18.037134 25.363175 18.052734 25.546875 L 13.589844 28.123047 C 13.307868 27.109671 13 26.101126 13 25 C 13 23.898874 13.307864 22.890329 13.589844 21.876953 z M 36.410156 21.876953 C 36.692136 22.890329 37 23.898874 37 25 C 37 26.101126 36.692136 27.109671 36.410156 28.123047 L 31.947266 25.546875 C 31.962871 25.363175 32 25.190492 32 25 C 32 24.809508 31.962866 24.636825 31.947266 24.453125 L 36.410156 21.876953 z M 21.216797 28.337891 L 20.605469 28.691406 L 13.369141 32.869141 L 14.103516 33.779297 C 16.24244 36.430874 19.330136 38.273725 22.847656 38.818359 L 24 38.996094 L 24 29.945312 L 23.333984 29.708984 C 22.74876 29.501648 22.216189 29.192684 21.755859 28.798828 L 21.216797 28.337891 z M 28.78125 28.337891 L 28.244141 28.798828 C 27.785289 29.192129 27.25209 29.501643 26.666016 29.708984 L 26 29.943359 L 26 30.650391 L 26 38.996094 L 27.152344 38.818359 C 30.668878 38.273711 33.757457 36.431002 35.896484 33.779297 L 36.630859 32.869141 L 28.78125 28.337891 z M 21.121094 30.703125 C 21.401346 30.893434 21.693367 31.060581 22 31.208984 L 22 36.433594 C 19.9013 35.881198 18.069351 34.814299 16.587891 33.320312 L 21.121094 30.703125 z M 28.876953 30.703125 L 33.412109 33.320312 C 31.930589 34.81429 30.09829 35.881102 28 36.433594 L 28 31.208984 C 28.306294 31.060849 28.597185 30.893087 28.876953 30.703125 z"/></svg>