<svg fill="#3498db" xmlns="http://www.w3.org/2000/svg" viewBox="0 0 50 50" width="500px" height="500px"><path d="M 19.09375 5 C 18.011719 5 17.105469 5.625 16.5625 6.4375 C 16.5625 6.449219 16.5625 6.457031 16.5625 6.46875 L 14.96875 9 L 6 9 C 3.253906 9 1 11.253906 1 14 L 1 38 C 1 40.746094 3.253906 43 6 43 L 44 43 C 46.746094 43 49 40.746094 49 38 L 49 14 C 49 11.253906 46.746094 9 44 9 L 34.9375 9 L 33.34375 6.46875 C 33.34375 6.457031 33.34375 6.449219 33.34375 6.4375 C 32.800781 5.625 31.894531 5 30.8125 5 Z M 19.09375 7 L 30.8125 7 C 31.132813 7 31.398438 7.175781 31.65625 7.5625 L 33.5625 10.53125 C 33.746094 10.820313 34.0625 11 34.40625 11 L 44 11 C 45.65625 11 47 12.34375 47 14 L 47 38 C 47 39.65625 45.65625 41 44 41 L 6 41 C 4.34375 41 3 39.65625 3 38 L 3 14 C 3 12.34375 4.34375 11 6 11 L 15.5 11 C 15.84375 11 16.160156 10.820313 16.34375 10.53125 L 18.21875 7.5625 L 18.25 7.53125 C 18.5 7.179688 18.789063 7 19.09375 7 Z M 10 13 C 8.355469 13 7 14.355469 7 16 C 7 17.644531 8.355469 19 10 19 C 11.644531 19 13 17.644531 13 16 C 13 14.355469 11.644531 13 10 13 Z M 10 15 C 10.554688 15 11 15.445313 11 16 C 11 16.554688 10.554688 17 10 17 C 9.445313 17 9 16.554688 9 16 C 9 15.445313 9.445313 15 10 15 Z M 25 15 C 18.9375 15 14 19.9375 14 26 C 14 32.0625 18.9375 37 25 37 C 31.0625 37 36 32.0625 36 26 C 36 19.9375 31.0625 15 25 15 Z M 25 17 C 29.980469 17 34 21.019531 34 26 C 34 30.980469 29.980469 35 25 35 C 20.019531 35 16 30.980469 16 26 C 16 21.019531 20.019531 17 25 17 Z"/></svg>