<svg fill="#3498db" xmlns="http://www.w3.org/2000/svg" viewBox="0 0 50 50" width="500px" height="500px"><path d="M 16.90625 -0.03125 C 16.863281 -0.0234375 16.820313 -0.0117188 16.78125 0 L 0 0 L 0 11.125 C -0.015625 11.230469 -0.015625 11.332031 0 11.4375 L 0 16.53125 C -0.132813 16.808594 -0.132813 17.128906 0 17.40625 L 0 32.53125 C -0.132813 32.808594 -0.132813 33.128906 0 33.40625 L 0 50 L 50 50 L 50 33.1875 C 50.027344 33.054688 50.027344 32.914063 50 32.78125 L 50 17.1875 C 50.027344 17.054688 50.027344 16.914063 50 16.78125 L 50 0 L 33.1875 0 C 33.054688 -0.0273438 32.914063 -0.0273438 32.78125 0 L 17.1875 0 C 17.097656 -0.0234375 17 -0.0351563 16.90625 -0.03125 Z M 2 2 L 16 2 L 16 11.65625 L 13.3125 9.125 L 12.8125 8.65625 L 10 10.0625 L 6.875 6.3125 L 6.21875 5.53125 L 5.4375 6.1875 L 2 9.125 Z M 18 2 L 32 2 L 32 16 L 18 16 L 18 14.4375 C 18.097656 14.195313 18.097656 13.929688 18 13.6875 Z M 34 2 L 48 2 L 48 16 L 34 16 Z M 12.5 4 C 11.671875 4 11 4.671875 11 5.5 C 11 6.328125 11.671875 7 12.5 7 C 13.328125 7 14 6.328125 14 5.5 C 14 4.671875 13.328125 4 12.5 4 Z M 25 4 C 25 4 24.386719 5.820313 23.8125 6.0625 C 23.238281 6.304688 21.46875 5.46875 21.46875 5.46875 C 21.46875 5.46875 22.253906 7.222656 22.0625 7.8125 C 21.921875 8.234375 20 9 20 9 C 20 9 21.871094 9.683594 22 10.1875 C 22.191406 10.933594 21.46875 12.53125 21.46875 12.53125 C 21.46875 12.53125 23.136719 11.644531 23.6875 11.9375 C 24.234375 12.230469 25 14 25 14 C 25 14 25.613281 12.179688 26.1875 11.9375 C 26.761719 11.695313 28.53125 12.53125 28.53125 12.53125 C 28.53125 12.53125 27.734375 10.773438 27.9375 10.1875 C 28.097656 9.734375 30 9 30 9 C 30 9 28.148438 8.265625 28 7.8125 C 27.757813 7.082031 28.53125 5.46875 28.53125 5.46875 C 28.53125 5.46875 26.863281 6.355469 26.3125 6.0625 C 25.765625 5.769531 25 4 25 4 Z M 37.5 4 C 36.671875 4 36 4.671875 36 5.5 C 36 6.328125 36.671875 7 37.5 7 C 38.328125 7 39 6.328125 39 5.5 C 39 4.671875 38.328125 4 37.5 4 Z M 42.78125 7 C 41.902344 7 41.125 7.449219 40.5625 8.09375 C 39.707031 8.222656 39.042969 8.699219 38.65625 9.4375 C 37.738281 9.773438 37 10.507813 37 11.53125 C 37 12.835938 38.070313 13.9375 39.375 13.9375 L 44.3125 13.9375 C 45.789063 13.9375 47 12.695313 47 11.21875 C 47 10.167969 46.3125 9.34375 45.40625 8.90625 C 44.941406 7.832031 44.003906 7 42.78125 7 Z M 25 7.34375 C 25.914063 7.34375 26.65625 8.089844 26.65625 9 C 26.65625 9.910156 25.914063 10.65625 25 10.65625 C 24.085938 10.65625 23.34375 9.910156 23.34375 9 C 23.34375 8.089844 24.085938 7.34375 25 7.34375 Z M 5.96875 8.375 L 8.96875 11.9375 L 9.46875 12.5625 L 10.15625 12.1875 L 12.46875 11.0625 L 16 14.40625 L 16 16 L 2 16 L 2 11.78125 Z M 42.78125 9 C 43.253906 9 43.65625 9.363281 43.75 9.8125 L 43.875 10.40625 L 44.46875 10.5625 C 44.773438 10.640625 45 10.890625 45 11.21875 C 45 11.609375 44.703125 11.9375 44.3125 11.9375 L 39.375 11.9375 C 39.15625 11.9375 39 11.753906 39 11.53125 C 39 11.320313 39.171875 11.167969 39.375 11.15625 L 40.0625 11.125 L 40.25 10.4375 C 40.34375 10.097656 40.582031 9.894531 40.96875 9.9375 L 41.59375 10 L 41.9375 9.46875 C 42.117188 9.1875 42.445313 9 42.78125 9 Z M 2 18 L 16 18 L 16 27.125 C 15.984375 27.230469 15.984375 27.332031 16 27.4375 L 16 32 L 2 32 Z M 18 18 L 32 18 L 32 27.65625 L 29.3125 25.125 L 28.8125 24.65625 L 26 26.0625 L 22.84375 22.3125 L 22.21875 21.53125 L 21.4375 22.1875 L 18 25.125 Z M 34 18 L 48 18 L 48 32 L 34 32 L 34 30.4375 C 34.097656 30.195313 34.097656 29.929688 34 29.6875 Z M 10.71875 19.03125 C 10.585938 19.03125 10.46875 19.046875 10.34375 19.0625 C 9.835938 19.132813 9.363281 19.339844 9 19.53125 C 8.632813 19.726563 8.59375 19.796875 8.375 19.96875 C 8.03125 19.789063 7.640625 19.59375 7.0625 19.5 C 6.34375 19.382813 5.371094 19.488281 4.65625 20.1875 C 3.75 21.066406 3.742188 22.285156 3.90625 23.09375 C 3.988281 23.507813 4.046875 23.558594 4.15625 23.8125 C 3.96875 24.003906 3.878906 24.011719 3.65625 24.34375 C 3.203125 25.015625 2.730469 26.097656 3.15625 27.25 C 3.375 27.832031 3.800781 28.273438 4.25 28.53125 C 5.113281 29.027344 5.921875 29.046875 6.5 29 C 6.789063 29.496094 7.238281 30.121094 8.0625 30.59375 C 8.449219 30.816406 8.933594 30.96875 9.46875 30.9375 C 10.097656 30.902344 10.636719 30.605469 11 30.25 C 11.363281 29.894531 11.597656 29.496094 11.78125 29.125 C 11.984375 28.710938 11.984375 28.585938 12.0625 28.3125 C 12.335938 28.265625 12.429688 28.277344 12.84375 28.125 C 13.605469 27.839844 14.628906 27.25 14.9375 26.0625 C 15.21875 24.96875 14.628906 24.035156 14.09375 23.46875 C 13.742188 23.097656 13.496094 22.964844 13.21875 22.78125 C 13.257813 22.503906 13.300781 22.402344 13.28125 21.96875 C 13.246094 21.148438 13.015625 19.992188 11.9375 19.375 C 11.53125 19.144531 11.113281 19.035156 10.71875 19.03125 Z M 28.5 20 C 27.671875 20 27 20.671875 27 21.5 C 27 22.328125 27.671875 23 28.5 23 C 29.328125 23 30 22.328125 30 21.5 C 30 20.671875 29.328125 20 28.5 20 Z M 41 20 C 41 20 40.386719 21.820313 39.8125 22.0625 C 39.238281 22.304688 37.46875 21.46875 37.46875 21.46875 C 37.46875 21.46875 38.253906 23.222656 38.0625 23.8125 C 37.921875 24.234375 36 25 36 25 C 36 25 37.871094 25.683594 38 26.1875 C 38.191406 26.933594 37.46875 28.53125 37.46875 28.53125 C 37.46875 28.53125 39.136719 27.644531 39.6875 27.9375 C 40.234375 28.230469 41 30 41 30 C 41 30 41.613281 28.179688 42.1875 27.9375 C 42.761719 27.695313 44.53125 28.53125 44.53125 28.53125 C 44.53125 28.53125 43.734375 26.773438 43.9375 26.1875 C 44.097656 25.734375 46 25 46 25 C 46 25 44.148438 24.265625 44 23.8125 C 43.757813 23.082031 44.53125 21.46875 44.53125 21.46875 C 44.53125 21.46875 42.863281 22.355469 42.3125 22.0625 C 41.765625 21.769531 41 20 41 20 Z M 10.78125 21.03125 C 10.84375 21.039063 10.894531 21.070313 10.9375 21.09375 C 11.113281 21.195313 11.261719 21.546875 11.28125 22.0625 C 11.300781 22.578125 11.21875 23.0625 11.21875 23.0625 L 11.03125 23.8125 L 11.71875 24.15625 C 11.71875 24.15625 11.71875 24.167969 11.75 24.1875 C 11.890625 24.269531 12.351563 24.523438 12.65625 24.84375 C 12.960938 25.164063 13.046875 25.378906 13 25.5625 C 12.9375 25.8125 12.628906 26.074219 12.15625 26.25 C 11.683594 26.425781 11.21875 26.46875 11.21875 26.46875 L 10.46875 26.53125 L 10.3125 27.25 C 10.3125 27.25 10.203125 27.742188 9.96875 28.21875 C 9.851563 28.457031 9.714844 28.695313 9.59375 28.8125 C 9.472656 28.929688 9.4375 28.933594 9.375 28.9375 C 9.296875 28.941406 9.199219 28.921875 9.0625 28.84375 C 8.582031 28.570313 7.9375 27.5 7.9375 27.5 L 7.625 26.8125 L 6.875 26.9375 C 6.875 26.9375 5.652344 27.011719 5.25 26.78125 C 5.125 26.710938 5.074219 26.683594 5.03125 26.5625 C 4.917969 26.257813 5.039063 25.871094 5.3125 25.46875 C 5.585938 25.066406 5.9375 24.78125 5.9375 24.78125 L 6.5625 24.25 L 6.15625 23.53125 C 6.15625 23.53125 5.96875 23.152344 5.875 22.6875 C 5.78125 22.222656 5.796875 21.882813 6.0625 21.625 C 6.25 21.441406 6.417969 21.414063 6.75 21.46875 C 7.082031 21.523438 7.460938 21.714844 7.6875 21.84375 C 7.820313 21.921875 7.875 21.9375 7.875 21.9375 L 8.5625 22.4375 L 9.15625 21.875 C 9.15625 21.875 9.515625 21.554688 9.96875 21.3125 C 10.195313 21.191406 10.398438 21.097656 10.5625 21.0625 C 10.644531 21.042969 10.71875 21.023438 10.78125 21.03125 Z M 9.8125 22.59375 C 9.25 22.742188 8.875 24.40625 8.875 24.40625 C 8.875 24.40625 7.980469 22.410156 7.34375 22.9375 C 6.707031 23.464844 8.6875 24.59375 8.6875 24.59375 C 8.6875 24.59375 6.554688 24.863281 6.8125 25.59375 C 7.070313 26.324219 8.8125 24.84375 8.8125 24.84375 C 8.8125 24.84375 8.339844 27.097656 9.15625 26.96875 C 9.972656 26.835938 9.0625 24.8125 9.0625 24.8125 C 9.0625 24.8125 11.066406 25.945313 11.1875 25.125 C 11.308594 24.304688 9.125 24.5625 9.125 24.5625 C 9.125 24.5625 10.769531 23.03125 10.0625 22.625 C 9.972656 22.574219 9.894531 22.574219 9.8125 22.59375 Z M 41 23.34375 C 41.914063 23.34375 42.65625 24.089844 42.65625 25 C 42.65625 25.910156 41.914063 26.65625 41 26.65625 C 40.085938 26.65625 39.34375 25.910156 39.34375 25 C 39.34375 24.089844 40.085938 23.34375 41 23.34375 Z M 21.96875 24.375 L 24.96875 27.9375 L 25.46875 28.5625 L 26.15625 28.1875 L 28.46875 27.0625 L 32 30.40625 L 32 32 L 18 32 L 18 27.78125 Z M 2 34 L 16 34 L 16 48 L 2 48 Z M 18 34 L 32 34 L 32 48 L 18 48 Z M 34 34 L 48 34 L 48 48 L 34 48 Z M 42.71875 35.03125 C 42.585938 35.03125 42.46875 35.046875 42.34375 35.0625 C 41.835938 35.132813 41.363281 35.339844 41 35.53125 C 40.632813 35.726563 40.59375 35.796875 40.375 35.96875 C 40.03125 35.789063 39.640625 35.59375 39.0625 35.5 C 38.34375 35.382813 37.371094 35.488281 36.65625 36.1875 C 35.75 37.066406 35.742188 38.285156 35.90625 39.09375 C 35.988281 39.507813 36.046875 39.558594 36.15625 39.8125 C 35.96875 40.003906 35.878906 40.011719 35.65625 40.34375 C 35.203125 41.015625 34.730469 42.097656 35.15625 43.25 C 35.375 43.832031 35.800781 44.273438 36.25 44.53125 C 37.113281 45.027344 37.921875 45.046875 38.5 45 C 38.789063 45.496094 39.238281 46.121094 40.0625 46.59375 C 40.449219 46.816406 40.933594 46.96875 41.46875 46.9375 C 42.097656 46.902344 42.636719 46.605469 43 46.25 C 43.363281 45.894531 43.597656 45.496094 43.78125 45.125 C 43.984375 44.710938 43.984375 44.585938 44.0625 44.3125 C 44.335938 44.265625 44.429688 44.277344 44.84375 44.125 C 45.605469 43.839844 46.628906 43.25 46.9375 42.0625 C 47.21875 40.96875 46.628906 40.035156 46.09375 39.46875 C 45.742188 39.097656 45.496094 38.964844 45.21875 38.78125 C 45.257813 38.503906 45.300781 38.402344 45.28125 37.96875 C 45.246094 37.148438 45.015625 35.992188 43.9375 35.375 C 43.53125 35.144531 43.113281 35.035156 42.71875 35.03125 Z M 9 36 C 9 36 8.386719 37.820313 7.8125 38.0625 C 7.238281 38.304688 5.46875 37.46875 5.46875 37.46875 C 5.46875 37.46875 6.253906 39.222656 6.0625 39.8125 C 5.921875 40.234375 4 41 4 41 C 4 41 5.871094 41.683594 6 42.1875 C 6.191406 42.933594 5.46875 44.53125 5.46875 44.53125 C 5.46875 44.53125 7.136719 43.644531 7.6875 43.9375 C 8.234375 44.230469 9 46 9 46 C 9 46 9.613281 44.179688 10.1875 43.9375 C 10.761719 43.695313 12.53125 44.53125 12.53125 44.53125 C 12.53125 44.53125 11.734375 42.773438 11.9375 42.1875 C 12.097656 41.734375 14 41 14 41 C 14 41 12.148438 40.265625 12 39.8125 C 11.757813 39.082031 12.53125 37.46875 12.53125 37.46875 C 12.53125 37.46875 10.863281 38.355469 10.3125 38.0625 C 9.765625 37.769531 9 36 9 36 Z M 21.5 36 C 20.671875 36 20 36.671875 20 37.5 C 20 38.328125 20.671875 39 21.5 39 C 22.328125 39 23 38.328125 23 37.5 C 23 36.671875 22.328125 36 21.5 36 Z M 42.78125 37.03125 C 42.84375 37.039063 42.894531 37.070313 42.9375 37.09375 C 43.113281 37.195313 43.261719 37.546875 43.28125 38.0625 C 43.300781 38.578125 43.21875 39.0625 43.21875 39.0625 L 43.03125 39.8125 L 43.71875 40.15625 C 43.71875 40.15625 43.71875 40.167969 43.75 40.1875 C 43.890625 40.269531 44.351563 40.523438 44.65625 40.84375 C 44.960938 41.164063 45.046875 41.378906 45 41.5625 C 44.9375 41.8125 44.628906 42.074219 44.15625 42.25 C 43.683594 42.425781 43.21875 42.46875 43.21875 42.46875 L 42.46875 42.53125 L 42.3125 43.25 C 42.3125 43.25 42.203125 43.742188 41.96875 44.21875 C 41.851563 44.457031 41.714844 44.695313 41.59375 44.8125 C 41.472656 44.929688 41.4375 44.933594 41.375 44.9375 C 41.296875 44.941406 41.199219 44.921875 41.0625 44.84375 C 40.582031 44.570313 39.9375 43.5 39.9375 43.5 L 39.625 42.8125 L 38.875 42.9375 C 38.875 42.9375 37.652344 43.011719 37.25 42.78125 C 37.125 42.710938 37.074219 42.683594 37.03125 42.5625 C 36.917969 42.257813 37.039063 41.871094 37.3125 41.46875 C 37.585938 41.066406 37.9375 40.78125 37.9375 40.78125 L 38.5625 40.25 L 38.15625 39.53125 C 38.15625 39.53125 37.96875 39.152344 37.875 38.6875 C 37.78125 38.222656 37.796875 37.882813 38.0625 37.625 C 38.25 37.441406 38.417969 37.414063 38.75 37.46875 C 39.082031 37.523438 39.460938 37.714844 39.6875 37.84375 C 39.820313 37.921875 39.875 37.9375 39.875 37.9375 L 40.5625 38.4375 L 41.15625 37.875 C 41.15625 37.875 41.515625 37.554688 41.96875 37.3125 C 42.195313 37.191406 42.398438 37.097656 42.5625 37.0625 C 42.644531 37.042969 42.71875 37.023438 42.78125 37.03125 Z M 41.8125 38.59375 C 41.25 38.742188 40.875 40.40625 40.875 40.40625 C 40.875 40.40625 39.980469 38.410156 39.34375 38.9375 C 38.707031 39.464844 40.6875 40.59375 40.6875 40.59375 C 40.6875 40.59375 38.554688 40.863281 38.8125 41.59375 C 39.070313 42.324219 40.8125 40.84375 40.8125 40.84375 C 40.8125 40.84375 40.339844 43.097656 41.15625 42.96875 C 41.972656 42.835938 41.0625 40.8125 41.0625 40.8125 C 41.0625 40.8125 43.066406 41.945313 43.1875 41.125 C 43.308594 40.304688 41.125 40.5625 41.125 40.5625 C 41.125 40.5625 42.769531 39.03125 42.0625 38.625 C 41.972656 38.574219 41.894531 38.574219 41.8125 38.59375 Z M 26.78125 39 C 25.902344 39 25.125 39.449219 24.5625 40.09375 C 23.707031 40.222656 23.042969 40.699219 22.65625 41.4375 C 21.738281 41.773438 21 42.507813 21 43.53125 C 21 44.835938 22.070313 45.9375 23.375 45.9375 L 28.3125 45.9375 C 29.789063 45.9375 31 44.695313 31 43.21875 C 31 42.167969 30.3125 41.34375 29.40625 40.90625 C 28.941406 39.832031 28.003906 39 26.78125 39 Z M 9 39.34375 C 9.914063 39.34375 10.65625 40.089844 10.65625 41 C 10.65625 41.910156 9.914063 42.65625 9 42.65625 C 8.085938 42.65625 7.34375 41.910156 7.34375 41 C 7.34375 40.089844 8.085938 39.34375 9 39.34375 Z M 26.78125 41 C 27.253906 41 27.65625 41.363281 27.75 41.8125 L 27.875 42.40625 L 28.46875 42.5625 C 28.773438 42.640625 29 42.890625 29 43.21875 C 29 43.609375 28.703125 43.9375 28.3125 43.9375 L 23.375 43.9375 C 23.15625 43.9375 23 43.753906 23 43.53125 C 23 43.320313 23.171875 43.167969 23.375 43.15625 L 24.0625 43.125 L 24.25 42.4375 C 24.34375 42.097656 24.582031 41.894531 24.96875 41.9375 L 25.59375 42 L 25.9375 41.46875 C 26.117188 41.1875 26.445313 41 26.78125 41 Z"/></svg>