<svg fill="#3498db" xmlns="http://www.w3.org/2000/svg" viewBox="0 0 50 50" width="500px" height="500px"><path d="M 8 12 C 5.25 12 3 14.25 3 17 L 3 33 C 3 35.75 5.25 38 8 38 L 40 38 C 42.75 38 45 35.75 45 33 L 45 30 L 47 30 C 47.550781 30 48 29.550781 48 29 L 48 21 C 48 20.449219 47.550781 20 47 20 L 45 20 L 45 17 C 45 14.25 42.75 12 40 12 Z M 8 14 L 40 14 C 41.667969 14 43 15.332031 43 17 L 43 21 C 43 21.550781 43.449219 22 44 22 L 46 22 L 46 28 L 44 28 C 43.449219 28 43 28.449219 43 29 L 43 33 C 43 34.667969 41.667969 36 40 36 L 8 36 C 6.332031 36 5 34.667969 5 33 L 5 17 C 5 15.332031 6.332031 14 8 14 Z M 7.90625 15.96875 C 7.863281 15.976563 7.820313 15.988281 7.78125 16 C 7.316406 16.105469 6.988281 16.523438 7 17 L 7 33 C 6.996094 33.359375 7.183594 33.695313 7.496094 33.878906 C 7.808594 34.058594 8.191406 34.058594 8.503906 33.878906 C 8.816406 33.695313 9.003906 33.359375 9 33 L 9 17 C 9.011719 16.710938 8.894531 16.433594 8.6875 16.238281 C 8.476563 16.039063 8.191406 15.941406 7.90625 15.96875 Z M 11.90625 15.96875 C 11.863281 15.976563 11.820313 15.988281 11.78125 16 C 11.316406 16.105469 10.988281 16.523438 11 17 L 11 33 C 10.996094 33.359375 11.183594 33.695313 11.496094 33.878906 C 11.808594 34.058594 12.191406 34.058594 12.503906 33.878906 C 12.816406 33.695313 13.003906 33.359375 13 33 L 13 17 C 13.011719 16.710938 12.894531 16.433594 12.6875 16.238281 C 12.476563 16.039063 12.191406 15.941406 11.90625 15.96875 Z M 15.90625 15.96875 C 15.863281 15.976563 15.820313 15.988281 15.78125 16 C 15.316406 16.105469 14.988281 16.523438 15 17 L 15 33 C 14.996094 33.359375 15.183594 33.695313 15.496094 33.878906 C 15.808594 34.058594 16.191406 34.058594 16.503906 33.878906 C 16.816406 33.695313 17.003906 33.359375 17 33 L 17 17 C 17.011719 16.710938 16.894531 16.433594 16.6875 16.238281 C 16.476563 16.039063 16.191406 15.941406 15.90625 15.96875 Z M 19.90625 15.96875 C 19.863281 15.976563 19.820313 15.988281 19.78125 16 C 19.316406 16.105469 18.988281 16.523438 19 17 L 19 33 C 18.996094 33.359375 19.183594 33.695313 19.496094 33.878906 C 19.808594 34.058594 20.191406 34.058594 20.503906 33.878906 C 20.816406 33.695313 21.003906 33.359375 21 33 L 21 17 C 21.011719 16.710938 20.894531 16.433594 20.6875 16.238281 C 20.476563 16.039063 20.191406 15.941406 19.90625 15.96875 Z M 23.90625 15.96875 C 23.863281 15.976563 23.820313 15.988281 23.78125 16 C 23.316406 16.105469 22.988281 16.523438 23 17 L 23 33 C 22.996094 33.359375 23.183594 33.695313 23.496094 33.878906 C 23.808594 34.058594 24.191406 34.058594 24.503906 33.878906 C 24.816406 33.695313 25.003906 33.359375 25 33 L 25 17 C 25.011719 16.710938 24.894531 16.433594 24.6875 16.238281 C 24.476563 16.039063 24.191406 15.941406 23.90625 15.96875 Z M 27.90625 15.96875 C 27.863281 15.976563 27.820313 15.988281 27.78125 16 C 27.316406 16.105469 26.988281 16.523438 27 17 L 27 33 C 26.996094 33.359375 27.183594 33.695313 27.496094 33.878906 C 27.808594 34.058594 28.191406 34.058594 28.503906 33.878906 C 28.816406 33.695313 29.003906 33.359375 29 33 L 29 17 C 29.011719 16.710938 28.894531 16.433594 28.6875 16.238281 C 28.476563 16.039063 28.191406 15.941406 27.90625 15.96875 Z M 31.90625 15.96875 C 31.863281 15.976563 31.820313 15.988281 31.78125 16 C 31.316406 16.105469 30.988281 16.523438 31 17 L 31 33 C 30.996094 33.359375 31.183594 33.695313 31.496094 33.878906 C 31.808594 34.058594 32.191406 34.058594 32.503906 33.878906 C 32.816406 33.695313 33.003906 33.359375 33 33 L 33 17 C 33.011719 16.710938 32.894531 16.433594 32.6875 16.238281 C 32.476563 16.039063 32.191406 15.941406 31.90625 15.96875 Z M 35.90625 15.96875 C 35.863281 15.976563 35.820313 15.988281 35.78125 16 C 35.316406 16.105469 34.988281 16.523438 35 17 L 35 33 C 34.996094 33.359375 35.183594 33.695313 35.496094 33.878906 C 35.808594 34.058594 36.191406 34.058594 36.503906 33.878906 C 36.816406 33.695313 37.003906 33.359375 37 33 L 37 17 C 37.011719 16.710938 36.894531 16.433594 36.6875 16.238281 C 36.476563 16.039063 36.191406 15.941406 35.90625 15.96875 Z M 39.90625 15.96875 C 39.863281 15.976563 39.820313 15.988281 39.78125 16 C 39.316406 16.105469 38.988281 16.523438 39 17 L 39 33 C 38.996094 33.359375 39.183594 33.695313 39.496094 33.878906 C 39.808594 34.058594 40.191406 34.058594 40.503906 33.878906 C 40.816406 33.695313 41.003906 33.359375 41 33 L 41 17 C 41.011719 16.710938 40.894531 16.433594 40.6875 16.238281 C 40.476563 16.039063 40.191406 15.941406 39.90625 15.96875 Z"/></svg>