<svg fill="#3498db" xmlns="http://www.w3.org/2000/svg"  viewBox="0 0 50 50" width="500px" height="500px"><path d="M 15 9 C 13.421875 9 12.144531 10.105469 11.3125 11.5625 C 10.480469 13.019531 10 14.914063 10 17 C 10 19.085938 10.480469 20.980469 11.3125 22.4375 C 12.144531 23.894531 13.421875 25 15 25 C 16.578125 25 17.855469 23.894531 18.6875 22.4375 C 19.519531 20.980469 20 19.085938 20 17 C 20 14.914063 19.519531 13.019531 18.6875 11.5625 C 17.855469 10.105469 16.578125 9 15 9 Z M 33.90625 9.09375 L 13.6875 40.90625 L 16 40.90625 L 36.1875 9.09375 Z M 15 11 C 15.632813 11 16.355469 11.453125 16.96875 12.53125 C 17.582031 13.609375 18 15.222656 18 17 C 18 18.777344 17.582031 20.390625 16.96875 21.46875 C 16.355469 22.546875 15.632813 23 15 23 C 14.367188 23 13.644531 22.546875 13.03125 21.46875 C 12.417969 20.390625 12 18.777344 12 17 C 12 15.222656 12.417969 13.609375 13.03125 12.53125 C 13.644531 11.453125 14.367188 11 15 11 Z M 35 25 C 33.421875 25 32.144531 26.105469 31.3125 27.5625 C 30.480469 29.019531 30 30.914063 30 33 C 30 35.085938 30.480469 36.980469 31.3125 38.4375 C 32.144531 39.894531 33.421875 41 35 41 C 36.578125 41 37.855469 39.894531 38.6875 38.4375 C 39.519531 36.980469 40 35.085938 40 33 C 40 30.914063 39.519531 29.019531 38.6875 27.5625 C 37.855469 26.105469 36.578125 25 35 25 Z M 35 27 C 35.632813 27 36.355469 27.453125 36.96875 28.53125 C 37.582031 29.609375 38 31.222656 38 33 C 38 34.777344 37.582031 36.390625 36.96875 37.46875 C 36.355469 38.546875 35.632813 39 35 39 C 34.367188 39 33.644531 38.546875 33.03125 37.46875 C 32.417969 36.390625 32 34.777344 32 33 C 32 31.222656 32.417969 29.609375 33.03125 28.53125 C 33.644531 27.453125 34.367188 27 35 27 Z"/></svg>