<svg fill="#3498db" xmlns="http://www.w3.org/2000/svg"  viewBox="0 0 50 50" width="500px" height="500px"><path d="M 25 2 C 12.309288 2 2 12.309297 2 25 C 2 37.690703 12.309288 48 25 48 C 37.690712 48 48 37.690703 48 25 C 48 12.309297 37.690712 2 25 2 z M 25 4 C 36.609833 4 46 13.390175 46 25 C 46 36.609825 36.609833 46 25 46 C 13.390167 46 4 36.609825 4 25 C 4 13.390175 13.390167 4 25 4 z M 24.984375 10.986328 A 1.0001 1.0001 0 0 0 24.207031 11.376953 A 1.0001 1.0001 0 0 0 24.203125 11.382812 L 14.292969 21.292969 A 1.0001 1.0001 0 1 0 15.707031 22.707031 L 24 14.414062 L 24 38 A 1.0001 1.0001 0 1 0 26 38 L 26 14.414062 L 34.292969 22.707031 A 1.0001 1.0001 0 1 0 35.707031 21.292969 L 25.794922 11.380859 A 1.0001 1.0001 0 0 0 24.984375 10.986328 z"/></svg>