<svg fill="#3498db" xmlns="http://www.w3.org/2000/svg" viewBox="0 0 50 50" width="500px" height="500px"><path d="M 5 4 A 1.0001 1.0001 0 0 0 4 5 L 4 45 A 1.0001 1.0001 0 0 0 5 46 L 22 46 A 1.0001 1.0001 0 0 0 23 45 L 23 28 L 21 28 L 21 44 L 6 44 L 6 6 L 21 6 L 21 22 L 23 22 L 23 5 A 1.0001 1.0001 0 0 0 22 4 L 5 4 z M 28 4 A 1.0001 1.0001 0 0 0 27 5 L 27 22 L 29 22 L 29 6 L 44 6 L 44 44 L 29 44 L 29 28 L 27 28 L 27 45 A 1.0001 1.0001 0 0 0 28 46 L 45 46 A 1.0001 1.0001 0 0 0 46 45 L 46 5 A 1.0001 1.0001 0 0 0 45 4 L 28 4 z M 34.707031 18.292969 L 33.292969 19.707031 L 37.585938 24 L 16.630859 24 C 16.507439 23.645803 16.511268 23.25706 16.248047 22.960938 C 15.731441 22.379756 14.916666 22 14 22 C 13.083334 22 12.268559 22.379756 11.751953 22.960938 C 11.235347 23.542119 11 24.277778 11 25 C 11 25.722222 11.235347 26.457882 11.751953 27.039062 C 12.268559 27.620244 13.083334 28 14 28 C 14.916666 28 15.731441 27.620244 16.248047 27.039062 C 16.511268 26.742939 16.507439 26.354197 16.630859 26 L 37.585938 26 L 33.292969 30.292969 L 34.707031 31.707031 L 40.707031 25.707031 A 1.0001 1.0001 0 0 0 40.707031 24.292969 L 34.707031 18.292969 z M 14 24 C 14.416666 24 14.601893 24.120244 14.751953 24.289062 C 14.902014 24.457881 15 24.722222 15 25 C 15 25.277778 14.90201 25.542118 14.751953 25.710938 C 14.601893 25.879756 14.416666 26 14 26 C 13.583334 26 13.398107 25.879756 13.248047 25.710938 C 13.097986 25.542119 13 25.277778 13 25 C 13 24.722222 13.097986 24.457882 13.248047 24.289062 C 13.398107 24.120244 13.583334 24 14 24 z"/></svg>