<svg fill="#3498db" xmlns="http://www.w3.org/2000/svg" viewBox="0 0 50 50" width="500px" height="500px"><path d="M 8.8125 3 C 8.335938 3.089844 7.992188 3.511719 8 4 L 8 8 L 4 8 C 3.96875 8 3.9375 8 3.90625 8 C 3.390625 8.046875 2.996094 8.480469 3 9 L 3 15 C 3 15.550781 3.449219 16 4 16 L 8 16 L 8 41 C 8 41.550781 8.449219 42 9 42 L 34 42 L 34 46 C 34 46.550781 34.449219 47 35 47 L 41 47 C 41.550781 47 42 46.550781 42 46 L 42 42 L 46 42 C 46.550781 42 47 41.550781 47 41 L 47 35 C 47 34.449219 46.550781 34 46 34 L 16 34 L 16 4 C 16 3.449219 15.550781 3 15 3 L 9 3 C 8.96875 3 8.9375 3 8.90625 3 C 8.875 3 8.84375 3 8.8125 3 Z M 10 5 L 14 5 L 14 35 C 14 35.550781 14.449219 36 15 36 L 45 36 L 45 40 L 10 40 Z M 17.8125 8 C 17.261719 8.050781 16.855469 8.542969 16.90625 9.09375 C 16.957031 9.644531 17.449219 10.050781 18 10 L 40 10 L 40 32 C 39.996094 32.359375 40.183594 32.695313 40.496094 32.878906 C 40.808594 33.058594 41.191406 33.058594 41.503906 32.878906 C 41.816406 32.695313 42.003906 32.359375 42 32 L 42 9 C 42 8.449219 41.550781 8 41 8 L 18 8 C 17.96875 8 17.9375 8 17.90625 8 C 17.875 8 17.84375 8 17.8125 8 Z M 5 10 L 8 10 L 8 14 L 5 14 Z M 17.8125 14 C 17.261719 14.050781 16.855469 14.542969 16.90625 15.09375 C 16.957031 15.644531 17.449219 16.050781 18 16 L 34 16 L 34 32 C 33.996094 32.359375 34.183594 32.695313 34.496094 32.878906 C 34.808594 33.058594 35.191406 33.058594 35.503906 32.878906 C 35.816406 32.695313 36.003906 32.359375 36 32 L 36 15 C 36 14.449219 35.550781 14 35 14 L 18 14 C 17.96875 14 17.9375 14 17.90625 14 C 17.875 14 17.84375 14 17.8125 14 Z M 36 42 L 40 42 L 40 45 L 36 45 Z"/></svg>