<?xml version="1.0"?><svg fill="#3498db" xmlns="http://www.w3.org/2000/svg" viewBox="0 0 50 50" width="500px" height="500px">    <path d="M 3 7 C 2.449 7 2 7.445 2 8 L 2 42 C 2 42.555 2.449 43 3 43 L 47 43 C 47.551 43 48 42.555 48 42 L 48 8 C 48 7.445 47.551 7 47 7 L 3 7 z M 4 9 L 46 9 L 46 41 L 4 41 L 4 9 z M 25 13 L 21.882812 15.871094 L 17.585938 15.292969 L 16.835938 19.359375 L 13 21.292969 L 14.90625 25 L 13 28.707031 L 16.835938 30.640625 L 17.585938 34.707031 L 21.882812 34.128906 L 25 37 L 26.382812 35.728516 L 26.382812 35.726562 L 28.117188 34.128906 L 32.414062 34.707031 L 33.164062 30.640625 L 37 28.707031 L 35.09375 25 L 37 21.289062 L 33.164062 19.355469 L 32.414062 15.289062 L 28.117188 15.867188 L 25 13 z M 25 15.71875 L 25 34.28125 L 22.542969 32.025391 L 19.203125 32.474609 L 18.621094 29.306641 L 15.699219 27.828125 L 17.15625 25 L 15.744141 22.255859 L 15.742188 22.255859 L 15.699219 22.171875 L 18.621094 20.695312 L 19.207031 17.527344 L 22.546875 17.976562 L 25 15.71875 z"/></svg>