<svg fill="#3498db" xmlns="http://www.w3.org/2000/svg" viewBox="0 0 50 50" width="500px" height="500px"><path d="M 15 5 C 8.816406 5 4.5625 7.09375 4.5625 7.09375 C 4.214844 7.261719 3.996094 7.613281 4 8 L 4 11 L 3 11 C 1.355469 11 0 12.355469 0 14 L 0 40 C 0 41.644531 1.355469 43 3 43 L 22.78125 43 C 23.332031 43.609375 24.117188 44 25 44 C 25.882813 44 26.667969 43.609375 27.21875 43 L 47 43 C 48.644531 43 50 41.644531 50 40 L 50 14 C 50 12.355469 48.644531 11 47 11 L 46 11 L 46 8 C 46.003906 7.613281 45.785156 7.261719 45.4375 7.09375 C 45.4375 7.09375 41.183594 5 35 5 C 29.722656 5 26.019531 6.460938 25 6.90625 C 23.980469 6.460938 20.277344 5 15 5 Z M 15 7 C 20.117188 7 23.285156 8.363281 24 8.6875 L 24 37.5625 C 22.515625 36.96875 19.660156 36 15 36 C 10.339844 36 7.484375 36.96875 6 37.5625 L 6 12.1875 C 6.027344 12.054688 6.027344 11.914063 6 11.78125 L 6 8.6875 C 6.714844 8.363281 9.882813 7 15 7 Z M 35 7 C 40.117188 7 43.285156 8.363281 44 8.6875 L 44 11.8125 C 43.972656 11.945313 43.972656 12.085938 44 12.21875 L 44 37.5625 C 42.515625 36.96875 39.660156 36 35 36 C 30.339844 36 27.484375 36.96875 26 37.5625 L 26 8.6875 C 26.714844 8.363281 29.882813 7 35 7 Z M 35 12 C 33.894531 12 33 12.894531 33 14 C 33 15.105469 33.894531 16 35 16 C 36.105469 16 37 15.105469 37 14 C 37 12.894531 36.105469 12 35 12 Z M 3 13 L 4 13 L 4 39 C 3.996094 39.347656 4.175781 39.667969 4.464844 39.851563 C 4.757813 40.039063 5.125 40.058594 5.4375 39.90625 C 5.4375 39.90625 9.222656 38 15 38 C 20.640625 38 24.328125 39.789063 24.5 39.875 C 24.511719 39.886719 24.519531 39.894531 24.53125 39.90625 C 24.53125 39.90625 24.5625 39.90625 24.5625 39.90625 C 24.59375 39.917969 24.625 39.929688 24.65625 39.9375 C 24.675781 39.949219 24.699219 39.960938 24.71875 39.96875 C 24.730469 39.96875 24.738281 39.96875 24.75 39.96875 C 24.769531 39.980469 24.792969 39.992188 24.8125 40 C 24.824219 40 24.832031 40 24.84375 40 C 24.90625 40.007813 24.96875 40.007813 25.03125 40 C 25.042969 40 25.050781 40 25.0625 40 C 25.125 39.996094 25.1875 39.984375 25.25 39.96875 C 25.28125 39.960938 25.3125 39.949219 25.34375 39.9375 C 25.375 39.929688 25.40625 39.917969 25.4375 39.90625 C 25.4375 39.90625 25.523438 39.878906 25.53125 39.875 C 25.554688 39.855469 25.574219 39.835938 25.59375 39.8125 C 26.015625 39.609375 29.570313 38 35 38 C 40.777344 38 44.5625 39.90625 44.5625 39.90625 C 44.875 40.058594 45.242188 40.039063 45.535156 39.851563 C 45.824219 39.667969 46.003906 39.347656 46 39 L 46 13 L 47 13 C 47.566406 13 48 13.433594 48 14 L 48 40 C 48 40.566406 47.566406 41 47 41 L 3 41 C 2.433594 41 2 40.566406 2 40 L 2 14 C 2 13.433594 2.433594 13 3 13 Z M 31.8125 19 C 31.261719 19.050781 30.855469 19.542969 30.90625 20.09375 C 30.957031 20.644531 31.449219 21.050781 32 21 L 33 21 L 33 31 L 37 31 L 37 20 C 37 19.449219 36.550781 19 36 19 L 32 19 C 31.96875 19 31.9375 19 31.90625 19 C 31.875 19 31.84375 19 31.8125 19 Z"/></svg>