<svg fill="#3498db" xmlns="http://www.w3.org/2000/svg" viewBox="0 0 50 50" width="500px" height="500px"><path d="M 5.9902344 4.9902344 A 1.0001 1.0001 0 0 0 5.8613281 5 L 5 5 L 5 5.8632812 A 1.0001 1.0001 0 0 0 5 6.1289062 L 5 17 A 1.0001 1.0001 0 1 0 7 17 L 7 8.4140625 L 20.292969 21.707031 A 1.0001 1.0001 0 0 0 21.109375 22.009766 A 1.0001 1.0001 0 0 0 21.207031 21.996094 A 1.0001 1.0001 0 0 0 21.707031 20.292969 L 8.4140625 7 L 17 7 A 1.0001 1.0001 0 1 0 17 5 L 6.1171875 5 A 1.0001 1.0001 0 0 0 5.9902344 4.9902344 z M 43.980469 4.9902344 A 1.0001 1.0001 0 0 0 43.869141 5 L 33 5 A 1.0001 1.0001 0 1 0 33 7 L 41.585938 7 L 28.292969 20.292969 A 1.0001 1.0001 0 1 0 29.707031 21.707031 L 43 8.4140625 L 43 17 A 1.0001 1.0001 0 1 0 45 17 L 45 6.1269531 A 1.0001 1.0001 0 0 0 45 5.8515625 L 45 5 L 44.146484 5 A 1.0001 1.0001 0 0 0 43.980469 4.9902344 z M 20.980469 27.990234 A 1.0001 1.0001 0 0 0 20.292969 28.292969 L 7 41.585938 L 7 33 A 1.0001 1.0001 0 0 0 5.984375 31.986328 A 1.0001 1.0001 0 0 0 5 33 L 5 43.847656 A 1.0001 1.0001 0 0 0 5 44.179688 L 5 45 L 5.8242188 45 A 1.0001 1.0001 0 0 0 6.1523438 45 L 17 45 A 1.0001 1.0001 0 1 0 17 43 L 8.4140625 43 L 21.707031 29.707031 A 1.0001 1.0001 0 0 0 20.980469 27.990234 z M 28.990234 27.990234 A 1.0001 1.0001 0 0 0 28.244141 29.65625 A 1.0001 1.0001 0 0 0 28.292969 29.707031 L 41.585938 43 L 33 43 A 1.0001 1.0001 0 1 0 33 45 L 43.847656 45 A 1.0001 1.0001 0 0 0 44.179688 45 L 45 45 L 45 44.175781 A 1.0001 1.0001 0 0 0 45 43.847656 L 45 33 A 1.0001 1.0001 0 0 0 43.984375 31.986328 A 1.0001 1.0001 0 0 0 43 33 L 43 41.585938 L 29.707031 28.292969 A 1.0001 1.0001 0 0 0 28.990234 27.990234 z"/></svg>