<svg fill="#3498db" xmlns="http://www.w3.org/2000/svg" viewBox="0 0 50 50" width="500px" height="500px"><path d="M 25 2 C 12.309295 2 2 12.309295 2 25 C 2 37.690705 12.309295 48 25 48 C 37.690705 48 48 37.690705 48 25 C 48 12.309295 37.690705 2 25 2 z M 25 4 C 27.563501 4 30.017237 4.4603918 32.287109 5.2988281 A 1 1 0 0 0 32 6 A 1 1 0 0 0 33 7 A 1 1 0 0 0 33.998047 6.0429688 C 35.874862 6.9342932 37.59404 8.0911999 39.113281 9.4726562 L 9.4765625 39.109375 C 8.0988226 37.589797 6.9335654 35.873329 6.0429688 33.998047 A 1 1 0 0 0 7 33 A 1 1 0 0 0 6 32 A 1 1 0 0 0 5.2988281 32.287109 C 4.4603918 30.017237 4 27.563501 4 25 C 4 21.772392 4.7475016 18.728482 6.0449219 15.998047 A 1 1 0 0 0 7 15 A 1 1 0 0 0 6.8457031 14.46875 C 7.2406247 13.788793 7.6743077 13.136459 8.140625 12.507812 A 1 1 0 0 0 9 13 A 1 1 0 0 0 10 12 A 1 1 0 0 0 9.3203125 11.054688 C 9.8646376 10.442979 10.442979 9.8646376 11.054688 9.3203125 A 1 1 0 0 0 12 10 A 1 1 0 0 0 13 9 A 1 1 0 0 0 12.507812 8.140625 C 13.136014 7.674638 13.787356 7.2403975 14.466797 6.8457031 A 1 1 0 0 0 15 7 A 1 1 0 0 0 15.998047 6.0429688 C 18.728288 4.7457764 21.772694 4 25 4 z M 21 5 A 1 1 0 0 0 20 6 A 1 1 0 0 0 21 7 A 1 1 0 0 0 22 6 A 1 1 0 0 0 21 5 z M 27 5 A 1 1 0 0 0 26 6 A 1 1 0 0 0 27 7 A 1 1 0 0 0 28 6 A 1 1 0 0 0 27 5 z M 18 8 A 1 1 0 0 0 17 9 A 1 1 0 0 0 18 10 A 1 1 0 0 0 19 9 A 1 1 0 0 0 18 8 z M 24 8 A 1 1 0 0 0 23 9 A 1 1 0 0 0 24 10 A 1 1 0 0 0 25 9 A 1 1 0 0 0 24 8 z M 30 8 A 1 1 0 0 0 29 9 A 1 1 0 0 0 30 10 A 1 1 0 0 0 31 9 A 1 1 0 0 0 30 8 z M 36 8 A 1 1 0 0 0 35 9 A 1 1 0 0 0 36 10 A 1 1 0 0 0 37 9 A 1 1 0 0 0 36 8 z M 40.527344 10.886719 C 43.917838 14.615377 46 19.555647 46 25 C 46 36.609824 36.609824 46 25 46 C 19.55393 46 14.613274 43.919417 10.890625 40.523438 L 40.527344 10.886719 z M 15 11 A 1 1 0 0 0 14 12 A 1 1 0 0 0 15 13 A 1 1 0 0 0 16 12 A 1 1 0 0 0 15 11 z M 21 11 A 1 1 0 0 0 20 12 A 1 1 0 0 0 21 13 A 1 1 0 0 0 22 12 A 1 1 0 0 0 21 11 z M 27 11 A 1 1 0 0 0 26 12 A 1 1 0 0 0 27 13 A 1 1 0 0 0 28 12 A 1 1 0 0 0 27 11 z M 33 11 A 1 1 0 0 0 32 12 A 1 1 0 0 0 33 13 A 1 1 0 0 0 34 12 A 1 1 0 0 0 33 11 z M 12 14 A 1 1 0 0 0 11 15 A 1 1 0 0 0 12 16 A 1 1 0 0 0 13 15 A 1 1 0 0 0 12 14 z M 18 14 A 1 1 0 0 0 17 15 A 1 1 0 0 0 18 16 A 1 1 0 0 0 19 15 A 1 1 0 0 0 18 14 z M 24 14 A 1 1 0 0 0 23 15 A 1 1 0 0 0 24 16 A 1 1 0 0 0 25 15 A 1 1 0 0 0 24 14 z M 30 14 A 1 1 0 0 0 29 15 A 1 1 0 0 0 30 16 A 1 1 0 0 0 31 15 A 1 1 0 0 0 30 14 z M 9 17 A 1 1 0 0 0 8 18 A 1 1 0 0 0 9 19 A 1 1 0 0 0 10 18 A 1 1 0 0 0 9 17 z M 15 17 A 1 1 0 0 0 14 18 A 1 1 0 0 0 15 19 A 1 1 0 0 0 16 18 A 1 1 0 0 0 15 17 z M 21 17 A 1 1 0 0 0 20 18 A 1 1 0 0 0 21 19 A 1 1 0 0 0 22 18 A 1 1 0 0 0 21 17 z M 27 17 A 1 1 0 0 0 26 18 A 1 1 0 0 0 27 19 A 1 1 0 0 0 28 18 A 1 1 0 0 0 27 17 z M 6 20 A 1 1 0 0 0 5 21 A 1 1 0 0 0 6 22 A 1 1 0 0 0 7 21 A 1 1 0 0 0 6 20 z M 12 20 A 1 1 0 0 0 11 21 A 1 1 0 0 0 12 22 A 1 1 0 0 0 13 21 A 1 1 0 0 0 12 20 z M 18 20 A 1 1 0 0 0 17 21 A 1 1 0 0 0 18 22 A 1 1 0 0 0 19 21 A 1 1 0 0 0 18 20 z M 24 20 A 1 1 0 0 0 23 21 A 1 1 0 0 0 24 22 A 1 1 0 0 0 25 21 A 1 1 0 0 0 24 20 z M 9 23 A 1 1 0 0 0 8 24 A 1 1 0 0 0 9 25 A 1 1 0 0 0 10 24 A 1 1 0 0 0 9 23 z M 15 23 A 1 1 0 0 0 14 24 A 1 1 0 0 0 15 25 A 1 1 0 0 0 16 24 A 1 1 0 0 0 15 23 z M 21 23 A 1 1 0 0 0 20 24 A 1 1 0 0 0 21 25 A 1 1 0 0 0 22 24 A 1 1 0 0 0 21 23 z M 6 26 A 1 1 0 0 0 5 27 A 1 1 0 0 0 6 28 A 1 1 0 0 0 7 27 A 1 1 0 0 0 6 26 z M 12 26 A 1 1 0 0 0 11 27 A 1 1 0 0 0 12 28 A 1 1 0 0 0 13 27 A 1 1 0 0 0 12 26 z M 18 26 A 1 1 0 0 0 17 27 A 1 1 0 0 0 18 28 A 1 1 0 0 0 19 27 A 1 1 0 0 0 18 26 z M 9 29 A 1 1 0 0 0 8 30 A 1 1 0 0 0 9 31 A 1 1 0 0 0 10 30 A 1 1 0 0 0 9 29 z M 15 29 A 1 1 0 0 0 14 30 A 1 1 0 0 0 15 31 A 1 1 0 0 0 16 30 A 1 1 0 0 0 15 29 z M 12 32 A 1 1 0 0 0 11 33 A 1 1 0 0 0 12 34 A 1 1 0 0 0 13 33 A 1 1 0 0 0 12 32 z M 9 35 A 1 1 0 0 0 8 36 A 1 1 0 0 0 9 37 A 1 1 0 0 0 10 36 A 1 1 0 0 0 9 35 z"/></svg>