<svg fill="#3498db" xmlns="http://www.w3.org/2000/svg" viewBox="0 0 50 50" width="500px" height="500px"><path d="M 24.5 2 C 21.472656 2 19 4.472656 19 7.5 C 19 10.527344 21.472656 13 24.5 13 C 27.527344 13 30 10.527344 30 7.5 C 30 4.472656 27.527344 2 24.5 2 Z M 24.5 4 C 26.445313 4 28 5.554688 28 7.5 C 28 9.445313 26.445313 11 24.5 11 C 22.554688 11 21 9.445313 21 7.5 C 21 5.554688 22.554688 4 24.5 4 Z M 15 16 C 14.449219 16 14 16.449219 14 17 L 14 23 C 14 23.550781 14.449219 24 15 24 L 20 24 L 20 40 L 15 40 C 14.449219 40 14 40.449219 14 41 L 14 47 C 14 47.550781 14.449219 48 15 48 L 35 48 C 35.550781 48 36 47.550781 36 47 L 36 41 C 36 40.449219 35.550781 40 35 40 L 30 40 L 30 17 C 30 16.449219 29.550781 16 29 16 Z M 16 18 L 28 18 L 28 41 C 28 41.550781 28.449219 42 29 42 L 34 42 L 34 46 L 16 46 L 16 42 L 21 42 C 21.550781 42 22 41.550781 22 41 L 22 23 C 22 22.449219 21.550781 22 21 22 L 16 22 Z"/></svg>