<svg fill="#3498db" xmlns="http://www.w3.org/2000/svg" viewBox="0 0 50 50" width="500px" height="500px"><path d="M 12 3 C 7.042969 3 3 7.042969 3 12 C 3 16.957031 7.042969 21 12 21 C 16.957031 21 21 16.957031 21 12 C 21 7.042969 16.957031 3 12 3 Z M 38 3 C 35.6875 3 33.566406 3.871094 31.96875 5.3125 C 31.648438 5.417969 31.402344 5.675781 31.3125 6 C 29.878906 7.59375 29 9.695313 29 12 C 29 16.957031 33.042969 21 38 21 C 38.644531 21 39.269531 20.910156 39.875 20.78125 C 39.917969 20.773438 39.960938 20.761719 40 20.75 C 41.46875 20.414063 42.804688 19.742188 43.90625 18.78125 C 44.34375 18.71875 44.6875 18.375 44.75 17.9375 C 45.695313 16.863281 46.371094 15.5625 46.71875 14.125 C 46.730469 14.09375 46.742188 14.0625 46.75 14.03125 C 46.902344 13.378906 47 12.699219 47 12 C 47 7.042969 42.957031 3 38 3 Z M 12 5 C 15.878906 5 19 8.121094 19 12 C 19 15.878906 15.878906 19 12 19 C 8.121094 19 5 15.878906 5 12 C 5 8.121094 8.121094 5 12 5 Z M 38.4375 5.03125 C 41.964844 5.246094 44.753906 8.035156 44.96875 11.5625 Z M 35.875 5.3125 L 44.6875 14.09375 C 44.449219 14.863281 44.066406 15.558594 43.59375 16.1875 L 33.8125 6.40625 C 34.433594 5.941406 35.113281 5.550781 35.875 5.3125 Z M 32.40625 7.8125 L 42.1875 17.59375 C 41.558594 18.066406 40.863281 18.449219 40.09375 18.6875 L 31.3125 9.90625 C 31.550781 9.136719 31.933594 8.441406 32.40625 7.8125 Z M 31.03125 12.4375 L 37.5625 18.96875 C 34.035156 18.753906 31.246094 15.964844 31.03125 12.4375 Z M 12 29 C 7.042969 29 3 33.042969 3 38 C 3 42.957031 7.042969 47 12 47 C 16.957031 47 21 42.957031 21 38 C 21 33.042969 16.957031 29 12 29 Z M 38 29 C 33.042969 29 29 33.042969 29 38 C 29 42.957031 33.042969 47 38 47 C 42.957031 47 47 42.957031 47 38 C 47 33.042969 42.957031 29 38 29 Z M 12 31 C 12.777344 31 13.519531 31.144531 14.21875 31.375 C 14.082031 31.546875 14 31.761719 14 32 C 14 32.550781 14.449219 33 15 33 C 15.472656 33 15.832031 32.65625 15.9375 32.21875 C 16.65625 32.710938 17.289063 33.34375 17.78125 34.0625 C 17.34375 34.167969 17 34.527344 17 35 C 17 35.550781 17.449219 36 18 36 C 18.238281 36 18.453125 35.917969 18.625 35.78125 C 18.855469 36.480469 19 37.222656 19 38 C 19 38.777344 18.855469 39.519531 18.625 40.21875 C 18.453125 40.082031 18.238281 40 18 40 C 17.449219 40 17 40.449219 17 41 C 17 41.472656 17.34375 41.832031 17.78125 41.9375 C 17.289063 42.65625 16.65625 43.289063 15.9375 43.78125 C 15.832031 43.34375 15.472656 43 15 43 C 14.449219 43 14 43.449219 14 44 C 14 44.238281 14.082031 44.453125 14.21875 44.625 C 13.519531 44.855469 12.777344 45 12 45 C 11.222656 45 10.480469 44.855469 9.78125 44.625 C 9.917969 44.453125 10 44.238281 10 44 C 10 43.449219 9.550781 43 9 43 C 8.527344 43 8.167969 43.34375 8.0625 43.78125 C 7.34375 43.289063 6.710938 42.65625 6.21875 41.9375 C 6.65625 41.832031 7 41.472656 7 41 C 7 40.449219 6.550781 40 6 40 C 5.761719 40 5.546875 40.082031 5.375 40.21875 C 5.144531 39.519531 5 38.777344 5 38 C 5 37.222656 5.144531 36.480469 5.375 35.78125 C 5.546875 35.917969 5.761719 36 6 36 C 6.550781 36 7 35.550781 7 35 C 7 34.527344 6.65625 34.167969 6.21875 34.0625 C 6.710938 33.34375 7.34375 32.710938 8.0625 32.21875 C 8.167969 32.65625 8.527344 33 9 33 C 9.550781 33 10 32.550781 10 32 C 10 31.761719 9.917969 31.546875 9.78125 31.375 C 10.480469 31.144531 11.222656 31 12 31 Z M 38 31 C 38.5625 31 39 31.4375 39 32 C 39 32.5625 38.5625 33 38 33 C 37.4375 33 37 32.5625 37 32 C 37 31.4375 37.4375 31 38 31 Z M 35.03125 31.6875 C 35.019531 31.792969 35 31.890625 35 32 C 35 33.644531 36.355469 35 38 35 C 39.644531 35 41 33.644531 41 32 C 41 31.890625 40.980469 31.792969 40.96875 31.6875 C 42.441406 32.378906 43.621094 33.558594 44.3125 35.03125 C 44.207031 35.019531 44.109375 35 44 35 C 42.355469 35 41 36.355469 41 38 C 41 39.644531 42.355469 41 44 41 C 44.109375 41 44.207031 40.980469 44.3125 40.96875 C 43.621094 42.441406 42.441406 43.621094 40.96875 44.3125 C 40.980469 44.207031 41 44.109375 41 44 C 41 42.355469 39.644531 41 38 41 C 36.355469 41 35 42.355469 35 44 C 35 44.109375 35.019531 44.207031 35.03125 44.3125 C 33.558594 43.621094 32.378906 42.441406 31.6875 40.96875 C 31.792969 40.980469 31.890625 41 32 41 C 33.644531 41 35 39.644531 35 38 C 35 36.355469 33.644531 35 32 35 C 31.890625 35 31.792969 35.019531 31.6875 35.03125 C 32.378906 33.558594 33.558594 32.378906 35.03125 31.6875 Z M 35 38 C 35 39.644531 36.355469 41 38 41 C 39.644531 41 41 39.644531 41 38 C 41 36.355469 39.644531 35 38 35 C 36.355469 35 35 36.355469 35 38 Z M 12 34 C 11.449219 34 11 34.449219 11 35 C 11 35.550781 11.449219 36 12 36 C 12.550781 36 13 35.550781 13 35 C 13 34.449219 12.550781 34 12 34 Z M 9 37 C 8.449219 37 8 37.449219 8 38 C 8 38.550781 8.449219 39 9 39 C 9.550781 39 10 38.550781 10 38 C 10 37.449219 9.550781 37 9 37 Z M 15 37 C 14.449219 37 14 37.449219 14 38 C 14 38.550781 14.449219 39 15 39 C 15.550781 39 16 38.550781 16 38 C 16 37.449219 15.550781 37 15 37 Z M 32 37 C 32.5625 37 33 37.4375 33 38 C 33 38.5625 32.5625 39 32 39 C 31.4375 39 31 38.5625 31 38 C 31 37.4375 31.4375 37 32 37 Z M 38 37 C 38.5625 37 39 37.4375 39 38 C 39 38.5625 38.5625 39 38 39 C 37.4375 39 37 38.5625 37 38 C 37 37.4375 37.4375 37 38 37 Z M 44 37 C 44.5625 37 45 37.4375 45 38 C 45 38.5625 44.5625 39 44 39 C 43.4375 39 43 38.5625 43 38 C 43 37.4375 43.4375 37 44 37 Z M 12 40 C 11.449219 40 11 40.449219 11 41 C 11 41.550781 11.449219 42 12 42 C 12.550781 42 13 41.550781 13 41 C 13 40.449219 12.550781 40 12 40 Z M 38 43 C 38.5625 43 39 43.4375 39 44 C 39 44.5625 38.5625 45 38 45 C 37.4375 45 37 44.5625 37 44 C 37 43.4375 37.4375 43 38 43 Z"/></svg>