<svg fill="#3498db" xmlns="http://www.w3.org/2000/svg" viewBox="0 0 50 50" width="500px" height="500px"><path d="M 18.5 2 C 17.128906 2 16 3.132813 16 4.5 C 16 5.671875 16.902344 6.519531 18 6.78125 L 18 41 C 18 44.855469 21.148438 48 25 48 C 28.851563 48 32 44.855469 32 41 L 32 6.78125 C 33.097656 6.519531 34 5.671875 34 4.5 C 34 3.132813 32.871094 2 31.5 2 Z M 18.5 4 L 31.5 4 C 31.789063 4 32 4.210938 32 4.5 C 32 4.789063 31.789063 5 31.5 5 L 23 5 L 23 7 L 30 7 L 30 13 L 20 13 L 20 7 L 21 7 L 21 5 L 18.5 5 C 18.210938 5 18 4.789063 18 4.5 C 18 4.210938 18.210938 4 18.5 4 Z M 20 15 L 30 15 L 30 41 C 30 43.773438 27.773438 46 25 46 C 22.226563 46 20 43.773438 20 41 Z M 26 21 C 24.894531 21 24 21.894531 24 23 C 24 24.105469 24.894531 25 26 25 C 27.105469 25 28 24.105469 28 23 C 28 21.894531 27.105469 21 26 21 Z M 23.5 31 C 22.671875 31 22 31.671875 22 32.5 C 22 33.328125 22.671875 34 23.5 34 C 24.328125 34 25 33.328125 25 32.5 C 25 31.671875 24.328125 31 23.5 31 Z"/></svg>