<svg fill="#3498db" xmlns="http://www.w3.org/2000/svg" viewBox="0 0 50 50" width="500px" height="500px"><path fill-rule="evenodd" d="M 29.21875 2.332031 C 28.925781 2.304688 28.628906 2.40625 28.414063 2.621094 L 6.113281 24.921875 C 5.925781 25.109375 5.820313 25.367188 5.820313 25.628906 L 5.820313 35.921875 C 5.820313 36.328125 6.0625 36.691406 6.4375 36.847656 C 6.5625 36.898438 6.691406 36.921875 6.820313 36.921875 C 6.882813 36.921875 6.941406 36.898438 7 36.890625 L 7 41.5 C 7 42.605469 7.894531 43.5 9 43.5 L 43 43.5 C 44.105469 43.5 45 42.605469 45 41.5 L 45 26.5 C 45 25.394531 44.105469 24.5 43 24.5 L 19.65625 24.5 L 29.828125 14.328125 C 30.015625 14.140625 30.121094 13.886719 30.121094 13.621094 L 30.121094 3.328125 C 30.121094 2.925781 29.878906 2.558594 29.503906 2.40625 C 29.410156 2.367188 29.3125 2.339844 29.21875 2.332031 Z M 28.121094 5.742188 L 28.121094 13.207031 L 7.820313 33.511719 L 7.820313 26.046875 Z M 17.65625 26.5 L 33 26.5 L 33 35 L 9.15625 35 Z M 35 26.5 L 43 26.5 L 43 35 L 35 35 Z M 9 37 L 43 37 L 43 41.5 L 9 41.5 Z M 39 38 L 39 40 L 41 40 L 41 38 Z"/></svg>