<svg fill="#3498db" xmlns="http://www.w3.org/2000/svg" viewBox="0 0 50 50" width="500px" height="500px"><path d="M 25 2 C 12.308594 2 2 12.308594 2 25 C 2 37.691406 12.308594 48 25 48 C 37.691406 48 48 37.691406 48 25 C 48 12.308594 37.691406 2 25 2 Z M 25 4 C 36.609375 4 46 13.390625 46 25 C 46 36.609375 36.609375 46 25 46 C 13.390625 46 4 36.609375 4 25 C 4 13.390625 13.390625 4 25 4 Z M 25 7 C 15.070313 7 7 15.070313 7 25 C 7 34.929688 15.070313 43 25 43 C 34.929688 43 43 34.929688 43 25 C 43 15.070313 34.929688 7 25 7 Z M 25 9 C 33.847656 9 41 16.152344 41 25 C 41 33.847656 33.847656 41 25 41 C 16.152344 41 9 33.847656 9 25 C 9 16.152344 16.152344 9 25 9 Z M 32 18 L 15 24.265625 L 23.050781 26.949219 L 25.734375 35 Z"/></svg>