<svg fill="#3498db" xmlns="http://www.w3.org/2000/svg" viewBox="0 0 50 50" width="500px" height="500px"><path d="M 0 4 L 0 46 L 50 46 L 50 4 Z M 2 6 L 48 6 L 48 44 L 2 44 Z M 5 9 L 5 29.5 C 4.84375 29.792969 4.84375 30.144531 5 30.4375 L 5 41 L 45 41 L 45 30.75 C 45.015625 30.644531 45.015625 30.542969 45 30.4375 L 45 9 Z M 7 11 L 43 11 L 43 29.09375 L 35.375 26.0625 C 35.113281 25.957031 34.816406 25.96875 34.5625 26.09375 L 27.3125 29.71875 L 17.8125 16.40625 C 17.59375 16.097656 17.21875 15.941406 16.84375 16 C 16.613281 16.039063 16.402344 16.164063 16.25 16.34375 L 7 27.15625 Z M 33 15 C 30.800781 15 29 16.800781 29 19 C 29 21.199219 30.800781 23 33 23 C 35.199219 23 37 21.199219 37 19 C 37 16.800781 35.199219 15 33 15 Z M 33 17 C 34.117188 17 35 17.882813 35 19 C 35 20.117188 34.117188 21 33 21 C 31.882813 21 31 20.117188 31 19 C 31 17.882813 31.882813 17 33 17 Z M 16.90625 18.625 L 26.1875 31.59375 C 26.472656 31.988281 27 32.121094 27.4375 31.90625 L 35.03125 28.09375 L 43 31.28125 L 43 39 L 7 39 L 7 30.1875 Z"/></svg>