<svg fill="#3498db" xmlns="http://www.w3.org/2000/svg" viewBox="0 0 50 50" width="500px" height="500px"><path d="M 37.980469 1.9902344 A 1.0001 1.0001 0 0 0 37.292969 2.2929688 L 33.380859 6.2050781 A 1.0001 1.0001 0 0 0 33.376953 7.7929688 A 1.0001 1.0001 0 0 0 33.382812 7.796875 L 37.292969 11.707031 A 1.0001 1.0001 0 1 0 38.707031 10.292969 L 36.414062 8 L 45 8 C 45.56503 8 46 8.4349698 46 9 L 46 17 A 1.0001 1.0001 0 1 0 48 17 L 48 9 C 48 7.3550302 46.64497 6 45 6 L 36.414062 6 L 38.707031 3.7070312 A 1.0001 1.0001 0 0 0 37.980469 1.9902344 z M 7.4003906 4 C 5.5344208 4 4 5.5344208 4 7.4003906 L 4 26.599609 C 4 28.465579 5.5344208 30 7.4003906 30 L 26.599609 30 C 28.465579 30 30 28.465579 30 26.599609 L 30 7.4003906 C 30 5.5344208 28.465579 4 26.599609 4 L 7.4003906 4 z M 7.4003906 6 L 26.599609 6 C 27.38564 6 28 6.6143605 28 7.4003906 L 28 26.599609 C 28 27.38564 27.38564 28 26.599609 28 L 7.4003906 28 C 6.6143605 28 6 27.38564 6 26.599609 L 6 7.4003906 C 6 6.6143605 6.6143605 6 7.4003906 6 z M 8 7 A 1 1 0 0 0 7 8 A 1 1 0 0 0 8 9 A 1 1 0 0 0 9 8 A 1 1 0 0 0 8 7 z M 14 7 A 1 1 0 0 0 13 8 A 1 1 0 0 0 14 9 A 1 1 0 0 0 15 8 A 1 1 0 0 0 14 7 z M 20 7 A 1 1 0 0 0 19 8 A 1 1 0 0 0 20 9 A 1 1 0 0 0 21 8 A 1 1 0 0 0 20 7 z M 26 7 A 1 1 0 0 0 25 8 A 1 1 0 0 0 26 9 A 1 1 0 0 0 27 8 A 1 1 0 0 0 26 7 z M 11 10 A 1 1 0 0 0 10 11 A 1 1 0 0 0 11 12 A 1 1 0 0 0 12 11 A 1 1 0 0 0 11 10 z M 17 10 A 1 1 0 0 0 16 11 A 1 1 0 0 0 17 12 A 1 1 0 0 0 18 11 A 1 1 0 0 0 17 10 z M 23 10 A 1 1 0 0 0 22 11 A 1 1 0 0 0 23 12 A 1 1 0 0 0 24 11 A 1 1 0 0 0 23 10 z M 8 13 A 1 1 0 0 0 7 14 A 1 1 0 0 0 8 15 A 1 1 0 0 0 9 14 A 1 1 0 0 0 8 13 z M 14 13 A 1 1 0 0 0 13 14 A 1 1 0 0 0 14 15 A 1 1 0 0 0 15 14 A 1 1 0 0 0 14 13 z M 20 13 A 1 1 0 0 0 19 14 A 1 1 0 0 0 20 15 A 1 1 0 0 0 21 14 A 1 1 0 0 0 20 13 z M 26 13 A 1 1 0 0 0 25 14 A 1 1 0 0 0 26 15 A 1 1 0 0 0 27 14 A 1 1 0 0 0 26 13 z M 11 16 A 1 1 0 0 0 10 17 A 1 1 0 0 0 11 18 A 1 1 0 0 0 12 17 A 1 1 0 0 0 11 16 z M 17 16 A 1 1 0 0 0 16 17 A 1 1 0 0 0 17 18 A 1 1 0 0 0 18 17 A 1 1 0 0 0 17 16 z M 23 16 A 1 1 0 0 0 22 17 A 1 1 0 0 0 23 18 A 1 1 0 0 0 24 17 A 1 1 0 0 0 23 16 z M 8 19 A 1 1 0 0 0 7 20 A 1 1 0 0 0 8 21 A 1 1 0 0 0 9 20 A 1 1 0 0 0 8 19 z M 14 19 A 1 1 0 0 0 13 20 A 1 1 0 0 0 14 21 A 1 1 0 0 0 15 20 A 1 1 0 0 0 14 19 z M 20 19 A 1 1 0 0 0 19 20 A 1 1 0 0 0 20 21 A 1 1 0 0 0 21 20 A 1 1 0 0 0 20 19 z M 26 19 A 1 1 0 0 0 25 20 A 1 1 0 0 0 26 21 A 1 1 0 0 0 27 20 A 1 1 0 0 0 26 19 z M 32 20 L 32 22 L 42.599609 22 C 43.38564 22 44 22.61436 44 23.400391 L 44 42.599609 C 44 43.38564 43.38564 44 42.599609 44 L 23.400391 44 C 22.61436 44 22 43.38564 22 42.599609 L 22 32 L 20 32 L 20 42.599609 C 20 44.465579 21.534421 46 23.400391 46 L 42.599609 46 C 44.465579 46 46 44.465579 46 42.599609 L 46 23.400391 C 46 21.534421 44.465579 20 42.599609 20 L 32 20 z M 11 22 A 1 1 0 0 0 10 23 A 1 1 0 0 0 11 24 A 1 1 0 0 0 12 23 A 1 1 0 0 0 11 22 z M 17 22 A 1 1 0 0 0 16 23 A 1 1 0 0 0 17 24 A 1 1 0 0 0 18 23 A 1 1 0 0 0 17 22 z M 23 22 A 1 1 0 0 0 22 23 A 1 1 0 0 0 23 24 A 1 1 0 0 0 24 23 A 1 1 0 0 0 23 22 z M 8 25 A 1 1 0 0 0 7 26 A 1 1 0 0 0 8 27 A 1 1 0 0 0 9 26 A 1 1 0 0 0 8 25 z M 14 25 A 1 1 0 0 0 13 26 A 1 1 0 0 0 14 27 A 1 1 0 0 0 15 26 A 1 1 0 0 0 14 25 z M 20 25 A 1 1 0 0 0 19 26 A 1 1 0 0 0 20 27 A 1 1 0 0 0 21 26 A 1 1 0 0 0 20 25 z M 26 25 A 1 1 0 0 0 25 26 A 1 1 0 0 0 26 27 A 1 1 0 0 0 27 26 A 1 1 0 0 0 26 25 z"/></svg>