<svg fill="#3498db" xmlns="http://www.w3.org/2000/svg" viewBox="0 0 50 50" width="500px" height="500px"><path d="M 25 2 C 17.389725 2 10.633395 5.7052643 6.4492188 11.408203 A 1.0001 1.0001 0 1 0 8.0605469 12.591797 C 11.882371 7.3827357 18.038275 4 25 4 C 36.609534 4 46 13.390466 46 25 C 46 36.609534 36.609534 46 25 46 C 18.038275 46 11.883451 42.617435 8.0605469 37.408203 A 1.0001 1.0001 0 1 0 6.4492188 38.591797 C 10.634315 44.294565 17.389725 48 25 48 C 37.690466 48 48 37.690466 48 25 C 48 12.309534 37.690466 2 25 2 z M 10.980469 15.990234 A 1.0001 1.0001 0 0 0 10.292969 16.292969 L 2.3808594 24.205078 A 1.0001 1.0001 0 0 0 2.3828125 25.796875 L 10.292969 33.707031 A 1.0001 1.0001 0 1 0 11.707031 32.292969 L 5.4140625 26 L 27 26 A 1.0001 1.0001 0 1 0 27 24 L 5.4140625 24 L 11.707031 17.707031 A 1.0001 1.0001 0 0 0 10.980469 15.990234 z"/></svg>