<svg fill="#3498db" xmlns="http://www.w3.org/2000/svg" viewBox="0 0 50 50" width="500px" height="500px"><path d="M 24.980469 1 A 1.0001 1.0001 0 0 0 24.228516 1.3632812 C 24.228516 1.3632812 20.195844 6.2425013 16.160156 12.470703 C 12.124468 18.698905 8 26.19239 8 32.019531 C 8 41.387447 15.622361 49 25 49 C 34.377639 49 42 41.386509 42 32.019531 C 42 26.191937 37.875534 18.699034 33.839844 12.470703 C 29.804154 6.2423723 25.771484 1.3632812 25.771484 1.3632812 A 1.0001 1.0001 0 0 0 24.980469 1 z M 24 4.8828125 L 24 46.949219 C 16.17232 46.434437 10 39.96827 10 32.019531 C 10 27.193673 13.875532 19.676642 17.839844 13.558594 C 20.39268 9.6188492 22.642594 6.6214851 24 4.8828125 z M 26 4.8828125 C 27.292521 6.5383527 29.407365 9.3723143 31.810547 13.039062 C 31.352652 13.130532 31 13.515334 31 14 C 31 14.552 31.448 15 32 15 C 32.333614 15 32.615177 14.825557 32.796875 14.574219 C 33.227659 15.257717 33.651461 15.948027 34.070312 16.654297 C 34.029757 16.763016 34 16.8772 34 17 C 34 17.493733 34.365271 17.88563 34.835938 17.966797 C 36.186197 20.341349 37.396196 22.763204 38.3125 25.0625 C 38.212759 25.029105 38.110933 25 38 25 C 37.448 25 37 25.448 37 26 C 37 26.552 37.448 27 38 27 C 38.37196 27 38.685159 26.787915 38.857422 26.486328 C 39.569623 28.525608 40 30.421603 40 32.019531 C 40 33.995203 39.608965 35.875908 38.916016 37.601562 C 38.761674 37.248333 38.409914 37 38 37 C 37.448 37 37 37.448 37 38 C 37 38.552 37.448 39 38 39 C 38.107467 39 38.20569 38.970875 38.302734 38.939453 C 36.505625 42.384722 33.409914 45.037357 29.65625 46.257812 C 29.479855 46.101824 29.25381 46 29 46 C 28.5596 46 28.195806 46.289915 28.0625 46.685547 C 27.391993 46.823955 26.700318 46.903156 26 46.949219 L 26 45 C 26.552 45 27 44.552 27 44 C 27 43.448 26.552 43 26 43 L 26 39 C 26.552 39 27 38.552 27 38 C 27 37.448 26.552 37 26 37 L 26 33 C 26.552 33 27 32.552 27 32 C 27 31.448 26.552 31 26 31 L 26 27 C 26.552 27 27 26.552 27 26 C 27 25.448 26.552 25 26 25 L 26 21 C 26.552 21 27 20.552 27 20 C 27 19.448 26.552 19 26 19 L 26 15 C 26.552 15 27 14.552 27 14 C 27 13.448 26.552 13 26 13 L 26 9 C 26.552 9 27 8.552 27 8 C 27 7.448 26.552 7 26 7 L 26 4.8828125 z M 29 10 C 28.448 10 28 10.448 28 11 C 28 11.552 28.448 12 29 12 C 29.552 12 30 11.552 30 11 C 30 10.448 29.552 10 29 10 z M 29 16 C 28.448 16 28 16.448 28 17 C 28 17.552 28.448 18 29 18 C 29.552 18 30 17.552 30 17 C 30 16.448 29.552 16 29 16 z M 32 19 C 31.448 19 31 19.448 31 20 C 31 20.552 31.448 21 32 21 C 32.552 21 33 20.552 33 20 C 33 19.448 32.552 19 32 19 z M 29 22 C 28.448 22 28 22.448 28 23 C 28 23.552 28.448 24 29 24 C 29.552 24 30 23.552 30 23 C 30 22.448 29.552 22 29 22 z M 35 22 C 34.448 22 34 22.448 34 23 C 34 23.552 34.448 24 35 24 C 35.552 24 36 23.552 36 23 C 36 22.448 35.552 22 35 22 z M 32 25 C 31.448 25 31 25.448 31 26 C 31 26.552 31.448 27 32 27 C 32.552 27 33 26.552 33 26 C 33 25.448 32.552 25 32 25 z M 29 28 C 28.448 28 28 28.448 28 29 C 28 29.552 28.448 30 29 30 C 29.552 30 30 29.552 30 29 C 30 28.448 29.552 28 29 28 z M 35 28 C 34.448 28 34 28.448 34 29 C 34 29.552 34.448 30 35 30 C 35.552 30 36 29.552 36 29 C 36 28.448 35.552 28 35 28 z M 32 31 C 31.448 31 31 31.448 31 32 C 31 32.552 31.448 33 32 33 C 32.552 33 33 32.552 33 32 C 33 31.448 32.552 31 32 31 z M 38 31 C 37.448 31 37 31.448 37 32 C 37 32.552 37.448 33 38 33 C 38.552 33 39 32.552 39 32 C 39 31.448 38.552 31 38 31 z M 29 34 C 28.448 34 28 34.448 28 35 C 28 35.552 28.448 36 29 36 C 29.552 36 30 35.552 30 35 C 30 34.448 29.552 34 29 34 z M 35 34 C 34.448 34 34 34.448 34 35 C 34 35.552 34.448 36 35 36 C 35.552 36 36 35.552 36 35 C 36 34.448 35.552 34 35 34 z M 32 37 C 31.448 37 31 37.448 31 38 C 31 38.552 31.448 39 32 39 C 32.552 39 33 38.552 33 38 C 33 37.448 32.552 37 32 37 z M 29 40 C 28.448 40 28 40.448 28 41 C 28 41.552 28.448 42 29 42 C 29.552 42 30 41.552 30 41 C 30 40.448 29.552 40 29 40 z M 35 40 C 34.448 40 34 40.448 34 41 C 34 41.552 34.448 42 35 42 C 35.552 42 36 41.552 36 41 C 36 40.448 35.552 40 35 40 z M 32 43 C 31.448 43 31 43.448 31 44 C 31 44.552 31.448 45 32 45 C 32.552 45 33 44.552 33 44 C 33 43.448 32.552 43 32 43 z"/></svg>