<svg fill="#3498db" xmlns="http://www.w3.org/2000/svg" viewBox="0 0 50 50" width="500px" height="500px"><path d="M 18.5 3 C 16.863281 3 15.421875 4.171875 14.78125 5.8125 L 14.3125 7 L 11 7 C 11 6.449219 10.550781 6 10 6 L 5 6 C 4.449219 6 4 6.449219 4 7 L 4 7.4375 C 1.695313 8.28125 0 10.421875 0 13 L 0 27 C 0 30.296875 2.703125 33 6 33 L 25.25 33 C 25.179688 33.753906 25.113281 34.601563 25.03125 35.6875 C 25.023438 35.808594 25.039063 35.71875 25.03125 35.84375 C 25.003906 36.128906 25.03125 36.394531 25.03125 36.40625 C 25.03125 36.417969 25.03125 36.425781 25.03125 36.4375 C 25.121094 36.894531 25.417969 37.414063 25.90625 37.65625 C 26.394531 37.898438 26.859375 37.828125 27.21875 37.71875 C 27.9375 37.503906 28.519531 37.054688 29.125 36.625 C 29.800781 36.148438 30.375 35.90625 31.03125 35.90625 C 32.5625 35.90625 33.75 37.078125 33.75 38.53125 C 33.75 39.984375 32.5625 41.15625 31.03125 41.15625 C 30.25 41.15625 29.882813 40.996094 29.09375 40.375 C 28.621094 40.003906 28.09375 39.589844 27.4375 39.34375 C 27.109375 39.222656 26.714844 39.117188 26.25 39.21875 C 25.785156 39.320313 25.308594 39.742188 25.125 40.1875 C 24.917969 40.691406 24.972656 40.945313 25.03125 41.3125 C 25.035156 41.363281 25.027344 41.328125 25.03125 41.375 C 25.386719 45.035156 25.570313 45.496094 25.6875 46 C 25.789063 46.445313 25.988281 46.921875 26.34375 47.3125 C 26.699219 47.703125 27.273438 48 27.90625 48 L 47.28125 48 C 48.035156 48 48.78125 47.757813 49.28125 47.25 C 49.78125 46.742188 50 46.042969 50 45.34375 L 50 29.6875 C 50 29.023438 49.746094 28.382813 49.34375 27.96875 C 48.941406 27.554688 48.453125 27.375 48.03125 27.25 C 47.910156 27.214844 47.78125 27.207031 47.65625 27.21875 C 47.65625 27.21875 43.097656 27.652344 41.4375 27.84375 C 41.25 27.867188 41.15625 27.851563 41.125 27.84375 C 41.136719 27.867188 41.066406 27.582031 41.46875 26.9375 C 41.804688 26.402344 42.050781 25.992188 42.25 25.53125 C 42.449219 25.070313 42.5625 24.558594 42.5625 24 C 42.5625 21.839844 41.027344 20.042969 39 19.53125 L 39 13 C 39 11.230469 37.984375 9.730469 36.65625 8.6875 C 35.328125 7.644531 33.648438 7 32 7 L 31.6875 7 L 31.21875 5.8125 C 30.578125 4.171875 29.136719 3 27.5 3 Z M 18.5 5 L 27.5 5 C 27.996094 5 29.019531 5.652344 29.375 6.5625 L 30.0625 8.375 C 30.214844 8.757813 30.589844 9.003906 31 9 L 32 9 C 33.101563 9 34.421875 9.480469 35.40625 10.25 C 36.390625 11.019531 37 12.019531 37 13 L 37 19.46875 C 34.808594 19.863281 33.09375 21.726563 33.09375 24 C 33.09375 25.140625 33.566406 26.046875 34.21875 26.96875 C 34.652344 27.582031 34.609375 27.820313 34.625 27.8125 C 34.617188 27.808594 34.542969 27.867188 34.1875 27.84375 C 33.222656 27.777344 31.179688 27.570313 29.6875 27.40625 C 31.710938 25.574219 33 22.933594 33 20 C 33 14.488281 28.511719 10 23 10 C 17.488281 10 13 14.488281 13 20 C 13 25.511719 17.488281 30 23 30 C 23.933594 30 24.828125 29.867188 25.6875 29.625 C 25.671875 29.691406 25.585938 30.03125 25.46875 31 L 6 31 C 3.796875 31 2 29.203125 2 27 L 2 13 C 2 11.070313 3.371094 9.464844 5.1875 9.09375 C 5.664063 9.003906 6.007813 8.582031 6 8.09375 L 6 8 L 9 8 C 9 8.550781 9.449219 9 10 9 L 15 9 C 15.410156 9.003906 15.785156 8.757813 15.9375 8.375 L 16.625 6.5625 C 16.980469 5.652344 18 5 18.5 5 Z M 6.5 11 C 5.671875 11 5 11.671875 5 12.5 C 5 13.328125 5.671875 14 6.5 14 C 7.328125 14 8 13.328125 8 12.5 C 8 11.671875 7.328125 11 6.5 11 Z M 23 12 C 27.429688 12 31 15.570313 31 20 C 31 24.429688 27.429688 28 23 28 C 18.570313 28 15 24.429688 15 20 C 15 15.570313 18.570313 12 23 12 Z M 37.84375 21.375 C 39.375 21.375 40.5625 22.546875 40.5625 24 C 40.5625 24.363281 40.511719 24.511719 40.40625 24.75 C 40.300781 24.988281 40.089844 25.332031 39.75 25.875 C 39.144531 26.84375 38.898438 27.839844 39.3125 28.71875 C 39.726563 29.597656 40.746094 29.949219 41.65625 29.84375 C 43.1875 29.664063 47.25 29.253906 47.59375 29.21875 C 47.730469 29.273438 47.871094 29.339844 47.90625 29.375 C 47.953125 29.425781 48 29.433594 48 29.6875 L 48 45.34375 C 48 45.644531 47.917969 45.769531 47.84375 45.84375 C 47.769531 45.917969 47.632813 46 47.28125 46 L 27.90625 46 C 27.855469 46 27.871094 46 27.8125 45.9375 C 27.753906 45.875 27.664063 45.730469 27.625 45.5625 C 27.472656 44.890625 27.339844 44.492188 27.03125 41.40625 C 27.289063 41.550781 27.578125 41.703125 27.875 41.9375 C 28.835938 42.691406 29.835938 43.15625 31.03125 43.15625 C 33.613281 43.15625 35.75 41.089844 35.75 38.53125 C 35.75 35.972656 33.613281 33.90625 31.03125 33.90625 C 29.816406 33.90625 28.804688 34.40625 27.96875 35 C 27.585938 35.273438 27.332031 35.386719 27.0625 35.53125 C 27.402344 31.300781 27.625 29.875 27.625 29.875 C 27.636719 29.835938 27.648438 29.792969 27.65625 29.75 C 27.691406 29.433594 27.75 29.25 27.78125 29.1875 C 27.78125 29.1875 32.40625 29.734375 34.03125 29.84375 C 34.953125 29.90625 35.992188 29.628906 36.4375 28.71875 C 36.882813 27.808594 36.527344 26.78125 35.84375 25.8125 C 35.265625 24.996094 35.09375 24.679688 35.09375 24 C 35.09375 22.546875 36.3125 21.375 37.84375 21.375 Z"/></svg>