<svg fill="#3498db" xmlns="http://www.w3.org/2000/svg" viewBox="0 0 50 50" width="500px" height="500px"><path d="M 8.8125 0 C 8.335938 0.0898438 7.992188 0.511719 8 1 C 8 2.09375 7.066406 2.78125 6.71875 3 L 6 3 C 5.96875 3 5.9375 3 5.90625 3 C 5.875 3 5.84375 3 5.8125 3 C 5.335938 3.089844 4.992188 3.511719 5 4 L 5 13.53125 C 4.867188 13.808594 4.867188 14.128906 5 14.40625 L 5 19 C 5 19.550781 5.449219 20 6 20 L 6 25 C 6 25.289063 6.125 25.5625 6.34375 25.75 L 6.90625 26.25 C 6.191406 26.382813 5.46875 26.511719 4.90625 26.625 C 4.894531 26.625 4.886719 26.625 4.875 26.625 C 3.132813 26.996094 1.769531 28.246094 1.15625 29.84375 C 1.15625 29.855469 1.15625 29.863281 1.15625 29.875 C 0.636719 31.4375 0 33.839844 0 36.5 C 0 38.796875 0.410156 40.875 0.9375 42.46875 C 0.941406 42.484375 0.933594 42.515625 0.9375 42.53125 L 0.96875 42.53125 C 1.621094 44.632813 3.578125 46 5.6875 46 L 11 46 L 11 47.40625 C 11 48.339844 11.515625 49.152344 12.21875 49.59375 C 12.921875 50.035156 13.820313 50.148438 14.65625 49.84375 C 14.675781 49.835938 14.699219 49.824219 14.71875 49.8125 C 15.730469 49.351563 16.90625 49 18 49 C 19.09375 49 20.269531 49.351563 21.28125 49.8125 C 21.300781 49.824219 21.324219 49.835938 21.34375 49.84375 C 22.179688 50.148438 23.078125 50.035156 23.78125 49.59375 C 24.484375 49.152344 25 48.339844 25 47.40625 L 25 46 L 44 46 C 46.355469 46 48.375 44.375 48.875 42.125 C 49.382813 39.789063 50 36.308594 50 32.5 C 50 30.117188 49.886719 27.832031 49.6875 25.90625 C 49.683594 25.871094 49.691406 25.816406 49.6875 25.78125 L 49.65625 25.78125 C 49.636719 25.316406 49.585938 24.910156 49.5 24.5625 C 49.496094 24.527344 49.472656 24.503906 49.46875 24.46875 C 48.949219 21.316406 46.160156 19 43 19 L 38.40625 19 C 34.871094 19 32 21.871094 32 25.40625 C 32 26.234375 31.464844 26.710938 30.625 26.53125 C 30.613281 26.53125 30.605469 26.53125 30.59375 26.53125 C 30.160156 26.445313 29.605469 26.347656 29.09375 26.25 L 29.65625 25.75 C 29.875 25.5625 30 25.289063 30 25 L 30 20 C 30.550781 20 31 19.550781 31 19 L 31 14.1875 C 31.027344 14.054688 31.027344 13.914063 31 13.78125 L 31 4 C 31 3.449219 30.550781 3 30 3 L 29.28125 3 C 28.933594 2.78125 28 2.09375 28 1 C 28 0.449219 27.550781 0 27 0 L 9 0 C 8.96875 0 8.9375 0 8.90625 0 C 8.875 0 8.84375 0 8.8125 0 Z M 9.75 2 L 26.25 2 C 26.355469 2.375 26.511719 2.699219 26.6875 3 L 9.3125 3 C 9.488281 2.699219 9.644531 2.375 9.75 2 Z M 7 5 L 29 5 L 29 13 L 7 13 Z M 7 15 L 29 15 L 29 17.96875 C 28.925781 17.972656 28.851563 17.980469 28.78125 18 L 7.1875 18 C 7.125 17.984375 7.0625 17.972656 7 17.96875 Z M 8 20 L 28 20 L 28 24.5625 L 26.625 25.8125 C 23.917969 25.378906 20.800781 25 18 25 C 15.214844 25 12.121094 25.410156 9.40625 25.84375 L 8 24.5625 Z M 38.40625 21 L 43 21 C 45.207031 21 47.175781 22.648438 47.5 24.84375 C 47.507813 24.875 47.519531 24.90625 47.53125 24.9375 C 47.632813 25.335938 47.6875 25.671875 47.6875 25.90625 C 47.695313 25.9375 47.707031 25.96875 47.71875 26 C 47.914063 27.851563 48 30.128906 48 32.5 C 48 36.09375 47.429688 39.425781 46.9375 41.6875 C 46.636719 43.035156 45.445313 44 44 44 L 25 44 C 25 43.449219 24.550781 43 24 43 L 12 43 C 11.96875 43 11.9375 43 11.90625 43 C 11.875 43 11.84375 43 11.8125 43 C 11.335938 43.089844 10.992188 43.511719 11 44 L 5.6875 44 C 4.417969 44 3.214844 43.164063 2.84375 41.90625 C 2.84375 41.894531 2.84375 41.886719 2.84375 41.875 C 2.378906 40.476563 2 38.578125 2 36.5 C 2 34.160156 2.582031 31.96875 3.0625 30.53125 C 3.449219 29.5625 4.257813 28.828125 5.28125 28.59375 C 6.300781 28.390625 7.667969 28.148438 9.125 27.90625 C 9.261719 27.914063 9.402344 27.890625 9.53125 27.84375 C 12.246094 27.40625 15.339844 27 18 27 C 20.667969 27 23.777344 27.382813 26.46875 27.8125 C 26.625 27.886719 26.796875 27.917969 26.96875 27.90625 C 28.167969 28.105469 29.292969 28.289063 30.1875 28.46875 C 30.195313 28.46875 30.210938 28.46875 30.21875 28.46875 C 32.167969 28.867188 34 27.367188 34 25.40625 C 34 22.941406 35.941406 21 38.40625 21 Z M 40.5 23 C 39.121094 23 38 23.894531 38 25 C 38 26.105469 39.121094 27 40.5 27 C 41.878906 27 43 26.105469 43 25 C 43 23.894531 41.878906 23 40.5 23 Z M 40 30 C 37.035156 30 34.570313 32.164063 34.09375 35 L 32 35 L 32 37 L 34.09375 37 C 34.570313 39.835938 37.035156 42 40 42 C 43.300781 42 46 39.300781 46 36 C 46 32.699219 43.300781 30 40 30 Z M 15.90625 30.96875 C 15.875 30.976563 15.84375 30.988281 15.8125 31 L 13 31 C 12.96875 31 12.9375 31 12.90625 31 C 12.875 31 12.84375 31 12.8125 31 C 12.335938 31.089844 11.992188 31.511719 12 32 L 12 40 C 12 40.550781 12.449219 41 13 41 L 23 41 C 23.550781 41 24 40.550781 24 40 L 24 32 C 24 31.449219 23.550781 31 23 31 L 20.21875 31 C 20.117188 30.972656 20.011719 30.960938 19.90625 30.96875 C 19.875 30.976563 19.84375 30.988281 19.8125 31 L 16.21875 31 C 16.117188 30.972656 16.011719 30.960938 15.90625 30.96875 Z M 40 32 C 42.222656 32 44 33.777344 44 36 C 44 38.222656 42.222656 40 40 40 C 37.777344 40 36 38.222656 36 36 C 36 33.777344 37.777344 32 40 32 Z M 14 33 L 15 33 L 15 39 L 14 39 Z M 17 33 L 19 33 L 19 39 L 17 39 Z M 21 33 L 22 33 L 22 39 L 21 39 Z M 40 33 C 38.355469 33 37 34.355469 37 36 C 37 37.644531 38.355469 39 40 39 C 41.644531 39 43 37.644531 43 36 C 43 34.355469 41.644531 33 40 33 Z M 40 35 C 40.5625 35 41 35.4375 41 36 C 41 36.5625 40.5625 37 40 37 C 39.4375 37 39 36.5625 39 36 C 39 35.4375 39.4375 35 40 35 Z M 13.09375 45 L 23 45 C 22.992188 45.074219 22.992188 45.144531 23 45.21875 L 23 47.40625 C 23 47.671875 22.890625 47.796875 22.71875 47.90625 C 22.546875 48.015625 22.296875 48.066406 22.03125 47.96875 C 20.863281 47.445313 19.46875 47 18 47 C 16.53125 47 15.136719 47.445313 13.96875 47.96875 C 13.703125 48.066406 13.453125 48.015625 13.28125 47.90625 C 13.109375 47.796875 13 47.671875 13 47.40625 L 13 45.46875 C 13.070313 45.324219 13.101563 45.160156 13.09375 45 Z"/></svg>