<svg fill="#3498db" xmlns="http://www.w3.org/2000/svg" viewBox="0 0 50 50" width="500px" height="500px"><path d="M 8 12 C 5.253906 12 3 14.253906 3 17 L 3 33 C 3 35.746094 5.253906 38 8 38 L 40 38 C 42.746094 38 45 35.746094 45 33 L 45 30 L 47 30 C 47.550781 30 48 29.550781 48 29 L 48 21 C 48 20.449219 47.550781 20 47 20 L 45 20 L 45 17 C 45 14.253906 42.746094 12 40 12 Z M 8 14 L 40 14 C 41.65625 14 43 15.34375 43 17 L 43 21 C 43 21.550781 43.449219 22 44 22 L 46 22 L 46 28 L 44 28 C 43.449219 28 43 28.449219 43 29 L 43 33 C 43 34.65625 41.65625 36 40 36 L 8 36 C 6.34375 36 5 34.65625 5 33 L 5 17 C 5 15.34375 6.34375 14 8 14 Z"/></svg>