<svg fill="#3498db" xmlns="http://www.w3.org/2000/svg" viewBox="0 0 50 50" width="500px" height="500px"><path d="M 21 6 C 10.517666 6 2 14.517666 2 25 C 2 35.482334 10.517666 44 21 44 C 27.961538 44 34.59635 39.309499 39.552734 34.734375 C 44.509118 30.159251 47.810547 25.585937 47.810547 25.585938 A 1.0001 1.0001 0 0 0 47.810547 24.414062 C 47.810547 24.414062 44.509118 19.840749 39.552734 15.265625 C 34.59635 10.690501 27.961538 6 21 6 z M 21 8 C 27.038462 8 33.40365 12.309499 38.197266 16.734375 C 42.48272 20.690179 45.132437 24.205602 45.722656 25 C 45.132437 25.794398 42.48272 29.309821 38.197266 33.265625 C 33.40365 37.690501 27.038462 42 21 42 C 11.598334 42 4 34.401666 4 25 C 4 15.598334 11.598334 8 21 8 z M 20.939453 14 C 18.732648 14.04049 17.131774 15.028858 16.478516 16.521484 C 15.889145 17.868135 16.014918 19.429089 16.373047 21.017578 C 16.160859 21.366945 16.021153 21.784004 16.083984 22.308594 C 16.157864 22.922135 16.327132 23.411195 16.625 23.791016 C 16.7217 23.914326 16.875732 23.909727 16.996094 24 C 17.096451 24.440807 17.201279 24.887602 17.382812 25.25 C 17.506622 25.49716 17.640035 25.719228 17.789062 25.919922 C 17.807813 25.945172 17.848857 25.967388 17.867188 25.992188 C 17.870387 26.388434 17.87059 26.766302 17.84375 27.169922 C 17.76386 27.33786 17.590598 27.530328 17.134766 27.767578 C 16.644146 28.022934 15.946036 28.275069 15.212891 28.609375 C 14.479745 28.943681 13.692746 29.366885 13.058594 30.074219 C 12.42444 30.781548 12 31.789167 12 33 L 12 34 L 30 34 L 30 32.474609 L 29.994141 32.419922 C 29.873077 31.321515 29.36611 30.430878 28.720703 29.804688 C 28.075297 29.178497 27.31981 28.784494 26.617188 28.466797 C 25.914565 28.149099 25.253482 27.902693 24.794922 27.662109 C 24.373383 27.44095 24.2332 27.271825 24.177734 27.166016 C 24.151064 26.76264 24.151087 26.384036 24.154297 25.986328 C 24.172747 25.960798 24.215555 25.938039 24.234375 25.912109 C 24.381123 25.709969 24.510762 25.485241 24.630859 25.238281 C 24.806768 24.876554 24.906569 24.434307 25.003906 23.998047 C 25.12302 23.908277 25.275394 23.913147 25.371094 23.791016 C 25.668917 23.41093 25.838274 22.921802 25.912109 22.308594 C 25.976102 21.774315 25.830322 21.35277 25.609375 21 C 25.825948 20.242644 26.100757 19.297879 26.009766 18.132812 C 25.954911 17.430449 25.778117 16.688862 25.3125 16.044922 C 24.889406 15.459791 24.184496 15.044678 23.357422 14.869141 C 22.724696 14.280487 21.881767 14 20.957031 14 L 20.947266 14 L 20.939453 14 z M 20.964844 16.001953 C 21.756391 16.005553 22.115506 16.269008 22.119141 16.275391 L 22.363281 16.703125 L 22.849609 16.769531 C 23.341029 16.837821 23.527664 16.987644 23.693359 17.216797 C 23.859054 17.44595 23.97923 17.821098 24.015625 18.287109 C 24.088415 19.219132 23.803888 20.432772 23.628906 20.958984 L 23.376953 21.71875 L 23.923828 22.048828 C 23.92477 22.062347 23.930234 22.049445 23.927734 22.070312 C 23.892254 22.364992 23.844064 22.420612 23.822266 22.460938 L 23.240234 22.509766 L 23.152344 23.332031 C 23.121104 23.623681 22.986836 24.046904 22.832031 24.365234 C 22.754631 24.5244 22.671236 24.659188 22.615234 24.736328 C 22.595684 24.763259 22.583996 24.770607 22.572266 24.779297 L 22.146484 25.001953 L 22.146484 25.605469 C 22.146484 26.233966 22.119773 26.78314 22.189453 27.560547 L 22.201172 27.695312 L 22.248047 27.820312 C 22.553995 28.641825 23.22967 29.098193 23.865234 29.431641 C 24.500799 29.765089 25.176091 30.012088 25.792969 30.291016 C 26.409847 30.569943 26.954407 30.877643 27.328125 31.240234 C 27.531262 31.437323 27.580942 31.750249 27.697266 32 L 14.34375 32 C 14.42959 31.830956 14.42116 31.550383 14.546875 31.410156 C 14.885692 31.03224 15.412286 30.71638 16.041016 30.429688 C 16.669745 30.142993 17.382495 29.892909 18.058594 29.541016 C 18.734693 29.189122 19.451087 28.688789 19.773438 27.820312 L 19.818359 27.695312 L 19.830078 27.560547 C 19.899738 26.782367 19.875 26.233966 19.875 25.605469 L 19.875 25 L 19.445312 24.777344 C 19.433711 24.769091 19.417115 24.758936 19.394531 24.728516 C 19.336061 24.649776 19.251567 24.512606 19.171875 24.353516 C 19.012491 24.035335 18.873675 23.615954 18.84375 23.333984 L 18.757812 22.509766 L 18.173828 22.462891 C 18.152218 22.423201 18.105918 22.366031 18.070312 22.070312 C 18.067603 22.047691 18.073018 22.060891 18.074219 22.046875 L 18.574219 21.744141 L 18.386719 21.023438 C 17.985767 19.479774 17.960803 18.123342 18.310547 17.324219 C 18.659363 16.527211 19.258096 16.035815 20.964844 16.001953 z"/></svg>