<svg fill="#3498db" xmlns="http://www.w3.org/2000/svg" viewBox="0 0 50 50" width="500px" height="500px"><path d="M 4.9902344 3.9902344 A 1.0001 1.0001 0 0 0 4.2929688 5.7070312 L 18.585938 20 L 9 20 A 1.0001 1.0001 0 1 0 9 22 L 22 22 L 22 9 A 1.0001 1.0001 0 0 0 20.984375 7.9863281 A 1.0001 1.0001 0 0 0 20 9 L 20 18.585938 L 5.7070312 4.2929688 A 1.0001 1.0001 0 0 0 4.9902344 3.9902344 z M 44.980469 3.9902344 A 1.0001 1.0001 0 0 0 44.292969 4.2929688 L 30 18.585938 L 30 9 A 1.0001 1.0001 0 0 0 28.984375 7.9863281 A 1.0001 1.0001 0 0 0 28 9 L 28 22 L 41 22 A 1.0001 1.0001 0 1 0 41 20 L 31.414062 20 L 45.707031 5.7070312 A 1.0001 1.0001 0 0 0 44.980469 3.9902344 z M 9 28 A 1.0001 1.0001 0 1 0 9 30 L 18.585938 30 L 4.2929688 44.292969 A 1.0001 1.0001 0 1 0 5.7070312 45.707031 L 20 31.414062 L 20 41 A 1.0001 1.0001 0 1 0 22 41 L 22 28 L 9 28 z M 28 28 L 28 41 A 1.0001 1.0001 0 1 0 30 41 L 30 31.414062 L 42.292969 43.707031 L 44.292969 45.707031 A 1.0001 1.0001 0 0 0 45.109375 46.009766 A 1.0001 1.0001 0 0 0 45.207031 45.996094 A 1.0001 1.0001 0 0 0 45.707031 44.292969 L 43.763672 42.351562 A 1.0001 1.0001 0 0 0 43.707031 42.292969 L 31.414062 30 L 41 30 A 1.0001 1.0001 0 1 0 41 28 L 28 28 z"/></svg>