<svg fill="#3498db" xmlns="http://www.w3.org/2000/svg" viewBox="0 0 50 50" width="500px" height="500px"><path d="M 3 7 C 2.449219 7 2 7.449219 2 8 L 2 42 C 2 42.550781 2.449219 43 3 43 L 47 43 C 47.550781 43 48 42.550781 48 42 L 48 8 C 48 7.449219 47.550781 7 47 7 Z M 4 9 L 46 9 L 46 41 L 4 41 Z M 24.984375 11 C 24.722656 11.003906 24.476563 11.109375 24.292969 11.292969 L 22.292969 13.292969 C 22.03125 13.542969 21.925781 13.917969 22.019531 14.265625 C 22.109375 14.617188 22.382813 14.890625 22.734375 14.980469 C 23.082031 15.074219 23.457031 14.96875 23.707031 14.707031 L 25 13.414063 L 26.292969 14.707031 C 26.542969 14.96875 26.917969 15.074219 27.265625 14.980469 C 27.617188 14.890625 27.890625 14.617188 27.980469 14.265625 C 28.074219 13.917969 27.96875 13.542969 27.707031 13.292969 L 25.707031 11.292969 C 25.515625 11.101563 25.253906 10.996094 24.984375 11 Z M 8.980469 21.988281 C 8.71875 21.996094 8.472656 22.105469 8.292969 22.292969 L 6.292969 24.292969 C 5.902344 24.683594 5.902344 25.316406 6.292969 25.707031 L 8.292969 27.707031 C 8.542969 27.96875 8.917969 28.074219 9.265625 27.980469 C 9.617188 27.890625 9.890625 27.617188 9.980469 27.265625 C 10.074219 26.917969 9.96875 26.542969 9.707031 26.292969 L 8.414063 25 L 9.707031 23.707031 C 10.003906 23.417969 10.089844 22.980469 9.929688 22.601563 C 9.769531 22.21875 9.394531 21.976563 8.980469 21.988281 Z M 40.988281 21.988281 C 40.582031 21.992188 40.21875 22.238281 40.0625 22.613281 C 39.910156 22.992188 40 23.421875 40.292969 23.707031 L 41.585938 25 L 40.292969 26.292969 C 40.03125 26.542969 39.925781 26.917969 40.019531 27.265625 C 40.109375 27.617188 40.382813 27.890625 40.734375 27.980469 C 41.082031 28.074219 41.457031 27.96875 41.707031 27.707031 L 43.707031 25.707031 C 44.097656 25.316406 44.097656 24.683594 43.707031 24.292969 L 41.707031 22.292969 C 41.519531 22.097656 41.261719 21.992188 40.988281 21.988281 Z M 26.988281 34.984375 C 26.726563 34.992188 26.476563 35.101563 26.292969 35.292969 L 25 36.585938 L 23.707031 35.292969 C 23.519531 35.097656 23.261719 34.992188 22.988281 34.988281 C 22.582031 34.992188 22.21875 35.238281 22.0625 35.613281 C 21.910156 35.992188 22 36.421875 22.292969 36.707031 L 24.292969 38.707031 C 24.683594 39.097656 25.316406 39.097656 25.707031 38.707031 L 27.707031 36.707031 C 28.003906 36.421875 28.09375 35.980469 27.9375 35.601563 C 27.777344 35.222656 27.402344 34.976563 26.988281 34.984375 Z"/></svg>