<svg fill="#3498db" xmlns="http://www.w3.org/2000/svg" viewBox="0 0 50 50" width="500px" height="500px"><path d="M 13 3 C 7.4886661 3 3 7.4886661 3 13 L 3 37 C 3 42.511334 7.4886661 47 13 47 L 37 47 C 42.511334 47 47 42.511334 47 37 L 47 13 C 47 7.4877747 42.5112 3 37 3 L 13 3 z M 13 5 L 37 5 C 41.4308 5 45 8.5682253 45 13 L 45 37 C 45 41.430666 41.430666 45 37 45 L 13 45 C 8.5693339 45 5 41.430666 5 37 L 5 13 C 5 8.5693339 8.5693339 5 13 5 z M 30.693359 14 C 27.091529 14 24.154297 16.948616 24.154297 20.554688 C 24.154297 20.580727 24.163763 20.604869 24.164062 20.630859 C 20.349743 20.122249 16.974667 18.23507 14.65625 15.384766 A 1.0001 1.0001 0 0 0 13.015625 15.513672 C 12.452873 16.483446 12.132813 17.613292 12.132812 18.808594 C 12.132812 19.873527 12.428299 20.864828 12.880859 21.757812 A 1.0001 1.0001 0 0 0 12.087891 22.736328 L 12.087891 22.806641 C 12.087891 24.745243 12.991845 26.424523 14.333984 27.626953 A 1.0001 1.0001 0 0 0 14.074219 28.654297 C 14.632569 30.395685 15.932862 31.76104 17.564453 32.529297 C 16.260001 33.141373 14.863558 33.580078 13.322266 33.580078 C 12.911468 33.580078 12.51214 33.558679 12.121094 33.511719 A 1.0001 1.0001 0 0 0 11.458984 35.345703 C 14.062745 37.022387 17.166369 38 20.490234 38 C 25.861602 38 30.10596 35.738351 32.943359 32.511719 C 35.780758 29.285087 37.253906 25.121421 37.253906 21.199219 C 37.253906 21.080563 37.248594 20.966283 37.246094 20.849609 C 38.220518 20.065736 39.137461 19.200995 39.832031 18.158203 A 1.0001 1.0001 0 0 0 38.705078 16.650391 C 38.86821 16.333051 39.096689 16.05609 39.207031 15.710938 A 1.0001 1.0001 0 0 0 37.742188 14.546875 C 36.868349 15.066278 35.888088 15.409788 34.871094 15.648438 C 33.727837 14.671741 32.305945 14 30.693359 14 z M 30.693359 16 C 32.00471 16 33.177989 16.551433 34.005859 17.4375 A 1.0001 1.0001 0 0 0 34.929688 17.734375 C 35.084483 17.703805 35.20864 17.604756 35.361328 17.568359 C 35.338868 17.582399 35.325454 17.607444 35.302734 17.621094 A 1.0001 1.0001 0 0 0 35.835938 19.478516 C 35.765527 19.532406 35.724114 19.617936 35.652344 19.669922 A 1.0001 1.0001 0 0 0 35.238281 20.521484 C 35.247781 20.746907 35.253906 20.973748 35.253906 21.199219 C 35.253906 24.615016 33.94021 28.352038 31.443359 31.191406 C 28.946499 34.030779 25.307867 36 20.490234 36 C 18.833163 36 17.274645 35.665541 15.791016 35.160156 C 17.638051 34.769725 19.386233 34.116881 20.818359 32.990234 A 1.0001 1.0001 0 0 0 20.21875 31.205078 C 18.801889 31.179348 17.709035 30.376495 16.894531 29.337891 C 17.195822 29.298891 17.507754 29.296191 17.794922 29.216797 A 1.0001 1.0001 0 0 0 17.726562 27.271484 C 16.07498 26.937515 14.784514 25.693071 14.3125 24.083984 C 14.738309 24.186876 15.111682 24.417196 15.564453 24.431641 A 1.0001 1.0001 0 0 0 16.152344 22.601562 C 14.933055 21.784606 14.132813 20.396761 14.132812 18.808594 C 14.132812 18.481052 14.308345 18.220556 14.373047 17.914062 C 17.213228 20.732043 20.992263 22.602935 25.248047 22.818359 A 1.0001 1.0001 0 0 0 26.271484 21.589844 C 26.193571 21.259524 26.154297 20.914592 26.154297 20.554688 C 26.154297 18.026758 28.175189 16 30.693359 16 z"/></svg>