<svg fill="#3498db" xmlns="http://www.w3.org/2000/svg" viewBox="0 0 50 50" width="500px" height="500px"><path d="M 4.6875 6 C 2.152344 6 0 8.027344 0 10.59375 C 0 11.78125 0.636719 12.664063 1.15625 13.625 C 1.675781 14.585938 2.09375 15.5625 2.09375 16 C 2.09375 16.4375 1.628906 17.832031 1.09375 19.4375 C 0.558594 21.042969 0 22.960938 0 25 C 0 27.039063 0.558594 28.941406 1.09375 30.53125 C 1.628906 32.121094 2.09375 33.488281 2.09375 34 C 2.09375 34.511719 1.703125 35.460938 1.1875 36.40625 C 0.671875 37.351563 0 38.21875 0 39.40625 C 0 41.972656 2.152344 44 4.6875 44 C 5.277344 44 5.824219 43.851563 6.5 43.65625 C 7.175781 43.460938 7.964844 43.214844 8.75 42.96875 C 10.320313 42.472656 12.015625 42 13 42 C 13.984375 42 14.613281 42.355469 15.40625 42.84375 C 16.199219 43.332031 17.167969 44 18.5 44 C 19.832031 44 20.933594 43.398438 21.96875 42.90625 C 23.003906 42.414063 23.957031 42 25 42 C 26.042969 42 26.660156 42.359375 27.4375 42.84375 C 28.214844 43.328125 29.167969 44 30.5 44 C 31.832031 44 33.0625 43.410156 34.21875 42.90625 C 35.375 42.402344 36.46875 42 37 42 C 37.53125 42 39.332031 42.46875 41 42.96875 C 41.835938 43.21875 42.675781 43.460938 43.40625 43.65625 C 44.136719 43.851563 44.722656 44 45.3125 44 C 47.847656 44 50 41.972656 50 39.40625 C 50 38.21875 49.363281 37.335938 48.84375 36.375 C 48.324219 35.414063 47.90625 34.4375 47.90625 34 C 47.90625 33.5625 48.371094 32.125 48.90625 30.5 C 49.441406 28.875 50 26.949219 50 25 C 50 23.050781 49.441406 21.175781 48.90625 19.5625 C 48.371094 17.949219 47.90625 16.511719 47.90625 16 C 47.90625 15.488281 48.296875 14.539063 48.8125 13.59375 C 49.328125 12.648438 50 11.78125 50 10.59375 C 50 8.027344 47.847656 6 45.3125 6 C 44.710938 6 44.144531 6.167969 43.46875 6.375 C 42.792969 6.582031 42.035156 6.832031 41.25 7.09375 C 39.679688 7.613281 37.96875 8.09375 37 8.09375 C 36.03125 8.09375 35.386719 7.730469 34.59375 7.21875 C 33.800781 6.707031 32.851563 6 31.5 6 C 30.148438 6 29.046875 6.636719 28 7.15625 C 26.953125 7.675781 25.96875 8.09375 25 8.09375 C 24.03125 8.09375 23.386719 7.730469 22.59375 7.21875 C 21.800781 6.707031 20.851563 6 19.5 6 C 18.148438 6 16.886719 6.597656 15.71875 7.125 C 14.550781 7.652344 13.4375 8.09375 13 8.09375 C 12.5625 8.09375 10.714844 7.617188 9.03125 7.09375 C 8.191406 6.832031 7.363281 6.578125 6.625 6.375 C 5.886719 6.171875 5.289063 6 4.6875 6 Z M 4.6875 8 C 4.789063 8 5.410156 8.089844 6.09375 8.28125 C 6.777344 8.472656 7.589844 8.738281 8.4375 9 C 10.128906 9.527344 11.738281 10.09375 13 10.09375 C 14.261719 10.09375 15.40625 9.492188 16.5625 8.96875 C 17.71875 8.445313 18.851563 8 19.5 8 C 20.148438 8 20.699219 8.335938 21.53125 8.875 C 22.363281 9.414063 23.46875 10.09375 25 10.09375 C 26.53125 10.09375 27.796875 9.46875 28.875 8.9375 C 29.953125 8.40625 30.851563 8 31.5 8 C 32.148438 8 32.699219 8.335938 33.53125 8.875 C 34.363281 9.414063 35.46875 10.09375 37 10.09375 C 38.53125 10.09375 40.269531 9.53125 41.875 9 C 42.675781 8.734375 43.441406 8.46875 44.0625 8.28125 C 44.683594 8.09375 45.210938 8 45.3125 8 C 46.777344 8 48 9.160156 48 10.59375 C 48 10.707031 47.597656 11.648438 47.0625 12.625 C 46.527344 13.601563 45.90625 14.710938 45.90625 16 C 45.90625 17.289063 46.484375 18.625 47 20.1875 C 47.515625 21.75 48 23.449219 48 25 C 48 26.550781 47.515625 28.300781 47 29.875 C 46.484375 31.449219 45.90625 32.738281 45.90625 34 C 45.90625 35.261719 46.53125 36.324219 47.0625 37.3125 C 47.59375 38.300781 48 39.292969 48 39.40625 C 48 40.839844 46.777344 42 45.3125 42 C 45.199219 42 44.613281 41.898438 43.9375 41.71875 C 43.261719 41.539063 42.433594 41.28125 41.59375 41.03125 C 39.914063 40.53125 38.269531 40 37 40 C 35.730469 40 34.582031 40.597656 33.4375 41.09375 C 32.292969 41.589844 31.167969 42 30.5 42 C 29.832031 42 29.324219 41.671875 28.5 41.15625 C 27.675781 40.640625 26.554688 40 25 40 C 23.445313 40 22.160156 40.585938 21.09375 41.09375 C 20.027344 41.601563 19.167969 42 18.5 42 C 17.832031 42 17.300781 41.667969 16.46875 41.15625 C 15.636719 40.644531 14.515625 40 13 40 C 11.484375 40 9.726563 40.527344 8.125 41.03125 C 7.324219 41.285156 6.589844 41.539063 5.96875 41.71875 C 5.347656 41.898438 4.800781 42 4.6875 42 C 3.222656 42 2 40.839844 2 39.40625 C 2 39.292969 2.402344 38.351563 2.9375 37.375 C 3.472656 36.398438 4.09375 35.289063 4.09375 34 C 4.09375 32.710938 3.515625 31.441406 3 29.90625 C 2.484375 28.371094 2 26.660156 2 25 C 2 23.339844 2.484375 21.605469 3 20.0625 C 3.515625 18.519531 4.09375 17.261719 4.09375 16 C 4.09375 14.738281 3.46875 13.675781 2.9375 12.6875 C 2.40625 11.699219 2 10.707031 2 10.59375 C 2 9.160156 3.222656 8 4.6875 8 Z M 8 12 C 7.476563 12 6.941406 12.183594 6.5625 12.5625 C 6.183594 12.941406 6 13.476563 6 14 L 6 36 C 6 36.523438 6.183594 37.058594 6.5625 37.4375 C 6.941406 37.816406 7.476563 38 8 38 L 42 38 C 42.523438 38 43.058594 37.816406 43.4375 37.4375 C 43.816406 37.058594 44 36.523438 44 36 L 44 14 C 44 13.476563 43.816406 12.941406 43.4375 12.5625 C 43.058594 12.183594 42.523438 12 42 12 Z M 8 14 L 42 14 L 42 36 L 8 36 Z"/></svg>