<svg fill="#3498db" xmlns="http://www.w3.org/2000/svg" viewBox="0 0 50 50" width="500px" height="500px"><path d="M 0.875 6 C 0.371094 6.0625 -0.00390625 6.492188 0 7 L 0 43 C -0.00390625 43.335938 0.160156 43.648438 0.4375 43.835938 C 0.714844 44.023438 1.066406 44.0625 1.375 43.9375 C 1.375 43.9375 11.296875 40 25 40 C 38.703125 40 48.625 43.9375 48.625 43.9375 C 48.933594 44.0625 49.285156 44.023438 49.5625 43.835938 C 49.839844 43.648438 50.003906 43.335938 50 43 L 50 7 C 50.003906 6.652344 49.824219 6.332031 49.535156 6.148438 C 49.242188 5.960938 48.875 5.941406 48.5625 6.09375 C 48.5625 6.09375 40.816406 10 25 10 C 9.183594 10 1.4375 6.09375 1.4375 6.09375 C 1.261719 6.007813 1.066406 5.976563 0.875 6 Z M 2 8.375 C 3.070313 8.84375 6.253906 10.152344 12 11.0625 L 12 39.09375 C 6.621094 40.019531 3.074219 41.261719 2 41.65625 Z M 48 8.375 L 48 41.65625 C 46.929688 41.261719 43.378906 40.019531 38 39.09375 L 38 11.0625 C 43.75 10.152344 46.929688 8.84375 48 8.375 Z M 14 11.34375 C 17.042969 11.730469 20.683594 12 25 12 C 29.316406 12 32.957031 11.730469 36 11.34375 L 36 38.78125 C 32.820313 38.324219 29.164063 38 25 38 C 20.835938 38 17.175781 38.324219 14 38.78125 Z"/></svg>