<?xml version="1.0"?><svg fill="#3498db" xmlns="http://www.w3.org/2000/svg" viewBox="0 0 50 50" width="500px" height="500px">    <path d="M 3 7 C 2.448 7 2 7.447 2 8 L 2 42 C 2 42.553 2.448 43 3 43 L 26.634766 43 C 26.425766 42.355 26.275922 41.685 26.169922 41 L 4 41 L 4 9 L 46 9 L 46 28.056641 C 46.718 28.516641 47.388 29.043812 48 29.632812 L 48 8 C 48 7.447 47.552 7 47 7 L 3 7 z M 25 13 L 21.880859 15.869141 L 17.583984 15.291016 L 16.833984 19.357422 L 13 21.291016 L 14.90625 25 L 13 28.707031 L 16.833984 30.642578 L 17.583984 34.707031 L 21.880859 34.130859 L 25 37 L 26.447266 35.669922 C 26.786266 34.390922 27.311047 33.189656 27.998047 32.097656 L 27.455078 32.023438 L 25 34.28125 L 25 15.71875 L 27.455078 17.978516 L 30.794922 17.529297 L 31.378906 20.697266 L 34.300781 22.169922 L 32.845703 25 L 33.894531 27.042969 C 34.510531 26.779969 35.157359 26.574203 35.818359 26.408203 L 35.09375 25 L 37 21.292969 L 33.166016 19.357422 L 32.416016 15.292969 L 28.119141 15.869141 L 25 13 z M 37 28 L 36.400391 31.199219 C 36.100391 31.299219 35.700391 31.399609 35.400391 31.599609 L 32.699219 29.699219 L 29.699219 32.699219 L 31.5 35.199219 C 31.4 35.599219 31.199609 35.900781 31.099609 36.300781 L 28 36.800781 L 28 41 L 31.099609 41.5 C 31.199609 41.8 31.3 42.2 31.5 42.5 L 29.699219 45.199219 L 32.699219 48.199219 L 35.400391 46.400391 C 35.800391 46.600391 36.1 46.700781 36.5 46.800781 L 37 50 L 41.099609 50 L 41.699219 46.900391 C 41.999219 46.800391 42.299219 46.7 42.699219 46.5 L 45.400391 48.300781 L 48.400391 45.300781 L 46.5 42.699219 C 46.7 42.299219 46.800391 41.899609 46.900391 41.599609 L 50 41 L 50 36.800781 L 46.800781 36.300781 C 46.700781 36.000781 46.600391 35.600781 46.400391 35.300781 L 48.199219 32.599609 L 45.300781 29.699219 L 42.699219 31.599609 C 42.399219 31.399609 41.999219 31.299219 41.699219 31.199219 L 41.199219 28 L 37 28 z M 38.699219 30 L 39.5 30 L 39.900391 32.699219 L 40.5 32.900391 C 41.1 33.100391 41.699219 33.299609 42.199219 33.599609 L 42.800781 34 L 45.099609 32.300781 L 45.599609 32.800781 L 44 35.099609 L 44.300781 35.599609 C 44.600781 36.199609 44.8 36.800391 45 37.400391 L 45.199219 38 L 48 38.400391 L 48 39.199219 L 45.300781 39.800781 L 45.099609 40.400391 C 44.899609 41.000391 44.700391 41.599609 44.400391 42.099609 L 44 42.699219 L 45.699219 45 L 45.099609 45.599609 L 42.800781 44 L 42.300781 44.300781 C 41.700781 44.600781 41.1 44.8 40.5 45 L 39.900391 45.199219 L 39.400391 48 L 38.599609 48 L 38.199219 45.300781 L 37.599609 45.099609 C 36.999609 44.899609 36.400391 44.700391 35.900391 44.400391 L 35.300781 44 L 32.900391 45.599609 L 32.300781 45 L 33.900391 42.699219 L 33.599609 42.199219 C 33.299609 41.599219 33.100391 40.900391 32.900391 40.400391 L 32.699219 39.800781 L 30 39.300781 L 30 38.5 L 32.800781 38 L 32.900391 37.300781 C 33.000391 36.800781 33.2 36.199219 33.5 35.699219 L 33.900391 35.199219 L 32.300781 32.900391 L 32.900391 32.300781 L 35.199219 33.900391 L 35.699219 33.699219 C 36.399219 33.399219 36.999609 33.100391 37.599609 32.900391 L 38.199219 32.800781 L 38.699219 30 z M 39 34.900391 C 36.8 34.900391 35 36.700391 35 38.900391 C 35 41.100391 36.8 42.900391 39 42.900391 C 41.2 42.900391 43 41.200391 43 38.900391 C 43 36.700391 41.2 34.900391 39 34.900391 z M 39 37 C 40.1 37 41 37.8 41 39 C 41 40.1 40.1 41 39 41 C 37.9 41 37 40.1 37 39 C 37 37.9 37.9 37 39 37 z"/></svg>