<svg fill="#3498db" xmlns="http://www.w3.org/2000/svg" viewBox="0 0 50 50" width="500px" height="500px"><path d="M 5 4 C 3.3544268 4 2 5.3555411 2 7 L 2 16 L 2 26 L 2 43 C 2 44.644459 3.3544268 46 5 46 L 45 46 C 46.645063 46 48 44.645063 48 43 L 48 11 C 48 9.3549372 46.645063 8 45 8 L 18 8 C 18.08657 8 17.96899 8.000364 17.724609 7.71875 C 17.480227 7.437136 17.179419 6.9699412 16.865234 6.46875 C 16.55105 5.9675588 16.221777 5.4327899 15.806641 4.9628906 C 15.391504 4.4929914 14.818754 4 14 4 L 5 4 z M 5 6 L 14 6 C 13.93925 6 14.06114 6.00701 14.308594 6.2871094 C 14.556051 6.5672101 14.857231 7.0324412 15.169922 7.53125 C 15.482613 8.0300588 15.806429 8.562864 16.212891 9.03125 C 16.619352 9.499636 17.178927 10 18 10 L 45 10 C 45.562937 10 46 10.437063 46 11 L 46 13.1875 C 45.685108 13.07394 45.351843 13 45 13 L 5 13 C 4.6481575 13 4.3148915 13.07394 4 13.1875 L 4 7 C 4 6.4364589 4.4355732 6 5 6 z M 5 15 L 45 15 C 45.56503 15 46 15.43497 46 16 L 46 43 C 46 43.562937 45.562937 44 45 44 L 5 44 C 4.4355732 44 4 43.563541 4 43 L 4 16 C 4 15.43497 4.4349698 15 5 15 z M 21.441406 19 C 20.153771 19 19.002414 19.831107 18.595703 21.052734 L 18.279297 22 L 17 22 C 14.802666 22 13 23.802666 13 26 L 13 35 C 13 37.197334 14.802666 39 17 39 L 33 39 C 35.197334 39 37 37.197334 37 35 L 37 26 C 37 23.802666 35.197334 22 33 22 L 31.720703 22 L 31.404297 21.052734 C 30.997354 19.83041 29.846229 19 28.558594 19 L 21.441406 19 z M 21.441406 21 L 28.558594 21 C 28.992958 21 29.370756 21.271918 29.507812 21.683594 L 30.050781 23.316406 A 1.0001 1.0001 0 0 0 31 24 L 33 24 C 34.116666 24 35 24.883334 35 26 L 35 35 C 35 36.116666 34.116666 37 33 37 L 17 37 C 15.883334 37 15 36.116666 15 35 L 15 26 C 15 24.883334 15.883334 24 17 24 L 19 24 A 1.0001 1.0001 0 0 0 19.949219 23.316406 L 20.492188 21.683594 C 20.629477 21.271221 21.007042 21 21.441406 21 z M 25 25 C 22.250484 25 20 27.250484 20 30 C 20 32.749516 22.250484 35 25 35 C 27.749516 35 30 32.749516 30 30 C 30 27.250484 27.749516 25 25 25 z M 25 27 C 26.668484 27 28 28.331516 28 30 C 28 31.668484 26.668484 33 25 33 C 23.331516 33 22 31.668484 22 30 C 22 28.331516 23.331516 27 25 27 z"/></svg>