<svg fill="#3498db" xmlns="http://www.w3.org/2000/svg" viewBox="0 0 50 50" width="500px" height="500px"><path d="M 6 6 L 6 18 C 5.996094 18.359375 6.183594 18.695313 6.496094 18.878906 C 6.808594 19.058594 7.191406 19.058594 7.503906 18.878906 C 7.816406 18.695313 8.003906 18.359375 8 18 L 8 9.414063 L 17.292969 18.707031 C 17.457031 18.878906 17.675781 18.984375 17.90625 19.011719 C 17.941406 19.011719 17.972656 19.015625 18.007813 19.015625 C 18.042969 19.015625 18.074219 19.011719 18.109375 19.011719 C 18.140625 19.007813 18.175781 19.003906 18.207031 18.996094 C 18.574219 18.925781 18.867188 18.65625 18.972656 18.296875 C 19.078125 17.9375 18.976563 17.550781 18.707031 17.292969 L 9.414063 8 L 18 8 C 18.359375 8.003906 18.695313 7.816406 18.878906 7.503906 C 19.058594 7.191406 19.058594 6.808594 18.878906 6.496094 C 18.695313 6.183594 18.359375 5.996094 18 6 Z M 32 6 C 31.640625 5.996094 31.304688 6.183594 31.121094 6.496094 C 30.941406 6.808594 30.941406 7.191406 31.121094 7.503906 C 31.304688 7.816406 31.640625 8.003906 32 8 L 40.585938 8 L 31.292969 17.292969 C 31.03125 17.542969 30.925781 17.917969 31.019531 18.265625 C 31.109375 18.617188 31.382813 18.890625 31.734375 18.980469 C 32.082031 19.074219 32.457031 18.96875 32.707031 18.707031 L 42 9.414063 L 42 18 C 41.992188 18.523438 42.394531 18.964844 42.917969 19.011719 C 42.949219 19.011719 42.980469 19.015625 43.015625 19.015625 C 43.566406 19.003906 44.007813 18.550781 44 18 L 44 6 Z M 6.984375 30.984375 C 6.433594 30.996094 5.992188 31.449219 6 32 L 6 44 L 18 44 C 18.359375 44.003906 18.695313 43.816406 18.878906 43.503906 C 19.058594 43.191406 19.058594 42.808594 18.878906 42.496094 C 18.695313 42.183594 18.359375 41.996094 18 42 L 9.414063 42 L 18.707031 32.707031 C 19.003906 32.417969 19.089844 31.980469 18.929688 31.601563 C 18.769531 31.21875 18.394531 30.976563 17.980469 30.988281 C 17.71875 30.996094 17.472656 31.105469 17.292969 31.292969 L 8 40.585938 L 8 32 C 8.003906 31.730469 7.898438 31.46875 7.707031 31.277344 C 7.515625 31.085938 7.253906 30.980469 6.984375 30.984375 Z M 42.984375 30.984375 C 42.949219 30.988281 42.917969 30.988281 42.886719 30.992188 C 42.820313 31 42.753906 31.015625 42.6875 31.035156 C 42.273438 31.171875 41.992188 31.5625 42 32 L 42 40.585938 L 32.707031 31.292969 C 32.519531 31.097656 32.261719 30.992188 31.988281 30.988281 C 31.597656 30.992188 31.238281 31.222656 31.078125 31.582031 C 30.917969 31.941406 30.980469 32.363281 31.246094 32.65625 C 31.261719 32.671875 31.277344 32.691406 31.292969 32.707031 L 40.585938 42 L 32 42 C 31.460938 41.996094 31.015625 42.425781 30.996094 42.964844 C 30.976563 43.503906 31.390625 43.960938 31.929688 44 C 31.953125 44 31.976563 44 32 44 L 44 44 L 44 32 C 44.003906 31.730469 43.898438 31.46875 43.707031 31.277344 C 43.515625 31.085938 43.253906 30.980469 42.984375 30.984375 Z"/></svg>