<svg fill="#3498db" xmlns="http://www.w3.org/2000/svg" viewBox="0 0 50 50" width="500px" height="500px"><path d="M 25 3 C 19.464844 3 15 7.464844 15 13 L 15 19 C 15 22.238281 16.585938 25.144531 19 26.96875 L 19 31.5 C 19 31.605469 18.980469 31.695313 18.71875 31.9375 C 18.457031 32.179688 17.992188 32.503906 17.375 32.8125 C 16.144531 33.429688 14.367188 34.0625 12.5625 34.9375 C 10.757813 35.8125 8.886719 36.925781 7.4375 38.53125 C 5.988281 40.136719 5 42.289063 5 45 L 5 46 L 45 46 L 45 45 C 45 42.265625 44.011719 40.105469 42.5625 38.5 C 41.113281 36.894531 39.242188 35.800781 37.4375 34.9375 C 35.632813 34.074219 33.851563 33.421875 32.625 32.8125 C 32.011719 32.507813 31.539063 32.210938 31.28125 31.96875 C 31.023438 31.726563 31 31.625 31 31.5 L 31 26.96875 C 33.414063 25.144531 35 22.238281 35 19 L 35 13 C 35 7.464844 30.535156 3 25 3 Z M 25 5 C 29.464844 5 33 8.535156 33 13 L 33 19 C 33 21.757813 31.558594 24.242188 29.4375 25.65625 L 29 25.96875 L 29 31.5 C 29 32.273438 29.398438 32.957031 29.90625 33.4375 C 30.414063 33.917969 31.050781 34.277344 31.75 34.625 C 33.148438 35.320313 34.867188 35.9375 36.5625 36.75 C 38.257813 37.5625 39.886719 38.542969 41.0625 39.84375 C 42.039063 40.921875 42.605469 42.304688 42.8125 44 L 7.1875 44 C 7.394531 42.324219 7.964844 40.957031 8.9375 39.875 C 10.113281 38.570313 11.742188 37.574219 13.4375 36.75 C 15.132813 35.925781 16.855469 35.289063 18.25 34.59375 C 18.945313 34.246094 19.589844 33.878906 20.09375 33.40625 C 20.597656 32.933594 21 32.269531 21 31.5 L 21 25.96875 L 20.5625 25.65625 C 18.441406 24.242188 17 21.757813 17 19 L 17 13 C 17 8.535156 20.535156 5 25 5 Z"/></svg>