<svg fill="#3498db" xmlns="http://www.w3.org/2000/svg" viewBox="0 0 50 50" width="500px" height="500px"><path d="M 25 2 C 12.354545 2 2 12.354545 2 25 C 2 37.645455 12.354545 48 25 48 C 37.645455 48 48 37.645455 48 25 C 48 12.354545 37.645455 2 25 2 z M 25 4 C 36.554545 4 46 13.445455 46 25 C 46 36.554545 36.554545 46 25 46 C 13.445455 46 4 36.554545 4 25 C 4 13.445455 13.445455 4 25 4 z M 24.984375 5.8789062 A 1.0001 1.0001 0 0 0 24 6.8945312 L 24 8.953125 A 1.0001 1.0001 0 1 0 26 8.953125 L 26 6.8945312 A 1.0001 1.0001 0 0 0 24.984375 5.8789062 z M 15.892578 8.3007812 A 1.0001 1.0001 0 0 0 15.097656 9.8261719 L 16.171875 11.617188 A 1.0001 1.0001 0 1 0 17.886719 10.587891 L 16.8125 8.796875 A 1.0001 1.0001 0 0 0 15.892578 8.3007812 z M 34.078125 8.3007812 A 1.0001 1.0001 0 0 0 33.1875 8.796875 L 32.113281 10.587891 A 1.0001 1.0001 0 1 0 33.828125 11.617188 L 34.902344 9.8261719 A 1.0001 1.0001 0 0 0 34.078125 8.3007812 z M 9.359375 14.84375 A 1.0001 1.0001 0 0 0 8.9042969 16.707031 L 10.695312 17.78125 A 1.0001 1.0001 0 1 0 11.722656 16.066406 L 9.9316406 14.992188 A 1.0001 1.0001 0 0 0 9.359375 14.84375 z M 40.027344 15 A 1.0001 1.0001 0 0 0 39.640625 15.066406 L 23.652344 21.228516 A 1.0001 1.0001 0 0 0 23.185547 21.599609 C 21.931912 22.266866 21 23.474558 21 25 C 21 27.209804 22.790196 29 25 29 C 25.690891 29 26.258107 28.68094 26.820312 28.380859 A 1.0001 1.0001 0 0 0 27.509766 28.140625 L 40.654297 16.755859 A 1.0001 1.0001 0 0 0 40.027344 15 z M 35.017578 18.992188 L 26.318359 26.527344 A 1.0001 1.0001 0 0 0 26.238281 26.582031 C 25.898116 26.844731 25.49009 27 25 27 C 23.809804 27 23 26.190196 23 25 C 23 24.057093 23.530471 23.384107 24.330078 23.119141 A 1.0001 1.0001 0 0 0 24.482422 23.052734 L 35.017578 18.992188 z M 7 23.894531 A 1.0001 1.0001 0 1 0 7 25.894531 L 9.0605469 25.894531 A 1.0001 1.0001 0 1 0 9.0605469 23.894531 L 7 23.894531 z M 40.939453 23.894531 A 1.0001 1.0001 0 1 0 40.939453 25.894531 L 43 25.894531 A 1.0001 1.0001 0 1 0 43 23.894531 L 40.939453 23.894531 z M 11.236328 31.857422 A 1.0001 1.0001 0 0 0 10.695312 32.005859 L 8.9042969 33.082031 A 1.0001 1.0001 0 1 0 9.9335938 34.796875 L 11.724609 33.720703 A 1.0001 1.0001 0 0 0 11.236328 31.857422 z M 38.734375 31.857422 A 1.0001 1.0001 0 0 0 38.275391 33.720703 L 40.066406 34.796875 A 1.0001 1.0001 0 1 0 41.095703 33.082031 L 39.304688 32.005859 A 1.0001 1.0001 0 0 0 38.734375 31.857422 z"/></svg>