<svg fill="#3498db" xmlns="http://www.w3.org/2000/svg"  viewBox="0 0 50 50" width="500px" height="500px"><path d="M 30.90625 0.96875 C 30.863281 0.976563 30.820313 0.988281 30.78125 1 C 30.316406 1.105469 29.988281 1.523438 30 2 L 30 19.5625 L 26.71875 16.28125 C 26.511719 16.058594 26.210938 15.945313 25.90625 15.96875 C 25.863281 15.976563 25.820313 15.988281 25.78125 16 C 25.40625 16.066406 25.105469 16.339844 25 16.703125 C 24.894531 17.070313 25.003906 17.460938 25.28125 17.71875 L 30.28125 22.71875 L 31 23.40625 L 31.71875 22.71875 L 36.71875 17.71875 C 37.117188 17.320313 37.117188 16.679688 36.71875 16.28125 C 36.320313 15.882813 35.679688 15.882813 35.28125 16.28125 L 32 19.5625 L 32 2 C 32.011719 1.710938 31.894531 1.433594 31.6875 1.238281 C 31.476563 1.039063 31.191406 0.941406 30.90625 0.96875 Z M 1.71875 2 C 1.6875 2.007813 1.65625 2.019531 1.625 2.03125 C 1.613281 2.03125 1.605469 2.027344 1.59375 2.03125 C 1.574219 2.039063 1.550781 2.050781 1.53125 2.0625 C 0.652344 2.273438 0 3.058594 0 4 C 0 5.105469 0.894531 6 2 6 C 3.105469 6 4 5.105469 4 4 L 8.65625 4 C 9.902344 4 10.550781 4.257813 11.03125 4.6875 C 11.503906 5.113281 11.886719 5.832031 12.21875 6.9375 L 20.21875 39.21875 C 20.519531 40.363281 20.820313 41.542969 21.65625 42.5 C 22.003906 42.898438 22.441406 43.222656 22.96875 43.46875 C 22.382813 44.164063 22 45.027344 22 46 C 22 48.199219 23.800781 50 26 50 C 28.199219 50 30 48.199219 30 46 C 30 45.265625 29.785156 44.59375 29.4375 44 L 35.5625 44 C 35.214844 44.59375 35 45.265625 35 46 C 35 48.199219 36.800781 50 39 50 C 41.199219 50 43 48.199219 43 46 C 43 44.972656 42.582031 44.054688 41.9375 43.34375 C 42.050781 43.039063 42.003906 42.695313 41.820313 42.429688 C 41.632813 42.160156 41.328125 42 41 42 L 25.71875 42 C 24.175781 42 23.546875 41.671875 23.125 41.1875 C 22.707031 40.707031 22.453125 39.867188 22.15625 38.75 L 22.15625 38.71875 L 21.46875 36 L 39.8125 36 C 40.230469 36 40.609375 35.738281 40.75 35.34375 L 47.9375 16.34375 C 48.070313 16.007813 48.011719 15.628906 47.785156 15.351563 C 47.558594 15.074219 47.199219 14.9375 46.84375 15 C 46.480469 15.058594 46.183594 15.308594 46.0625 15.65625 L 39.125 34 L 21 34 L 14.15625 6.46875 C 14.15625 6.449219 14.15625 6.425781 14.15625 6.40625 C 13.773438 5.117188 13.277344 4 12.375 3.1875 C 11.472656 2.375 10.203125 2 8.65625 2 L 2 2 C 1.96875 2 1.9375 2 1.90625 2 C 1.875 2 1.84375 2 1.8125 2 C 1.78125 2 1.75 2 1.71875 2 Z M 26 44 C 27.117188 44 28 44.882813 28 46 C 28 47.117188 27.117188 48 26 48 C 24.882813 48 24 47.117188 24 46 C 24 44.882813 24.882813 44 26 44 Z M 39 44 C 40.117188 44 41 44.882813 41 46 C 41 47.117188 40.117188 48 39 48 C 37.882813 48 37 47.117188 37 46 C 37 44.882813 37.882813 44 39 44 Z"/></svg>