<svg fill="#3498db" xmlns="http://www.w3.org/2000/svg" viewBox="0 0 50 50" width="500px" height="500px"><path d="M 35.0625 1.5 C 34.835938 1.53125 34.625 1.644531 34.46875 1.8125 L 1.875 34.40625 C 1.488281 34.796875 1.488281 35.421875 1.875 35.8125 L 14.09375 48.03125 C 14.28125 48.226563 14.542969 48.335938 14.8125 48.335938 C 15.082031 48.335938 15.34375 48.226563 15.53125 48.03125 L 48.125 15.4375 C 48.511719 15.046875 48.511719 14.421875 48.125 14.03125 L 35.90625 1.8125 C 35.859375 1.753906 35.808594 1.703125 35.75 1.65625 C 35.574219 1.542969 35.367188 1.488281 35.15625 1.5 C 35.125 1.5 35.09375 1.5 35.0625 1.5 Z M 35.1875 3.9375 L 46 14.75 L 14.8125 45.90625 L 4 35.125 L 6.84375 32.28125 L 9.28125 34.71875 L 10.71875 33.28125 L 8.28125 30.84375 L 10.84375 28.28125 L 16.28125 33.71875 L 17.71875 32.28125 L 12.28125 26.84375 L 14.84375 24.28125 L 17.28125 26.71875 L 18.71875 25.28125 L 16.28125 22.84375 L 18.84375 20.28125 L 24.28125 25.71875 L 25.71875 24.28125 L 20.28125 18.84375 L 22.84375 16.28125 L 25.28125 18.71875 L 26.71875 17.28125 L 24.28125 14.84375 L 26.84375 12.28125 L 32.28125 17.71875 L 33.71875 16.28125 L 28.28125 10.84375 L 30.84375 8.28125 L 33.28125 10.71875 L 34.71875 9.28125 L 32.28125 6.84375 Z"/></svg>