<?xml version="1.0"?><svg fill="#3498db" xmlns="http://www.w3.org/2000/svg" viewBox="0 0 50 50" width="500px" height="500px">    <path d="M 2 8 L 2 13 L 4 13 L 4 10 L 7 10 L 7 8 L 2 8 z M 9 8 L 9 40 L 41 40 L 41 8 L 9 8 z M 43 8 L 43 10 L 46 10 L 46 13 L 48 13 L 48 8 L 43 8 z M 11 10 L 39 10 L 39 38 L 11 38 L 11 10 z M 2 15.640625 L 2 22.679688 L 4 22.679688 L 4 15.640625 L 2 15.640625 z M 46 15.640625 L 46 22.679688 L 48 22.679688 L 48 15.640625 L 46 15.640625 z M 20 18 C 19.74425 18 19.488469 18.097469 19.292969 18.292969 C 18.901969 18.683969 18.901969 19.316031 19.292969 19.707031 L 23.585938 24 L 19.292969 28.292969 C 18.901969 28.683969 18.901969 29.316031 19.292969 29.707031 C 19.487969 29.902031 19.744 30 20 30 C 20.256 30 20.512031 29.902031 20.707031 29.707031 L 25 25.414062 L 29.292969 29.707031 C 29.487969 29.902031 29.744 30 30 30 C 30.256 30 30.512031 29.902031 30.707031 29.707031 C 31.098031 29.316031 31.098031 28.683969 30.707031 28.292969 L 26.414062 24 L 30.707031 19.707031 C 31.098031 19.316031 31.098031 18.683969 30.707031 18.292969 C 30.316031 17.901969 29.683969 17.901969 29.292969 18.292969 L 25 22.585938 L 20.707031 18.292969 C 20.511531 18.097469 20.25575 18 20 18 z M 2 25.320312 L 2 32.359375 L 4 32.359375 L 4 25.320312 L 2 25.320312 z M 46 25.320312 L 46 32.359375 L 48 32.359375 L 48 25.320312 L 46 25.320312 z M 2 35 L 2 40 L 7 40 L 7 38 L 4 38 L 4 35 L 2 35 z M 46 35 L 46 38 L 43 38 L 43 40 L 48 40 L 48 35 L 46 35 z"/></svg>