<svg fill="#3498db" xmlns="http://www.w3.org/2000/svg" viewBox="0 0 50 50" width="500px" height="500px"><path d="M 10.402344 3 C 8.535156 3 7 4.535156 7 6.398438 L 7 24.597656 C 7 26.464844 8.535156 28 10.402344 28 L 28.597656 28 C 30.464844 28 32 26.464844 32 24.597656 L 32 6.398438 C 32 4.535156 30.464844 3 28.597656 3 Z M 10.402344 5 L 14 5 C 14 5.550781 14.449219 6 15 6 C 15.550781 6 16 5.550781 16 5 L 20 5 C 20 5.550781 20.449219 6 21 6 C 21.550781 6 22 5.550781 22 5 L 26 5 C 26 5.550781 26.449219 6 27 6 C 27.550781 6 28 5.550781 28 5 L 28.597656 5 C 29.386719 5 30 5.613281 30 6.398438 L 30 7 C 29.449219 7 29 7.449219 29 8 C 29 8.550781 29.449219 9 30 9 L 30 13 C 29.449219 13 29 13.449219 29 14 C 29 14.550781 29.449219 15 30 15 L 30 19 C 29.449219 19 29 19.449219 29 20 C 29 20.550781 29.449219 21 30 21 L 30 24.597656 C 30 24.742188 29.976563 24.875 29.9375 25.003906 C 29.433594 25.035156 29.035156 25.433594 29 25.9375 C 28.875 25.976563 28.742188 26 28.597656 26 L 25 26 C 25 25.449219 24.550781 25 24 25 C 23.449219 25 23 25.449219 23 26 L 19 26 C 19 25.449219 18.550781 25 18 25 C 17.449219 25 17 25.449219 17 26 L 13 26 C 13 25.449219 12.550781 25 12 25 C 11.449219 25 11 25.449219 11 26 L 10.402344 26 C 9.613281 26 9 25.386719 9 24.597656 L 9 24 C 9.550781 24 10 23.550781 10 23 C 10 22.449219 9.550781 22 9 22 L 9 18 C 9.550781 18 10 17.550781 10 17 C 10 16.449219 9.550781 16 9 16 L 9 12 C 9.550781 12 10 11.550781 10 11 C 10 10.449219 9.550781 10 9 10 L 9 6.398438 C 9 6.257813 9.023438 6.125 9.0625 5.996094 C 9.566406 5.964844 9.964844 5.566406 10 5.0625 C 10.125 5.023438 10.257813 5 10.402344 5 Z M 12 7 C 11.449219 7 11 7.449219 11 8 C 11 8.550781 11.449219 9 12 9 C 12.550781 9 13 8.550781 13 8 C 13 7.449219 12.550781 7 12 7 Z M 18 7 C 17.449219 7 17 7.449219 17 8 C 17 8.550781 17.449219 9 18 9 C 18.550781 9 19 8.550781 19 8 C 19 7.449219 18.550781 7 18 7 Z M 24 7 C 23.449219 7 23 7.449219 23 8 C 23 8.550781 23.449219 9 24 9 C 24.550781 9 25 8.550781 25 8 C 25 7.449219 24.550781 7 24 7 Z M 15 10 C 14.449219 10 14 10.449219 14 11 C 14 11.550781 14.449219 12 15 12 C 15.550781 12 16 11.550781 16 11 C 16 10.449219 15.550781 10 15 10 Z M 21 10 C 20.449219 10 20 10.449219 20 11 C 20 11.550781 20.449219 12 21 12 C 21.550781 12 22 11.550781 22 11 C 22 10.449219 21.550781 10 21 10 Z M 27 10 C 26.449219 10 26 10.449219 26 11 C 26 11.550781 26.449219 12 27 12 C 27.550781 12 28 11.550781 28 11 C 28 10.449219 27.550781 10 27 10 Z M 12 13 C 11.449219 13 11 13.449219 11 14 C 11 14.550781 11.449219 15 12 15 C 12.550781 15 13 14.550781 13 14 C 13 13.449219 12.550781 13 12 13 Z M 18 13 C 17.449219 13 17 13.449219 17 14 C 17 14.550781 17.449219 15 18 15 C 18.550781 15 19 14.550781 19 14 C 19 13.449219 18.550781 13 18 13 Z M 24 13 C 23.449219 13 23 13.449219 23 14 C 23 14.550781 23.449219 15 24 15 C 24.550781 15 25 14.550781 25 14 C 25 13.449219 24.550781 13 24 13 Z M 15 16 C 14.449219 16 14 16.449219 14 17 C 14 17.550781 14.449219 18 15 18 C 15.550781 18 16 17.550781 16 17 C 16 16.449219 15.550781 16 15 16 Z M 21 16 C 20.449219 16 20 16.449219 20 17 C 20 17.550781 20.449219 18 21 18 C 21.550781 18 22 17.550781 22 17 C 22 16.449219 21.550781 16 21 16 Z M 27 16 C 26.449219 16 26 16.449219 26 17 C 26 17.550781 26.449219 18 27 18 C 27.550781 18 28 17.550781 28 17 C 28 16.449219 27.550781 16 27 16 Z M 34 18 L 34 20 L 43.597656 20 C 44.386719 20 45 20.613281 45 21.402344 L 45 39.597656 C 45 40.386719 44.386719 41 43.597656 41 L 25.402344 41 C 24.613281 41 24 40.386719 24 39.597656 L 24 30 L 22 30 L 22 39.597656 C 22 41.464844 23.535156 43 25.402344 43 L 43.597656 43 C 45.464844 43 47 41.464844 47 39.597656 L 47 21.402344 C 47 19.535156 45.464844 18 43.597656 18 Z M 12 19 C 11.449219 19 11 19.449219 11 20 C 11 20.550781 11.449219 21 12 21 C 12.550781 21 13 20.550781 13 20 C 13 19.449219 12.550781 19 12 19 Z M 18 19 C 17.449219 19 17 19.449219 17 20 C 17 20.550781 17.449219 21 18 21 C 18.550781 21 19 20.550781 19 20 C 19 19.449219 18.550781 19 18 19 Z M 24 19 C 23.449219 19 23 19.449219 23 20 C 23 20.550781 23.449219 21 24 21 C 24.550781 21 25 20.550781 25 20 C 25 19.449219 24.550781 19 24 19 Z M 15 22 C 14.449219 22 14 22.449219 14 23 C 14 23.550781 14.449219 24 15 24 C 15.550781 24 16 23.550781 16 23 C 16 22.449219 15.550781 22 15 22 Z M 21 22 C 20.449219 22 20 22.449219 20 23 C 20 23.550781 20.449219 24 21 24 C 21.550781 24 22 23.550781 22 23 C 22 22.449219 21.550781 22 21 22 Z M 27 22 C 26.449219 22 26 22.449219 26 23 C 26 23.550781 26.449219 24 27 24 C 27.550781 24 28 23.550781 28 23 C 28 22.449219 27.550781 22 27 22 Z M 3.984375 29.984375 C 3.433594 29.996094 2.992188 30.449219 3 31 L 3 40 C 3 41.644531 4.355469 43 6 43 L 15.585938 43 L 13.292969 45.292969 C 13.03125 45.542969 12.925781 45.917969 13.019531 46.265625 C 13.109375 46.617188 13.382813 46.890625 13.734375 46.980469 C 14.082031 47.074219 14.457031 46.96875 14.707031 46.707031 L 18.621094 42.796875 C 18.867188 42.605469 19.011719 42.3125 19.011719 42 C 19.015625 41.691406 18.871094 41.398438 18.625 41.207031 C 18.621094 41.207031 18.621094 41.203125 18.617188 41.203125 L 14.707031 37.292969 C 14.519531 37.097656 14.261719 36.992188 13.988281 36.988281 C 13.582031 36.992188 13.21875 37.238281 13.0625 37.613281 C 12.910156 37.992188 13 38.421875 13.292969 38.707031 L 15.585938 41 L 6 41 C 5.433594 41 5 40.566406 5 40 L 5 31 C 5.003906 30.730469 4.898438 30.46875 4.707031 30.277344 C 4.515625 30.085938 4.253906 29.980469 3.984375 29.984375 Z"/></svg>