<svg fill="#3498db" xmlns="http://www.w3.org/2000/svg" viewBox="0 0 50 50" width="500px" height="500px"><path d="M 17 7 C 16.179688 7 15.609375 7.492188 15.191406 7.960938 C 14.777344 8.433594 14.449219 8.96875 14.136719 9.46875 C 13.820313 9.96875 13.519531 10.4375 13.277344 10.71875 C 13.03125 11 12.914063 11 13 11 L 4 11 C 2.355469 11 1 12.355469 1 14 L 1 40 C 1 41.644531 2.355469 43 4 43 L 46 43 C 47.644531 43 49 41.644531 49 40 L 49 14 C 49 12.355469 47.644531 11 46 11 L 37 11 C 37.085938 11 36.96875 11 36.722656 10.71875 C 36.480469 10.4375 36.179688 9.96875 35.863281 9.46875 C 35.550781 8.96875 35.222656 8.433594 34.808594 7.960938 C 34.390625 7.492188 33.820313 7 33 7 Z M 17 9 L 33 9 C 32.9375 9 33.0625 9.007813 33.308594 9.289063 C 33.554688 9.566406 33.855469 10.03125 34.171875 10.53125 C 34.484375 11.03125 34.804688 11.5625 35.214844 12.03125 C 35.621094 12.5 36.179688 13 37 13 L 46 13 C 46.5625 13 47 13.4375 47 14 L 47 40 C 47 40.5625 46.5625 41 46 41 L 4 41 C 3.4375 41 3 40.5625 3 40 L 3 14 C 3 13.4375 3.4375 13 4 13 L 13 13 C 13.820313 13 14.378906 12.5 14.785156 12.03125 C 15.195313 11.5625 15.515625 11.03125 15.828125 10.53125 C 16.144531 10.03125 16.445313 9.566406 16.691406 9.289063 C 16.9375 9.007813 17.0625 9 17 9 Z M 25 17 C 22.945313 17 21.027344 17.621094 19.4375 18.6875 C 19.132813 18.886719 18.960938 19.230469 18.980469 19.589844 C 19.003906 19.949219 19.21875 20.269531 19.546875 20.429688 C 19.871094 20.585938 20.253906 20.554688 20.550781 20.347656 C 21.824219 19.496094 23.347656 19 25 19 C 29.273438 19 32.734375 22.320313 32.976563 26.53125 L 31.398438 24.953125 C 31.210938 24.757813 30.949219 24.648438 30.679688 24.652344 C 30.273438 24.652344 29.90625 24.898438 29.753906 25.273438 C 29.601563 25.652344 29.691406 26.082031 29.984375 26.367188 L 34 30.382813 L 38.015625 26.367188 C 38.277344 26.117188 38.382813 25.742188 38.289063 25.394531 C 38.199219 25.042969 37.925781 24.769531 37.574219 24.679688 C 37.226563 24.585938 36.851563 24.691406 36.601563 24.953125 L 34.980469 26.578125 C 34.753906 21.261719 30.367188 17 25 17 Z M 16 22.585938 L 11.984375 26.601563 C 11.722656 26.851563 11.617188 27.226563 11.710938 27.574219 C 11.800781 27.925781 12.074219 28.199219 12.425781 28.289063 C 12.773438 28.382813 13.148438 28.277344 13.398438 28.015625 L 15.039063 26.375 C 15.027344 26.582031 15 26.789063 15 27 C 15 32.511719 19.488281 37 25 37 C 27.566406 37 29.917969 36.027344 31.6875 34.433594 C 31.964844 34.195313 32.089844 33.832031 32.015625 33.476563 C 31.941406 33.121094 31.683594 32.832031 31.339844 32.722656 C 30.992188 32.613281 30.617188 32.699219 30.351563 32.949219 C 28.933594 34.226563 27.0625 35 25 35 C 20.570313 35 17 31.429688 17 27 C 17 26.8125 17.019531 26.632813 17.03125 26.449219 L 18.601563 28.015625 C 18.851563 28.277344 19.226563 28.382813 19.574219 28.292969 C 19.925781 28.203125 20.199219 27.925781 20.289063 27.578125 C 20.382813 27.226563 20.277344 26.855469 20.015625 26.605469 Z"/></svg>