<svg fill="#3498db" xmlns="http://www.w3.org/2000/svg" viewBox="0 0 50 50" width="500px" height="500px"><path d="M 17 7 C 16.179688 7 15.609375 7.492188 15.191406 7.960938 C 14.777344 8.433594 14.449219 8.96875 14.136719 9.46875 C 13.820313 9.96875 13.519531 10.4375 13.277344 10.71875 C 13.03125 11 12.914063 11 13 11 L 4 11 C 2.355469 11 1 12.355469 1 14 L 1 40 C 1 41.644531 2.355469 43 4 43 L 46 43 C 47.644531 43 49 41.644531 49 40 L 49 14 C 49 12.355469 47.644531 11 46 11 L 37 11 C 37.085938 11 36.96875 11 36.722656 10.71875 C 36.480469 10.4375 36.179688 9.96875 35.863281 9.46875 C 35.550781 8.96875 35.222656 8.433594 34.808594 7.960938 C 34.390625 7.492188 33.820313 7 33 7 Z M 17 9 L 33 9 C 32.9375 9 33.0625 9.007813 33.308594 9.289063 C 33.554688 9.566406 33.855469 10.03125 34.171875 10.53125 C 34.484375 11.03125 34.804688 11.5625 35.214844 12.03125 C 35.621094 12.5 36.179688 13 37 13 L 46 13 C 46.5625 13 47 13.4375 47 14 L 47 40 C 47 40.5625 46.5625 41 46 41 L 4 41 C 3.4375 41 3 40.5625 3 40 L 3 14 C 3 13.4375 3.4375 13 4 13 L 13 13 C 13.820313 13 14.378906 12.5 14.785156 12.03125 C 15.195313 11.5625 15.515625 11.03125 15.828125 10.53125 C 16.144531 10.03125 16.445313 9.566406 16.691406 9.289063 C 16.9375 9.007813 17.0625 9 17 9 Z M 25 17.003906 C 22.4375 17.003906 19.878906 17.980469 17.929688 19.929688 C 14.03125 23.828125 14.03125 30.171875 17.929688 34.070313 C 21.363281 37.503906 26.6875 37.921875 30.578125 35.300781 C 30.886719 35.105469 31.0625 34.757813 31.039063 34.394531 C 31.019531 34.03125 30.800781 33.710938 30.472656 33.554688 C 30.144531 33.398438 29.757813 33.429688 29.460938 33.640625 C 26.351563 35.738281 22.101563 35.414063 19.34375 32.65625 C 16.210938 29.523438 16.210938 24.476563 19.34375 21.34375 C 22.476563 18.210938 27.523438 18.210938 30.65625 21.34375 C 32.105469 22.792969 32.875 24.648438 32.984375 26.539063 L 31.398438 24.953125 C 31.210938 24.757813 30.949219 24.648438 30.679688 24.652344 C 30.273438 24.652344 29.90625 24.898438 29.753906 25.273438 C 29.601563 25.652344 29.691406 26.082031 29.984375 26.367188 L 34 30.382813 L 38.015625 26.367188 C 38.277344 26.117188 38.382813 25.742188 38.289063 25.394531 C 38.199219 25.042969 37.925781 24.769531 37.574219 24.679688 C 37.226563 24.585938 36.851563 24.691406 36.601563 24.953125 L 34.984375 26.566406 C 34.882813 24.15625 33.910156 21.769531 32.070313 19.929688 C 30.121094 17.980469 27.5625 17.003906 25 17.003906 Z"/></svg>