<svg fill="#3498db" xmlns="http://www.w3.org/2000/svg" viewBox="0 0 50 50" width="500px" height="500px"><path fill="none" stroke="#3498db" stroke-linecap="round" stroke-linejoin="round" stroke-miterlimit="10" stroke-width="2" d="M5 45h40v-2c0-1.657-1.343-3-3-3H8c-1.657 0-3 1.343-3 3V45zM15.1 39.987L11.818 28.19M11.044 39.974L7.931 28.836M12.355 22.819L17.335 14.2M22 12L30 12M30 8L22 8M14 12L8.604 21.021M9 21A4 4 0 1 0 9 29 4 4 0 1 0 9 21zM18 6A4 4 0 1 0 18 14 4 4 0 1 0 18 6zM30 5H45V15H30zM34 15L35 20 40 20 41 15"/></svg>