<svg fill="#3498db" xmlns="http://www.w3.org/2000/svg"  viewBox="0 0 50 50" width="500px" height="500px"><path d="M 3 5 C 1.355469 5 0 6.355469 0 8 L 0 45 L 50 45 L 50 11 C 50 9.355469 48.644531 8 47 8 L 17.875 8 L 17.433594 6.882813 C 16.976563 5.75 15.871094 5 14.644531 5 Z M 3 7 L 14.644531 7 C 15.058594 7 15.421875 7.246094 15.574219 7.628906 L 16.523438 10 L 47 10 C 47.566406 10 48 10.433594 48 11 L 48 43 L 2 43 L 2 8 C 2 7.433594 2.433594 7 3 7 Z M 8 23 L 9.84375 30.046875 L 11.53125 30.046875 L 12.6875 25.730469 L 12.777344 25.730469 L 13.953125 30.046875 L 15.632813 30.046875 L 17.472656 23 L 15.625 23 L 14.703125 27.671875 L 14.617188 27.671875 L 13.449219 23 L 12.015625 23 L 10.886719 27.671875 L 10.796875 27.671875 L 9.859375 23 Z M 19.3125 23 L 21.15625 30.046875 L 22.84375 30.046875 L 24 25.730469 L 24.089844 25.730469 L 25.265625 30.046875 L 26.941406 30.046875 L 28.785156 23 L 26.9375 23 L 26.015625 27.671875 L 25.929688 27.671875 L 24.761719 23 L 23.328125 23 L 22.199219 27.671875 L 22.109375 27.671875 L 21.171875 23 Z M 30.625 23 L 32.46875 30.046875 L 34.15625 30.046875 L 35.3125 25.730469 L 35.402344 25.730469 L 36.578125 30.046875 L 38.257813 30.046875 L 40.097656 23 L 38.25 23 L 37.328125 27.671875 L 37.242188 27.671875 L 36.074219 23 L 34.640625 23 L 33.511719 27.671875 L 33.421875 27.671875 L 32.484375 23 Z M 42.261719 28.34375 C 41.644531 28.34375 41.277344 28.726563 41.277344 29.28125 C 41.277344 29.828125 41.644531 30.207031 42.261719 30.207031 C 42.878906 30.207031 43.246094 29.828125 43.246094 29.28125 C 43.246094 28.726563 42.878906 28.34375 42.261719 28.34375 Z"/></svg>