<svg fill="#3498db" xmlns="http://www.w3.org/2000/svg" viewBox="0 0 50 50" width="500px" height="500px"><path d="M 0.8125 0 C 0.335938 0.0898438 -0.0078125 0.511719 0 1 L 0 35 C 0 35.550781 0.449219 36 1 36 L 4.125 36 L 4 36.84375 C 3.957031 37.109375 4.019531 37.382813 4.179688 37.601563 C 4.335938 37.816406 4.578125 37.960938 4.84375 38 L 7.90625 38.53125 L 7.3125 41.1875 C 7.195313 41.722656 7.53125 42.25 8.0625 42.375 L 41.1875 49.96875 C 41.722656 50.085938 42.25 49.75 42.375 49.21875 L 49.96875 16.125 C 50.085938 15.589844 49.75 15.0625 49.21875 14.9375 L 44.4375 13.84375 L 45.1875 9.375 C 45.28125 8.832031 44.917969 8.3125 44.375 8.21875 L 36 6.78125 L 36 1 C 36 0.449219 35.550781 0 35 0 L 1 0 C 0.96875 0 0.9375 0 0.90625 0 C 0.875 0 0.84375 0 0.8125 0 Z M 2 2 L 34 2 L 34 34 L 2 34 Z M 4.8125 4 C 4.335938 4.089844 3.992188 4.511719 4 5 L 4 28 C 4 28.550781 4.449219 29 5 29 L 31 29 C 31.550781 29 32 28.550781 32 28 L 32 5 C 32 4.449219 31.550781 4 31 4 L 5 4 C 4.96875 4 4.9375 4 4.90625 4 C 4.875 4 4.84375 4 4.8125 4 Z M 6 6 L 30 6 L 30 27 L 28 27 C 28.003906 26.949219 28.003906 26.894531 28 26.84375 C 27.910156 25.574219 27.375 24.527344 26.65625 23.8125 C 25.9375 23.097656 25.089844 22.6875 24.28125 22.34375 C 23.472656 22 22.679688 21.710938 22.125 21.4375 C 21.613281 21.183594 21.382813 20.976563 21.28125 20.78125 C 21.246094 20.34375 21.292969 19.9375 21.3125 19.46875 C 21.328125 19.445313 21.359375 19.429688 21.375 19.40625 C 21.519531 19.210938 21.675781 18.972656 21.8125 18.71875 C 22.015625 18.332031 22.140625 17.839844 22.25 17.34375 C 22.386719 17.242188 22.585938 17.261719 22.6875 17.125 C 22.976563 16.738281 23.089844 16.242188 23.15625 15.65625 L 23.1875 15.65625 C 23.1875 15.644531 23.1875 15.636719 23.1875 15.625 C 23.1875 15.613281 23.1875 15.605469 23.1875 15.59375 C 23.261719 15.027344 23.105469 14.558594 22.84375 14.1875 C 23.058594 13.414063 23.335938 12.417969 23.25 11.1875 C 23.199219 10.449219 23.019531 9.671875 22.53125 9 C 22.09375 8.398438 21.359375 7.996094 20.5 7.8125 C 19.84375 7.242188 19.003906 7 18 7 C 17.988281 7 17.980469 7 17.96875 7 C 15.632813 7.054688 13.976563 8.074219 13.28125 9.625 C 12.652344 11.03125 12.777344 12.660156 13.15625 14.34375 C 12.941406 14.703125 12.8125 15.113281 12.8125 15.59375 C 12.8125 15.625 12.8125 15.65625 12.8125 15.6875 C 12.878906 16.34375 13.066406 16.871094 13.375 17.25 C 13.460938 17.355469 13.625 17.351563 13.71875 17.4375 C 13.816406 17.921875 13.957031 18.414063 14.15625 18.8125 C 14.285156 19.066406 14.535156 19.226563 14.6875 19.4375 L 14.6875 20.90625 C 14.601563 21.082031 14.410156 21.3125 13.90625 21.5625 C 13.359375 21.835938 12.597656 22.09375 11.78125 22.4375 C 10.964844 22.78125 10.101563 23.191406 9.375 23.90625 C 8.648438 24.621094 8.089844 25.664063 8 26.9375 C 8 26.957031 8 26.980469 8 27 L 6 27 Z M 36 8.78125 L 43.0625 10.03125 L 37.65625 41.5625 L 6.125 36.15625 L 6.15625 36 L 34.84375 36 L 35.5625 36.09375 C 36.09375 36.167969 36.59375 35.808594 36.6875 35.28125 L 40.59375 12.5625 C 40.636719 12.296875 40.574219 12.023438 40.414063 11.804688 C 40.257813 11.589844 40.015625 11.445313 39.75 11.40625 L 36 10.84375 Z M 18 9 C 18.019531 9 18.011719 9 18.03125 9 C 18.804688 9.015625 19.378906 9.402344 19.3125 9.3125 C 19.472656 9.519531 19.710938 9.652344 19.96875 9.6875 C 20.523438 9.757813 20.722656 9.9375 20.90625 10.1875 C 21.089844 10.4375 21.214844 10.84375 21.25 11.34375 C 21.320313 12.34375 21.027344 13.628906 20.84375 14.21875 C 20.707031 14.636719 20.859375 15.089844 21.21875 15.34375 C 21.21875 15.363281 21.21875 15.386719 21.21875 15.40625 C 21.1875 15.71875 21.117188 15.800781 21.09375 15.84375 C 20.71875 15.964844 20.449219 16.296875 20.40625 16.6875 C 20.375 16.992188 20.210938 17.441406 20.03125 17.78125 C 19.941406 17.953125 19.855469 18.089844 19.78125 18.1875 C 19.746094 18.238281 19.703125 18.289063 19.6875 18.3125 C 19.449219 18.503906 19.3125 18.789063 19.3125 19.09375 C 19.3125 19.699219 19.195313 20.285156 19.3125 21.21875 C 19.324219 21.304688 19.34375 21.386719 19.375 21.46875 C 19.742188 22.363281 20.511719 22.886719 21.25 23.25 C 21.988281 23.613281 22.753906 23.851563 23.46875 24.15625 C 24.183594 24.460938 24.824219 24.828125 25.25 25.25 C 25.675781 25.671875 25.941406 26.136719 26 26.96875 C 26 26.980469 26 26.988281 26 27 L 10 27 C 10.066406 26.214844 10.328125 25.757813 10.75 25.34375 C 11.183594 24.917969 11.839844 24.585938 12.5625 24.28125 C 13.285156 23.976563 14.074219 23.710938 14.8125 23.34375 C 15.550781 22.976563 16.292969 22.445313 16.625 21.53125 C 16.664063 21.421875 16.6875 21.304688 16.6875 21.1875 L 16.6875 19.1875 C 16.691406 18.851563 16.527344 18.535156 16.25 18.34375 C 16.265625 18.324219 16.058594 18.152344 15.9375 17.90625 C 15.773438 17.578125 15.628906 17.152344 15.59375 16.8125 C 15.554688 16.429688 15.300781 16.101563 14.9375 15.96875 C 14.917969 15.941406 14.851563 15.796875 14.8125 15.59375 C 14.804688 15.542969 14.789063 15.566406 14.78125 15.5 L 14.6875 15.5 C 15.09375 15.269531 15.289063 14.792969 15.15625 14.34375 C 14.734375 12.703125 14.710938 11.289063 15.09375 10.4375 C 15.472656 9.59375 16.167969 9.050781 18 9 Z M 36 12.84375 L 38.4375 13.21875 L 36 27.46875 Z M 44.09375 15.8125 L 47.8125 16.65625 L 40.65625 47.8125 L 9.5 40.65625 L 9.875 38.84375 L 38.34375 43.6875 C 38.886719 43.78125 39.40625 43.417969 39.5 42.875 L 39.625 42.15625 C 39.847656 42.015625 40.003906 41.789063 40.0625 41.53125 L 45.1875 19.125 C 45.304688 18.589844 44.96875 18.0625 44.4375 17.9375 L 43.75 17.75 Z"/></svg>