<svg fill="#3498db" xmlns="http://www.w3.org/2000/svg"  viewBox="0 0 50 50" width="500px" height="500px"><path d="M 25 2.0039062 C 23.206705 2.0039062 21.413561 2.6887 20.052734 4.0546875 L 4.0644531 19.041016 L 4.0546875 19.050781 C 1.3224442 21.771398 1.3212061 26.223009 4.0507812 28.945312 C 4.0507812 28.945312 4.0527344 28.947266 4.0527344 28.947266 C 4.0527344 28.947266 4.0546875 28.949219 4.0546875 28.949219 C 6.7566027 31.658355 11.160936 31.67508 13.886719 29.003906 L 18 25.521484 L 18 41.101562 C 18 44.906679 21.157271 48 25 48 C 28.842729 48 32 44.906679 32 41.101562 L 32 24.902344 L 36.052734 28.947266 C 37.412102 30.306633 39.204589 31 41 31 C 42.794535 31 44.586186 30.307273 45.945312 28.949219 L 45.947266 28.947266 C 48.678843 26.225142 48.678268 21.772062 45.945312 19.050781 L 45.935547 19.041016 L 29.949219 4.0546875 C 29.949219 4.0546875 29.947266 4.0546875 29.947266 4.0546875 C 28.586486 2.6887 26.793295 2.0039062 25 2.0039062 z M 25 3.9902344 C 26.276111 3.9902344 27.552222 4.4816318 28.53125 5.4648438 L 28.542969 5.4785156 L 44.537109 20.472656 C 46.500323 22.430939 46.500557 25.57426 44.535156 27.53125 L 44.533203 27.53125 L 44.533203 27.533203 C 43.552664 28.513788 42.284589 29 41 29 C 39.715411 29 38.447429 28.513835 37.466797 27.533203 L 31.917969 21.994141 C 32.601239 20.81666 33 19.454722 33 18 C 33 13.593567 29.406433 10 25 10 C 20.593567 10 17 13.593567 17 18 C 17 19.68579 17.529553 21.248879 18.425781 22.541016 L 12.560547 27.503906 L 12.53125 27.535156 C 10.573194 29.50158 7.4268061 29.50158 5.46875 27.535156 L 5.4667969 27.533203 L 5.4648438 27.53125 C 3.4994904 25.57426 3.4996742 22.430939 5.4628906 20.472656 C 5.4639606 20.471556 5.4637764 20.46985 5.4648438 20.46875 L 21.457031 5.4785156 L 21.46875 5.4648438 C 22.447778 4.4816318 23.723889 3.9902344 25 3.9902344 z M 25 12 C 27.983857 12 30.436201 14.155361 30.910156 17 L 28.855469 17 C 28.405591 15.284214 26.850301 14 25 14 C 23.149699 14 21.594409 15.284214 21.144531 17 L 19.089844 17 C 19.563799 14.155361 22.016143 12 25 12 z M 25 16 C 26.116414 16 27 16.883586 27 18 C 27 19.116414 26.116414 20 25 20 C 23.883586 20 23 19.116414 23 18 C 23 16.883586 23.883586 16 25 16 z M 19.089844 19 L 21.144531 19 C 21.594409 20.715786 23.149699 22 25 22 C 26.850301 22 28.405591 20.715786 28.855469 19 L 30.910156 19 C 30.436201 21.844639 27.983857 24 25 24 C 22.016143 24 19.563799 21.844639 19.089844 19 z M 20 24.232422 C 21.371621 25.335631 23.109614 26 25 26 C 26.890386 26 28.628379 25.335631 30 24.232422 L 30 41.101562 C 30 43.804446 27.777271 46 25 46 C 22.222729 46 20 43.804446 20 41.101562 L 20 24.232422 z"/></svg>