<svg fill="#3498db" xmlns="http://www.w3.org/2000/svg" viewBox="0 0 50 50" width="500px" height="500px"><path d="M 28.3125 2 C 27.925781 2.074219 27.621094 2.367188 27.53125 2.75 L 27.09375 4.53125 C 25.636719 4.980469 24.335938 5.738281 23.25 6.75 L 21.5 6.25 C 21.058594 6.113281 20.582031 6.292969 20.34375 6.6875 L 18.84375 9.3125 C 18.617188 9.714844 18.695313 10.214844 19.03125 10.53125 L 20.34375 11.78125 C 20.175781 12.507813 20 13.222656 20 14 C 20 14.777344 20.175781 15.492188 20.34375 16.21875 L 19.03125 17.46875 C 18.695313 17.785156 18.617188 18.285156 18.84375 18.6875 L 20.34375 21.3125 C 20.582031 21.707031 21.058594 21.886719 21.5 21.75 L 23.25 21.25 C 24.335938 22.261719 25.636719 23.019531 27.09375 23.46875 L 27.53125 25.25 C 27.644531 25.691406 28.042969 26 28.5 26 L 31.5 26 C 31.957031 26 32.355469 25.691406 32.46875 25.25 L 32.90625 23.46875 C 34.363281 23.019531 35.664063 22.261719 36.75 21.25 L 38.5 21.75 C 38.941406 21.886719 39.417969 21.707031 39.65625 21.3125 L 41.15625 18.6875 C 41.382813 18.285156 41.304688 17.785156 40.96875 17.46875 L 39.65625 16.21875 C 39.824219 15.492188 40 14.777344 40 14 C 40 13.222656 39.824219 12.507813 39.65625 11.78125 L 40.96875 10.53125 C 41.304688 10.214844 41.382813 9.714844 41.15625 9.3125 L 39.65625 6.6875 C 39.417969 6.292969 38.941406 6.113281 38.5 6.25 L 36.75 6.75 C 35.664063 5.738281 34.363281 4.980469 32.90625 4.53125 L 32.46875 2.75 C 32.355469 2.308594 31.957031 2 31.5 2 L 28.5 2 C 28.46875 2 28.4375 2 28.40625 2 C 28.375 2 28.34375 2 28.3125 2 Z M 29.28125 4 L 30.71875 4 L 31 5.125 L 31 5.21875 C 30.988281 5.695313 31.316406 6.113281 31.78125 6.21875 C 33.375 6.582031 34.765625 7.402344 35.84375 8.5625 C 36.164063 8.914063 36.683594 8.992188 37.09375 8.75 L 37.1875 8.6875 L 38.3125 8.375 L 39.03125 9.65625 L 38.28125 10.375 L 38.09375 10.46875 C 37.699219 10.707031 37.519531 11.183594 37.65625 11.625 C 37.886719 12.371094 38 13.175781 38 14 C 38 14.824219 37.886719 15.628906 37.65625 16.375 C 37.519531 16.816406 37.699219 17.292969 38.09375 17.53125 L 38.28125 17.625 L 39.03125 18.34375 L 38.3125 19.625 L 37.1875 19.3125 L 37.09375 19.25 C 36.683594 19.007813 36.164063 19.085938 35.84375 19.4375 C 34.765625 20.597656 33.375 21.417969 31.78125 21.78125 C 31.316406 21.886719 30.988281 22.304688 31 22.78125 L 31 22.875 L 30.71875 24 L 29.28125 24 L 29 22.875 L 29 22.78125 C 29.011719 22.304688 28.683594 21.886719 28.21875 21.78125 C 26.625 21.417969 25.234375 20.597656 24.15625 19.4375 C 23.835938 19.085938 23.316406 19.007813 22.90625 19.25 L 22.8125 19.3125 L 21.6875 19.625 L 20.96875 18.375 L 21.84375 17.5625 L 21.90625 17.53125 C 21.90625 17.519531 21.90625 17.511719 21.90625 17.5 C 22.289063 17.265625 22.464844 16.804688 22.34375 16.375 C 22.113281 15.628906 22 14.824219 22 14 C 22 13.175781 22.113281 12.371094 22.34375 11.625 C 22.464844 11.195313 22.289063 10.734375 21.90625 10.5 C 21.90625 10.488281 21.90625 10.480469 21.90625 10.46875 L 21.84375 10.4375 L 20.96875 9.625 L 21.6875 8.375 L 22.8125 8.6875 L 22.90625 8.75 C 23.316406 8.992188 23.835938 8.914063 24.15625 8.5625 C 25.234375 7.402344 26.625 6.582031 28.21875 6.21875 C 28.683594 6.113281 29.011719 5.695313 29 5.21875 L 29 5.125 Z M 30 9 C 27.25 9 25 11.25 25 14 C 25 16.75 27.25 19 30 19 C 32.75 19 35 16.75 35 14 C 35 11.25 32.75 9 30 9 Z M 30 11 C 31.667969 11 33 12.332031 33 14 C 33 15.667969 31.667969 17 30 17 C 28.332031 17 27 15.667969 27 14 C 27 12.332031 28.332031 11 30 11 Z M 12.3125 20 C 11.925781 20.074219 11.621094 20.367188 11.53125 20.75 L 11.09375 22.53125 C 9.636719 22.980469 8.335938 23.738281 7.25 24.75 L 5.5 24.25 C 5.058594 24.113281 4.582031 24.292969 4.34375 24.6875 L 2.84375 27.3125 C 2.617188 27.714844 2.695313 28.214844 3.03125 28.53125 L 4.34375 29.78125 C 4.175781 30.507813 4 31.222656 4 32 C 4 32.777344 4.175781 33.492188 4.34375 34.21875 L 3.03125 35.46875 C 2.695313 35.785156 2.617188 36.285156 2.84375 36.6875 L 4.34375 39.3125 C 4.582031 39.707031 5.058594 39.886719 5.5 39.75 L 7.25 39.25 C 8.335938 40.261719 9.636719 41.019531 11.09375 41.46875 L 11.53125 43.25 C 11.644531 43.691406 12.042969 44 12.5 44 L 15.5 44 C 15.957031 44 16.355469 43.691406 16.46875 43.25 L 16.90625 41.46875 C 18.363281 41.019531 19.664063 40.261719 20.75 39.25 L 22.5 39.75 C 22.941406 39.886719 23.417969 39.707031 23.65625 39.3125 L 25.15625 36.6875 C 25.382813 36.285156 25.304688 35.785156 24.96875 35.46875 L 23.65625 34.21875 C 23.824219 33.492188 24 32.777344 24 32 C 24 31.222656 23.824219 30.507813 23.65625 29.78125 L 24.96875 28.53125 C 25.304688 28.214844 25.382813 27.714844 25.15625 27.3125 L 23.65625 24.6875 C 23.417969 24.292969 22.941406 24.113281 22.5 24.25 L 20.75 24.75 C 19.664063 23.738281 18.363281 22.980469 16.90625 22.53125 L 16.46875 20.75 C 16.355469 20.308594 15.957031 20 15.5 20 L 12.5 20 C 12.46875 20 12.4375 20 12.40625 20 C 12.375 20 12.34375 20 12.3125 20 Z M 13.28125 22 L 14.71875 22 L 15 23.125 L 15 23.21875 C 14.988281 23.695313 15.316406 24.113281 15.78125 24.21875 C 17.375 24.582031 18.769531 25.402344 19.84375 26.5625 C 20.164063 26.914063 20.683594 26.992188 21.09375 26.75 L 21.1875 26.6875 L 22.3125 26.375 L 23.03125 27.65625 L 22.28125 28.375 L 22.09375 28.46875 C 21.699219 28.707031 21.519531 29.183594 21.65625 29.625 C 21.886719 30.371094 22 31.175781 22 32 C 22 32.824219 21.886719 33.628906 21.65625 34.375 C 21.519531 34.816406 21.699219 35.292969 22.09375 35.53125 L 22.28125 35.625 L 23.03125 36.34375 L 22.3125 37.625 L 21.1875 37.3125 L 21.09375 37.25 C 20.683594 37.007813 20.164063 37.085938 19.84375 37.4375 C 18.765625 38.597656 17.375 39.417969 15.78125 39.78125 C 15.316406 39.886719 14.988281 40.304688 15 40.78125 L 15 40.875 L 14.71875 42 L 13.28125 42 L 13 40.875 L 13 40.78125 C 13.011719 40.304688 12.683594 39.886719 12.21875 39.78125 C 10.625 39.417969 9.234375 38.597656 8.15625 37.4375 C 7.835938 37.085938 7.316406 37.007813 6.90625 37.25 L 6.8125 37.3125 L 5.6875 37.625 L 4.96875 36.375 L 5.84375 35.5625 L 5.90625 35.53125 C 5.90625 35.519531 5.90625 35.511719 5.90625 35.5 C 6.289063 35.265625 6.464844 34.804688 6.34375 34.375 C 6.113281 33.628906 6 32.824219 6 32 C 6 31.175781 6.113281 30.371094 6.34375 29.625 C 6.464844 29.195313 6.289063 28.734375 5.90625 28.5 C 5.90625 28.488281 5.90625 28.480469 5.90625 28.46875 L 5.84375 28.4375 L 4.96875 27.625 L 5.6875 26.375 L 6.8125 26.6875 L 6.90625 26.75 C 7.316406 26.992188 7.835938 26.914063 8.15625 26.5625 C 9.234375 25.402344 10.625 24.582031 12.21875 24.21875 C 12.683594 24.113281 13.011719 23.695313 13 23.21875 L 13 23.125 Z M 35.3125 25 C 34.925781 25.074219 34.621094 25.367188 34.53125 25.75 L 34.09375 27.53125 C 32.636719 27.980469 31.335938 28.738281 30.25 29.75 L 28.5 29.25 C 28.058594 29.113281 27.582031 29.292969 27.34375 29.6875 L 25.84375 32.3125 C 25.617188 32.714844 25.695313 33.214844 26.03125 33.53125 L 27.34375 34.78125 C 27.175781 35.507813 27 36.222656 27 37 C 27 37.777344 27.175781 38.492188 27.34375 39.21875 L 26.03125 40.46875 C 25.695313 40.785156 25.617188 41.285156 25.84375 41.6875 L 27.34375 44.3125 C 27.582031 44.707031 28.058594 44.886719 28.5 44.75 L 30.25 44.25 C 31.335938 45.261719 32.636719 46.019531 34.09375 46.46875 L 34.53125 48.25 C 34.644531 48.691406 35.042969 49 35.5 49 L 38.5 49 C 38.957031 49 39.355469 48.691406 39.46875 48.25 L 39.90625 46.46875 C 41.363281 46.019531 42.664063 45.261719 43.75 44.25 L 45.5 44.75 C 45.941406 44.886719 46.417969 44.707031 46.65625 44.3125 L 48.15625 41.6875 C 48.382813 41.285156 48.304688 40.785156 47.96875 40.46875 L 46.65625 39.21875 C 46.824219 38.492188 47 37.777344 47 37 C 47 36.222656 46.824219 35.507813 46.65625 34.78125 L 47.96875 33.53125 C 48.304688 33.214844 48.382813 32.714844 48.15625 32.3125 L 46.65625 29.6875 C 46.417969 29.292969 45.941406 29.113281 45.5 29.25 L 43.75 29.75 C 42.664063 28.738281 41.363281 27.980469 39.90625 27.53125 L 39.46875 25.75 C 39.355469 25.308594 38.957031 25 38.5 25 L 35.5 25 C 35.46875 25 35.4375 25 35.40625 25 C 35.375 25 35.34375 25 35.3125 25 Z M 14 27 C 11.25 27 9 29.25 9 32 C 9 34.75 11.25 37 14 37 C 16.75 37 19 34.75 19 32 C 19 29.25 16.75 27 14 27 Z M 36.28125 27 L 37.71875 27 L 38 28.125 L 38 28.21875 C 37.988281 28.695313 38.316406 29.113281 38.78125 29.21875 C 40.375 29.582031 41.769531 30.402344 42.84375 31.5625 C 43.164063 31.914063 43.683594 31.992188 44.09375 31.75 L 44.1875 31.6875 L 45.3125 31.375 L 46.03125 32.65625 L 45.28125 33.375 L 45.09375 33.46875 C 44.699219 33.707031 44.519531 34.183594 44.65625 34.625 C 44.886719 35.371094 45 36.175781 45 37 C 45 37.824219 44.886719 38.628906 44.65625 39.375 C 44.519531 39.816406 44.699219 40.292969 45.09375 40.53125 L 45.28125 40.625 L 46.03125 41.34375 L 45.3125 42.625 L 44.1875 42.3125 L 44.09375 42.25 C 43.683594 42.007813 43.164063 42.085938 42.84375 42.4375 C 41.765625 43.597656 40.375 44.417969 38.78125 44.78125 C 38.316406 44.886719 37.988281 45.304688 38 45.78125 L 38 45.875 L 37.71875 47 L 36.28125 47 L 36 45.875 L 36 45.78125 C 36.011719 45.304688 35.683594 44.886719 35.21875 44.78125 C 33.625 44.417969 32.234375 43.597656 31.15625 42.4375 C 30.835938 42.085938 30.316406 42.007813 29.90625 42.25 L 29.8125 42.3125 L 28.6875 42.625 L 27.96875 41.375 L 28.84375 40.5625 L 28.90625 40.53125 C 28.90625 40.519531 28.90625 40.511719 28.90625 40.5 C 29.289063 40.265625 29.464844 39.804688 29.34375 39.375 C 29.113281 38.628906 29 37.824219 29 37 C 29 36.175781 29.113281 35.371094 29.34375 34.625 C 29.464844 34.195313 29.289063 33.734375 28.90625 33.5 C 28.90625 33.488281 28.90625 33.480469 28.90625 33.46875 L 28.84375 33.4375 L 27.96875 32.625 L 28.6875 31.375 L 29.8125 31.6875 L 29.90625 31.75 C 30.316406 31.992188 30.835938 31.914063 31.15625 31.5625 C 32.234375 30.402344 33.625 29.582031 35.21875 29.21875 C 35.683594 29.113281 36.011719 28.695313 36 28.21875 L 36 28.125 Z M 14 29 C 15.667969 29 17 30.332031 17 32 C 17 33.667969 15.667969 35 14 35 C 12.332031 35 11 33.667969 11 32 C 11 30.332031 12.332031 29 14 29 Z M 37 32 C 34.25 32 32 34.25 32 37 C 32 39.75 34.25 42 37 42 C 39.75 42 42 39.75 42 37 C 42 34.25 39.75 32 37 32 Z M 37 34 C 38.667969 34 40 35.332031 40 37 C 40 38.667969 38.667969 40 37 40 C 35.332031 40 34 38.667969 34 37 C 34 35.332031 35.332031 34 37 34 Z"/></svg>