<svg fill="#3498db" xmlns="http://www.w3.org/2000/svg" viewBox="0 0 50 50" width="500px" height="500px"><path d="M 10 4 L 10 6 L 40 6 L 40 4 Z M 7 8 L 7 10 L 43 10 L 43 8 Z M 5 12 L 5 40 L 45 40 L 45 12 Z M 7 14 L 43 14 L 43 38 L 7 38 Z M 9 16 L 9 18 L 12 18 L 12 16 Z M 38 16 L 38 18 L 41 18 L 41 16 Z M 9 22 L 9 24 L 12 24 L 12 22 Z M 38 22 L 38 24 L 41 24 L 41 22 Z M 9 28 L 9 30 L 12 30 L 12 28 Z M 38 28 L 38 30 L 41 30 L 41 28 Z M 9 34 L 9 36 L 12 36 L 12 34 Z M 38 34 L 38 36 L 41 36 L 41 34 Z M 3 42 L 3 46 L 47 46 L 47 42 L 45 42 L 45 44 L 5 44 L 5 42 Z"/></svg>