<svg fill="#3498db" xmlns="http://www.w3.org/2000/svg"  viewBox="0 0 50 50" width="500px" height="500px"><path d="M 0.875 2 C 0.371094 2.0625 -0.00390625 2.492188 0 3 L 0 41 C -0.00390625 41.386719 0.214844 41.738281 0.5625 41.90625 L 12.5625 47.90625 C 12.839844 48.039063 13.160156 48.039063 13.4375 47.90625 L 25.03125 42.09375 L 37.59375 47.90625 C 37.875 48.03125 38.199219 48.019531 38.46875 47.875 L 49.46875 41.875 C 49.792969 41.703125 49.996094 41.367188 50 41 L 50 3 C 49.996094 2.652344 49.8125 2.328125 49.511719 2.148438 C 49.210938 1.96875 48.839844 1.960938 48.53125 2.125 L 37.96875 7.875 L 25.40625 2.09375 C 25.140625 1.96875 24.828125 1.96875 24.5625 2.09375 L 13 7.875 L 1.4375 2.09375 C 1.261719 2.007813 1.066406 1.976563 0.875 2 Z M 26 4.53125 L 37 9.625 L 37 45.4375 L 26 40.375 Z M 2 4.625 L 12 9.625 L 12 45.375 L 2 40.375 Z M 24 4.625 L 24 40.375 L 14 45.375 L 14 9.625 Z M 48 4.6875 L 48 40.40625 L 39 45.3125 L 39 9.59375 Z"/></svg>