<svg fill="#3498db" xmlns="http://www.w3.org/2000/svg" viewBox="0 0 50 50" width="500px" height="500px"><path d="M 24.0625 -0.1875 L 23.53125 0.15625 C 22.1875 0.992188 18.863281 3.566406 17.375 8.5625 C 17.1875 7.253906 16.984375 5.894531 17.09375 4.75 L 17.25 3.09375 L 15.71875 3.71875 C 15.71875 3.71875 7.375 7.316406 7.375 16.5 C 7.375 20.433594 9.332031 23.792969 12.375 26.09375 C 14.472656 27.679688 17.089844 28.714844 20 29.21875 L 20 37.21875 C 14.167969 27.019531 1.5 22.40625 1.5 22.40625 C 1.339844 22.34375 1.167969 22.320313 1 22.34375 C 0.554688 22.410156 0.207031 22.769531 0.15625 23.21875 C 0.15625 23.21875 -0.730469 30.871094 1.71875 37.5 C 4.480469 44.972656 12.359375 49.863281 20.71875 49.96875 C 20.878906 50.019531 21.050781 50.03125 21.21875 50 C 21.25 50 21.28125 50 21.3125 50 C 21.3125 50 25.148438 50.042969 26.875 50 C 31.109375 49.894531 37.453125 48.613281 42.5 44.59375 C 47.546875 40.574219 51.136719 33.726563 49.65625 23.09375 C 49.589844 22.566406 49.125 22.179688 48.59375 22.21875 C 48.574219 22.226563 48.550781 22.238281 48.53125 22.25 C 43.765625 22.953125 38.960938 25.855469 34.90625 29.25 C 32.164063 31.546875 29.773438 34.050781 28 36.3125 L 28 29.25 C 30.964844 28.75 33.648438 27.703125 35.78125 26.09375 C 38.824219 23.792969 40.78125 20.433594 40.78125 16.5 C 40.78125 7.316406 32.4375 3.71875 32.4375 3.71875 L 30.90625 3.09375 L 31.0625 4.75 C 31.171875 5.894531 30.96875 7.253906 30.78125 8.5625 C 29.289063 3.542969 25.925781 0.976563 24.59375 0.15625 Z M 24.0625 2.21875 C 25.804688 3.398438 29.609375 6.675781 29.53125 13.90625 L 29.5 18.8125 L 31.46875 14.3125 C 32.246094 12.53125 32.890625 9.328125 32.9375 6.28125 C 34.976563 7.539063 38.78125 10.640625 38.78125 16.5 C 38.78125 19.785156 37.195313 22.507813 34.5625 24.5 C 32.585938 25.992188 30.003906 27.039063 27.09375 27.46875 C 27.0625 27.46875 27.03125 27.46875 27 27.46875 C 26.9375 27.472656 26.875 27.484375 26.8125 27.5 C 26.78125 27.503906 26.75 27.496094 26.71875 27.5 C 25.863281 27.609375 24.996094 27.6875 24.09375 27.6875 C 24.089844 27.6875 24.0625 27.6875 24.0625 27.6875 C 23.117188 27.6875 22.207031 27.621094 21.3125 27.5 C 21.238281 27.488281 21.167969 27.480469 21.09375 27.46875 C 21.082031 27.46875 21.074219 27.46875 21.0625 27.46875 C 21.042969 27.464844 21.019531 27.472656 21 27.46875 C 18.117188 27.035156 15.554688 25.984375 13.59375 24.5 C 10.960938 22.507813 9.375 19.78125 9.375 16.5 C 9.375 10.640625 13.179688 7.539063 15.21875 6.28125 C 15.265625 9.328125 15.910156 12.53125 16.6875 14.3125 L 18.65625 18.8125 L 18.625 13.90625 C 18.546875 6.691406 22.28125 3.433594 24.0625 2.21875 Z M 47.71875 24.5 C 48.699219 33.851563 45.621094 39.546875 41.25 43.03125 C 36.691406 46.664063 30.683594 47.902344 26.8125 48 C 25.710938 48.027344 24.324219 48.007813 23.0625 48 L 27.625 40.375 C 27.636719 40.363281 27.644531 40.355469 27.65625 40.34375 C 27.695313 40.277344 27.738281 40.195313 27.78125 40.125 C 27.816406 40.085938 27.847656 40.042969 27.875 40 C 27.894531 39.96875 27.917969 39.9375 27.9375 39.90625 C 27.9375 39.894531 27.9375 39.886719 27.9375 39.875 C 29.496094 37.375 32.527344 33.84375 36.1875 30.78125 C 39.742188 27.808594 43.859375 25.378906 47.71875 24.5 Z M 2.09375 24.875 C 5.226563 26.234375 16.753906 31.773438 20 42.1875 L 20 47.9375 C 12.691406 47.566406 5.941406 43.164063 3.59375 36.8125 C 1.734375 31.78125 1.96875 26.683594 2.09375 24.875 Z M 22 29.46875 C 22.433594 29.507813 22.871094 29.546875 23.3125 29.5625 L 23.34375 29.6875 L 24.78125 29.6875 L 24.8125 29.59375 C 25.214844 29.582031 25.605469 29.5625 26 29.53125 L 26 39.1875 C 25.96875 39.238281 25.933594 39.292969 25.90625 39.34375 L 22 45.875 L 22 42.15625 C 22.015625 42.050781 22.015625 41.949219 22 41.84375 Z"/></svg>