<svg fill="#3498db" xmlns="http://www.w3.org/2000/svg" viewBox="0 0 50 50" width="500px" height="500px"><path d="M 37 12 C 39.804688 12 42 14.195313 42 17 L 42 33 L 44.546875 33 L 41 36.988281 L 37.453125 33 L 40 33 L 40 17 C 40 15.289063 38.710938 14 37 14 L 19.902344 14 L 18.136719 12 L 37 12 M 9 13.011719 L 12.546875 17 L 10 17 L 10 33 C 10 34.710938 11.289063 36 13 36 L 30.097656 36 L 31.863281 38 L 13 38 C 10.195313 38 8 35.804688 8 33 L 8 17 L 5.453125 17 L 9 13.011719 M 37 10 L 13.699219 10 L 19 16 L 37 16 C 37.601563 16 38 16.398438 38 17 L 38 31 L 33 31 L 41 40 L 49 31 L 44 31 L 44 17 C 44 13.101563 40.898438 10 37 10 Z M 9 10 L 1 19 L 6 19 L 6 33 C 6 36.898438 9.101563 40 13 40 L 36.300781 40 L 31 34 L 13 34 C 12.398438 34 12 33.601563 12 33 L 12 19 L 17 19 Z"/></svg>