<svg fill="#3498db" xmlns="http://www.w3.org/2000/svg" viewBox="0 0 50 50" width="500px" height="500px"><path d="M 25 2 C 12.308594 2 2 12.308594 2 25 C 2 37.691406 12.308594 48 25 48 C 37.691406 48 48 37.691406 48 25 C 48 12.308594 37.691406 2 25 2 Z M 25 4 C 36.609375 4 46 13.390625 46 25 C 46 36.609375 36.609375 46 25 46 C 13.390625 46 4 36.609375 4 25 C 4 13.390625 13.390625 4 25 4 Z M 28.90625 15.96875 C 28.863281 15.976563 28.820313 15.988281 28.78125 16 C 28.40625 16.066406 28.105469 16.339844 28 16.703125 C 27.894531 17.070313 28.003906 17.460938 28.28125 17.71875 L 34.5625 24 L 13 24 C 12.96875 24 12.9375 24 12.90625 24 C 12.355469 24.027344 11.925781 24.496094 11.953125 25.046875 C 11.980469 25.597656 12.449219 26.027344 13 26 L 34.5625 26 L 28.28125 32.28125 C 27.882813 32.679688 27.882813 33.320313 28.28125 33.71875 C 28.679688 34.117188 29.320313 34.117188 29.71875 33.71875 L 37.5625 25.84375 C 37.617188 25.808594 37.671875 25.765625 37.71875 25.71875 C 37.742188 25.6875 37.761719 25.65625 37.78125 25.625 C 37.804688 25.605469 37.824219 25.585938 37.84375 25.5625 C 37.882813 25.503906 37.914063 25.441406 37.9375 25.375 C 37.949219 25.355469 37.960938 25.332031 37.96875 25.3125 C 37.96875 25.300781 37.96875 25.292969 37.96875 25.28125 C 37.980469 25.25 37.992188 25.21875 38 25.1875 C 38.015625 25.082031 38.015625 24.980469 38 24.875 C 38 24.855469 38 24.832031 38 24.8125 C 38 24.800781 38 24.792969 38 24.78125 C 37.992188 24.761719 37.980469 24.738281 37.96875 24.71875 C 37.96875 24.707031 37.96875 24.699219 37.96875 24.6875 C 37.960938 24.667969 37.949219 24.644531 37.9375 24.625 C 37.9375 24.613281 37.9375 24.605469 37.9375 24.59375 C 37.929688 24.574219 37.917969 24.550781 37.90625 24.53125 C 37.894531 24.519531 37.886719 24.511719 37.875 24.5 C 37.867188 24.480469 37.855469 24.457031 37.84375 24.4375 C 37.808594 24.382813 37.765625 24.328125 37.71875 24.28125 L 37.6875 24.28125 C 37.667969 24.257813 37.648438 24.238281 37.625 24.21875 L 29.71875 16.28125 C 29.511719 16.058594 29.210938 15.945313 28.90625 15.96875 Z"/></svg>