<svg fill="#3498db" xmlns="http://www.w3.org/2000/svg" viewBox="0 0 50 50" width="500px" height="500px"><path d="M 9.8125 7 C 9.335938 7.089844 8.992188 7.511719 9 8 C 9 9.09375 8.066406 9.78125 7.71875 10 L 7 10 C 6.96875 10 6.9375 10 6.90625 10 C 6.875 10 6.84375 10 6.8125 10 C 6.335938 10.089844 5.992188 10.511719 6 11 L 6 15 C 6 15.550781 6.449219 16 7 16 L 7 20 C 6.996094 20.175781 7.039063 20.347656 7.125 20.5 L 7.5 21.15625 C 6.53125 21.332031 5.632813 21.480469 4.90625 21.625 C 4.894531 21.625 4.886719 21.625 4.875 21.625 C 3.132813 21.996094 1.769531 23.246094 1.15625 24.84375 C 1.15625 24.855469 1.15625 24.863281 1.15625 24.875 C 0.636719 26.4375 0 28.839844 0 31.5 C 0 33.796875 0.410156 35.875 0.9375 37.46875 C 0.941406 37.484375 0.933594 37.515625 0.9375 37.53125 L 0.96875 37.53125 C 1.621094 39.632813 3.578125 41 5.6875 41 L 11 41 L 11 42.40625 C 11 43.339844 11.515625 44.152344 12.21875 44.59375 C 12.921875 45.035156 13.820313 45.148438 14.65625 44.84375 C 14.675781 44.835938 14.699219 44.824219 14.71875 44.8125 C 15.730469 44.351563 16.90625 44 18 44 C 19.09375 44 20.269531 44.351563 21.28125 44.8125 C 21.300781 44.824219 21.324219 44.835938 21.34375 44.84375 C 22.179688 45.148438 23.078125 45.035156 23.78125 44.59375 C 24.484375 44.152344 25 43.339844 25 42.40625 L 25 41 L 44 41 C 46.355469 41 48.375 39.375 48.875 37.125 C 49.382813 34.789063 50 31.308594 50 27.5 C 50 25.117188 49.886719 22.832031 49.6875 20.90625 C 49.683594 20.871094 49.691406 20.816406 49.6875 20.78125 L 49.65625 20.78125 C 49.636719 20.316406 49.585938 19.910156 49.5 19.5625 C 49.496094 19.527344 49.472656 19.503906 49.46875 19.46875 C 48.949219 16.316406 46.160156 14 43 14 L 38.40625 14 C 34.871094 14 32 16.871094 32 20.40625 C 32 21.234375 31.464844 21.710938 30.625 21.53125 C 30.613281 21.53125 30.605469 21.53125 30.59375 21.53125 C 29.996094 21.410156 29.273438 21.257813 28.53125 21.125 L 28.875 20.5 C 28.960938 20.347656 29.003906 20.175781 29 20 L 29 16 C 29.550781 16 30 15.550781 30 15 L 30 11 C 30 10.449219 29.550781 10 29 10 L 28.28125 10 C 27.933594 9.78125 27 9.09375 27 8 C 27 7.449219 26.550781 7 26 7 L 10 7 C 9.96875 7 9.9375 7 9.90625 7 C 9.875 7 9.84375 7 9.8125 7 Z M 10.75 9 L 25.25 9 C 25.355469 9.375 25.511719 9.699219 25.6875 10 L 10.3125 10 C 10.488281 9.699219 10.644531 9.375 10.75 9 Z M 8 12 L 28 12 L 28 13.96875 C 27.925781 13.972656 27.851563 13.980469 27.78125 14 L 8.1875 14 C 8.125 13.984375 8.0625 13.972656 8 13.96875 Z M 9 16 L 27 16 L 27 19.71875 L 26.40625 20.78125 C 23.75 20.359375 20.726563 20 18 20 C 15.28125 20 12.265625 20.390625 9.59375 20.8125 L 9 19.71875 Z M 38.40625 16 L 43 16 C 45.207031 16 47.175781 17.648438 47.5 19.84375 C 47.507813 19.875 47.519531 19.90625 47.53125 19.9375 C 47.632813 20.335938 47.6875 20.671875 47.6875 20.90625 C 47.695313 20.9375 47.707031 20.96875 47.71875 21 C 47.914063 22.851563 48 25.128906 48 27.5 C 48 31.09375 47.429688 34.425781 46.9375 36.6875 C 46.636719 38.035156 45.445313 39 44 39 L 25 39 C 25 38.449219 24.550781 38 24 38 L 12 38 C 11.96875 38 11.9375 38 11.90625 38 C 11.875 38 11.84375 38 11.8125 38 C 11.335938 38.089844 10.992188 38.511719 11 39 L 5.6875 39 C 4.417969 39 3.214844 38.164063 2.84375 36.90625 C 2.84375 36.894531 2.84375 36.886719 2.84375 36.875 C 2.378906 35.476563 2 33.578125 2 31.5 C 2 29.160156 2.582031 26.96875 3.0625 25.53125 C 3.449219 24.5625 4.257813 23.828125 5.28125 23.59375 C 8.261719 22.996094 13.75 22 18 22 C 22.046875 22 27.214844 22.875 30.1875 23.46875 C 30.195313 23.46875 30.210938 23.46875 30.21875 23.46875 C 32.167969 23.867188 34 22.367188 34 20.40625 C 34 17.941406 35.941406 16 38.40625 16 Z M 40.5 18 C 39.121094 18 38 18.894531 38 20 C 38 21.105469 39.121094 22 40.5 22 C 41.878906 22 43 21.105469 43 20 C 43 18.894531 41.878906 18 40.5 18 Z M 40 25 C 37.035156 25 34.570313 27.164063 34.09375 30 L 32 30 L 32 32 L 34.09375 32 C 34.570313 34.835938 37.035156 37 40 37 C 43.300781 37 46 34.300781 46 31 C 46 27.699219 43.300781 25 40 25 Z M 15.90625 25.96875 C 15.875 25.976563 15.84375 25.988281 15.8125 26 L 13 26 C 12.96875 26 12.9375 26 12.90625 26 C 12.875 26 12.84375 26 12.8125 26 C 12.335938 26.089844 11.992188 26.511719 12 27 L 12 35 C 12 35.550781 12.449219 36 13 36 L 23 36 C 23.550781 36 24 35.550781 24 35 L 24 27 C 24 26.449219 23.550781 26 23 26 L 20.21875 26 C 20.117188 25.972656 20.011719 25.960938 19.90625 25.96875 C 19.875 25.976563 19.84375 25.988281 19.8125 26 L 16.21875 26 C 16.117188 25.972656 16.011719 25.960938 15.90625 25.96875 Z M 40 27 C 42.222656 27 44 28.777344 44 31 C 44 33.222656 42.222656 35 40 35 C 37.777344 35 36 33.222656 36 31 C 36 28.777344 37.777344 27 40 27 Z M 14 28 L 15 28 L 15 34 L 14 34 Z M 17 28 L 19 28 L 19 34 L 17 34 Z M 21 28 L 22 28 L 22 34 L 21 34 Z M 40 28 C 38.355469 28 37 29.355469 37 31 C 37 32.644531 38.355469 34 40 34 C 41.644531 34 43 32.644531 43 31 C 43 29.355469 41.644531 28 40 28 Z M 40 30 C 40.5625 30 41 30.4375 41 31 C 41 31.5625 40.5625 32 40 32 C 39.4375 32 39 31.5625 39 31 C 39 30.4375 39.4375 30 40 30 Z M 13.09375 40 L 23 40 C 22.992188 40.074219 22.992188 40.144531 23 40.21875 L 23 42.40625 C 23 42.671875 22.890625 42.796875 22.71875 42.90625 C 22.546875 43.015625 22.296875 43.066406 22.03125 42.96875 C 20.863281 42.445313 19.46875 42 18 42 C 16.53125 42 15.136719 42.445313 13.96875 42.96875 C 13.703125 43.066406 13.453125 43.015625 13.28125 42.90625 C 13.109375 42.796875 13 42.671875 13 42.40625 L 13 40.46875 C 13.070313 40.324219 13.101563 40.160156 13.09375 40 Z"/></svg>