<svg fill="#3498db" xmlns="http://www.w3.org/2000/svg" viewBox="0 0 50 50" width="500px" height="500px"><path d="M 4 8 L 4 30.792969 C 3.960938 30.949219 3.960938 31.109375 4 31.265625 L 4 42 L 26 42 C 26.359375 42.003906 26.695313 41.816406 26.878906 41.503906 C 27.058594 41.191406 27.058594 40.808594 26.878906 40.496094 C 26.695313 40.183594 26.359375 39.996094 26 40 L 6 40 L 6 31.4375 L 17.941406 20.414063 L 27.617188 30.96875 L 25.292969 33.292969 C 25.03125 33.542969 24.925781 33.917969 25.019531 34.265625 C 25.109375 34.617188 25.382813 34.890625 25.734375 34.980469 C 26.082031 35.074219 26.457031 34.96875 26.707031 34.707031 L 29.515625 31.894531 C 29.675781 31.808594 29.804688 31.675781 29.894531 31.519531 L 34 27.414063 L 37.292969 30.707031 C 37.542969 30.96875 37.917969 31.074219 38.265625 30.980469 C 38.617188 30.890625 38.890625 30.617188 38.980469 30.265625 C 39.074219 29.917969 38.96875 29.542969 38.707031 29.292969 L 34.707031 25.292969 C 34.515625 25.101563 34.253906 24.996094 33.984375 25 C 33.722656 25.003906 33.476563 25.109375 33.292969 25.292969 L 29.03125 29.554688 L 18.734375 18.324219 C 18.554688 18.125 18.300781 18.007813 18.03125 18 C 17.769531 17.992188 17.515625 18.089844 17.324219 18.265625 L 6 28.71875 L 6 10 L 44 10 L 44 27 C 43.996094 27.359375 44.183594 27.695313 44.496094 27.878906 C 44.808594 28.058594 45.191406 28.058594 45.503906 27.878906 C 45.816406 27.695313 46.003906 27.359375 46 27 L 46 8 Z M 35 15 C 33.34375 15 32 16.34375 32 18 C 32 19.65625 33.34375 21 35 21 C 36.65625 21 38 19.65625 38 18 C 38 16.34375 36.65625 15 35 15 Z M 44 33 C 43.285156 33 42.628906 33.382813 42.269531 34 L 32 34 C 31.640625 33.996094 31.304688 34.183594 31.121094 34.496094 C 30.941406 34.808594 30.941406 35.191406 31.121094 35.503906 C 31.304688 35.816406 31.640625 36.003906 32 36 L 42.269531 36 C 42.625 36.617188 43.285156 37 44 37 C 44.714844 37 45.371094 36.617188 45.730469 36 L 49 36 C 49.359375 36.003906 49.695313 35.816406 49.878906 35.503906 C 50.058594 35.191406 50.058594 34.808594 49.878906 34.496094 C 49.695313 34.183594 49.359375 33.996094 49 34 L 45.730469 34 C 45.375 33.382813 44.714844 33 44 33 Z M 38 39 C 37.285156 39 36.628906 39.382813 36.269531 40 L 32 40 C 31.640625 39.996094 31.304688 40.183594 31.121094 40.496094 C 30.941406 40.808594 30.941406 41.191406 31.121094 41.503906 C 31.304688 41.816406 31.640625 42.003906 32 42 L 36.269531 42 C 36.625 42.617188 37.285156 43 38 43 C 38.714844 43 39.371094 42.617188 39.730469 42 L 49 42 C 49.359375 42.003906 49.695313 41.816406 49.878906 41.503906 C 50.058594 41.191406 50.058594 40.808594 49.878906 40.496094 C 49.695313 40.183594 49.359375 39.996094 49 40 L 39.730469 40 C 39.375 39.382813 38.714844 39 38 39 Z M 44 45 C 43.285156 45 42.625 45.382813 42.269531 46 L 32 46 C 31.640625 45.996094 31.304688 46.183594 31.121094 46.496094 C 30.941406 46.808594 30.941406 47.191406 31.121094 47.503906 C 31.304688 47.816406 31.640625 48.003906 32 48 L 42.269531 48 C 42.628906 48.617188 43.285156 49 44 49 C 44.714844 49 45.375 48.617188 45.730469 48 L 49 48 C 49.359375 48.003906 49.695313 47.816406 49.878906 47.503906 C 50.058594 47.191406 50.058594 46.808594 49.878906 46.496094 C 49.695313 46.183594 49.359375 45.996094 49 46 L 45.730469 46 C 45.371094 45.382813 44.714844 45 44 45 Z"/></svg>