<svg fill="#3498db" xmlns="http://www.w3.org/2000/svg" viewBox="0 0 50 50" width="500px" height="500px"><path d="M 25 1.8125 C 15.265625 1.8125 7.40625 9.671875 7.40625 19.40625 C 7.40625 31.179688 18.894531 42.324219 24.28125 47.8125 L 25 48.53125 L 25.71875 47.8125 C 31.207031 42.226563 42.59375 31.171875 42.59375 19.40625 C 42.59375 9.765625 34.742188 1.8125 25 1.8125 Z M 25 3.8125 C 33.65625 3.8125 40.59375 10.847656 40.59375 19.40625 C 40.59375 29.457031 30.664063 39.878906 25 45.65625 C 19.417969 39.960938 9.40625 29.449219 9.40625 19.40625 C 9.40625 10.742188 16.335938 3.8125 25 3.8125 Z M 22.59375 11 C 21.859375 11 21.132813 11.519531 20.8125 12.15625 L 20.78125 12.1875 L 20.375 13 L 18 13 C 16.355469 13 15 14.355469 15 16 L 15 24 C 15 25.644531 16.355469 27 18 27 L 32 27 C 33.644531 27 35 25.644531 35 24 L 35 16 C 35 14.355469 33.644531 13 32 13 L 29.625 13 L 29.1875 12.15625 L 29.125 12.03125 C 28.839844 11.601563 28.304688 11 27.40625 11 Z M 22.625 13 L 27.40625 13 C 27.375 13 27.386719 13.042969 27.40625 13.0625 L 27.46875 13.15625 L 28.09375 14.4375 L 28.375 15 L 32 15 C 32.554688 15 33 15.445313 33 16 L 33 24 C 33 24.554688 32.554688 25 32 25 L 18 25 C 17.445313 25 17 24.554688 17 24 L 17 16 C 17 15.445313 17.445313 15 18 15 L 21.625 15 L 22.59375 13.0625 C 22.613281 13.023438 22.625 13.011719 22.625 13 Z M 25 16 C 22.800781 16 21 17.800781 21 20 C 21 22.199219 22.800781 24 25 24 C 27.199219 24 29 22.199219 29 20 C 29 17.800781 27.199219 16 25 16 Z M 25 18 C 26.117188 18 27 18.882813 27 20 C 27 21.117188 26.117188 22 25 22 C 23.882813 22 23 21.117188 23 20 C 23 18.882813 23.882813 18 25 18 Z"/></svg>