<svg fill="#3498db" xmlns="http://www.w3.org/2000/svg" viewBox="0 0 50 50" width="500px" height="500px"><path d="M 12 3 C 7.042969 3 3 7.042969 3 12 C 3 16.957031 7.042969 21 12 21 C 16.957031 21 21 16.957031 21 12 C 21 7.042969 16.957031 3 12 3 Z M 30.8125 4 C 30.335938 4.089844 29.992188 4.511719 30 5 L 30 19 C 30 19.550781 30.449219 20 31 20 L 45 20 C 45.550781 20 46 19.550781 46 19 L 46 5 C 46 4.449219 45.550781 4 45 4 L 31 4 C 30.96875 4 30.9375 4 30.90625 4 C 30.875 4 30.84375 4 30.8125 4 Z M 12 5 C 15.878906 5 19 8.121094 19 12 C 19 15.878906 15.878906 19 12 19 C 8.121094 19 5 15.878906 5 12 C 5 8.121094 8.121094 5 12 5 Z M 32 6 L 44 6 L 44 18 L 32 18 Z M 12 29 C 7.042969 29 3 33.042969 3 38 C 3 42.957031 7.042969 47 12 47 C 16.957031 47 21 42.957031 21 38 C 21 33.042969 16.957031 29 12 29 Z M 38 29 C 33.042969 29 29 33.042969 29 38 C 29 42.957031 33.042969 47 38 47 C 42.957031 47 47 42.957031 47 38 C 47 33.042969 42.957031 29 38 29 Z M 12 31 C 15.878906 31 19 34.121094 19 38 C 19 41.878906 15.878906 45 12 45 C 8.121094 45 5 41.878906 5 38 C 5 34.121094 8.121094 31 12 31 Z M 38 31 C 41.878906 31 45 34.121094 45 38 C 45 41.878906 41.878906 45 38 45 C 34.121094 45 31 41.878906 31 38 C 31 34.121094 34.121094 31 38 31 Z"/></svg>