<svg fill="#3498db" xmlns="http://www.w3.org/2000/svg" viewBox="0 0 50 50" width="500px" height="500px"><path d="M 12 2 C 9.25 2 7 4.25 7 7 L 7 33 L 3 33 L 3 38 C 3 40.75 5.25 43 8 43 L 18 43 L 19 41 L 8 41 C 6.332031 41 5 39.667969 5 38 L 5 35 L 22 35 L 23 33 L 9 33 L 9 7 C 9 5.332031 10.332031 4 12 4 L 34.109375 4 C 33.457031 4.84375 33 5.855469 33 7 L 33 8.832031 C 32.980469 8.941406 32.980469 9.050781 33 9.15625 L 33 13 L 35 13 L 35 10 L 43.085938 10 L 43.085938 7 C 43.085938 4.25 40.835938 2 38.085938 2 Z M 38 4 L 38.085938 4 C 39.753906 4 41.085938 5.332031 41.085938 7 L 41.085938 8 L 35 8 L 35 7 C 35 5.332031 36.332031 4 38 4 Z M 13 10 C 12.449219 10 12 10.449219 12 11 C 12 11.550781 12.449219 12 13 12 C 13.550781 12 14 11.550781 14 11 C 14 10.449219 13.550781 10 13 10 Z M 16 10 C 15.449219 10 15 10.449219 15 11 C 15 11.550781 15.449219 12 16 12 C 16.550781 12 17 11.550781 17 11 C 17 10.449219 16.550781 10 16 10 Z M 19 10 C 18.449219 10 18 10.449219 18 11 C 18 11.550781 18.449219 12 19 12 C 19.550781 12 20 11.550781 20 11 C 20 10.449219 19.550781 10 19 10 Z M 22 10 C 21.449219 10 21 10.449219 21 11 C 21 11.550781 21.449219 12 22 12 C 22.550781 12 23 11.550781 23 11 C 23 10.449219 22.550781 10 22 10 Z M 24 10 L 24 11 C 24 17.085938 19.085938 22 13 22 L 12 22 L 12 24 L 13 24 C 20.167969 24 26 18.167969 26 11 L 26 10 Z M 28 10 C 27.449219 10 27 10.449219 27 11 C 27 11.550781 27.449219 12 28 12 C 28.550781 12 29 11.550781 29 11 C 29 10.449219 28.550781 10 28 10 Z M 13 13 C 12.449219 13 12 13.449219 12 14 C 12 14.550781 12.449219 15 13 15 C 13.550781 15 14 14.550781 14 14 C 14 13.449219 13.550781 13 13 13 Z M 17 14 C 16.449219 14 16 14.449219 16 15 C 16 15.550781 16.449219 16 17 16 C 17.550781 16 18 15.550781 18 15 C 18 14.449219 17.550781 14 17 14 Z M 29.984375 14.984375 C 29.9375 14.988281 29.886719 14.992188 29.839844 15 L 29 15 C 28.640625 14.996094 28.304688 15.183594 28.121094 15.496094 C 27.941406 15.808594 27.941406 16.191406 28.121094 16.503906 C 28.304688 16.816406 28.640625 17.003906 29 17 L 29 24.765625 L 26.171875 30.421875 C 26.109375 30.507813 26.0625 30.601563 26.03125 30.699219 L 20.449219 41.871094 C 20.152344 42.457031 20 43.105469 20 43.765625 L 20 44.765625 L 20.203125 44.765625 C 20.664063 46.601563 22.261719 48 24.234375 48 L 43.765625 48 C 45.738281 48 47.335938 46.601563 47.796875 44.765625 L 48 44.765625 L 48 43.765625 C 48 43.105469 47.847656 42.457031 47.550781 41.871094 L 41.96875 30.699219 C 41.933594 30.601563 41.890625 30.507813 41.828125 30.421875 L 39 24.765625 L 39 17 C 39.359375 17.003906 39.695313 16.816406 39.878906 16.503906 C 40.058594 16.191406 40.058594 15.808594 39.878906 15.496094 C 39.695313 15.183594 39.359375 14.996094 39 15 L 38.167969 15 C 38.058594 14.980469 37.949219 14.980469 37.84375 15 L 30.15625 15 C 30.097656 14.992188 30.042969 14.984375 29.984375 14.984375 Z M 13 16 C 12.449219 16 12 16.449219 12 17 C 12 17.550781 12.449219 18 13 18 C 13.550781 18 14 17.550781 14 17 C 14 16.449219 13.550781 16 13 16 Z M 20 16 C 19.449219 16 19 16.449219 19 17 C 19 17.550781 19.449219 18 20 18 C 20.550781 18 21 17.550781 21 17 C 21 16.449219 20.550781 16 20 16 Z M 31 17 L 37 17 L 37 25.234375 L 39.382813 30 L 28.617188 30 L 31 25.234375 Z M 13 19 C 12.449219 19 12 19.449219 12 20 C 12 20.550781 12.449219 21 13 21 C 13.550781 21 14 20.550781 14 20 C 14 19.449219 13.550781 19 13 19 Z M 25 20 C 24.449219 20 24 20.449219 24 21 C 24 21.550781 24.449219 22 25 22 C 25.550781 22 26 21.550781 26 21 C 26 20.449219 25.550781 20 25 20 Z M 13 25 C 12.449219 25 12 25.449219 12 26 C 12 26.550781 12.449219 27 13 27 C 13.550781 27 14 26.550781 14 26 C 14 25.449219 13.550781 25 13 25 Z M 13 28 C 12.449219 28 12 28.449219 12 29 C 12 29.550781 12.449219 30 13 30 C 13.550781 30 14 29.550781 14 29 C 14 28.449219 13.550781 28 13 28 Z M 27.617188 32 L 40.382813 32 L 45.765625 42.765625 C 45.917969 43.074219 46 43.417969 46 43.765625 C 46 45.011719 45.011719 46 43.765625 46 L 24.234375 46 C 22.988281 46 22 45.011719 22 43.765625 C 22 43.417969 22.082031 43.074219 22.234375 42.765625 Z M 32 36 C 31.449219 36 31 36.449219 31 37 C 31 37.550781 31.449219 38 32 38 C 32.550781 38 33 37.550781 33 37 C 33 36.449219 32.550781 36 32 36 Z M 37.5 40 C 36.671875 40 36 40.671875 36 41.5 C 36 42.328125 36.671875 43 37.5 43 C 38.328125 43 39 42.328125 39 41.5 C 39 40.671875 38.328125 40 37.5 40 Z"/></svg>