<svg fill="#3498db" xmlns="http://www.w3.org/2000/svg"  viewBox="0 0 50 50" width="500px" height="500px"><path d="M 25 2 C 14.394531 2 5.445313 9.21875 2.796875 19 L 4.882813 19 C 5.632813 16.496094 6.847656 14.199219 8.40625 12.183594 C 10.113281 13.144531 12.089844 13.949219 14.277344 14.566406 C 13.910156 15.96875 13.609375 17.445313 13.398438 19 L 15.4375 19 C 15.640625 17.625 15.917969 16.3125 16.246094 15.0625 C 18.65625 15.59375 21.261719 15.910156 24 15.96875 L 24 19 L 26 19 L 26 15.96875 C 28.738281 15.910156 31.34375 15.597656 33.753906 15.0625 C 34.082031 16.3125 34.359375 17.625 34.5625 19 L 36.601563 19 C 36.390625 17.445313 36.089844 15.96875 35.722656 14.566406 C 37.910156 13.949219 39.886719 13.144531 41.59375 12.183594 C 43.152344 14.199219 44.367188 16.496094 45.113281 19 L 47.203125 19 C 44.554688 9.21875 35.605469 2 25 2 Z M 24 4.121094 L 24 13.96875 C 21.457031 13.910156 19.039063 13.617188 16.8125 13.132813 C 18.457031 8.214844 21.0625 4.769531 24 4.121094 Z M 26 4.121094 C 28.9375 4.769531 31.542969 8.214844 33.1875 13.132813 C 30.960938 13.617188 28.542969 13.910156 26 13.96875 Z M 19.132813 4.851563 C 17.371094 6.710938 15.898438 9.390625 14.835938 12.640625 C 12.925781 12.101563 11.199219 11.417969 9.722656 10.625 C 12.253906 7.933594 15.492188 5.917969 19.132813 4.851563 Z M 30.867188 4.851563 C 34.507813 5.917969 37.746094 7.933594 40.277344 10.625 C 38.800781 11.417969 37.074219 12.101563 35.164063 12.640625 C 34.101563 9.390625 32.628906 6.710938 30.867188 4.851563 Z M 3 21 L 5.539063 29 L 7.867188 29 L 9.984375 23.019531 L 12.101563 29 L 14.378906 29 L 16.964844 21 L 14.800781 21 L 13.167969 26.589844 L 11.300781 21 L 8.75 21 L 6.804688 26.496094 L 5.199219 21 Z M 18.015625 21 L 20.558594 29 L 22.890625 29 L 25 23.019531 L 27.121094 29 L 29.398438 29 L 31.984375 21 L 29.816406 21 L 28.1875 26.589844 L 26.320313 21 L 23.765625 21 L 21.820313 26.496094 L 20.21875 21 Z M 32.984375 21 L 35.53125 29 L 37.871094 29 L 39.992188 23.019531 L 42.121094 29 L 44.40625 29 L 47 21 L 44.828125 21 L 43.1875 26.589844 L 41.316406 21 L 38.753906 21 L 36.800781 26.496094 L 35.1875 21 Z M 2.796875 31 C 5.445313 40.78125 14.394531 48 25 48 C 35.605469 48 44.554688 40.78125 47.203125 31 L 45.113281 31 C 44.367188 33.503906 43.152344 35.800781 41.59375 37.816406 C 39.886719 36.855469 37.910156 36.050781 35.722656 35.433594 C 36.089844 34.03125 36.390625 32.554688 36.601563 31 L 34.5625 31 C 34.359375 32.375 34.082031 33.6875 33.753906 34.9375 C 31.34375 34.40625 28.738281 34.089844 26 34.03125 L 26 31 L 24 31 L 24 34.03125 C 21.261719 34.089844 18.65625 34.402344 16.246094 34.9375 C 15.917969 33.6875 15.640625 32.375 15.4375 31 L 13.398438 31 C 13.609375 32.554688 13.910156 34.03125 14.277344 35.433594 C 12.089844 36.050781 10.113281 36.855469 8.40625 37.816406 C 6.847656 35.800781 5.632813 33.503906 4.882813 31 Z M 24 36.03125 L 24 45.878906 C 21.0625 45.230469 18.457031 41.785156 16.8125 36.867188 C 19.039063 36.382813 21.457031 36.089844 24 36.03125 Z M 26 36.03125 C 28.542969 36.089844 30.960938 36.382813 33.1875 36.867188 C 31.542969 41.785156 28.9375 45.230469 26 45.878906 Z M 14.839844 37.359375 C 15.902344 40.609375 17.371094 43.289063 19.132813 45.144531 C 15.492188 44.082031 12.253906 42.066406 9.722656 39.375 C 11.199219 38.578125 12.925781 37.898438 14.839844 37.359375 Z M 35.164063 37.359375 C 37.074219 37.898438 38.800781 38.582031 40.277344 39.375 C 37.746094 42.066406 34.507813 44.082031 30.867188 45.144531 C 32.628906 43.289063 34.101563 40.609375 35.164063 37.359375 Z"/></svg>