<svg fill="#3498db" xmlns="http://www.w3.org/2000/svg" viewBox="0 0 50 50" width="500px" height="500px"><path d="M 9 4 C 6.2504839 4 4 6.2504839 4 9 L 4 41 C 4 43.749516 6.2504839 46 9 46 L 41 46 C 43.749516 46 46 43.749516 46 41 L 46 9 C 46 6.2504839 43.749516 4 41 4 L 9 4 z M 9 6 L 11 6 A 1 1 0 0 0 12 7 A 1 1 0 0 0 13 6 L 17 6 A 1 1 0 0 0 18 7 A 1 1 0 0 0 19 6 L 23 6 A 1 1 0 0 0 24 7 A 1 1 0 0 0 25 6 L 29 6 A 1 1 0 0 0 30 7 A 1 1 0 0 0 31 6 L 35 6 A 1 1 0 0 0 36 7 A 1 1 0 0 0 37 6 L 41 6 A 1 1 0 0 0 41.650391 6.9355469 L 39.935547 8.6503906 A 1 1 0 0 0 39 8 A 1 1 0 0 0 38 9 A 1 1 0 0 0 38.650391 9.9355469 L 36.935547 11.650391 A 1 1 0 0 0 36 11 A 1 1 0 0 0 35 12 A 1 1 0 0 0 35.650391 12.935547 L 34.154297 14.431641 C 33.188943 13.594337 32.106637 12.892197 30.939453 12.339844 A 1 1 0 0 0 31 12 A 1 1 0 0 0 30 11 A 1 1 0 0 0 29.076172 11.619141 C 27.785514 11.222671 26.419763 11 25 11 C 22.814741 11 20.752905 11.517504 18.908203 12.414062 A 1 1 0 0 0 19 12 A 1 1 0 0 0 18 11 A 1 1 0 0 0 17 12 A 1 1 0 0 0 17.845703 12.988281 C 17.130957 13.415642 16.457144 13.901616 15.832031 14.445312 A 1 1 0 0 0 15 14 A 1 1 0 0 0 14 15 A 1 1 0 0 0 14.445312 15.832031 C 13.901032 16.457816 13.414015 17.132054 12.986328 17.847656 A 1 1 0 0 0 12 17 A 1 1 0 0 0 11 18 A 1 1 0 0 0 12 19 A 1 1 0 0 0 12.412109 18.910156 C 11.516264 20.754266 11 22.815668 11 25 C 11 26.419763 11.222671 27.785514 11.619141 29.076172 A 1 1 0 0 0 11 30 A 1 1 0 0 0 12 31 A 1 1 0 0 0 12.339844 30.939453 C 12.892197 32.106637 13.594337 33.188943 14.431641 34.154297 L 12.935547 35.650391 A 1 1 0 0 0 12 35 A 1 1 0 0 0 11 36 A 1 1 0 0 0 11.650391 36.935547 L 9.9355469 38.650391 A 1 1 0 0 0 9 38 A 1 1 0 0 0 8 39 A 1 1 0 0 0 8.6503906 39.935547 L 6.9355469 41.650391 A 1 1 0 0 0 6 41 L 6 37 A 1 1 0 0 0 7 36 A 1 1 0 0 0 6 35 L 6 31 A 1 1 0 0 0 7 30 A 1 1 0 0 0 6 29 L 6 25 A 1 1 0 0 0 7 24 A 1 1 0 0 0 6 23 L 6 19 A 1 1 0 0 0 7 18 A 1 1 0 0 0 6 17 L 6 13 A 1 1 0 0 0 7 12 A 1 1 0 0 0 6 11 L 6 9 C 6 7.3315161 7.3315161 6 9 6 z M 43.703125 7.7109375 C 43.888384 8.1020171 44 8.5350724 44 9 L 44 41 C 44 42.668484 42.668484 44 41 44 L 9 44 C 8.5350724 44 8.1020171 43.888384 7.7109375 43.703125 L 15.845703 35.568359 C 18.302875 37.699599 21.499322 39 25 39 C 32.720142 39 39 32.720142 39 25 C 39 21.499322 37.699599 18.302875 35.568359 15.845703 L 43.703125 7.7109375 z M 9 8 A 1 1 0 0 0 8 9 A 1 1 0 0 0 9 10 A 1 1 0 0 0 10 9 A 1 1 0 0 0 9 8 z M 15 8 A 1 1 0 0 0 14 9 A 1 1 0 0 0 15 10 A 1 1 0 0 0 16 9 A 1 1 0 0 0 15 8 z M 21 8 A 1 1 0 0 0 20 9 A 1 1 0 0 0 21 10 A 1 1 0 0 0 22 9 A 1 1 0 0 0 21 8 z M 27 8 A 1 1 0 0 0 26 9 A 1 1 0 0 0 27 10 A 1 1 0 0 0 28 9 A 1 1 0 0 0 27 8 z M 33 8 A 1 1 0 0 0 32 9 A 1 1 0 0 0 33 10 A 1 1 0 0 0 34 9 A 1 1 0 0 0 33 8 z M 12 11 A 1 1 0 0 0 11 12 A 1 1 0 0 0 12 13 A 1 1 0 0 0 13 12 A 1 1 0 0 0 12 11 z M 25 13 C 27.958561 13 30.660426 14.06816 32.75 15.835938 L 15.935547 32.650391 A 1 1 0 0 0 15.289062 32.044922 C 13.852468 30.067415 13 27.637389 13 25 C 13 18.360738 18.360738 13 25 13 z M 9 14 A 1 1 0 0 0 8 15 A 1 1 0 0 0 9 16 A 1 1 0 0 0 10 15 A 1 1 0 0 0 9 14 z M 34.164062 17.25 C 35.644643 19.000097 36.625665 21.181842 36.908203 23.582031 A 1 1 0 0 0 36 23 A 1 1 0 0 0 35 24 A 1 1 0 0 0 36 25 A 1 1 0 0 0 36.966797 24.251953 C 36.982072 24.500037 37 24.747971 37 25 C 37 26.422539 36.74111 27.779926 36.289062 29.044922 A 1 1 0 0 0 36 29 A 1 1 0 0 0 35 30 A 1 1 0 0 0 35.476562 30.851562 C 35.05839 31.599998 34.559071 32.295411 33.996094 32.933594 A 1 1 0 0 0 33 32 A 1 1 0 0 0 32 33 A 1 1 0 0 0 32.929688 33.998047 C 32.292106 34.560098 31.599099 35.060929 30.851562 35.478516 A 1 1 0 0 0 30 35 A 1 1 0 0 0 29 36 A 1 1 0 0 0 29.042969 36.289062 C 27.778459 36.740717 26.421891 37 25 37 C 24.747971 37 24.500037 36.982072 24.251953 36.966797 A 1 1 0 0 0 25 36 A 1 1 0 0 0 24 35 A 1 1 0 0 0 23 36 A 1 1 0 0 0 23.583984 36.908203 C 21.183034 36.625968 19.000566 35.645039 17.25 34.164062 L 34.164062 17.25 z M 9 20 A 1 1 0 0 0 8 21 A 1 1 0 0 0 9 22 A 1 1 0 0 0 10 21 A 1 1 0 0 0 9 20 z M 33 20 A 1 1 0 0 0 32 21 A 1 1 0 0 0 33 22 A 1 1 0 0 0 34 21 A 1 1 0 0 0 33 20 z M 30 23 A 1 1 0 0 0 29 24 A 1 1 0 0 0 30 25 A 1 1 0 0 0 31 24 A 1 1 0 0 0 30 23 z M 9 26 A 1 1 0 0 0 8 27 A 1 1 0 0 0 9 28 A 1 1 0 0 0 10 27 A 1 1 0 0 0 9 26 z M 27 26 A 1 1 0 0 0 26 27 A 1 1 0 0 0 27 28 A 1 1 0 0 0 28 27 A 1 1 0 0 0 27 26 z M 33 26 A 1 1 0 0 0 32 27 A 1 1 0 0 0 33 28 A 1 1 0 0 0 34 27 A 1 1 0 0 0 33 26 z M 24 29 A 1 1 0 0 0 23 30 A 1 1 0 0 0 24 31 A 1 1 0 0 0 25 30 A 1 1 0 0 0 24 29 z M 30 29 A 1 1 0 0 0 29 30 A 1 1 0 0 0 30 31 A 1 1 0 0 0 31 30 A 1 1 0 0 0 30 29 z M 9 32 A 1 1 0 0 0 8 33 A 1 1 0 0 0 9 34 A 1 1 0 0 0 10 33 A 1 1 0 0 0 9 32 z M 21 32 A 1 1 0 0 0 20 33 A 1 1 0 0 0 21 34 A 1 1 0 0 0 22 33 A 1 1 0 0 0 21 32 z M 27 32 A 1 1 0 0 0 26 33 A 1 1 0 0 0 27 34 A 1 1 0 0 0 28 33 A 1 1 0 0 0 27 32 z"/></svg>