<svg fill="#3498db" xmlns="http://www.w3.org/2000/svg" viewBox="0 0 50 50" width="500px" height="500px"><path d="M 19.875 0.40625 C 15.203125 0.492188 12.21875 2.378906 10.9375 5.3125 C 9.714844 8.105469 9.988281 11.632813 10.875 15.28125 C 10.398438 15.839844 10.019531 16.589844 10.15625 17.71875 C 10.304688 18.949219 10.644531 19.824219 11.125 20.4375 C 11.390625 20.773438 11.738281 20.804688 12.0625 20.96875 C 12.238281 22.015625 12.53125 23.0625 12.96875 23.9375 C 13.21875 24.441406 13.503906 24.90625 13.78125 25.28125 C 13.90625 25.449219 14.085938 25.546875 14.21875 25.6875 C 14.226563 26.921875 14.230469 27.949219 14.125 29.25 C 13.800781 30.035156 13.042969 30.667969 11.8125 31.28125 C 10.542969 31.914063 8.890625 32.5 7.21875 33.21875 C 5.546875 33.9375 3.828125 34.8125 2.46875 36.1875 C 1.109375 37.5625 0.148438 39.449219 0 41.9375 L -0.0625 43 L 25 43 L 24.34375 41 L 2.25 41 C 2.53125 39.585938 3.058594 38.449219 3.90625 37.59375 C 4.972656 36.515625 6.425781 35.707031 8 35.03125 C 9.574219 34.355469 11.230469 33.820313 12.6875 33.09375 C 14.144531 32.367188 15.492188 31.410156 16.0625 29.875 L 16.125 29.625 C 16.277344 27.949219 16.21875 26.761719 16.21875 25.3125 L 16.21875 24.71875 L 15.6875 24.4375 C 15.777344 24.484375 15.5625 24.347656 15.375 24.09375 C 15.1875 23.839844 14.957031 23.476563 14.75 23.0625 C 14.335938 22.234375 13.996094 21.167969 13.90625 20.3125 L 13.8125 19.5 L 12.96875 19.4375 C 12.960938 19.4375 12.867188 19.449219 12.6875 19.21875 C 12.507813 18.988281 12.273438 18.480469 12.15625 17.5 C 12.058594 16.667969 12.480469 16.378906 12.4375 16.40625 L 13.09375 16 L 12.90625 15.28125 C 11.964844 11.65625 11.800781 8.363281 12.78125 6.125 C 13.757813 3.894531 15.75 2.492188 19.90625 2.40625 C 19.917969 2.40625 19.925781 2.40625 19.9375 2.40625 C 21.949219 2.414063 23.253906 3.003906 23.625 3.65625 L 23.875 4.0625 L 24.34375 4.125 C 25.734375 4.320313 26.53125 4.878906 27.09375 5.65625 C 27.65625 6.433594 27.96875 7.519531 28.0625 8.71875 C 28.25 11.117188 27.558594 13.910156 27.125 15.21875 L 26.875 16 L 27.5625 16.40625 C 27.519531 16.378906 27.945313 16.667969 27.84375 17.5 C 27.726563 18.480469 27.492188 18.988281 27.3125 19.21875 C 27.132813 19.449219 27.039063 19.4375 27.03125 19.4375 L 26.1875 19.5 L 26.09375 20.3125 C 26 21.175781 25.652344 22.234375 25.25 23.0625 C 25.046875 23.476563 24.839844 23.839844 24.65625 24.09375 C 24.472656 24.347656 24.28125 24.488281 24.375 24.4375 L 23.84375 24.71875 L 23.84375 25.3125 C 23.84375 26.757813 23.785156 27.949219 23.9375 29.625 L 23.9375 29.75 L 24 29.875 C 24.320313 30.738281 24.882813 31.605469 25.8125 32.15625 L 26.84375 30.4375 C 26.421875 30.1875 26.144531 29.757813 25.9375 29.25 C 25.832031 27.949219 25.835938 26.921875 25.84375 25.6875 C 25.972656 25.546875 26.160156 25.449219 26.28125 25.28125 C 26.554688 24.902344 26.816406 24.4375 27.0625 23.9375 C 27.488281 23.0625 27.796875 22.011719 27.96875 20.96875 C 28.28125 20.804688 28.617188 20.765625 28.875 20.4375 C 29.355469 19.824219 29.695313 18.949219 29.84375 17.71875 C 29.976563 16.625 29.609375 15.902344 29.15625 15.34375 C 29.644531 13.757813 30.269531 11.195313 30.0625 8.5625 C 29.949219 7.125 29.582031 5.691406 28.71875 4.5 C 27.929688 3.40625 26.648438 2.609375 25.03125 2.28125 C 23.980469 0.917969 22.089844 0.40625 19.90625 0.40625 Z M 38 26 C 31.382813 26 26 31.382813 26 38 C 26 44.617188 31.382813 50 38 50 C 44.617188 50 50 44.617188 50 38 C 50 31.382813 44.617188 26 38 26 Z M 38 28 C 43.535156 28 48 32.464844 48 38 C 48 43.535156 43.535156 48 38 48 C 32.464844 48 28 43.535156 28 38 C 28 32.464844 32.464844 28 38 28 Z M 37 32 L 37 37 L 32 37 L 32 39 L 37 39 L 37 44 L 39 44 L 39 39 L 44 39 L 44 37 L 39 37 L 39 32 Z"/></svg>