<svg fill="#3498db" xmlns="http://www.w3.org/2000/svg" viewBox="0 0 50 50" width="500px" height="500px"><path d="M 12.5 0 C 12.273438 0 12.191406 0.0351563 12.25 0.03125 C 9.335938 0.15625 7 2.554688 7 5.5 L 7 10.59375 C 6.71875 10.636719 6.46875 10.792969 6.3125 11.03125 C 2.511719 13.710938 0 18.449219 0 23.125 L 2 23.125 C 2 23.125 0.238281 23.769531 0.25 23.78125 C 0.261719 23.792969 0.296875 23.828125 0.3125 23.84375 C 0.347656 23.878906 0.378906 23.914063 0.4375 23.96875 C 0.550781 24.074219 0.71875 24.214844 0.9375 24.375 C 1.375 24.691406 2.027344 25.078125 2.96875 25.46875 C 4.851563 26.25 7.867188 27 12.5 27 C 17.132813 27 20.148438 26.25 22.03125 25.46875 C 22.972656 25.078125 23.625 24.691406 24.0625 24.375 C 24.5 24.058594 24.75 23.75 24.75 23.75 C 24.902344 23.578125 24.992188 23.355469 25 23.125 C 25 18.476563 22.511719 13.78125 18.75 11.09375 C 18.59375 10.820313 18.3125 10.632813 18 10.59375 L 18 9.84375 L 27.03125 9.03125 C 27.949219 10.222656 29.390625 11 31 11 C 31.277344 11 31.546875 10.980469 31.8125 10.9375 L 40.4375 20.96875 C 40.160156 21.589844 40 22.277344 40 23 C 40 23.90625 40.226563 24.769531 40.65625 25.5 L 29.84375 42 L 22.84375 42 C 20.152344 42 18 44.269531 18 47 L 18 49 C 18 49.550781 18.449219 50 19 50 L 46 50 C 46.550781 50 47 49.550781 47 49 L 47 47 C 47 44.269531 44.847656 42 42.15625 42 L 37 42 L 46.21875 27.84375 C 48.378906 27.292969 50 25.328125 50 23 C 50 20.5625 48.222656 18.527344 45.90625 18.09375 L 35.96875 6.5625 C 35.992188 6.375 36 6.191406 36 6 C 36 3.25 33.75 1 31 1 C 29.390625 1 27.949219 1.777344 27.03125 2.96875 L 17.75 3.84375 C 17.070313 1.695313 15.097656 0.132813 12.75 0.03125 C 12.808594 0.0351563 12.726563 0 12.5 0 Z M 12.46875 2 C 12.488281 2.007813 12.53125 2.027344 12.625 2.03125 C 12.636719 2.03125 12.644531 2.03125 12.65625 2.03125 C 14.226563 2.097656 15.5 3.167969 15.875 4.625 C 15.777344 4.921875 15.824219 5.242188 16 5.5 L 16 8.75 C 15.984375 8.855469 15.984375 8.957031 16 9.0625 L 16 10.8125 C 14.96875 10.921875 13.820313 11 12.5 11 C 11.1875 11 10.035156 10.921875 9 10.8125 L 9 5.5 C 9 3.609375 10.46875 2.113281 12.34375 2.03125 C 12.355469 2.03125 12.363281 2.03125 12.375 2.03125 C 12.433594 2.027344 12.441406 2.003906 12.46875 2 Z M 31 3 C 32.667969 3 34 4.332031 34 6 C 34 6.199219 33.972656 6.375 33.9375 6.5625 C 33.921875 6.625 33.910156 6.6875 33.90625 6.75 C 33.664063 7.703125 32.972656 8.472656 32.0625 8.8125 C 32.054688 8.816406 32.039063 8.808594 32.03125 8.8125 C 32 8.820313 31.96875 8.832031 31.9375 8.84375 C 31.882813 8.851563 31.832031 8.859375 31.78125 8.875 C 31.769531 8.886719 31.761719 8.894531 31.75 8.90625 C 31.71875 8.914063 31.6875 8.929688 31.65625 8.9375 C 31.441406 8.984375 31.230469 9 31 9 C 29.957031 9 29.035156 8.484375 28.5 7.6875 C 28.492188 7.675781 28.476563 7.667969 28.46875 7.65625 C 28.460938 7.636719 28.449219 7.613281 28.4375 7.59375 C 28.433594 7.585938 28.441406 7.570313 28.4375 7.5625 C 28.414063 7.496094 28.382813 7.433594 28.34375 7.375 C 28.308594 7.320313 28.265625 7.265625 28.21875 7.21875 C 28.0625 6.851563 28 6.425781 28 6 C 28 5.480469 28.117188 4.984375 28.34375 4.5625 C 28.355469 4.550781 28.363281 4.542969 28.375 4.53125 C 28.382813 4.519531 28.398438 4.511719 28.40625 4.5 C 28.445313 4.441406 28.476563 4.378906 28.5 4.3125 C 29.035156 3.515625 29.957031 3 31 3 Z M 26.09375 5.09375 C 26.039063 5.390625 26 5.6875 26 6 C 26 6.378906 26.042969 6.738281 26.125 7.09375 L 18 7.84375 L 18 5.8125 Z M 35.1875 8.71875 L 43.40625 18.28125 C 42.75 18.503906 42.160156 18.855469 41.65625 19.3125 L 33.78125 10.15625 C 34.332031 9.78125 34.820313 9.277344 35.1875 8.71875 Z M 7.375 12.625 C 8.8125 12.847656 10.496094 13 12.5 13 C 14.503906 13 16.1875 12.875 17.625 12.65625 C 20.660156 14.878906 22.792969 18.914063 22.9375 22.71875 C 22.902344 22.746094 22.917969 22.71875 22.875 22.75 C 22.570313 22.972656 22.050781 23.292969 21.25 23.625 C 19.648438 24.289063 16.921875 25 12.5 25 C 8.078125 25 5.351563 24.289063 3.75 23.625 C 2.949219 23.292969 2.429688 22.972656 2.125 22.75 C 2.089844 22.726563 2.089844 22.710938 2.0625 22.6875 C 2.21875 18.886719 4.335938 14.839844 7.375 12.625 Z M 45 20 C 46.667969 20 48 21.332031 48 23 C 48 24.460938 46.964844 25.660156 45.59375 25.9375 C 45.550781 25.933594 45.511719 25.933594 45.46875 25.9375 C 45.4375 25.945313 45.40625 25.957031 45.375 25.96875 C 45.25 25.984375 45.132813 26 45 26 C 44.109375 26 43.328125 25.609375 42.78125 25 C 42.710938 24.878906 42.613281 24.769531 42.5 24.6875 C 42.179688 24.210938 42 23.625 42 23 C 42 22.457031 42.125 21.9375 42.375 21.5 C 42.386719 21.488281 42.394531 21.480469 42.40625 21.46875 C 42.421875 21.445313 42.453125 21.429688 42.46875 21.40625 C 42.507813 21.347656 42.539063 21.285156 42.5625 21.21875 C 43.105469 20.472656 43.996094 20 45 20 Z M 42.0625 27 C 42.589844 27.382813 43.191406 27.6875 43.84375 27.84375 L 34.625 42 L 32.25 42 Z M 22.84375 44 L 34.75 44 C 34.992188 44.097656 35.257813 44.097656 35.5 44 L 42.15625 44 C 43.726563 44 45 45.3125 45 47 L 45 48 L 20 48 L 20 47 C 20 45.3125 21.273438 44 22.84375 44 Z"/></svg>