<svg fill="#3498db" xmlns="http://www.w3.org/2000/svg"  viewBox="0 0 50 50" width="500px" height="500px"><path d="M 25 2 C 12.308594 2 2 12.308594 2 25 C 2 37.691406 12.308594 48 25 48 C 37.691406 48 48 37.691406 48 25 C 48 12.308594 37.691406 2 25 2 Z M 25 4 C 36.609375 4 46 13.390625 46 25 C 46 36.609375 36.609375 46 25 46 C 13.390625 46 4 36.609375 4 25 C 4 13.390625 13.390625 4 25 4 Z M 24.875 17 C 24.652344 17.023438 24.441406 17.125 24.28125 17.28125 L 14.28125 27.28125 C 13.882813 27.679688 13.882813 28.320313 14.28125 28.71875 C 14.679688 29.117188 15.320313 29.117188 15.71875 28.71875 L 25 19.4375 L 34.28125 28.71875 C 34.679688 29.117188 35.320313 29.117188 35.71875 28.71875 C 36.117188 28.320313 36.117188 27.679688 35.71875 27.28125 L 25.71875 17.28125 C 25.496094 17.0625 25.183594 16.957031 24.875 17 Z"/></svg>