<svg fill="#3498db" xmlns="http://www.w3.org/2000/svg" viewBox="0 0 50 50" width="500px" height="500px"><path d="M 7 6 C 3.1456661 6 0 9.1456661 0 13 L 0 37 C 0 40.854334 3.1456661 44 7 44 L 24 44 C 27.854334 44 31 40.854334 31 37 L 31 13 C 31 9.1456661 27.854334 6 24 6 L 7 6 z M 7 8 L 24 8 C 26.773666 8 29 10.226334 29 13 L 29 37 C 29 39.773666 26.773666 42 24 42 L 7 42 C 4.2263339 42 2 39.773666 2 37 L 2 13 C 2 10.226334 4.2263339 8 7 8 z M 22 10 C 19.250421 10 17 12.250421 17 15 C 17 17.749579 19.250421 20 22 20 C 24.749579 20 27 17.749579 27 15 C 27 12.250421 24.749579 10 22 10 z M 33.984375 11.986328 A 1.0001 1.0001 0 0 0 33 13 L 33 33 A 1.0001 1.0001 0 1 0 35 33 L 35 13 A 1.0001 1.0001 0 0 0 33.984375 11.986328 z M 22 12 C 23.668699 12 25 13.331301 25 15 C 25 16.668699 23.668699 18 22 18 C 20.331301 18 19 16.668699 19 15 C 19 13.331301 20.331301 12 22 12 z M 37.984375 13.986328 A 1.0001 1.0001 0 0 0 37 15 L 37 33 A 1.0001 1.0001 0 1 0 39 33 L 39 15 A 1.0001 1.0001 0 0 0 37.984375 13.986328 z M 41.984375 15.986328 A 1.0001 1.0001 0 0 0 41 17 L 41 36 L 35 36 L 34 36 L 33 36 L 33 36.832031 A 1.0001 1.0001 0 0 0 33 37.158203 L 33 38 L 34 38 L 35 38 L 42 38 A 1.0001 1.0001 0 0 0 43 37 L 43 32 L 49 32 A 1.0001 1.0001 0 0 0 50 31 L 50 19 A 1.0001 1.0001 0 0 0 49 18 L 43 18 L 43 17 A 1.0001 1.0001 0 0 0 41.984375 15.986328 z M 43 20 L 48 20 L 48 30 L 43 30 L 43 20 z M 12.5 24 C 8.369709 24 5 27.369709 5 31.5 C 5 35.630291 8.369709 39 12.5 39 C 16.630291 39 20 35.630291 20 31.5 C 20 27.369709 16.630291 24 12.5 24 z M 12.5 26 C 15.549411 26 18 28.450589 18 31.5 C 18 34.549411 15.549411 37 12.5 37 C 9.4505892 37 7 34.549411 7 31.5 C 7 28.450589 9.4505892 26 12.5 26 z"/></svg>