<svg fill="#3498db" xmlns="http://www.w3.org/2000/svg" viewBox="0 0 50 50" width="500px" height="500px"><path d="M 25 2 A 2 2 0 0 0 23.009766 3.8320312 L 7.7773438 11 L 3 11 L 3 12 L 3 45 L 47 45 L 47 11 L 42.222656 11 L 26.990234 3.8320312 A 2 2 0 0 0 25 2 z M 23.861328 5.640625 A 2 2 0 0 0 25 6 A 2 2 0 0 0 26.140625 5.6425781 L 37.527344 11 L 12.472656 11 L 23.861328 5.640625 z M 5 13 L 7.8046875 13 A 1.0001 1.0001 0 0 0 8.1425781 13 L 41.857422 13 A 1.0001 1.0001 0 0 0 42.189453 13 L 45 13 L 45 43 L 5 43 L 5 13 z M 8 16 L 8 17 L 8 40 L 42 40 L 42 16 L 8 16 z M 10 18 L 40 18 L 40 38 L 10 38 L 10 18 z"/></svg>