<svg fill="#3498db" xmlns="http://www.w3.org/2000/svg"  viewBox="0 0 50 50" width="500px" height="500px"><path d="M 21.933594 0.30664062 L 20.236328 1.3652344 L 20.857422 2.359375 C 20.059213 3.3271182 19.926226 4.7464746 20.681641 5.8359375 C 21.150418 6.5653989 22.008632 6.9644246 22.701172 6.9257812 C 23.401012 6.8867303 23.934687 6.6193438 24.398438 6.4179688 C 24.862188 6.2165937 25.257324 6.0809025 25.412109 6.0722656 C 25.566894 6.0636256 25.473769 5.9689949 25.644531 6.2421875 L 25.660156 6.2675781 L 25.677734 6.2910156 C 25.997157 6.7397321 25.860703 7.3264748 25.376953 7.5898438 L 25.324219 7.6191406 L 25.275391 7.6542969 C 24.82695 7.9739208 24.24154 7.8373216 23.978516 7.3535156 L 22.220703 8.3105469 C 22.86193 9.490014 24.215988 10.000409 25.447266 9.703125 L 26.066406 10.693359 L 27.763672 9.6347656 L 27.142578 8.6425781 C 27.942351 7.6748194 28.076274 6.2543135 27.320312 5.1640625 C 26.851536 4.4346011 25.993321 4.0355754 25.300781 4.0742188 C 24.600941 4.1132697 24.067266 4.3806563 23.603516 4.5820312 C 23.139766 4.7834062 22.744629 4.9190975 22.589844 4.9277344 C 22.435059 4.9363744 22.528184 5.0310051 22.357422 4.7578125 L 22.341797 4.7324219 L 22.324219 4.7089844 C 22.004803 4.2602678 22.14125 3.6735252 22.625 3.4101562 L 22.677734 3.3808594 L 22.726562 3.3457031 C 23.174995 3.0260794 23.760413 3.1626784 24.023438 3.6464844 L 25.78125 2.6894531 C 25.139597 1.5092011 23.784659 1.000233 22.552734 1.2988281 L 21.933594 0.30664062 z M 21.667969 1.6542969 C 21.650559 1.6637769 21.64213 1.6816202 21.625 1.6914062 C 21.60666 1.7038463 21.584546 1.7038659 21.566406 1.7167969 L 21.667969 1.6542969 z M 10.181641 3.9042969 L 9.3535156 4.7324219 C 8.2313657 4.1714217 6.8203893 4.3600504 5.9277344 5.3398438 C 5.3208186 5.9610624 5.1248302 6.8874898 5.3183594 7.5546875 C 5.5137848 8.2284225 5.8943971 8.6891267 6.1953125 9.0957031 C 6.4962279 9.5022796 6.7164924 9.8553238 6.7597656 10.003906 C 6.8030386 10.152489 6.8742695 10.039796 6.6464844 10.267578 L 6.625 10.289062 L 6.6054688 10.310547 C 6.2397175 10.722776 5.6391887 10.722776 5.2734375 10.310547 L 5.2324219 10.267578 L 5.1894531 10.226562 C 4.777224 9.8608118 4.777224 9.2602824 5.1894531 8.8945312 L 3.8613281 7.3984375 C 2.8573813 8.2891915 2.666077 9.7206746 3.2324219 10.853516 L 2.4042969 11.681641 L 3.8183594 13.095703 L 4.6464844 12.267578 C 5.7686343 12.828578 7.1796107 12.63995 8.0722656 11.660156 C 8.6787516 11.03932 8.873791 10.111785 8.6796875 9.4453125 C 8.4836795 8.7723014 8.103444 8.3125485 7.8027344 7.90625 C 7.5020247 7.4999515 7.2813872 7.1466556 7.2382812 6.9980469 C 7.1951754 6.8494381 7.1246338 6.9613037 7.3535156 6.7324219 L 7.375 6.7109375 L 7.3945312 6.6894531 C 7.7602825 6.277224 8.3608113 6.277224 8.7265625 6.6894531 L 8.7675781 6.7324219 L 8.8105469 6.7734375 C 9.222776 7.1391887 9.222776 7.7397175 8.8105469 8.1054688 L 10.138672 9.6015625 C 11.142619 8.7108085 11.333923 7.279325 10.767578 6.1464844 L 11.595703 5.3183594 L 10.181641 3.9042969 z M 39.818359 3.9042969 L 38.404297 5.3183594 L 39.232422 6.1464844 C 38.671422 7.2686343 38.86005 8.6796107 39.839844 9.5722656 C 40.46088 10.179004 41.387417 10.37651 42.054688 10.183594 C 42.728504 9.9887846 43.188993 9.607342 43.595703 9.3066406 C 44.002413 9.0059393 44.354646 8.7857433 44.503906 8.7421875 C 44.653167 8.6986315 44.542286 8.6269363 44.769531 8.8535156 L 44.789062 8.875 L 44.810547 8.8945312 C 45.222776 9.2602825 45.222776 9.8608118 44.810547 10.226562 L 44.767578 10.267578 L 44.726562 10.310547 C 44.360811 10.722776 43.760282 10.722776 43.394531 10.310547 L 41.898438 11.638672 C 42.789192 12.642619 44.220675 12.833923 45.353516 12.267578 L 46.181641 13.095703 L 47.595703 11.681641 L 46.767578 10.853516 C 47.329392 9.7297555 47.139653 8.3162199 46.15625 7.4238281 C 45.534908 6.8211557 44.609947 6.628318 43.945312 6.8222656 C 43.272979 7.0184598 42.812415 7.3989201 42.40625 7.6992188 C 42.000085 7.9995174 41.648527 8.2187775 41.5 8.2617188 C 41.351473 8.3046599 41.461477 8.3755395 41.232422 8.1464844 L 41.210938 8.125 L 41.189453 8.1054688 C 40.777224 7.7397175 40.777224 7.1391887 41.189453 6.7734375 L 41.232422 6.7324219 L 41.273438 6.6894531 C 41.639189 6.277224 42.239718 6.277224 42.605469 6.6894531 L 44.101562 5.3613281 C 43.210803 4.3573819 41.779325 4.166077 40.646484 4.7324219 L 39.818359 3.9042969 z M 10.138672 5.2773438 L 10.222656 5.3613281 C 10.208736 5.3456371 10.188018 5.3414789 10.173828 5.3261719 C 10.158518 5.3119819 10.154362 5.2912657 10.138672 5.2773438 z M 39.861328 5.2773438 C 39.845638 5.2912657 39.841482 5.3119819 39.826172 5.3261719 C 39.811982 5.3414789 39.791264 5.3456371 39.777344 5.3613281 L 39.861328 5.2773438 z M 26.435547 9.2832031 L 26.333984 9.3457031 C 26.351394 9.3362231 26.359833 9.3183797 26.376953 9.3085938 C 26.395293 9.2961527 26.417407 9.2961331 26.435547 9.2832031 z M 3.7773438 11.638672 C 3.7912657 11.654362 3.8119819 11.658518 3.8261719 11.673828 C 3.8414789 11.688018 3.8456371 11.708736 3.8613281 11.722656 L 3.7773438 11.638672 z M 46.222656 11.638672 L 46.138672 11.722656 C 46.154362 11.708736 46.158518 11.688018 46.173828 11.673828 C 46.188018 11.658518 46.208736 11.654362 46.222656 11.638672 z M 24.5 12 C 22.916667 12 21.601892 12.629756 20.751953 13.585938 C 19.902014 14.542118 19.5 15.777778 19.5 17 C 19.5 18.222222 19.902014 19.457881 20.751953 20.414062 C 21.601892 21.370244 22.916667 22 24.5 22 C 26.083333 22 27.398108 21.370244 28.248047 20.414062 C 29.097986 19.457881 29.5 18.222222 29.5 17 C 29.5 15.777778 29.097986 14.542119 28.248047 13.585938 C 27.398108 12.629755 26.083333 12 24.5 12 z M 12.875 12.986328 C 12.507359 13.009214 12.148505 13.097649 11.816406 13.240234 C 11.152209 13.525406 10.566814 14.03374 10.236328 14.738281 C 9.9063285 15.441786 9.8799541 16.337711 10.240234 17.179688 C 10.240765 17.180888 10.239702 17.182394 10.240234 17.183594 L 12.232422 22.162109 A 1.0001 1.0001 0 0 0 12.244141 22.191406 C 12.427324 22.609292 12.70285 22.979882 13.048828 23.277344 L 12.988281 23.220703 L 19 29.330078 L 19 39 L 19 46.5 C 19 47.583333 19.442256 48.523108 20.117188 49.123047 C 20.792119 49.722986 21.652778 50 22.5 50 C 23.347222 50 24.207882 49.722986 24.882812 49.123047 C 24.931673 49.079617 24.953662 49.005898 25 48.958984 C 25.04634 49.005894 25.06833 49.079614 25.117188 49.123047 C 25.792119 49.722986 26.652778 50 27.5 50 C 28.347222 50 29.207882 49.722986 29.882812 49.123047 C 30.557744 48.523108 31 47.583333 31 46.5 L 31 39 L 31 28.460938 L 36.023438 23.210938 L 35.951172 23.277344 C 36.29715 22.979882 36.572676 22.609292 36.755859 22.191406 A 1.0001 1.0001 0 0 0 36.767578 22.162109 L 38.759766 17.183594 C 38.760298 17.182394 38.759235 17.180888 38.759766 17.179688 C 39.120052 16.337711 39.093678 15.441786 38.763672 14.738281 C 38.433186 14.03374 37.847791 13.525406 37.183594 13.240234 C 36.519397 12.955063 35.750148 12.883301 35.011719 13.128906 C 34.273289 13.374511 33.602198 13.973351 33.240234 14.816406 A 1.0001 1.0001 0 0 0 33.230469 14.841797 L 31.486328 19.246094 L 28.142578 23 L 20.857422 23 L 17.513672 19.246094 L 15.769531 14.841797 A 1.0001 1.0001 0 0 0 15.759766 14.816406 C 15.397802 13.973351 14.726711 13.374511 13.988281 13.128906 C 13.619067 13.006104 13.242641 12.963442 12.875 12.986328 z M 24.5 14 C 25.583333 14 26.268559 14.370244 26.751953 14.914062 C 27.235347 15.457882 27.5 16.222222 27.5 17 C 27.5 17.777778 27.235347 18.542119 26.751953 19.085938 C 26.268559 19.629756 25.583333 20 24.5 20 C 23.416667 20 22.731441 19.629756 22.248047 19.085938 C 21.764653 18.542119 21.5 17.777778 21.5 17 C 21.5 16.222222 21.764653 15.457881 22.248047 14.914062 C 22.731441 14.370245 23.416667 14 24.5 14 z M 12.996094 14.984375 C 13.125244 14.975986 13.24997 14.98965 13.357422 15.025391 C 13.571592 15.096621 13.755646 15.222979 13.919922 15.603516 C 13.919922 15.603516 13.921875 15.605469 13.921875 15.605469 L 15.720703 20.148438 A 1.0001 1.0001 0 0 0 15.904297 20.445312 L 19.664062 24.666016 A 1.0001 1.0001 0 0 0 20.410156 25 L 28.589844 25 A 1.0001 1.0001 0 0 0 29.335938 24.666016 L 33.095703 20.445312 A 1.0001 1.0001 0 0 0 33.279297 20.148438 L 35.078125 15.605469 L 35.080078 15.603516 C 35.244354 15.222979 35.428408 15.096625 35.642578 15.025391 C 35.857482 14.953911 36.138728 14.968305 36.394531 15.078125 C 36.650334 15.187953 36.856944 15.382849 36.953125 15.587891 C 37.049305 15.792932 37.086578 16.01092 36.921875 16.394531 A 1.0001 1.0001 0 0 0 36.912109 16.417969 L 34.923828 21.388672 C 34.860908 21.532203 34.767269 21.65955 34.648438 21.761719 A 1.0001 1.0001 0 0 0 34.578125 21.828125 L 29.277344 27.369141 A 1.0001 1.0001 0 0 0 29 28.060547 L 29 39 L 29 46.5 C 29 47.083333 28.817256 47.393559 28.554688 47.626953 C 28.292119 47.860347 27.902778 48 27.5 48 C 27.097222 48 26.707882 47.860347 26.445312 47.626953 C 26.182744 47.393559 26 47.083333 26 46.5 L 26 38 L 26 37 A 1.0001 1.0001 0 0 0 24.984375 35.986328 A 1.0001 1.0001 0 0 0 24 37 L 24 38 L 24 46.5 C 24 47.083333 23.817256 47.393559 23.554688 47.626953 C 23.292119 47.860347 22.902778 48 22.5 48 C 22.097222 48 21.707882 47.860347 21.445312 47.626953 C 21.182744 47.393559 21 47.083333 21 46.5 L 21 39 L 21 28.919922 A 1.0001 1.0001 0 0 0 20.712891 28.21875 L 14.412109 21.818359 A 1.0001 1.0001 0 0 0 14.351562 21.761719 C 14.232734 21.65955 14.13909 21.532203 14.076172 21.388672 L 12.087891 16.417969 A 1.0001 1.0001 0 0 0 12.078125 16.394531 C 11.913422 16.01092 11.950694 15.792932 12.046875 15.587891 C 12.143055 15.382849 12.349666 15.187953 12.605469 15.078125 C 12.73337 15.023211 12.866944 14.992764 12.996094 14.984375 z"/></svg>