<svg fill="#3498db" xmlns="http://www.w3.org/2000/svg" viewBox="0 0 50 50" width="500px" height="500px"><path d="M 25 1 C 20.980469 1 17.875 2.699219 16.28125 5.46875 C 14.765625 8.101563 14.648438 11.59375 15.8125 15.28125 C 15.371094 15.828125 15 16.570313 15.09375 17.6875 L 15.09375 17.75 C 15.261719 18.96875 15.628906 19.828125 16.09375 20.4375 C 16.320313 20.734375 16.65625 20.742188 16.9375 20.90625 C 17.105469 21.988281 17.425781 23.054688 17.875 23.9375 C 18.128906 24.4375 18.382813 24.878906 18.65625 25.25 C 18.78125 25.421875 18.960938 25.515625 19.09375 25.65625 C 19.109375 26.710938 19.152344 27.027344 19 28.28125 C 18.699219 29.039063 17.949219 29.644531 16.75 30.25 C 15.496094 30.882813 13.855469 31.464844 12.1875 32.1875 C 10.519531 32.910156 8.828125 33.777344 7.46875 35.15625 C 6.109375 36.535156 5.136719 38.445313 5 40.9375 L 5 49 L 7 49 L 7 41 C 7.125 38.980469 7.824219 37.632813 8.875 36.5625 C 9.9375 35.480469 11.429688 34.710938 13 34.03125 C 14.339844 33.453125 15.722656 32.960938 17 32.375 L 17 36 L 19 36 L 19 31.25 C 19.867188 30.628906 20.582031 29.855469 20.9375 28.8125 L 21 28.625 C 21.207031 26.980469 21.09375 26.769531 21.09375 25.3125 L 21.09375 24.71875 L 20.59375 24.4375 C 20.667969 24.480469 20.472656 24.320313 20.28125 24.0625 C 20.089844 23.804688 19.863281 23.445313 19.65625 23.03125 C 19.238281 22.207031 18.863281 21.179688 18.78125 20.3125 L 18.71875 19.40625 L 17.875 19.40625 C 17.839844 19.390625 17.746094 19.339844 17.65625 19.21875 C 17.480469 18.988281 17.230469 18.449219 17.09375 17.53125 C 17.09375 17.511719 17.09375 17.519531 17.09375 17.5 C 17.089844 17.484375 17.097656 17.484375 17.09375 17.46875 C 17.078125 16.710938 17.546875 16.289063 17.46875 16.34375 L 18.09375 15.90625 L 17.84375 15.15625 C 16.613281 11.660156 16.800781 8.601563 18.03125 6.46875 C 19.261719 4.335938 21.519531 3 25 3 C 26.898438 3 28.167969 3.925781 28.53125 4.59375 L 28.78125 5.03125 L 29.28125 5.09375 C 30.617188 5.246094 31.371094 5.726563 31.90625 6.40625 C 32.441406 7.085938 32.769531 8.042969 32.875 9.125 C 33.089844 11.289063 32.484375 13.875 32.0625 15.1875 L 31.78125 16 L 32.53125 16.40625 C 32.523438 16.433594 32.851563 16.765625 32.8125 17.5 C 32.8125 17.515625 32.8125 17.515625 32.8125 17.53125 C 32.71875 18.472656 32.476563 19.003906 32.3125 19.21875 C 32.144531 19.4375 32.058594 19.40625 32.09375 19.40625 L 31.21875 19.40625 L 31.125 20.25 C 30.996094 21.152344 30.628906 22.199219 30.21875 23.03125 C 30.015625 23.445313 29.777344 23.839844 29.59375 24.09375 C 29.410156 24.347656 29.230469 24.484375 29.3125 24.4375 L 28.8125 24.71875 L 28.8125 25.3125 C 28.8125 26.8125 28.804688 26.960938 28.90625 28.5625 L 28.90625 28.71875 L 28.96875 28.84375 C 29.363281 29.875 30.117188 30.632813 31 31.25 L 31 36 L 33 36 L 33 32.375 C 34.289063 32.960938 35.691406 33.453125 37.03125 34.03125 C 38.601563 34.710938 40.066406 35.480469 41.125 36.5625 C 42.171875 37.632813 42.875 38.980469 43 41 L 43 49 L 45 49 L 45 40.9375 C 44.863281 38.445313 43.914063 36.539063 42.5625 35.15625 C 41.210938 33.773438 39.511719 32.910156 37.84375 32.1875 C 36.175781 31.464844 34.523438 30.886719 33.25 30.25 C 32.015625 29.632813 31.242188 29.003906 30.90625 28.21875 C 30.835938 27.0625 30.8125 26.652344 30.8125 25.625 C 30.929688 25.492188 31.105469 25.40625 31.21875 25.25 C 31.484375 24.878906 31.753906 24.433594 32 23.9375 C 32.433594 23.0625 32.765625 21.988281 32.96875 20.9375 C 33.289063 20.773438 33.65625 20.761719 33.90625 20.4375 C 34.386719 19.808594 34.667969 18.914063 34.78125 17.6875 C 34.871094 16.621094 34.546875 15.859375 34.0625 15.28125 C 34.523438 13.734375 35.082031 11.332031 34.84375 8.90625 C 34.710938 7.574219 34.359375 6.242188 33.5 5.15625 C 32.695313 4.140625 31.40625 3.441406 29.8125 3.1875 C 28.855469 1.929688 27.210938 1 25 1 Z M 22.5 35.09375 C 21.765625 35.09375 21.039063 35.613281 20.71875 36.25 L 20.6875 36.28125 L 20.65625 36.34375 L 20.40625 37 L 19 37 C 17.355469 37 16 38.355469 16 40 L 16 46 C 16 47.644531 17.355469 49 19 49 L 31 49 C 32.644531 49 34 47.644531 34 46 L 34 40 C 34 38.355469 32.644531 37 31 37 L 29.625 37 L 29.34375 36.375 L 29.3125 36.28125 L 29.28125 36.28125 C 29.128906 35.917969 28.902344 35.660156 28.625 35.46875 C 28.316406 35.257813 27.949219 35.09375 27.5 35.09375 Z M 22.53125 37.09375 L 27.46875 37.09375 C 27.472656 37.101563 27.492188 37.117188 27.5 37.125 L 28.09375 38.40625 L 28.375 39 L 31 39 C 31.554688 39 32 39.445313 32 40 L 32 46 C 32 46.554688 31.554688 47 31 47 L 19 47 C 18.445313 47 18 46.554688 18 46 L 18 40 C 18 39.445313 18.445313 39 19 39 L 21.78125 39 L 22.03125 38.34375 L 22.5 37.15625 C 22.519531 37.117188 22.53125 37.105469 22.53125 37.09375 Z M 25 40 C 23.34375 40 22 41.34375 22 43 C 22 44.65625 23.34375 46 25 46 C 26.65625 46 28 44.65625 28 43 C 28 41.34375 26.65625 40 25 40 Z"/></svg>