<svg fill="#3498db" xmlns="http://www.w3.org/2000/svg" viewBox="0 0 50 50" width="500px" height="500px"><path d="M 9 4 C 6.2545455 4 4 6.2545455 4 9 L 4 41 C 4 43.745455 6.2545455 46 9 46 L 41 46 C 43.745455 46 46 43.745455 46 41 L 46 9 C 46 6.2545455 43.745455 4 41 4 L 9 4 z M 9 6 L 41 6 C 42.654545 6 44 7.3454545 44 9 L 44 41 C 44 42.654545 42.654545 44 41 44 L 9 44 C 7.3454545 44 6 42.654545 6 41 L 6 9 C 6 7.3454545 7.3454545 6 9 6 z M 25 9.8085938 L 24.066406 12.242188 L 20.998047 20.236328 L 9.8691406 20.841797 L 18.470703 27.869141 L 15.689453 38.638672 L 25 32.591797 L 34.310547 38.638672 L 31.529297 27.869141 L 40.130859 20.841797 L 29.001953 20.236328 L 25 9.8085938 z M 25 15.392578 L 27.597656 22.164062 L 34.867188 22.558594 L 29.271484 27.130859 L 31.089844 34.160156 L 25 30.207031 L 18.910156 34.160156 L 20.728516 27.130859 L 15.132812 22.558594 L 22.402344 22.164062 L 25 15.392578 z"/></svg>