<svg fill="#3498db" xmlns="http://www.w3.org/2000/svg"  viewBox="0 0 50 50" width="500px" height="500px"><path d="M 19.962891 3 A 1.0001 1.0001 0 0 0 19 4 L 19 13 L 6 13 C 4.3550302 13 3 14.35503 3 16 L 3 46 A 1.0001 1.0001 0 0 0 4.4472656 46.894531 L 6 46.117188 L 7.5527344 46.894531 A 1.0001 1.0001 0 0 0 8.4472656 46.894531 L 10 46.117188 L 11.552734 46.894531 A 1.0001 1.0001 0 0 0 12.447266 46.894531 L 14 46.117188 L 15.552734 46.894531 A 1.0001 1.0001 0 0 0 16.447266 46.894531 L 18 46.117188 L 19.552734 46.894531 A 1.0001 1.0001 0 0 0 20.447266 46.894531 L 22 46.117188 L 23.552734 46.894531 A 1.0001 1.0001 0 0 0 25 46 L 25 41.392578 C 26.765899 42.412002 28.816535 43 31 43 C 31.706038 43 32.393634 42.925905 33.066406 42.808594 C 33.663441 42.908053 34.310377 43 35 43 C 41.621077 43 47 37.621077 47 31 C 47 26.566328 44.581738 22.698664 41 20.621094 L 41 4 A 1.0001 1.0001 0 0 0 39.552734 3.1054688 L 38 3.8828125 L 36.447266 3.1054688 A 1.0001 1.0001 0 0 0 35.552734 3.1054688 L 34 3.8828125 L 32.447266 3.1054688 A 1.0001 1.0001 0 0 0 31.552734 3.1054688 L 30 3.8828125 L 28.447266 3.1054688 A 1.0001 1.0001 0 0 0 27.552734 3.1054688 L 26 3.8828125 L 24.447266 3.1054688 A 1.0001 1.0001 0 0 0 23.552734 3.1054688 L 22 3.8828125 L 20.447266 3.1054688 A 1.0001 1.0001 0 0 0 19.962891 3 z M 24 5.1171875 L 25.552734 5.8945312 A 1.0001 1.0001 0 0 0 26.447266 5.8945312 L 28 5.1171875 L 29.552734 5.8945312 A 1.0001 1.0001 0 0 0 30.447266 5.8945312 L 32 5.1171875 L 33.552734 5.8945312 A 1.0001 1.0001 0 0 0 34.447266 5.8945312 L 36 5.1171875 L 37.552734 5.8945312 A 1.0001 1.0001 0 0 0 38.447266 5.8945312 L 39 5.6171875 L 39 19.699219 C 37.746911 19.254741 36.404317 19 35 19 C 34.34511 19 33.673726 19.053724 33.009766 19.181641 C 32.354788 19.070672 31.686274 19 31 19 C 30.318573 19 29.651227 19.060571 29 19.169922 L 29 16 C 29 14.639463 27.983691 13.665922 26.732422 13.304688 A 1.0001 1.0001 0 0 0 26 13 L 21 13 L 21 5.6171875 L 21.552734 5.8945312 A 1.0001 1.0001 0 0 0 22.447266 5.8945312 L 24 5.1171875 z M 24 9 A 1.0001 1.0001 0 1 0 24 11 L 29 11 A 1.0001 1.0001 0 1 0 29 9 L 24 9 z M 34 9 A 1.0001 1.0001 0 1 0 34 11 L 36 11 A 1.0001 1.0001 0 1 0 36 9 L 34 9 z M 34 13 A 1.0001 1.0001 0 1 0 34 15 L 36 15 A 1.0001 1.0001 0 1 0 36 13 L 34 13 z M 6 15 L 19.832031 15 A 1.0001 1.0001 0 0 0 20.158203 15 L 23.416016 15 C 23.278986 15.342014 23 15.611652 23 16 L 23 44.382812 L 22.447266 44.105469 A 1.0001 1.0001 0 0 0 21.552734 44.105469 L 20 44.882812 L 18.447266 44.105469 A 1.0001 1.0001 0 0 0 17.552734 44.105469 L 16 44.882812 L 14.447266 44.105469 A 1.0001 1.0001 0 0 0 13.552734 44.105469 L 12 44.882812 L 10.447266 44.105469 A 1.0001 1.0001 0 0 0 9.5527344 44.105469 L 8 44.882812 L 6.4472656 44.105469 A 1.0001 1.0001 0 0 0 5.5527344 44.105469 L 5 44.382812 L 5 16 C 5 15.43497 5.4349698 15 6 15 z M 26 15 C 26.56503 15 27 15.43497 27 16 L 27 19.689453 C 26.300456 19.936501 25.632965 20.247524 25 20.613281 L 25 16 C 25 15.43497 25.43497 15 26 15 z M 31 21 C 31.573304 21 32.131393 21.05876 32.677734 21.150391 A 1.0001 1.0001 0 0 0 32.976562 21.197266 C 37.565071 22.109216 41 26.134371 41 31 C 41 35.837287 37.604978 39.844448 33.056641 40.787109 A 1.0001 1.0001 0 0 0 32.554688 40.867188 C 32.046969 40.945907 31.530574 41 31 41 C 28.850128 41 26.871907 40.327443 25.244141 39.181641 A 1.0008425 1.0008425 0 0 0 25 39.056641 L 25 22.984375 A 1.0001 1.0001 0 0 0 25.117188 22.908203 C 26.767587 21.707912 28.794601 21 31 21 z M 38.480469 21.630859 C 38.809851 21.75255 39.131588 21.888725 39.443359 22.042969 A 1.0001 1.0001 0 0 0 39.447266 22.046875 A 1.0001 1.0001 0 0 0 39.701172 22.167969 C 42.858611 23.844765 45 27.159927 45 31 C 45 35.315209 42.292449 38.960799 38.480469 40.369141 C 41.231305 38.169086 43 34.791458 43 31 C 43 27.208542 41.231305 23.830914 38.480469 21.630859 z M 8 22 A 1.0001 1.0001 0 1 0 8 24 L 13 24 A 1.0001 1.0001 0 1 0 13 22 L 8 22 z M 18 22 A 1.0001 1.0001 0 1 0 18 24 L 20 24 A 1.0001 1.0001 0 1 0 20 22 L 18 22 z M 31.800781 25 L 28 26.199219 L 28 28 L 30 27.5 L 30 37 L 32 37 L 32 25 L 31.800781 25 z M 8 26 A 1.0001 1.0001 0 1 0 8 28 L 10 28 A 1.0001 1.0001 0 1 0 10 26 L 8 26 z M 18 26 A 1.0001 1.0001 0 1 0 18 28 L 20 28 A 1.0001 1.0001 0 1 0 20 26 L 18 26 z M 8 30 A 1.0001 1.0001 0 1 0 8 32 L 13 32 A 1.0001 1.0001 0 1 0 13 30 L 8 30 z M 18 30 A 1.0001 1.0001 0 1 0 18 32 L 20 32 A 1.0001 1.0001 0 1 0 20 30 L 18 30 z M 8 34 A 1.0001 1.0001 0 1 0 8 36 L 11 36 A 1.0001 1.0001 0 1 0 11 34 L 8 34 z M 18 34 A 1.0001 1.0001 0 1 0 18 36 L 20 36 A 1.0001 1.0001 0 1 0 20 34 L 18 34 z"/></svg>