<svg fill="#3498db" xmlns="http://www.w3.org/2000/svg" viewBox="0 0 50 50" width="500px" height="500px"><path d="M 33.001953 4.9941406 A 1.0001 1.0001 0 0 0 32.640625 5.0664062 L 6.640625 15.066406 A 1.0001 1.0001 0 0 0 6 16 L 6 37 A 1.0001 1.0001 0 1 0 8 37 L 8 16.6875 L 33.359375 6.9335938 A 1.0001 1.0001 0 0 0 33.001953 4.9941406 z M 38.001953 8.9941406 A 1.0001 1.0001 0 0 0 37.640625 9.0664062 L 11.640625 19.066406 A 1.0001 1.0001 0 0 0 11 20 L 11 41 A 1.0001 1.0001 0 1 0 13 41 L 13 20.6875 L 38.359375 10.933594 A 1.0001 1.0001 0 0 0 38.001953 8.9941406 z M 42.970703 13 A 1.0001 1.0001 0 0 0 42.640625 13.066406 L 16.640625 23.066406 A 1.0001 1.0001 0 0 0 16 24 L 16 46 A 1.0001 1.0001 0 0 0 17.359375 46.933594 L 43.359375 36.933594 A 1.0001 1.0001 0 0 0 44 36 L 44 14 A 1.0001 1.0001 0 0 0 42.970703 13 z M 42 15.457031 L 42 35.3125 L 18 44.542969 L 18 24.6875 L 42 15.457031 z"/></svg>