<svg fill="#3498db" xmlns="http://www.w3.org/2000/svg" viewBox="0 0 50 50" width="500px" height="500px"><path d="M 43.933594 5 C 43.667969 5.007813 43.398438 5.039063 43.128906 5.097656 C 42.382813 5.265625 41.742188 5.640625 41.230469 6.140625 L 5.203125 13.785156 L 5.414063 14.765625 L 5.191406 13.792969 C 3.035156 14.28125 1.6875 16.472656 2.164063 18.640625 C 2.636719 20.816406 4.789063 22.222656 6.945313 21.730469 C 7.902344 21.511719 8.609375 20.890625 9.15625 20.15625 C 9.964844 20.582031 10.867188 20.835938 11.824219 20.617188 C 12.78125 20.398438 13.488281 19.777344 14.039063 19.039063 C 14.847656 19.46875 15.746094 19.71875 16.703125 19.5 L 16.703125 19.503906 C 18.144531 19.175781 19.210938 18.078125 19.625 16.742188 L 38.984375 12.46875 L 28.609375 30.238281 C 27.234375 30.195313 25.867188 30.867188 25.089844 32.121094 C 24.5625 32.96875 24.492188 33.921875 24.621094 34.84375 C 23.746094 35.125 22.929688 35.597656 22.40625 36.4375 C 21.878906 37.289063 21.8125 38.238281 21.941406 39.160156 C 21.066406 39.441406 20.246094 39.917969 19.722656 40.757813 C 18.554688 42.644531 19.097656 45.152344 20.953125 46.359375 C 22.8125 47.566406 25.320313 46.988281 26.488281 45.105469 L 25.605469 44.550781 L 26.5 45.085938 L 45.855469 12.519531 C 47.40625 11.699219 48.304688 9.917969 47.90625 8.128906 C 47.484375 6.253906 45.785156 4.972656 43.933594 5 Z M 43.96875 7 C 44.90625 6.980469 45.738281 7.613281 45.953125 8.5625 C 46.195313 9.652344 45.523438 10.707031 44.4375 10.949219 C 43.347656 11.191406 42.292969 10.523438 42.046875 9.4375 C 41.804688 8.347656 42.476563 7.292969 43.5625 7.046875 C 43.699219 7.019531 43.835938 7.003906 43.96875 7 Z M 40.054688 8.4375 C 39.984375 8.902344 39.988281 9.386719 40.09375 9.871094 C 40.117188 9.96875 40.164063 10.058594 40.191406 10.15625 L 19.734375 14.671875 C 19.730469 14.664063 19.730469 14.65625 19.730469 14.652344 L 17.777344 15.078125 C 18.027344 16.214844 17.335938 17.304688 16.257813 17.550781 C 15.578125 17.707031 14.917969 17.492188 14.449219 17.03125 L 13.351563 15.953125 L 12.8125 17.390625 C 12.574219 18.023438 12.058594 18.511719 11.375 18.667969 C 10.695313 18.824219 10.039063 18.605469 9.570313 18.140625 L 8.46875 17.0625 L 7.929688 18.503906 C 7.695313 19.136719 7.179688 19.625 6.5 19.78125 C 5.417969 20.027344 4.363281 19.355469 4.117188 18.21875 C 3.867188 17.082031 4.550781 15.996094 5.621094 15.746094 L 5.625 15.742188 C 5.628906 15.742188 5.632813 15.742188 5.632813 15.738281 Z M 41.515625 12.101563 C 42.027344 12.511719 42.628906 12.808594 43.28125 12.929688 L 24.789063 44.050781 C 24.183594 45.023438 22.984375 45.292969 22.042969 44.683594 C 21.101563 44.070313 20.816406 42.789063 21.421875 41.8125 C 21.804688 41.199219 22.429688 40.875 23.074219 40.863281 L 24.5625 40.832031 L 23.96875 39.464844 C 23.699219 38.847656 23.722656 38.109375 24.105469 37.496094 C 24.488281 36.878906 25.109375 36.558594 25.75 36.546875 L 27.246094 36.515625 L 26.648438 35.144531 C 26.378906 34.527344 26.40625 33.792969 26.785156 33.175781 C 27.394531 32.199219 28.589844 31.929688 29.53125 32.542969 L 30.625 30.863281 C 30.605469 30.855469 30.589844 30.851563 30.574219 30.839844 Z"/></svg>