<svg fill="#3498db" xmlns="http://www.w3.org/2000/svg" viewBox="0 0 50 50" width="500px" height="500px"><path d="M 25 0 C 23.46875 0 22.011719 0.332031 20.875 1.15625 C 19.738281 1.980469 19 3.347656 19 5 L 19 9.6875 C 18.941406 9.882813 18.941406 10.085938 19 10.28125 L 19 27.6875 C 15.429688 29.765625 13 33.578125 13 38 C 13 44.617188 18.382813 50 25 50 C 31.617188 50 37 44.617188 37 38 C 37 33.578125 34.570313 29.765625 31 27.6875 L 31 27 L 34 27 C 34.359375 27.003906 34.695313 26.816406 34.878906 26.503906 C 35.058594 26.191406 35.058594 25.808594 34.878906 25.496094 C 34.695313 25.183594 34.359375 24.996094 34 25 L 31 25 L 31 23 L 34 23 C 34.359375 23.003906 34.695313 22.816406 34.878906 22.503906 C 35.058594 22.191406 35.058594 21.808594 34.878906 21.496094 C 34.695313 21.183594 34.359375 20.996094 34 21 L 31 21 L 31 19 L 34 19 C 34.359375 19.003906 34.695313 18.816406 34.878906 18.503906 C 35.058594 18.191406 35.058594 17.808594 34.878906 17.496094 C 34.695313 17.183594 34.359375 16.996094 34 17 L 31 17 L 31 15 L 34 15 C 34.359375 15.003906 34.695313 14.816406 34.878906 14.503906 C 35.058594 14.191406 35.058594 13.808594 34.878906 13.496094 C 34.695313 13.183594 34.359375 12.996094 34 13 L 31 13 L 31 11 L 34 11 C 34.359375 11.003906 34.695313 10.816406 34.878906 10.503906 C 35.058594 10.191406 35.058594 9.808594 34.878906 9.496094 C 34.695313 9.183594 34.359375 8.996094 34 9 L 31 9 L 31 5 C 31 3.347656 30.261719 1.980469 29.125 1.15625 C 27.988281 0.332031 26.53125 0 25 0 Z M 25 2 C 26.230469 2 27.265625 2.296875 27.9375 2.78125 C 28.609375 3.265625 29 3.890625 29 5 L 29 9 L 21 9 L 21 5 C 21 3.890625 21.390625 3.265625 22.0625 2.78125 C 22.734375 2.296875 23.769531 2 25 2 Z M 21 11 L 29 11 L 29 13.6875 C 28.941406 13.882813 28.941406 14.085938 29 14.28125 L 29 17.53125 C 28.867188 17.808594 28.867188 18.128906 29 18.40625 L 29 21.53125 C 28.867188 21.808594 28.867188 22.128906 29 22.40625 L 29 25.53125 C 28.867188 25.808594 28.867188 26.128906 29 26.40625 L 29 28.21875 C 29.003906 28.585938 29.207031 28.921875 29.53125 29.09375 C 32.765625 30.75 35 34.109375 35 38 C 35 43.535156 30.535156 48 25 48 C 19.464844 48 15 43.535156 15 38 C 15 34.109375 17.234375 30.75 20.46875 29.09375 C 20.792969 28.921875 20.996094 28.585938 21 28.21875 Z"/></svg>