<svg fill="#3498db" xmlns="http://www.w3.org/2000/svg" viewBox="0 0 50 50" width="500px" height="500px"><path d="M 15 7 C 7.832031 7 2 12.832031 2 20 C 2 34.761719 18.695313 42.046875 24.375 46.78125 L 25 47.3125 L 25.625 46.78125 C 31.304688 42.046875 48 34.761719 48 20 C 48 12.832031 42.167969 7 35 7 C 30.945313 7 27.382813 8.925781 25 11.84375 C 22.617188 8.925781 19.054688 7 15 7 Z M 15 9 C 18.835938 9 22.1875 10.96875 24.15625 13.9375 L 25 15.1875 L 25.84375 13.9375 C 27.8125 10.96875 31.164063 9 35 9 C 41.085938 9 46 13.914063 46 20 C 46 32.898438 31.59375 39.574219 25 44.78125 C 18.40625 39.574219 4 32.898438 4 20 C 4 13.914063 8.914063 9 15 9 Z"/></svg>