<svg fill="#3498db" xmlns="http://www.w3.org/2000/svg" viewBox="0 0 50 50" width="500px" height="500px"><path d="M 28 0 C 23.457031 0 19.617188 3.058594 18.40625 7.21875 C 16.945313 5.261719 14.621094 4 12 4 C 7.59375 4 4 7.59375 4 12 C 4 15.136719 5.832031 17.847656 8.46875 19.15625 C 6.976563 20.246094 6 22.003906 6 24 L 6 36 C 6 39.324219 8.675781 42 12 42 L 16.5 42 L 8.5 50 L 11 50 L 19 42 L 23 42 L 31 50 L 33.5 50 L 25.5 42 L 30 42 C 33.117188 42 35.664063 39.65625 35.96875 36.625 L 44.5625 40.90625 L 46 41.625 L 46 18.375 L 44.5625 19.09375 L 35.96875 23.375 C 35.765625 21.351563 34.574219 19.640625 32.875 18.71875 C 35.925781 17.003906 38 13.738281 38 10 C 38 4.488281 33.511719 0 28 0 Z M 28 2 C 32.429688 2 36 5.570313 36 10 C 36 14.429688 32.429688 18 28 18 C 23.570313 18 20 14.429688 20 10 C 20 5.570313 23.570313 2 28 2 Z M 12 6 C 15.324219 6 18 8.675781 18 12 C 18 15.324219 15.324219 18 12 18 C 8.675781 18 6 15.324219 6 12 C 6 8.675781 8.675781 6 12 6 Z M 19.40625 15.03125 C 20.085938 16.183594 20.964844 17.203125 22.03125 18 L 17.28125 18 C 18.199219 17.195313 18.933594 16.175781 19.40625 15.03125 Z M 12 20 L 30 20 C 32.277344 20 34 21.722656 34 24 L 34 36 C 34 38.277344 32.277344 40 30 40 L 12 40 C 9.722656 40 8 38.277344 8 36 L 8 24 C 8 21.722656 9.722656 20 12 20 Z M 44 21.625 L 44 38.375 L 36 34.375 L 36 25.625 Z M 21 43 L 14 50 L 16.5 50 L 21 45.5 L 25.5 50 L 28 50 Z"/></svg>