<svg fill="#3498db" xmlns="http://www.w3.org/2000/svg" viewBox="0 0 50 50" width="500px" height="500px"><path d="M 39.375 0 C 39.117188 0.0351563 38.878906 0.167969 38.71875 0.375 L 36.53125 3 L 33 3 C 32.449219 3 32 3.449219 32 4 L 32 7.53125 L 29.375 9.71875 C 29.136719 9.910156 29 10.195313 29 10.5 C 29 10.804688 29.136719 11.089844 29.375 11.28125 L 32 13.46875 L 32 17 C 32 17.550781 32.449219 18 33 18 L 36.53125 18 L 38.71875 20.625 C 38.910156 20.863281 39.195313 21 39.5 21 C 39.804688 21 40.089844 20.863281 40.28125 20.625 L 42.46875 18 L 46 18 C 46.550781 18 47 17.550781 47 17 L 47 13.46875 L 49.625 11.28125 C 49.863281 11.089844 50 10.804688 50 10.5 C 50 10.195313 49.863281 9.910156 49.625 9.71875 L 47 7.53125 L 47 4 C 47 3.449219 46.550781 3 46 3 L 42.46875 3 L 40.28125 0.375 C 40.066406 0.101563 39.722656 -0.0429688 39.375 0 Z M 39.5 2.5625 L 41.21875 4.625 C 41.410156 4.863281 41.695313 5 42 5 L 45 5 L 45 8 C 45 8.304688 45.136719 8.589844 45.375 8.78125 L 47.4375 10.5 L 45.375 12.21875 C 45.136719 12.410156 45 12.695313 45 13 L 45 16 L 42 16 C 41.695313 16 41.410156 16.136719 41.21875 16.375 L 39.5 18.4375 L 37.78125 16.375 C 37.589844 16.136719 37.304688 16 37 16 L 34 16 L 34 13 C 34 12.695313 33.863281 12.410156 33.625 12.21875 L 31.5625 10.5 L 33.625 8.78125 C 33.863281 8.589844 34 8.304688 34 8 L 34 5 L 37 5 C 37.304688 5 37.589844 4.863281 37.78125 4.625 Z M 39.5 6 C 37.027344 6 35 8.027344 35 10.5 C 35 12.972656 37.027344 15 39.5 15 C 41.972656 15 44 12.972656 44 10.5 C 44 8.027344 41.972656 6 39.5 6 Z M 39.5 8 C 40.890625 8 42 9.109375 42 10.5 C 42 11.890625 40.890625 13 39.5 13 C 38.109375 13 37 11.890625 37 10.5 C 37 9.109375 38.109375 8 39.5 8 Z M 16.875 18 C 16.554688 18.042969 16.273438 18.242188 16.125 18.53125 L 0.125 48.53125 C -0.0390625 48.839844 -0.03125 49.210938 0.148438 49.511719 C 0.328125 49.8125 0.652344 49.996094 1 50 L 33 50 C 33.03125 50 33.0625 50 33.09375 50 L 49 50 C 49.347656 49.996094 49.671875 49.8125 49.851563 49.511719 C 50.03125 49.210938 50.039063 48.839844 49.875 48.53125 L 36.875 24.53125 C 36.683594 24.164063 36.285156 23.953125 35.875 24 C 35.554688 24.042969 35.273438 24.242188 35.125 24.53125 L 28.03125 37.5625 L 17.875 18.53125 C 17.683594 18.164063 17.285156 17.953125 16.875 18 Z M 17 21.125 L 31.34375 48 L 2.65625 48 Z M 36 27.09375 L 47.34375 48 L 33.59375 48 L 29.125 39.65625 Z"/></svg>