<svg fill="#3498db" xmlns="http://www.w3.org/2000/svg" viewBox="0 0 50 50" width="500px" height="500px"><path d="M 21 4 C 11.623004 4 4 11.623004 4 21 C 4 30.376996 11.623004 38 21 38 C 24.712381 38 28.139151 36.791079 30.9375 34.765625 L 44.085938 47.914062 L 46.914062 45.085938 L 33.886719 32.058594 C 36.443537 29.083001 38 25.223631 38 21 C 38 11.623004 30.376996 4 21 4 z M 21 6 C 29.296116 6 36 12.703884 36 21 C 36 29.296116 29.296116 36 21 36 C 12.703884 36 6 29.296116 6 21 C 6 12.703884 12.703884 6 21 6 z M 13 19 A 2 2 0 0 0 11 21 A 2 2 0 0 0 13 23 A 2 2 0 0 0 15 21 A 2 2 0 0 0 13 19 z M 21 19 A 2 2 0 0 0 19 21 A 2 2 0 0 0 21 23 A 2 2 0 0 0 23 21 A 2 2 0 0 0 21 19 z M 29 19 A 2 2 0 0 0 27 21 A 2 2 0 0 0 29 23 A 2 2 0 0 0 31 21 A 2 2 0 0 0 29 19 z"/></svg>