<?xml version="1.0"?><svg fill="#3498db" xmlns="http://www.w3.org/2000/svg" viewBox="0 0 50 50" width="500px" height="500px">    <path d="M 6 3 C 4.346 3 3 4.346 3 6 L 3 38 C 3 39.654 4.346 41 6 41 L 7 41 L 7 39 L 6 39 C 5.449 39 5 38.551 5 38 L 5 6 C 5 5.449 5.449 5 6 5 L 31.585938 5 L 33.585938 7 L 36.414062 7 L 32.707031 3.2929688 C 32.520031 3.1049687 32.265 3 32 3 L 6 3 z M 17.984375 8.9863281 A 1.0001 1.0001 0 0 0 17.839844 9 L 12 9 C 10.35503 9 9 10.35503 9 12 L 9 44 C 9 45.64497 10.35503 47 12 47 L 44 47 C 45.64497 47 47 45.64497 47 44 L 47 18 A 1.0001 1.0001 0 0 0 46.707031 17.292969 L 38.794922 9.3808594 A 1.0001 1.0001 0 0 0 37.841797 9 L 18.154297 9 A 1.0001 1.0001 0 0 0 17.984375 8.9863281 z M 12 11 L 17 11 L 17 22 C 17 23.64497 18.35503 25 20 25 L 36 25 C 37.64497 25 39 23.64497 39 22 L 39 12.414062 L 45 18.414062 L 45 44 C 45 44.56503 44.56503 45 44 45 L 39 45 L 39 33 C 39 31.354545 37.645455 30 36 30 L 20 30 C 18.354545 30 17 31.354545 17 33 L 17 45 L 12 45 C 11.43497 45 11 44.56503 11 44 L 11 12 C 11 11.43497 11.43497 11 12 11 z M 19 11 L 37 11 L 37 22 C 37 22.56503 36.56503 23 36 23 L 20 23 C 19.43497 23 19 22.56503 19 22 L 19 11 z M 31 13 L 31 21 L 34 21 L 34 13 L 31 13 z M 20 32 L 36 32 C 36.554545 32 37 32.445455 37 33 L 37 45 L 19 45 L 19 33 C 19 32.445455 19.445455 32 20 32 z M 13 41 L 13 43 L 15 43 L 15 41 L 13 41 z M 41 41 L 41 43 L 43 43 L 43 41 L 41 41 z"/></svg>