<svg fill="#3498db" xmlns="http://www.w3.org/2000/svg"  viewBox="0 0 50 50" width="500px" height="500px"><path d="M 23.6875 2.03125 C 23.019531 2.011719 22.375 2.261719 21.84375 2.65625 C 21.3125 3.050781 20.835938 3.570313 20.375 4.21875 C 20.023438 4.714844 19.675781 4.925781 19.0625 5.0625 C 18.449219 5.199219 17.59375 5.1875 16.59375 5.1875 C 15.476563 5.1875 14.667969 5.285156 14 5.53125 C 13.464844 5.726563 12.976563 6.109375 12.71875 6.59375 C 12.707031 6.625 12.695313 6.65625 12.6875 6.6875 C 12.675781 6.710938 12.664063 6.726563 12.65625 6.75 C 12.644531 6.769531 12.632813 6.792969 12.625 6.8125 C 12.605469 6.867188 12.574219 6.914063 12.5625 6.96875 C 12.402344 7.640625 12.628906 8.207031 12.90625 8.65625 C 13.179688 9.097656 13.542969 9.476563 13.90625 9.8125 C 14.324219 10.230469 15.210938 10.988281 16.0625 12.34375 C 16.832031 13.566406 17.390625 15.230469 17.34375 17.21875 C 14.03125 18.230469 10.867188 20.640625 8.4375 23.71875 C 5.800781 27.058594 4 31.132813 4 35.09375 C 4 39.980469 5.53125 43.460938 9 45.4375 C 12.46875 47.414063 17.59375 48 25 48 C 32.40625 48 37.53125 47.414063 41 45.4375 C 44.46875 43.460938 46 39.980469 46 35.09375 C 46 27.53125 40.074219 20.609375 33.25 17.59375 C 33.730469 17.53125 34.226563 17.484375 34.75 17.5 C 36.433594 17.542969 38.230469 18.050781 39.78125 19.6875 C 40.015625 19.988281 40.402344 20.132813 40.777344 20.054688 C 41.148438 19.976563 41.449219 19.691406 41.542969 19.320313 C 41.636719 18.953125 41.511719 18.558594 41.21875 18.3125 C 39.40625 16.394531 37.210938 15.667969 35.25 15.53125 C 36.890625 14.84375 38.777344 14.636719 41.03125 15.875 C 41.347656 16.097656 41.761719 16.117188 42.101563 15.929688 C 42.4375 15.738281 42.632813 15.371094 42.605469 14.984375 C 42.578125 14.597656 42.328125 14.265625 41.96875 14.125 C 40.5625 13.351563 39.226563 13.039063 37.96875 13.03125 C 35.136719 13.015625 32.753906 14.523438 31.1875 15.59375 C 30.960938 11.949219 33.023438 9.042969 33.28125 8.71875 L 33.3125 8.6875 L 33.34375 8.625 C 33.691406 8.078125 34.234375 7.300781 34.46875 6.375 C 34.585938 5.914063 34.652344 5.304688 34.25 4.75 C 33.847656 4.195313 33.167969 4 32.5 4 C 31.25 4 30.121094 4.425781 29.21875 4.59375 C 28.316406 4.761719 27.859375 4.734375 27.40625 4.28125 L 27.40625 4.3125 C 27.398438 4.304688 27.382813 4.320313 27.375 4.3125 C 26.074219 2.960938 25.019531 2.070313 23.6875 2.03125 Z M 23.625 4.03125 C 23.988281 4.042969 24.777344 4.449219 25.96875 5.6875 L 26 5.6875 L 26 5.71875 C 27.046875 6.765625 28.472656 6.738281 29.59375 6.53125 C 30.441406 6.375 31.246094 6.164063 31.90625 6.0625 C 31.917969 6.136719 31.933594 6.140625 31.84375 6.28125 C 31.753906 6.421875 31.546875 6.660156 31.21875 6.9375 C 30.5625 7.492188 29.46875 8.199219 28.3125 9.25 C 27.839844 9.683594 27.277344 9.976563 26.84375 10.03125 C 26.410156 10.085938 26.160156 10 25.875 9.65625 L 25.84375 9.65625 C 25.335938 9.023438 24.878906 8.542969 24.34375 8.21875 C 23.796875 7.886719 23.152344 7.71875 22.5625 7.8125 C 21.394531 7.996094 20.652344 8.835938 19.75 9.6875 L 19.71875 9.6875 L 19.71875 9.65625 C 19.203125 10.140625 18.589844 10.300781 17.65625 9.90625 C 16.867188 9.574219 15.894531 8.742188 14.96875 7.375 C 15.3125 7.28125 15.8125 7.1875 16.59375 7.1875 C 17.59375 7.1875 18.5625 7.210938 19.5 7 C 20.4375 6.789063 21.351563 6.28125 22 5.375 L 22.03125 5.375 C 22.421875 4.824219 22.761719 4.449219 23.03125 4.25 C 23.300781 4.050781 23.445313 4.027344 23.625 4.03125 Z M 22.875 9.8125 C 23 9.792969 23.078125 9.765625 23.3125 9.90625 C 23.546875 10.046875 23.878906 10.359375 24.3125 10.90625 L 24.3125 10.9375 L 24.34375 10.9375 C 25.058594 11.792969 26.128906 12.121094 27.09375 12 C 28.058594 11.878906 28.957031 11.417969 29.6875 10.75 C 29.792969 10.652344 29.894531 10.59375 30 10.5 C 29.328125 12.125 28.796875 14.296875 29.21875 16.78125 C 24.59375 19.027344 20.890625 17.839844 19.46875 17.1875 C 19.507813 15.148438 18.917969 13.398438 18.1875 12.03125 C 19.265625 12.136719 20.324219 11.847656 21.09375 11.125 C 21.984375 10.285156 22.625 9.851563 22.875 9.8125 Z M 30.25 18.5 C 37.164063 20.523438 44 27.84375 44 35.09375 C 44 39.605469 42.886719 42.09375 40.03125 43.71875 C 37.175781 45.34375 32.292969 46 25 46 C 17.707031 46 12.824219 45.34375 9.96875 43.71875 C 7.113281 42.09375 6 39.605469 6 35.09375 C 6 31.753906 7.585938 27.996094 10 24.9375 C 12.382813 21.921875 15.554688 19.617188 18.5 18.90625 C 20.175781 19.660156 24.800781 21.203125 30.25 18.5 Z M 25.25 25 C 21.242188 25 20.25 27.9375 20.25 29.46875 C 20.25 31.253906 20.945313 32.363281 21.25 32.875 L 20 32.875 L 20 33.875 L 21.875 33.875 C 22.007813 34.167969 22.40625 35.140625 22.40625 35.9375 C 22.40625 38.273438 20.308594 39.640625 20 39.84375 L 21.03125 41.28125 C 21.367188 41.0625 22.113281 40.53125 23.21875 40.53125 C 24.746094 40.53125 26.355469 41.40625 27.71875 41.40625 C 29.488281 41.40625 30.5 40.792969 30.9375 40.40625 L 29.96875 38.96875 C 29.703125 39.171875 28.875 39.78125 28.03125 39.78125 C 27.078125 39.78125 25.402344 39.0625 24.09375 39.0625 C 23.066406 39.0625 22.164063 39.558594 21.78125 39.71875 L 21.75 39.65625 C 22.070313 39.390625 24.28125 37.941406 24.28125 35.53125 C 24.28125 34.890625 23.960938 34.109375 23.84375 33.875 L 26.84375 33.875 L 26.84375 32.90625 L 23.375 32.90625 C 23.242188 32.644531 22.21875 31.085938 22.21875 29.53125 C 22.21875 28.890625 22.773438 26.65625 25.375 26.65625 C 28.277344 26.65625 28.53125 29.367188 28.5625 30.65625 L 30.4375 30.65625 C 30.464844 28.765625 29.898438 25 25.25 25 Z"/></svg>