<svg fill="#3498db" xmlns="http://www.w3.org/2000/svg" viewBox="0 0 50 50" width="500px" height="500px"><path d="M 5 4 L 4.1875 4.40625 L 4.03125 5.28125 L 4.65625 5.9375 L 5 6 L 7 6 L 7.8125 5.59375 L 7.96875 4.71875 L 7.34375 4.0625 L 7 4 Z M 11 4 L 10.1875 4.40625 L 10.03125 5.28125 L 10.65625 5.9375 L 11 6 L 13 6 L 13.8125 5.59375 L 13.96875 4.71875 L 13.34375 4.0625 L 13 4 Z M 17 4 L 16.1875 4.40625 L 16.03125 5.28125 L 16.65625 5.9375 L 17 6 L 19 6 L 19.8125 5.59375 L 19.96875 4.71875 L 19.34375 4.0625 L 19 4 Z M 23 4 L 22.1875 4.40625 L 22.03125 5.28125 L 22.65625 5.9375 L 23 6 L 25 6 L 25.8125 5.59375 L 25.96875 4.71875 L 25.34375 4.0625 L 25 4 Z M 29 4 L 28.1875 4.40625 L 28.03125 5.28125 L 28.65625 5.9375 L 29 6 L 31 6 L 31.8125 5.59375 L 31.96875 4.71875 L 31.34375 4.0625 L 31 4 Z M 35 4 L 34.1875 4.40625 L 34.03125 5.28125 L 34.65625 5.9375 L 35 6 L 37 6 L 37.8125 5.59375 L 37.96875 4.71875 L 37.34375 4.0625 L 37 4 Z M 41 4 L 40.1875 4.40625 L 40.03125 5.28125 L 40.65625 5.9375 L 41 6 L 43 6 L 43.8125 5.59375 L 43.96875 4.71875 L 43.34375 4.0625 L 43 4 Z M 44.71875 6.03125 L 44.0625 6.65625 L 44 7 L 44 9 L 44.40625 9.8125 L 45.28125 9.96875 L 45.9375 9.34375 L 46 9 L 46 7 L 45.59375 6.1875 Z M 4.71875 8.03125 L 4.0625 8.65625 L 4 9 L 4 11 L 4.40625 11.8125 L 5.28125 11.96875 L 5.9375 11.34375 L 6 11 L 6 9 L 5.59375 8.1875 Z M 27.71875 10 C 27.269531 10.078125 26.929688 10.453125 26.890625 10.910156 C 26.855469 11.363281 27.132813 11.785156 27.5625 11.9375 C 27.59375 11.949219 27.625 11.960938 27.65625 11.96875 C 27.769531 12 27.882813 12.007813 28 12 L 36.59375 12 L 26.78125 21.78125 L 24.5625 24 L 4 24 L 4 46 L 26 46 L 26 25.4375 L 38 13.40625 L 38 22 C 37.992188 22.308594 38.128906 22.601563 38.367188 22.796875 C 38.601563 22.992188 38.917969 23.066406 39.21875 23 C 39.320313 22.972656 39.414063 22.929688 39.5 22.875 C 39.519531 22.867188 39.542969 22.855469 39.5625 22.84375 C 39.621094 22.796875 39.671875 22.746094 39.71875 22.6875 C 39.898438 22.503906 39.996094 22.257813 40 22 L 40 10 L 28 10 C 27.96875 10 27.9375 10 27.90625 10 C 27.875 10 27.84375 10 27.8125 10 C 27.78125 10 27.75 10 27.71875 10 Z M 44.71875 12.03125 L 44.0625 12.65625 L 44 13 L 44 15 L 44.40625 15.8125 L 45.28125 15.96875 L 45.9375 15.34375 L 46 15 L 46 13 L 45.59375 12.1875 Z M 4.71875 14.03125 L 4.0625 14.65625 L 4 15 L 4 17 L 4.40625 17.8125 L 5.28125 17.96875 L 5.9375 17.34375 L 6 17 L 6 15 L 5.59375 14.1875 Z M 44.71875 18.03125 L 44.0625 18.65625 L 44 19 L 44 21 L 44.40625 21.8125 L 45.28125 21.96875 L 45.9375 21.34375 L 46 21 L 46 19 L 45.59375 18.1875 Z M 4.71875 20.03125 L 4.0625 20.65625 L 4 21 L 4 23 L 4.40625 23.8125 L 5.28125 23.96875 L 5.9375 23.34375 L 6 23 L 6 21 L 5.59375 20.1875 Z M 44.71875 24.03125 L 44.0625 24.65625 L 44 25 L 44 27 L 44.40625 27.8125 L 45.28125 27.96875 L 45.9375 27.34375 L 46 27 L 46 25 L 45.59375 24.1875 Z M 6 26 L 24 26 L 24 44 L 6 44 Z M 44.71875 30.03125 L 44.0625 30.65625 L 44 31 L 44 33 L 44.40625 33.8125 L 45.28125 33.96875 L 45.9375 33.34375 L 46 33 L 46 31 L 45.59375 30.1875 Z M 44.71875 36.03125 L 44.0625 36.65625 L 44 37 L 44 39 L 44.40625 39.8125 L 45.28125 39.96875 L 45.9375 39.34375 L 46 39 L 46 37 L 45.59375 36.1875 Z M 44.71875 42.03125 L 44.0625 42.65625 L 44 43 L 44 45 L 44.40625 45.8125 L 45.28125 45.96875 L 45.9375 45.34375 L 46 45 L 46 43 L 45.59375 42.1875 Z M 27 44 L 26.1875 44.40625 L 26.03125 45.28125 L 26.65625 45.9375 L 27 46 L 29 46 L 29.8125 45.59375 L 29.96875 44.71875 L 29.34375 44.0625 L 29 44 Z M 33 44 L 32.1875 44.40625 L 32.03125 45.28125 L 32.65625 45.9375 L 33 46 L 35 46 L 35.8125 45.59375 L 35.96875 44.71875 L 35.34375 44.0625 L 35 44 Z M 39 44 L 38.1875 44.40625 L 38.03125 45.28125 L 38.65625 45.9375 L 39 46 L 41 46 L 41.8125 45.59375 L 41.96875 44.71875 L 41.34375 44.0625 L 41 44 Z"/></svg>