<svg fill="#3498db" xmlns="http://www.w3.org/2000/svg" viewBox="0 0 50 50" width="500px" height="500px"><path d="M 0.90625 -0.03125 C 0.863281 -0.0234375 0.820313 -0.0117188 0.78125 0 C 0.40625 0.0664063 0.105469 0.339844 0 0.703125 C -0.105469 1.070313 0.00390625 1.460938 0.28125 1.71875 L 48.28125 49.71875 C 48.679688 50.117188 49.320313 50.117188 49.71875 49.71875 C 50.117188 49.320313 50.117188 48.679688 49.71875 48.28125 L 43.4375 42 L 44.3125 42 C 47.414063 42 50 39.414063 50 36.3125 L 50 13.6875 C 50 10.585938 47.414063 8 44.3125 8 L 36.59375 8 L 35 5.40625 C 34.101563 3.90625 32.488281 3 30.6875 3 L 19.3125 3 C 17.613281 3 15.898438 3.90625 15 5.40625 L 13.40625 8 L 9.4375 8 L 1.71875 0.28125 C 1.511719 0.0585938 1.210938 -0.0546875 0.90625 -0.03125 Z M 19.3125 5 L 30.8125 5 C 31.8125 5 32.804688 5.601563 33.40625 6.5 L 35.5 10 L 44.40625 10 C 46.40625 10 48.09375 11.6875 48.09375 13.6875 L 48.09375 36.3125 C 48.09375 38.3125 46.40625 40 44.40625 40 L 41.4375 40 L 34.8125 33.375 C 36.789063 31.140625 38 28.183594 38 25 C 38 17.800781 32.199219 12 25 12 C 21.816406 12 18.855469 13.210938 16.5625 15.125 L 11.4375 10 L 14.59375 10 L 16.6875 6.5 C 17.1875 5.601563 18.210938 5 19.3125 5 Z M 3.8125 8.3125 C 1.613281 9.113281 0 11.1875 0 13.6875 L 0 36.3125 C 0 39.414063 2.585938 42 5.6875 42 L 37.5 42 L 35.5 40 L 5.6875 40 C 3.6875 40 2 38.3125 2 36.3125 L 2 13.6875 C 2 11.6875 3.601563 10.101563 5.5 10 Z M 25 13.90625 C 31.101563 13.90625 36 18.804688 36 24.90625 C 36 27.59375 34.988281 29.996094 33.375 31.9375 L 31.6875 30.25 C 32.808594 28.796875 33.5 26.976563 33.5 25 C 33.5 20.300781 29.699219 16.5 25 16.5 C 23.023438 16.5 21.203125 17.191406 19.75 18.3125 L 17.9375 16.5 C 19.847656 14.894531 22.320313 13.90625 25 13.90625 Z M 13.8125 18.3125 C 12.613281 20.3125 11.90625 22.5 11.90625 25 C 12.007813 32.199219 17.800781 38 25 38 C 27.398438 38 29.6875 37.292969 31.6875 36.09375 L 30.1875 34.59375 C 28.6875 35.492188 26.898438 36 25 36 C 18.898438 36 14 31.101563 14 25 C 14 23.101563 14.511719 21.3125 15.3125 19.8125 Z M 25 18.5 C 28.601563 18.5 31.5 21.398438 31.5 25 C 31.5 26.453125 31.007813 27.746094 30.25 28.8125 L 21.15625 19.71875 C 22.226563 18.945313 23.535156 18.5 25 18.5 Z M 17.09375 21.59375 C 16.695313 22.59375 16.40625 23.804688 16.40625 24.90625 C 16.507813 29.707031 20.300781 33.5 25 33.5 C 26.199219 33.5 27.3125 33.3125 28.3125 32.8125 L 26.6875 31.1875 C 26.085938 31.386719 25.507813 31.5 24.90625 31.5 C 21.304688 31.5 18.40625 28.601563 18.40625 25 C 18.40625 24.398438 18.488281 23.789063 18.6875 23.1875 Z"/></svg>